<?xml version="1.0" encoding="utf-8"?>
<svg viewBox="31.666 31.649 36.668 36.701" width="36.668" height="36.701" xmlns="http://www.w3.org/2000/svg">
  <defs>
    <style>.B{stroke:none}.C{fill:#fff}.D{font-size:13.656px}.E{fill:#d7e3bf}</style>
  </defs>
  <path d="M39.08 31.649h21.907c4.044 0 7.347 3.373 7.347 7.421v21.926a7.37 7.37 0 0 1-7.347 7.354H39.08c-4.044 0-7.414-3.306-7.414-7.354V39.07c0-4.048 3.37-7.421 7.414-7.421h0z" fill="#6abd46" class="B" transform="matrix(1, 0, 0, 1, 0, 3.552713678800501e-15)"/>
  <path d="M37.597 42.444v1.079h7.549v-1.079h-7.549 0z" transform="matrix(1, 0, 0, 1, 0, 3.552713678800501e-15)"/>
  <path d="M37.597 42.444v1.079h7.549v-1.079h-7.549 0z" transform="matrix(1, 0, 0, 1, 8.628000387966644, 3.552713678800501e-15)"/>
  <path d="M37.597 42.444v1.079h7.549v-1.079h-7.549 0z" transform="matrix(1, 0, 0, 1, 17.25600077593328, 3.552713678800501e-15)"/>
  <path d="M41.911 44.603v2.159h7.549v-2.159h-7.549 0z" transform="matrix(1, 0, 0, 1, 0, 3.552713678800501e-15)"/>
  <path d="M41.911 44.603v2.159h7.549v-2.159h-7.549 0z" transform="matrix(1, 0, 0, 1, 8.628000387966644, 3.552713678800501e-15)"/>
  <path d="M37.598 44.603v2.159h3.235v-2.159h-3.235 0z" transform="matrix(1, 0, 0, 1, 0, 3.552713678800501e-15)"/>
  <path d="M37.598 44.603v2.159h3.235v-2.159h-3.235 0z" transform="matrix(1, 0, 0, 1, 21.56900056554378, 3.552713678800501e-15)"/>
  <path d="M37.597 42.444v1.079h7.549v-1.079h-7.549 0z" transform="matrix(1, 0, 0, 1, 0, 5.396999916389586)"/>
  <path d="M37.597 42.444v1.079h7.549v-1.079h-7.549 0z" transform="matrix(1, 0, 0, 1, 8.628000387966644, 5.396999916389586)"/>
  <path d="M37.597 42.444v1.079h7.549v-1.079h-7.549 0z" transform="matrix(1, 0, 0, 1, 17.25600077593328, 5.396999916389586)"/>
  <path d="M41.911 50v2.159h7.549V50h-7.549 0z" class="C" transform="matrix(1, 0, 0, 1, 0, 3.552713678800501e-15)"/>
  <path d="M50.539 50v2.159h7.549V50h-7.549 0z" class="C" transform="matrix(1, 0, 0, 1, 0, 3.552713678800501e-15)"/>
  <path d="M37.598 50v2.159h3.235V50h-3.235 0z" class="C" transform="matrix(1, 0, 0, 1, 0, 3.552713678800501e-15)"/>
  <path d="M59.167 50v2.159h3.235V50h-3.235 0z" class="C" transform="matrix(1, 0, 0, 1, 0, 3.552713678800501e-15)"/>
  <path d="M37.597 42.444v1.079h7.549v-1.079h-7.549 0z" transform="matrix(1, 0, 0, 1, 0, 10.793999832779168)"/>
  <path d="M37.597 42.444v1.079h7.549v-1.079h-7.549 0z" transform="matrix(1, 0, 0, 1, 8.628000387966644, 10.793999832779168)"/>
  <path d="M37.597 42.444v1.079h7.549v-1.079h-7.549 0z" transform="matrix(1, 0, 0, 1, 17.25600077593328, 10.793999832779168)"/>
  <path d="M41.911 44.603v2.159h7.549v-2.159h-7.549 0z" transform="matrix(1, 0, 0, 1, 0, 10.793999832779168)"/>
  <path d="M41.911 44.603v2.159h7.549v-2.159h-7.549 0z" transform="matrix(1, 0, 0, 1, 8.628000387966644, 10.793999832779168)"/>
  <path d="M37.598 44.603v2.159h3.235v-2.159h-3.235 0z" transform="matrix(1, 0, 0, 1, 0, 10.793999832779168)"/>
  <path d="M37.598 44.603v2.159h3.235v-2.159h-3.235 0z" transform="matrix(1, 0, 0, 1, 21.56900056554378, 10.793999832779168)"/>
</svg>