<?xml version="1.0" encoding="utf-8"?>
<svg viewBox="31.666 31.649 36.668 36.701" width="64" height="64" xmlns="http://www.w3.org/2000/svg">
  <defs>
    <style>.B{stroke:none}.C{fill:#fff}.D{font-size:13.617px}.E{fill:#d7e3bf}</style>
  </defs>
  <path d="M39.08 31.649h21.907c4.044 0 7.347 3.373 7.347 7.421v21.926a7.37 7.37 0 0 1-7.347 7.354H39.08c-4.044 0-7.414-3.306-7.414-7.354V39.07c0-4.048 3.37-7.421 7.414-7.421h0z" fill="#6abd46" class="B"/>
  <path d="M35.642 46.492H63.75l-1.618 1.619c-.27.27-.27.742 0 1.012l.135.067a.65.65 0 0 0 .944 0l2.696-2.833c.068 0 .068-.068.135-.135s.135-.27.135-.472v-.135c0-.202-.067-.405-.202-.54-.068 0-.068 0-.068-.068l-2.696-2.766c-.27-.337-.674-.337-.944 0l-.135.068c-.27.27-.27.742 0 1.012l1.55 1.619h-28.04c-.404 0-.741.337-.741.675v.135a.75.75 0 0 0 .741.742h0z" class="C"/>
  <path d="M64.425 54.654H36.317l1.617-1.619c.27-.27.27-.742 0-1.012l-.135-.135a.65.65 0 0 0-.944 0l-2.764 2.833c0 .068 0 .135-.067.203-.135.068-.202.27-.202.472v.135c0 .202.135.405.27.54l2.764 2.834a.65.65 0 0 0 .944 0l.135-.068c.27-.27.27-.742 0-1.012l-1.617-1.619h28.107c.405 0 .674-.337.674-.675v-.135c0-.405-.269-.742-.674-.742h0z" class="C"/>
  <path d="M50 39.745c-5.932 0-10.785 4.588-10.785 10.255 0 5.735 4.853 10.255 10.785 10.255 5.999 0 10.785-4.52 10.785-10.255 0-5.667-4.786-10.255-10.785-10.255h0zM50 58.5c-4.921 0-8.897-3.778-8.897-8.501 0-4.655 3.977-8.433 8.897-8.433 4.988 0 8.965 3.778 8.965 8.433 0 4.722-3.977 8.501-8.965 8.501h0z" class="C"/>
</svg>