<?xml version="1.0" encoding="utf-8"?>
<svg viewBox="31.666 31.649 36.668 36.701" width="36.668" height="36.701" xmlns="http://www.w3.org/2000/svg">
  <defs>
    <style>.B{stroke:none}.C{fill:#fff}.D{font-size:13.656px}.E{fill:#d7e3bf}.F{stroke-dasharray: none}.G{stroke-linecap: round}.H{stroke-linejoin: round}.I{stroke-width:2.155}</style>
  </defs>
  <path d="M39.08 31.649h21.907c4.044 0 7.347 3.373 7.347 7.421v21.926a7.37 7.37 0 0 1-7.347 7.354H39.08c-4.044 0-7.414-3.306-7.414-7.354V39.07c0-4.048 3.37-7.421 7.414-7.421h0z" fill="#6abd46" class="B" transform="matrix(0.9999999999999999, 0, 0, 0.9999999999999999, 0, 0)"/>
  <path d="M56.74 64.032H43.327c-.742 0-1.416-.607-1.416-1.349V37.384c0-.742.674-1.417 1.416-1.417H56.74c.742 0 1.348.675 1.348 1.417v25.299c0 .742-.606 1.349-1.348 1.349h0z" fill="none" stroke="#fff" class="F G H I" transform="matrix(0.9999999999999999, 0, 0, 0.9999999999999999, 0, 0)"/>
  <path d="M41.911 43.524h16.177" fill="none" stroke="#fff" class="F G H I" transform="matrix(0.9999999999999999, 0, 0, 0.9999999999999999, 0, 0)"/>
  <path d="M50.606 45.682v2.159H49.46v-2.159c-.607.337-1.078 1.147-1.078 2.091 0 1.214.742 2.226 1.685 2.226.876 0 1.55-1.012 1.55-2.226 0-.944-.405-1.754-1.011-2.091h0z" class="C" transform="matrix(0.9999999999999999, 0, 0, 0.9999999999999999, 0, 0)"/>
</svg>