<?xml version="1.0" encoding="utf-8"?>
<svg viewBox="31.666 31.649 36.668 36.701" width="36.668" height="36.701" xmlns="http://www.w3.org/2000/svg">
  <defs>
    <style>.B{stroke:none}.C{fill:#fff}.D{font-size:13.656px}.E{fill:#d7e3bf}</style>
  </defs>
  <path d="M39.08 31.649h21.907c4.044 0 7.347 3.373 7.347 7.421v21.926a7.37 7.37 0 0 1-7.347 7.354H39.08c-4.044 0-7.414-3.306-7.414-7.354V39.07c0-4.048 3.37-7.421 7.414-7.421h0z" fill="#6abd46" class="B" transform="matrix(0.9999999999999999, 0, 0, 0.9999999999999999, 0, 0)"/>
  <path d="M50 39.206c-5.325 0-10.785 1.214-10.785 3.508v14.64c0 2.294 5.46 3.441 10.785 3.441 5.392 0 10.785-1.147 10.785-3.441v-14.64c0-2.294-5.392-3.508-10.785-3.508h0zm0 1.417c5.73 0 9.302 1.349 9.302 2.091S55.999 44.805 50 44.805c-5.932 0-9.234-1.349-9.234-2.091S44.27 40.623 50 40.623h0zm0 18.823c-5.932 0-9.234-1.417-9.234-2.092V44.603c2.022 1.012 5.662 1.552 9.234 1.552 3.64 0 7.28-.54 9.302-1.552v12.751c0 .675-3.303 2.092-9.302 2.092h0z" class="C" transform="matrix(0.9999999999999999, 0, 0, 0.9999999999999999, 0, 0)"/>
  <path d="M39.215 52.159c0 2.901 5.46 4.318 10.785 4.318 5.392 0 10.785-1.417 10.785-4.318h-1.483c0 .945-3.303 2.631-9.302 2.631-5.932 0-9.234-1.686-9.234-2.631h0-1.55z" class="C" transform="matrix(0.9999999999999999, 0, 0, 0.9999999999999999, 0, 0)"/>
  <path d="M39.215 47.841c0 2.159 5.46 3.238 10.785 3.238 5.392 0 10.785-1.079 10.785-3.238h-1.483c0 .675-3.303 2.024-9.302 2.024-5.932 0-9.234-1.349-9.234-2.024h0-1.55z" class="C" transform="matrix(0.9999999999999999, 0, 0, 0.9999999999999999, 0, 0)"/>
</svg>