<?xml version="1.0" encoding="utf-8"?>
<svg viewBox="31.666 31.65 36.668 36.701" width="36.668" height="36.701" xmlns="http://www.w3.org/2000/svg">
  <defs>
    <style>.B{stroke:none}.C{fill:#fff}.D{font-size:13.637px}.E{fill:#d7e3bf}.F{stroke-dasharray: none}.G{stroke-linecap: round}.H{stroke-linejoin: round}.I{stroke-width:3.228}</style>
  </defs>
  <path d="M39.08 31.65h21.907c4.044 0 7.347 3.373 7.347 7.421v21.926a7.37 7.37 0 0 1-7.347 7.354H39.08c-4.044 0-7.414-3.306-7.414-7.354V39.071c0-4.048 3.37-7.421 7.414-7.421h0z" fill="#6abd46" class="B" transform="matrix(1, 0, 0, 1, 1.7763568394002505e-15, -1.7763568394002505e-15)"/>
  <path d="M43.529 52.159v.135.067.135h3.438v2.631h-3.438v.135.135h0 7.28v2.698h-7.28v.068.202h0 3.438v2.631h-3.438v.135.202.068h7.28v2.631h.269v-2.631h7.415v2.631h.269v-2.631h7.415v-.068-.202-.135h-3.505v-2.631h3.505 0v-.202-.068h-7.415v-2.698h7.415 0v-.135-.135h-3.505v-2.631h3.505v-.135-.067-.135H43.529h0zm3.707.337h7.414v2.631h-7.414v-2.631h0zm0 5.87h7.414v2.631h-7.414v-2.631h0zm15.098 2.631H54.92v-2.631h7.414v2.631h0zm-3.842-2.901h-7.415v-2.698h7.415v2.698h0zm3.842-2.968H54.92v-2.631h7.414v2.631h0z" class="C" transform="matrix(1, 0, 0, 1, 1.7763568394002505e-15, -1.7763568394002505e-15)"/>
  <path d="M55.595 35.967c-2.966 0-5.325 2.361-5.325 5.33 0 2.901 2.359 5.262 5.325 5.262 2.898 0 5.19-2.361 5.19-5.262 0-2.968-2.292-5.33-5.19-5.33h0zm0 9.243c-2.224 0-4.044-1.754-4.044-3.913a4.06 4.06 0 0 1 4.044-4.048c2.157 0 3.909 1.822 3.909 4.048 0 2.159-1.753 3.913-3.909 3.913h0zm-6.74.742l-2.561 2.631c-.607.54-.607 1.417 0 1.956.472.54 1.416.54 1.955 0l2.629-2.564a1.47 1.47 0 0 0 0-2.024c-.607-.54-1.483-.54-2.022 0h0z" class="C" transform="matrix(1, 0, 0, 1, 1.7763568394002505e-15, -1.7763568394002505e-15)"/>
  <path d="M34.362 57.623l3.168 2.631 4.381-5.397" fill="none" stroke="#fff" class="F G H I" transform="matrix(1, 0, 0, 1, 1.7763568394002505e-15, -1.7763568394002505e-15)"/>
  <path d="M40.293 39.206l-5.392 5.397 5.392-5.397h0z" fill="#0b1b30" class="C" transform="matrix(1, 0, 0, 1, 1.7763568394002505e-15, -1.7763568394002505e-15)"/>
  <path d="M40.833 39.745l-5.392 5.397" fill="none" stroke="#fff" class="F G H I" transform="matrix(1, 0, 0, 1, 1.7763568394002505e-15, -1.7763568394002505e-15)"/>
  <path d="M34.901 39.206l5.392 5.397-5.392-5.397h0z" fill="#0b1b30" class="B" transform="matrix(1, 0, 0, 1, 1.7763568394002505e-15, -1.7763568394002505e-15)"/>
  <path d="M35.441 39.745l5.392 5.397" fill="none" stroke="#fff" class="F G H I" transform="matrix(1, 0, 0, 1, 1.7763568394002505e-15, -1.7763568394002505e-15)"/>
  <path d="M43.529 33.808v32.383h1.079V33.808h-1.079 0z" class="C" transform="matrix(1, 0, 0, 1, 1.7763568394002505e-15, -1.7763568394002505e-15)"/>
  <path d="M33.823 50v1.079h9.706V50h-9.706 0z" class="C" transform="matrix(1, 0, 0, 1, 1.7763568394002505e-15, -1.7763568394002505e-15)"/>
</svg>