<?xml version="1.0" encoding="UTF-8"?>
<!-- Do not edit this file with editors other than draw.io -->
<!DOCTYPE svg PUBLIC "-//W3C//DTD SVG 1.1//EN" "http://www.w3.org/Graphics/SVG/1.1/DTD/svg11.dtd">
<svg xmlns="http://www.w3.org/2000/svg" xmlns:xlink="http://www.w3.org/1999/xlink" version="1.1" width="49px" height="49px" viewBox="-0.5 -0.5 49 49" content="&lt;mxfile host=&quot;app.diagrams.net&quot; modified=&quot;2023-11-13T09:46:34.487Z&quot; agent=&quot;Mozilla/5.0 (Windows NT 10.0; Win64; x64) AppleWebKit/537.36 (KHTML, like Gecko) Chrome/119.0.0.0 Safari/537.36&quot; etag=&quot;BmIxAFEr7FMs4Q0EAD8D&quot; version=&quot;22.1.0&quot; type=&quot;device&quot;&gt;&#10;  &lt;diagram name=&quot;페이지-1&quot; id=&quot;AW3kfpiaLIK3EqUbXKlc&quot;&gt;&#10;    &lt;mxGraphModel dx=&quot;292&quot; dy=&quot;157&quot; grid=&quot;1&quot; gridSize=&quot;10&quot; guides=&quot;1&quot; tooltips=&quot;1&quot; connect=&quot;1&quot; arrows=&quot;1&quot; fold=&quot;1&quot; page=&quot;1&quot; pageScale=&quot;1&quot; pageWidth=&quot;827&quot; pageHeight=&quot;1169&quot; math=&quot;0&quot; shadow=&quot;0&quot;&gt;&#10;      &lt;root&gt;&#10;        &lt;mxCell id=&quot;0&quot; /&gt;&#10;        &lt;mxCell id=&quot;1&quot; parent=&quot;0&quot; /&gt;&#10;        &lt;mxCell id=&quot;_niekT0tynacapAUr5bP-64&quot; value=&quot;&quot; style=&quot;sketch=0;outlineConnect=0;fontColor=#232F3E;gradientColor=none;fillColor=#ED7100;strokeColor=none;dashed=0;verticalLabelPosition=bottom;verticalAlign=top;align=center;html=1;fontSize=12;fontStyle=0;aspect=fixed;pointerEvents=1;shape=mxgraph.aws4.optimized_instance;&quot; vertex=&quot;1&quot; parent=&quot;1&quot;&gt;&#10;          &lt;mxGeometry x=&quot;470&quot; y=&quot;150&quot; width=&quot;48&quot; height=&quot;48&quot; as=&quot;geometry&quot; /&gt;&#10;        &lt;/mxCell&gt;&#10;      &lt;/root&gt;&#10;    &lt;/mxGraphModel&gt;&#10;  &lt;/diagram&gt;&#10;&lt;/mxfile&gt;&#10;"><defs/><g><rect x="-1" y="0" width="48" height="48" fill="none" stroke="none" pointer-events="all"/><path d="M 22.65 32.87 L 22.65 31.04 C 24.43 31.6 26.24 32.02 28.13 32.01 C 29.78 31.94 31.83 30.73 31.79 28.48 C 31.66 26.16 30.24 25.21 28.6 25.1 C 27.59 25.03 26.41 25.1 25.16 25.21 L 25.16 23.55 L 30.93 17.29 L 22.89 17.29 L 22.89 15.34 L 33.63 15.34 L 33.63 17.31 L 28.07 23.17 C 30.82 23.16 32.48 23.87 33.52 25.43 C 35.39 28.34 34.25 31.47 31.92 33.01 C 29.44 34.47 25.71 34.43 22.65 32.87 Z M 20.68 33.06 C 19.06 33.83 16.88 34.13 14.83 33.93 C 10.02 33.49 8.56 30.7 7.68 28.17 C 6.95 25.17 7.08 21.06 8.87 18.34 C 10.02 16.63 11.84 15.46 14.97 15.12 C 17.09 14.85 18.74 15.25 20.41 15.79 L 20.41 17.88 C 19.2 17.44 17.75 17.15 15.98 17.19 C 13.03 17.49 11.43 18.39 10.45 20.89 C 9.79 22.71 9.93 26.15 10.4 27.98 C 10.9 29.77 12.14 31.29 15 31.69 C 17.66 31.96 19.18 31.51 20.68 31.1 Z M 5.46 1.85 L 40.54 1.85 C 43.11 1.85 45.14 3.88 45.14 6.45 L 45.14 41.55 C 45.14 44.12 43.11 46.15 40.54 46.15 L 5.46 46.15 C 2.89 46.15 0.86 44.12 0.86 41.55 L 0.86 6.45 C 0.86 3.88 2.89 1.85 5.46 1.85 Z M 5.46 0 C 1.9 0 -0.99 2.89 -0.99 6.45 L -0.99 41.55 C -0.99 45.11 1.9 48 5.46 48 L 40.54 48 C 44.1 48 46.99 45.11 46.99 41.55 L 46.99 6.45 C 46.99 2.89 44.1 0 40.54 0 Z" fill="#ed7100" stroke="none" pointer-events="all"/></g></svg>