<?xml version="1.0" encoding="UTF-8"?>
<!-- Do not edit this file with editors other than draw.io -->
<!DOCTYPE svg PUBLIC "-//W3C//DTD SVG 1.1//EN" "http://www.w3.org/Graphics/SVG/1.1/DTD/svg11.dtd">
<svg xmlns="http://www.w3.org/2000/svg" xmlns:xlink="http://www.w3.org/1999/xlink" version="1.1" width="49px" height="49px" viewBox="-0.5 -0.5 49 49" content="&lt;mxfile host=&quot;app.diagrams.net&quot; modified=&quot;2023-11-13T09:35:52.645Z&quot; agent=&quot;Mozilla/5.0 (Windows NT 10.0; Win64; x64) AppleWebKit/537.36 (KHTML, like Gecko) Chrome/119.0.0.0 Safari/537.36&quot; etag=&quot;Fg-EbOrq55VJARhcsVOI&quot; version=&quot;22.1.0&quot; type=&quot;device&quot;&gt;&#10;  &lt;diagram name=&quot;페이지-1&quot; id=&quot;AW3kfpiaLIK3EqUbXKlc&quot;&gt;&#10;    &lt;mxGraphModel dx=&quot;292&quot; dy=&quot;157&quot; grid=&quot;1&quot; gridSize=&quot;10&quot; guides=&quot;1&quot; tooltips=&quot;1&quot; connect=&quot;1&quot; arrows=&quot;1&quot; fold=&quot;1&quot; page=&quot;1&quot; pageScale=&quot;1&quot; pageWidth=&quot;827&quot; pageHeight=&quot;1169&quot; math=&quot;0&quot; shadow=&quot;0&quot;&gt;&#10;      &lt;root&gt;&#10;        &lt;mxCell id=&quot;0&quot; /&gt;&#10;        &lt;mxCell id=&quot;1&quot; parent=&quot;0&quot; /&gt;&#10;        &lt;mxCell id=&quot;_niekT0tynacapAUr5bP-15&quot; value=&quot;&quot; style=&quot;sketch=0;outlineConnect=0;fontColor=#232F3E;gradientColor=none;fillColor=#ED7100;strokeColor=none;dashed=0;verticalLabelPosition=bottom;verticalAlign=top;align=center;html=1;fontSize=12;fontStyle=0;aspect=fixed;pointerEvents=1;shape=mxgraph.aws4.ec2_c6i_instance;&quot; vertex=&quot;1&quot; parent=&quot;1&quot;&gt;&#10;          &lt;mxGeometry x=&quot;490&quot; y=&quot;160&quot; width=&quot;48&quot; height=&quot;48&quot; as=&quot;geometry&quot; /&gt;&#10;        &lt;/mxCell&gt;&#10;      &lt;/root&gt;&#10;    &lt;/mxGraphModel&gt;&#10;  &lt;/diagram&gt;&#10;&lt;/mxfile&gt;&#10;"><defs/><g><rect x="0" y="0" width="48" height="48" fill="none" stroke="none" pointer-events="all"/><path d="M 7.64 40.36 L 40.36 40.36 L 40.36 7.64 L 7.64 7.64 Z M 42.55 12 L 42.55 16.36 L 48 16.36 L 48 18.55 L 42.55 18.55 L 42.55 22.91 L 48 22.91 L 48 25.09 L 42.55 25.09 L 42.55 29.45 L 48 29.45 L 48 31.64 L 42.55 31.64 L 42.55 36 L 48 36 L 48 38.18 L 42.55 38.18 L 42.55 41.45 C 42.55 42.06 42.06 42.55 41.45 42.55 L 38.18 42.55 L 38.18 48 L 36 48 L 36 42.55 L 31.64 42.55 L 31.64 48 L 29.45 48 L 29.45 42.55 L 25.09 42.55 L 25.09 48 L 22.91 48 L 22.91 42.55 L 18.55 42.55 L 18.55 48 L 16.36 48 L 16.36 42.55 L 12 42.55 L 12 48 L 9.82 48 L 9.82 42.55 L 6.55 42.55 C 5.94 42.55 5.45 42.06 5.45 41.45 L 5.45 38.18 L 0 38.18 L 0 36 L 5.45 36 L 5.45 31.64 L 0 31.64 L 0 29.45 L 5.45 29.45 L 5.45 25.09 L 0 25.09 L 0 22.91 L 5.45 22.91 L 5.45 18.55 L 0 18.55 L 0 16.36 L 5.45 16.36 L 5.45 12 L 0 12 L 0 9.82 L 5.45 9.82 L 5.45 6.55 C 5.45 5.94 5.94 5.45 6.55 5.45 L 9.82 5.45 L 9.82 0 L 12 0 L 12 5.45 L 16.36 5.45 L 16.36 0 L 18.55 0 L 18.55 5.45 L 22.91 5.45 L 22.91 0 L 25.09 0 L 25.09 5.45 L 29.45 5.45 L 29.45 0 L 31.64 0 L 31.64 5.45 L 36 5.45 L 36 0 L 38.18 0 L 38.18 5.45 L 41.45 5.45 C 42.06 5.45 42.55 5.94 42.55 6.55 L 42.55 9.82 L 48 9.82 L 48 12 Z M 31.77 29.16 L 33.57 29.16 L 33.57 21.39 L 31.77 21.39 Z M 32.67 20.1 C 33.01 20.1 33.27 20.01 33.47 19.83 C 33.66 19.64 33.76 19.39 33.76 19.06 C 33.76 18.74 33.66 18.48 33.47 18.3 C 33.27 18.12 33.01 18.03 32.67 18.03 C 32.34 18.03 32.07 18.12 31.88 18.3 C 31.69 18.48 31.59 18.74 31.59 19.06 C 31.59 19.39 31.69 19.64 31.88 19.83 C 32.07 20.01 32.34 20.1 32.67 20.1 Z M 24.55 24.68 C 24.62 26.85 25.32 27.94 26.67 27.94 C 27.21 27.94 27.64 27.77 27.95 27.43 C 28.26 27.1 28.41 26.63 28.41 26.03 C 28.41 25.42 28.25 24.95 27.93 24.63 C 27.62 24.31 27.15 24.15 26.55 24.15 C 25.89 24.15 25.22 24.33 24.55 24.68 Z M 23.67 28.09 C 23.02 27.22 22.7 25.95 22.7 24.26 C 22.7 22.38 23.08 20.93 23.85 19.89 C 24.62 18.85 25.7 18.33 27.1 18.33 C 27.54 18.33 27.98 18.38 28.42 18.48 C 28.86 18.57 29.24 18.7 29.56 18.87 L 29.56 20.19 C 29.25 20.07 28.89 19.97 28.48 19.9 C 28.11 19.82 27.73 19.79 27.35 19.78 C 26.44 19.78 25.76 20.09 25.3 20.7 C 24.85 21.31 24.6 22.25 24.55 23.52 C 25.35 23 26.21 22.74 27.12 22.74 C 28.06 22.74 28.82 23.03 29.4 23.61 C 29.97 24.18 30.26 24.95 30.26 25.91 C 30.26 26.58 30.11 27.18 29.81 27.7 C 29.51 28.22 29.08 28.64 28.51 28.94 C 27.95 29.24 27.29 29.39 26.53 29.39 C 25.27 29.39 24.32 28.95 23.67 28.09 Z M 15.19 28 C 14.33 27.1 13.9 25.78 13.9 24.03 C 13.9 22.23 14.35 20.84 15.24 19.87 C 16.13 18.89 17.41 18.41 19.08 18.41 C 20 18.41 20.84 18.54 21.62 18.82 L 21.62 20.35 C 20.6 20.13 19.8 20.03 19.23 20.03 C 18.07 20.03 17.21 20.33 16.64 20.93 C 16.08 21.53 15.8 22.45 15.8 23.71 L 15.8 24.07 C 15.8 25.32 16.08 26.23 16.64 26.83 C 17.2 27.43 18.05 27.72 19.2 27.72 C 19.84 27.72 20.7 27.6 21.77 27.34 L 21.77 28.87 C 20.96 29.18 20.05 29.34 19.02 29.34 C 17.33 29.34 16.05 28.89 15.19 28 Z" fill="#ed7100" stroke="none" pointer-events="all"/></g></svg>