<?xml version="1.0" encoding="UTF-8"?>
<!-- Do not edit this file with editors other than draw.io -->
<!DOCTYPE svg PUBLIC "-//W3C//DTD SVG 1.1//EN" "http://www.w3.org/Graphics/SVG/1.1/DTD/svg11.dtd">
<svg xmlns="http://www.w3.org/2000/svg" xmlns:xlink="http://www.w3.org/1999/xlink" version="1.1" width="49px" height="49px" viewBox="-0.5 -0.5 49 49" content="&lt;mxfile host=&quot;app.diagrams.net&quot; modified=&quot;2023-11-13T09:40:36.481Z&quot; agent=&quot;Mozilla/5.0 (Windows NT 10.0; Win64; x64) AppleWebKit/537.36 (KHTML, like Gecko) Chrome/119.0.0.0 Safari/537.36&quot; etag=&quot;r8PpxtqJBmZSte42spu3&quot; version=&quot;22.1.0&quot; type=&quot;device&quot;&gt;&#10;  &lt;diagram name=&quot;페이지-1&quot; id=&quot;AW3kfpiaLIK3EqUbXKlc&quot;&gt;&#10;    &lt;mxGraphModel dx=&quot;292&quot; dy=&quot;157&quot; grid=&quot;1&quot; gridSize=&quot;10&quot; guides=&quot;1&quot; tooltips=&quot;1&quot; connect=&quot;1&quot; arrows=&quot;1&quot; fold=&quot;1&quot; page=&quot;1&quot; pageScale=&quot;1&quot; pageWidth=&quot;827&quot; pageHeight=&quot;1169&quot; math=&quot;0&quot; shadow=&quot;0&quot;&gt;&#10;      &lt;root&gt;&#10;        &lt;mxCell id=&quot;0&quot; /&gt;&#10;        &lt;mxCell id=&quot;1&quot; parent=&quot;0&quot; /&gt;&#10;        &lt;mxCell id=&quot;_niekT0tynacapAUr5bP-26&quot; value=&quot;&quot; style=&quot;sketch=0;outlineConnect=0;fontColor=#232F3E;gradientColor=none;fillColor=#ED7100;strokeColor=none;dashed=0;verticalLabelPosition=bottom;verticalAlign=top;align=center;html=1;fontSize=12;fontStyle=0;aspect=fixed;pointerEvents=1;shape=mxgraph.aws4.ec2_c6in_instance;&quot; vertex=&quot;1&quot; parent=&quot;1&quot;&gt;&#10;          &lt;mxGeometry x=&quot;500&quot; y=&quot;170&quot; width=&quot;48&quot; height=&quot;48&quot; as=&quot;geometry&quot; /&gt;&#10;        &lt;/mxCell&gt;&#10;      &lt;/root&gt;&#10;    &lt;/mxGraphModel&gt;&#10;  &lt;/diagram&gt;&#10;&lt;/mxfile&gt;&#10;"><defs/><g><rect x="0" y="0" width="48" height="48" fill="none" stroke="none" pointer-events="all"/><path d="M 12 0 L 12 5.45 L 16.36 5.45 L 16.36 0 L 18.55 0 L 18.55 5.45 L 22.91 5.45 L 22.91 0 L 25.09 0 L 25.09 5.45 L 29.45 5.45 L 29.45 0 L 31.64 0 L 31.64 5.45 L 36 5.45 L 36 0 L 38.18 0 L 38.18 5.45 L 41.45 5.45 C 42.06 5.45 42.55 5.94 42.55 6.55 L 42.55 9.82 L 48 9.82 L 48 12 L 42.55 12 L 42.55 16.36 L 48 16.36 L 48 18.55 L 42.55 18.55 L 42.55 22.91 L 48 22.91 L 48 25.09 L 42.55 25.09 L 42.55 29.45 L 48 29.45 L 48 31.64 L 42.55 31.64 L 42.55 36 L 48 36 L 48 38.18 L 42.55 38.18 L 42.55 41.45 C 42.55 42.06 42.06 42.55 41.45 42.55 L 38.18 42.55 L 38.18 48 L 36 48 L 36 42.55 L 31.64 42.55 L 31.64 48 L 29.45 48 L 29.45 42.55 L 25.09 42.55 L 25.09 48 L 22.91 48 L 22.91 42.55 L 18.55 42.55 L 18.55 48 L 16.36 48 L 16.36 42.55 L 12 42.55 L 12 48 L 9.82 48 L 9.82 42.55 L 6.55 42.55 C 5.94 42.55 5.45 42.06 5.45 41.45 L 5.45 38.18 L 0 38.18 L 0 36 L 5.45 36 L 5.45 31.64 L 0 31.64 L 0 29.45 L 5.45 29.45 L 5.45 25.09 L 0 25.09 L 0 22.91 L 5.45 22.91 L 5.45 18.55 L 0 18.55 L 0 16.36 L 5.45 16.36 L 5.45 12 L 0 12 L 0 9.82 L 5.45 9.82 L 5.45 6.55 C 5.45 5.94 5.94 5.45 6.55 5.45 L 9.82 5.45 L 9.82 0 Z M 40.36 7.64 L 7.64 7.64 L 7.64 40.36 L 40.36 40.36 Z M 22.96 19.56 C 23.31 19.56 23.65 19.6 24 19.67 C 24.35 19.75 24.65 19.85 24.89 19.98 L 24.89 21.02 C 24.65 20.93 24.37 20.85 24.05 20.79 C 23.75 20.73 23.46 20.7 23.16 20.7 C 22.44 20.7 21.91 20.94 21.55 21.42 C 21.19 21.9 21 22.64 20.96 23.64 C 21.56 23.24 22.26 23.03 22.98 23.03 C 23.72 23.03 24.32 23.25 24.77 23.71 C 25.22 24.16 25.45 24.76 25.45 25.51 C 25.45 26.04 25.33 26.51 25.09 26.92 C 24.85 27.34 24.5 27.68 24.07 27.89 C 23.63 28.13 23.11 28.25 22.52 28.25 C 21.52 28.25 20.78 27.91 20.27 27.23 C 19.76 26.55 19.51 25.54 19.51 24.22 C 19.51 22.74 19.81 21.6 20.41 20.78 C 21.01 19.97 21.87 19.56 22.96 19.56 Z M 16.66 19.62 C 17.38 19.62 18.05 19.73 18.65 19.94 L 18.65 21.14 C 17.85 20.98 17.23 20.89 16.78 20.89 C 15.87 20.89 15.19 21.13 14.75 21.6 C 14.3 22.07 14.08 22.8 14.08 23.78 L 14.08 24.07 C 14.08 25.05 14.3 25.77 14.74 26.24 C 15.18 26.7 15.85 26.94 16.75 26.94 C 17.26 26.94 17.93 26.84 18.77 26.64 L 18.77 27.84 C 18.14 28.09 17.42 28.21 16.61 28.21 C 15.29 28.21 14.28 27.86 13.61 27.16 C 12.93 26.45 12.59 25.41 12.59 24.04 C 12.59 22.62 12.94 21.53 13.64 20.77 C 14.34 20 15.35 19.62 16.66 19.62 Z M 33.26 21.78 C 33.84 21.78 34.29 21.93 34.59 22.24 C 34.89 22.55 35.05 23 35.05 23.58 L 35.05 28.07 L 33.63 28.07 L 33.63 24.02 C 33.63 23.63 33.55 23.35 33.39 23.17 C 33.23 22.99 32.97 22.9 32.62 22.9 C 32.09 22.9 31.55 23.07 31 23.42 L 31 28.07 L 29.59 28.07 L 29.59 21.96 L 30.76 21.96 L 30.91 22.63 C 31.66 22.06 32.44 21.78 33.26 21.78 Z M 28.05 21.96 L 28.05 28.07 L 26.63 28.07 L 26.63 21.96 Z M 22.53 24.13 C 22.01 24.13 21.49 24.27 20.96 24.55 C 21.01 26.26 21.57 27.11 22.62 27.11 C 23.05 27.11 23.39 26.98 23.63 26.71 C 23.87 26.45 23.99 26.08 23.99 25.61 C 23.99 25.13 23.87 24.76 23.62 24.51 C 23.37 24.26 23.01 24.13 22.53 24.13 Z M 27.34 19.32 C 27.61 19.32 27.81 19.39 27.97 19.54 C 28.12 19.68 28.19 19.88 28.19 20.14 C 28.19 20.39 28.12 20.59 27.97 20.74 C 27.81 20.88 27.61 20.95 27.34 20.95 C 27.08 20.95 26.87 20.88 26.72 20.74 C 26.57 20.59 26.49 20.39 26.49 20.14 C 26.49 19.88 26.57 19.68 26.72 19.54 C 26.87 19.39 27.08 19.32 27.34 19.32 Z" fill="#ed7100" stroke="none" pointer-events="all"/></g></svg>