<?xml version="1.0" encoding="UTF-8"?>
<!-- Do not edit this file with editors other than draw.io -->
<!DOCTYPE svg PUBLIC "-//W3C//DTD SVG 1.1//EN" "http://www.w3.org/Graphics/SVG/1.1/DTD/svg11.dtd">
<svg xmlns="http://www.w3.org/2000/svg" xmlns:xlink="http://www.w3.org/1999/xlink" version="1.1" width="49px" height="49px" viewBox="-0.5 -0.5 49 49" content="&lt;mxfile host=&quot;app.diagrams.net&quot; modified=&quot;2023-11-13T09:40:45.864Z&quot; agent=&quot;Mozilla/5.0 (Windows NT 10.0; Win64; x64) AppleWebKit/537.36 (KHTML, like Gecko) Chrome/119.0.0.0 Safari/537.36&quot; etag=&quot;g_Maj3Gxj2u4YRXu-fVX&quot; version=&quot;22.1.0&quot; type=&quot;device&quot;&gt;&#10;  &lt;diagram name=&quot;페이지-1&quot; id=&quot;AW3kfpiaLIK3EqUbXKlc&quot;&gt;&#10;    &lt;mxGraphModel dx=&quot;292&quot; dy=&quot;157&quot; grid=&quot;1&quot; gridSize=&quot;10&quot; guides=&quot;1&quot; tooltips=&quot;1&quot; connect=&quot;1&quot; arrows=&quot;1&quot; fold=&quot;1&quot; page=&quot;1&quot; pageScale=&quot;1&quot; pageWidth=&quot;827&quot; pageHeight=&quot;1169&quot; math=&quot;0&quot; shadow=&quot;0&quot;&gt;&#10;      &lt;root&gt;&#10;        &lt;mxCell id=&quot;0&quot; /&gt;&#10;        &lt;mxCell id=&quot;1&quot; parent=&quot;0&quot; /&gt;&#10;        &lt;mxCell id=&quot;_niekT0tynacapAUr5bP-27&quot; value=&quot;&quot; style=&quot;sketch=0;outlineConnect=0;fontColor=#232F3E;gradientColor=none;fillColor=#ED7100;strokeColor=none;dashed=0;verticalLabelPosition=bottom;verticalAlign=top;align=center;html=1;fontSize=12;fontStyle=0;aspect=fixed;pointerEvents=1;shape=mxgraph.aws4.ec2_c7g_instance;&quot; vertex=&quot;1&quot; parent=&quot;1&quot;&gt;&#10;          &lt;mxGeometry x=&quot;480&quot; y=&quot;170&quot; width=&quot;48&quot; height=&quot;48&quot; as=&quot;geometry&quot; /&gt;&#10;        &lt;/mxCell&gt;&#10;      &lt;/root&gt;&#10;    &lt;/mxGraphModel&gt;&#10;  &lt;/diagram&gt;&#10;&lt;/mxfile&gt;&#10;"><defs/><g><rect x="0" y="0" width="48" height="48" fill="none" stroke="none" pointer-events="all"/><path d="M 7.64 40.36 L 40.36 40.36 L 40.36 7.64 L 7.64 7.64 Z M 42.55 12 L 42.55 16.36 L 48 16.36 L 48 18.55 L 42.55 18.55 L 42.55 22.91 L 48 22.91 L 48 25.09 L 42.55 25.09 L 42.55 29.45 L 48 29.45 L 48 31.64 L 42.55 31.64 L 42.55 36 L 48 36 L 48 38.18 L 42.55 38.18 L 42.55 41.45 C 42.55 42.06 42.06 42.55 41.45 42.55 L 38.18 42.55 L 38.18 48 L 36 48 L 36 42.55 L 31.64 42.55 L 31.64 48 L 29.45 48 L 29.45 42.55 L 25.09 42.55 L 25.09 48 L 22.91 48 L 22.91 42.55 L 18.55 42.55 L 18.55 48 L 16.36 48 L 16.36 42.55 L 12 42.55 L 12 48 L 9.82 48 L 9.82 42.55 L 6.55 42.55 C 5.94 42.55 5.45 42.06 5.45 41.45 L 5.45 38.18 L 0 38.18 L 0 36 L 5.45 36 L 5.45 31.64 L 0 31.64 L 0 29.45 L 5.45 29.45 L 5.45 25.09 L 0 25.09 L 0 22.91 L 5.45 22.91 L 5.45 18.55 L 0 18.55 L 0 16.36 L 5.45 16.36 L 5.45 12 L 0 12 L 0 9.82 L 5.45 9.82 L 5.45 6.55 C 5.45 5.94 5.94 5.45 6.55 5.45 L 9.82 5.45 L 9.82 0 L 12 0 L 12 5.45 L 16.36 5.45 L 16.36 0 L 18.55 0 L 18.55 5.45 L 22.91 5.45 L 22.91 0 L 25.09 0 L 25.09 5.45 L 29.45 5.45 L 29.45 0 L 31.64 0 L 31.64 5.45 L 36 5.45 L 36 0 L 38.18 0 L 38.18 5.45 L 41.45 5.45 C 42.06 5.45 42.55 5.94 42.55 6.55 L 42.55 9.82 L 48 9.82 L 48 12 Z M 30.74 25.05 C 30.74 26.76 31.35 27.62 32.56 27.62 C 33.16 27.62 33.73 27.42 34.27 27.02 L 34.27 23.11 C 33.74 22.75 33.17 22.56 32.57 22.56 C 31.95 22.56 31.49 22.77 31.19 23.17 C 30.89 23.58 30.74 24.21 30.74 25.05 Z M 29.76 27.95 C 29.19 27.24 28.91 26.29 28.91 25.11 C 28.91 24.34 29.04 23.65 29.29 23.06 C 29.55 22.46 29.91 22 30.39 21.66 C 30.87 21.33 31.43 21.16 32.09 21.16 C 32.95 21.15 33.78 21.48 34.39 22.09 L 34.54 21.39 L 36.07 21.39 L 36.07 28.63 C 36.07 29.86 35.74 30.81 35.07 31.48 C 34.4 32.15 33.44 32.49 32.2 32.49 C 31.28 32.49 30.36 32.28 29.53 31.86 L 29.53 30.58 C 30.48 30.9 31.33 31.05 32.09 31.05 C 32.85 31.05 33.4 30.88 33.75 30.53 C 34.1 30.18 34.27 29.6 34.27 28.81 L 34.27 28.15 C 33.61 28.72 32.86 29.01 32.02 29.01 C 31.08 29.01 30.32 28.65 29.76 27.95 Z M 21.7 29.16 L 23.59 29.16 L 27.61 19.97 L 27.61 18.58 L 20.28 18.58 L 20.28 20.03 L 25.79 20.03 Z M 12.79 28 C 11.93 27.1 11.5 25.78 11.5 24.03 C 11.5 22.23 11.94 20.84 12.83 19.87 C 13.73 18.89 15.01 18.41 16.68 18.41 C 17.59 18.41 18.44 18.55 19.21 18.82 L 19.21 20.35 C 18.19 20.13 17.4 20.03 16.82 20.03 C 15.66 20.03 14.8 20.33 14.24 20.93 C 13.67 21.53 13.39 22.46 13.39 23.71 L 13.39 24.07 C 13.39 25.32 13.67 26.24 14.23 26.83 C 14.79 27.43 15.64 27.72 16.79 27.72 C 17.44 27.72 18.3 27.6 19.36 27.34 L 19.36 28.87 C 18.56 29.19 17.64 29.34 16.61 29.34 C 14.92 29.34 13.65 28.89 12.79 28 Z" fill="#ed7100" stroke="none" pointer-events="all"/></g></svg>