<?xml version="1.0" encoding="UTF-8"?>
<!-- Do not edit this file with editors other than draw.io -->
<!DOCTYPE svg PUBLIC "-//W3C//DTD SVG 1.1//EN" "http://www.w3.org/Graphics/SVG/1.1/DTD/svg11.dtd">
<svg xmlns="http://www.w3.org/2000/svg" xmlns:xlink="http://www.w3.org/1999/xlink" version="1.1" width="49px" height="49px" viewBox="-0.5 -0.5 49 49" content="&lt;mxfile host=&quot;app.diagrams.net&quot; modified=&quot;2023-11-13T09:41:28.923Z&quot; agent=&quot;Mozilla/5.0 (Windows NT 10.0; Win64; x64) AppleWebKit/537.36 (KHTML, like Gecko) Chrome/119.0.0.0 Safari/537.36&quot; etag=&quot;-BO-pkHV3CRlZEpY_fk5&quot; version=&quot;22.1.0&quot; type=&quot;device&quot;&gt;&#10;  &lt;diagram name=&quot;페이지-1&quot; id=&quot;AW3kfpiaLIK3EqUbXKlc&quot;&gt;&#10;    &lt;mxGraphModel dx=&quot;292&quot; dy=&quot;157&quot; grid=&quot;1&quot; gridSize=&quot;10&quot; guides=&quot;1&quot; tooltips=&quot;1&quot; connect=&quot;1&quot; arrows=&quot;1&quot; fold=&quot;1&quot; page=&quot;1&quot; pageScale=&quot;1&quot; pageWidth=&quot;827&quot; pageHeight=&quot;1169&quot; math=&quot;0&quot; shadow=&quot;0&quot;&gt;&#10;      &lt;root&gt;&#10;        &lt;mxCell id=&quot;0&quot; /&gt;&#10;        &lt;mxCell id=&quot;1&quot; parent=&quot;0&quot; /&gt;&#10;        &lt;mxCell id=&quot;_niekT0tynacapAUr5bP-30&quot; value=&quot;&quot; style=&quot;sketch=0;outlineConnect=0;fontColor=#232F3E;gradientColor=none;fillColor=#ED7100;strokeColor=none;dashed=0;verticalLabelPosition=bottom;verticalAlign=top;align=center;html=1;fontSize=12;fontStyle=0;aspect=fixed;pointerEvents=1;shape=mxgraph.aws4.ec2_c7gn_instance;&quot; vertex=&quot;1&quot; parent=&quot;1&quot;&gt;&#10;          &lt;mxGeometry x=&quot;470&quot; y=&quot;180&quot; width=&quot;48&quot; height=&quot;48&quot; as=&quot;geometry&quot; /&gt;&#10;        &lt;/mxCell&gt;&#10;      &lt;/root&gt;&#10;    &lt;/mxGraphModel&gt;&#10;  &lt;/diagram&gt;&#10;&lt;/mxfile&gt;&#10;"><defs/><g><rect x="-1" y="0" width="48" height="48" fill="none" stroke="none" pointer-events="all"/><path d="M 31.8 28.07 L 30.39 28.07 L 30.39 21.96 L 31.56 21.96 L 31.71 22.63 C 32.46 22.06 33.24 21.78 34.06 21.78 C 34.64 21.78 35.09 21.93 35.39 22.24 C 35.7 22.55 35.85 23 35.85 23.58 L 35.85 28.07 L 34.43 28.07 L 34.43 24.02 C 34.43 23.63 34.35 23.35 34.19 23.17 C 34.03 22.99 33.78 22.9 33.42 22.9 C 32.9 22.9 32.36 23.07 31.8 23.42 Z M 25.09 23.36 C 25.33 23.04 25.69 22.88 26.18 22.88 C 26.65 22.88 27.09 23.03 27.51 23.32 L 27.51 26.39 C 27.08 26.7 26.64 26.86 26.16 26.86 C 25.21 26.86 24.74 26.18 24.74 24.84 C 24.74 24.18 24.85 23.68 25.09 23.36 Z M 25.74 27.95 C 26.39 27.95 27.02 27.71 27.51 27.28 L 27.51 27.79 C 27.51 28.42 27.37 28.87 27.1 29.14 C 26.83 29.42 26.39 29.56 25.79 29.56 C 25.2 29.56 24.53 29.43 23.79 29.18 L 23.79 30.19 C 24.45 30.52 25.15 30.68 25.89 30.68 C 26.86 30.68 27.61 30.42 28.13 29.89 C 28.66 29.36 28.92 28.62 28.92 27.65 L 28.92 21.96 L 27.72 21.96 L 27.6 22.51 C 27.09 22.02 26.49 21.78 25.79 21.78 C 25.28 21.78 24.84 21.91 24.46 22.18 C 24.09 22.44 23.8 22.81 23.6 23.27 C 23.39 23.74 23.3 24.28 23.3 24.89 C 23.3 25.82 23.52 26.56 23.96 27.11 C 24.39 27.66 25.05 27.97 25.74 27.95 Z M 20.85 20.89 L 16.52 20.89 L 16.52 19.75 L 22.28 19.75 L 22.28 20.84 L 19.12 28.07 L 17.63 28.07 Z M 10.63 27.16 C 9.95 26.45 9.62 25.41 9.62 24.04 C 9.62 22.62 9.97 21.53 10.67 20.77 C 11.37 20 12.37 19.62 13.68 19.62 C 14.4 19.62 15.07 19.73 15.68 19.94 L 15.68 21.14 C 14.88 20.98 14.25 20.89 13.8 20.89 C 12.89 20.89 12.21 21.13 11.77 21.6 C 11.33 22.07 11.1 22.8 11.1 23.78 L 11.1 24.07 C 11.1 25.05 11.32 25.77 11.76 26.24 C 12.2 26.7 12.87 26.94 13.78 26.94 C 14.28 26.94 14.96 26.84 15.8 26.64 L 15.8 27.84 C 15.16 28.09 14.44 28.21 13.64 28.21 C 12.31 28.21 11.31 27.86 10.63 27.16 Z M 6.64 40.36 L 6.64 7.64 L 39.36 7.64 L 39.36 40.36 Z M 47 12 L 47 9.82 L 41.55 9.82 L 41.55 6.55 C 41.55 5.94 41.06 5.45 40.45 5.45 L 37.18 5.45 L 37.18 0 L 35 0 L 35 5.45 L 30.64 5.45 L 30.64 0 L 28.45 0 L 28.45 5.45 L 24.09 5.45 L 24.09 0 L 21.91 0 L 21.91 5.45 L 17.55 5.45 L 17.55 0 L 15.36 0 L 15.36 5.45 L 11 5.45 L 11 0 L 8.82 0 L 8.82 5.45 L 5.55 5.45 C 4.94 5.45 4.45 5.94 4.45 6.55 L 4.45 9.82 L -1 9.82 L -1 12 L 4.45 12 L 4.45 16.36 L -1 16.36 L -1 18.55 L 4.45 18.55 L 4.45 22.91 L -1 22.91 L -1 25.09 L 4.45 25.09 L 4.45 29.45 L -1 29.45 L -1 31.64 L 4.45 31.64 L 4.45 36 L -1 36 L -1 38.18 L 4.45 38.18 L 4.45 41.45 C 4.45 42.06 4.94 42.55 5.55 42.55 L 8.82 42.55 L 8.82 48 L 11 48 L 11 42.55 L 15.36 42.55 L 15.36 48 L 17.55 48 L 17.55 42.55 L 21.91 42.55 L 21.91 48 L 24.09 48 L 24.09 42.55 L 28.45 42.55 L 28.45 48 L 30.64 48 L 30.64 42.55 L 35 42.55 L 35 48 L 37.18 48 L 37.18 42.55 L 40.45 42.55 C 41.06 42.55 41.55 42.06 41.55 41.45 L 41.55 38.18 L 47 38.18 L 47 36 L 41.55 36 L 41.55 31.64 L 47 31.64 L 47 29.45 L 41.55 29.45 L 41.55 25.09 L 47 25.09 L 47 22.91 L 41.55 22.91 L 41.55 18.55 L 47 18.55 L 47 16.36 L 41.55 16.36 L 41.55 12 Z" fill="#ed7100" stroke="none" pointer-events="all"/></g></svg>