<?xml version="1.0" encoding="UTF-8"?>
<!-- Do not edit this file with editors other than draw.io -->
<!DOCTYPE svg PUBLIC "-//W3C//DTD SVG 1.1//EN" "http://www.w3.org/Graphics/SVG/1.1/DTD/svg11.dtd">
<svg xmlns="http://www.w3.org/2000/svg" xmlns:xlink="http://www.w3.org/1999/xlink" version="1.1" width="49px" height="49px" viewBox="-0.5 -0.5 49 49" content="&lt;mxfile host=&quot;app.diagrams.net&quot; modified=&quot;2023-11-13T10:30:18.546Z&quot; agent=&quot;Mozilla/5.0 (Windows NT 10.0; Win64; x64) AppleWebKit/537.36 (KHTML, like Gecko) Chrome/119.0.0.0 Safari/537.36&quot; etag=&quot;jsa1l4qPkJlDalCjsOow&quot; version=&quot;22.1.0&quot; type=&quot;device&quot;&gt;&#10;  &lt;diagram name=&quot;페이지-1&quot; id=&quot;AW3kfpiaLIK3EqUbXKlc&quot;&gt;&#10;    &lt;mxGraphModel dx=&quot;292&quot; dy=&quot;157&quot; grid=&quot;1&quot; gridSize=&quot;10&quot; guides=&quot;1&quot; tooltips=&quot;1&quot; connect=&quot;1&quot; arrows=&quot;1&quot; fold=&quot;1&quot; page=&quot;1&quot; pageScale=&quot;1&quot; pageWidth=&quot;827&quot; pageHeight=&quot;1169&quot; math=&quot;0&quot; shadow=&quot;0&quot;&gt;&#10;      &lt;root&gt;&#10;        &lt;mxCell id=&quot;0&quot; /&gt;&#10;        &lt;mxCell id=&quot;1&quot; parent=&quot;0&quot; /&gt;&#10;        &lt;mxCell id=&quot;_niekT0tynacapAUr5bP-100&quot; value=&quot;&quot; style=&quot;sketch=0;outlineConnect=0;fontColor=#232F3E;gradientColor=none;fillColor=#ED7100;strokeColor=none;dashed=0;verticalLabelPosition=bottom;verticalAlign=top;align=center;html=1;fontSize=12;fontStyle=0;aspect=fixed;pointerEvents=1;shape=mxgraph.aws4.instance_with_cloudwatch2;&quot; vertex=&quot;1&quot; parent=&quot;1&quot;&gt;&#10;          &lt;mxGeometry x=&quot;480&quot; y=&quot;160&quot; width=&quot;48&quot; height=&quot;48&quot; as=&quot;geometry&quot; /&gt;&#10;        &lt;/mxCell&gt;&#10;      &lt;/root&gt;&#10;    &lt;/mxGraphModel&gt;&#10;  &lt;/diagram&gt;&#10;&lt;/mxfile&gt;&#10;"><defs/><g><rect x="0" y="0" width="48" height="48" fill="none" stroke="none" pointer-events="all"/><path d="M 10.21 0 L 10.21 4.69 L 4.69 4.69 L 4.69 10.45 L 0 10.45 L 0 12.45 L 4.69 12.45 L 4.69 16.72 L 0 16.72 L 0 18.72 L 4.69 18.72 L 4.69 23 L 0 23 L 0 25 L 4.69 25 L 4.69 29.28 L 0 29.28 L 0 31.28 L 4.69 31.28 L 4.69 35.55 L 0 35.55 L 0 37.55 L 4.69 37.55 L 4.69 43.31 L 10.21 43.31 L 10.21 48 L 12.21 48 L 12.21 43.31 L 16.48 43.31 L 16.48 48 L 18.48 48 L 18.48 43.31 L 22.76 43.31 L 22.76 48 L 24.76 48 L 24.76 43.31 L 29.04 43.31 L 29.04 48 L 31.04 48 L 31.04 43.31 L 35.32 43.31 L 35.32 48 L 37.32 48 L 37.32 43.31 L 43.31 43.31 L 43.31 37.55 L 48 37.55 L 48 35.55 L 43.31 35.55 L 43.31 31.28 L 48 31.28 L 48 29.28 L 43.31 29.28 L 43.31 25 L 48 25 L 48 23 L 43.31 23 L 43.31 18.72 L 48 18.72 L 48 16.72 L 43.31 16.72 L 43.31 12.45 L 48 12.45 L 48 10.45 L 43.31 10.45 L 43.31 4.69 L 37.32 4.69 L 37.32 0 L 35.32 0 L 35.32 4.69 L 31.04 4.69 L 31.04 0 L 29.04 0 L 29.04 4.69 L 24.76 4.69 L 24.76 0 L 22.76 0 L 22.76 4.69 L 18.48 4.69 L 18.48 0 L 16.48 0 L 16.48 4.69 L 12.21 4.69 L 12.21 0 Z M 6.69 6.69 L 41.31 6.69 L 41.31 41.31 L 6.69 41.31 Z M 21.01 12.54 C 20 12.55 19.01 12.77 18.09 13.18 C 15.4 14.46 13.66 17.15 13.59 20.13 L 13.59 20.23 C 11.4 21.04 9.98 23.17 10.07 25.51 C 10.03 27.62 11.11 29.6 12.91 30.71 C 13.49 31.07 14.16 31.27 14.85 31.27 L 20.79 31.27 L 20.81 29.25 L 14.88 29.25 C 14.57 29.25 14.27 29.16 14 29 C 12.76 28.27 12 26.92 12.03 25.48 C 11.92 23.76 13.11 22.22 14.8 21.89 C 15.01 21.85 15.2 21.74 15.34 21.58 C 15.53 21.36 15.63 21.08 15.59 20.79 C 15.57 20.56 15.57 20.33 15.59 20.1 C 15.67 17.93 16.93 15.97 18.87 15 C 21.03 14.04 23.56 14.56 25.17 16.28 C 25.88 17.02 26.43 17.9 26.76 18.87 C 26.88 19.21 27.19 19.46 27.55 19.52 C 27.92 19.57 28.28 19.42 28.5 19.13 C 28.82 18.68 29.33 18.41 29.88 18.4 C 30.67 18.4 31.64 19.02 31.79 20.77 C 31.77 21 31.83 21.24 31.96 21.43 C 32.11 21.65 32.35 21.8 32.62 21.85 C 34.54 22.01 36.02 23.62 36 25.55 C 36.09 26.87 35.39 28.12 34.21 28.74 L 35.21 30.49 C 37.01 29.51 38.09 27.6 38 25.55 C 38.08 22.92 36.28 20.6 33.71 20.02 C 33.54 18.01 31.9 16.45 29.88 16.37 C 29.24 16.37 28.61 16.54 28.06 16.86 C 27.67 16.12 27.17 15.45 26.58 14.86 C 25.13 13.34 23.11 12.5 21.01 12.54 Z M 27.61 21.71 C 24.25 21.85 21.61 24.65 21.68 28.02 C 21.75 31.38 24.5 34.07 27.87 34.07 C 28.72 34.07 29.57 33.89 30.35 33.54 L 33.92 37.07 C 34.36 37.52 34.96 37.77 35.59 37.76 C 36.22 37.76 36.83 37.51 37.27 37.05 C 38.18 36.12 38.18 34.64 37.27 33.71 L 33.64 30.07 C 33.91 29.38 34.05 28.64 34.05 27.9 C 34.05 26.21 33.37 24.6 32.15 23.43 C 30.94 22.27 29.3 21.64 27.61 21.71 Z M 27.87 23.72 C 28.98 23.72 30.04 24.16 30.83 24.94 C 31.61 25.73 32.05 26.79 32.05 27.9 C 32.05 30.21 30.18 32.08 27.87 32.08 C 25.56 32.08 23.69 30.21 23.69 27.9 C 23.69 25.59 25.56 23.72 27.87 23.72 Z M 27.62 24.36 C 26.17 24.36 24.89 25.3 24.44 26.67 C 23.99 28.05 24.47 29.56 25.63 30.42 L 26.82 28.81 C 26.21 28.36 26.09 27.51 26.53 26.91 C 26.98 26.3 27.83 26.17 28.44 26.62 L 29.63 25.02 C 29.05 24.59 28.34 24.36 27.62 24.36 Z M 32.6 31.87 L 35.8 35.14 C 35.94 35.28 35.94 35.52 35.8 35.66 C 35.74 35.74 35.64 35.79 35.54 35.79 C 35.44 35.79 35.34 35.74 35.28 35.66 L 32.05 32.43 C 32.25 32.26 32.43 32.07 32.6 31.87 Z" fill="#ed7100" stroke="none" pointer-events="all"/></g></svg>