<?xml version="1.0" encoding="UTF-8"?>
<!-- Do not edit this file with editors other than draw.io -->
<!DOCTYPE svg PUBLIC "-//W3C//DTD SVG 1.1//EN" "http://www.w3.org/Graphics/SVG/1.1/DTD/svg11.dtd">
<svg xmlns="http://www.w3.org/2000/svg" xmlns:xlink="http://www.w3.org/1999/xlink" version="1.1" width="49px" height="49px" viewBox="-0.5 -0.5 49 49" content="&lt;mxfile host=&quot;app.diagrams.net&quot; modified=&quot;2023-11-13T09:41:40.008Z&quot; agent=&quot;Mozilla/5.0 (Windows NT 10.0; Win64; x64) AppleWebKit/537.36 (KHTML, like Gecko) Chrome/119.0.0.0 Safari/537.36&quot; etag=&quot;uzNy7WuEw8CL3HAbNrkD&quot; version=&quot;22.1.0&quot; type=&quot;device&quot;&gt;&#10;  &lt;diagram name=&quot;페이지-1&quot; id=&quot;AW3kfpiaLIK3EqUbXKlc&quot;&gt;&#10;    &lt;mxGraphModel dx=&quot;292&quot; dy=&quot;157&quot; grid=&quot;1&quot; gridSize=&quot;10&quot; guides=&quot;1&quot; tooltips=&quot;1&quot; connect=&quot;1&quot; arrows=&quot;1&quot; fold=&quot;1&quot; page=&quot;1&quot; pageScale=&quot;1&quot; pageWidth=&quot;827&quot; pageHeight=&quot;1169&quot; math=&quot;0&quot; shadow=&quot;0&quot;&gt;&#10;      &lt;root&gt;&#10;        &lt;mxCell id=&quot;0&quot; /&gt;&#10;        &lt;mxCell id=&quot;1&quot; parent=&quot;0&quot; /&gt;&#10;        &lt;mxCell id=&quot;_niekT0tynacapAUr5bP-31&quot; value=&quot;&quot; style=&quot;sketch=0;outlineConnect=0;fontColor=#232F3E;gradientColor=none;fillColor=#ED7100;strokeColor=none;dashed=0;verticalLabelPosition=bottom;verticalAlign=top;align=center;html=1;fontSize=12;fontStyle=0;aspect=fixed;pointerEvents=1;shape=mxgraph.aws4.d2_instance;&quot; vertex=&quot;1&quot; parent=&quot;1&quot;&gt;&#10;          &lt;mxGeometry x=&quot;500&quot; y=&quot;180&quot; width=&quot;48&quot; height=&quot;48&quot; as=&quot;geometry&quot; /&gt;&#10;        &lt;/mxCell&gt;&#10;      &lt;/root&gt;&#10;    &lt;/mxGraphModel&gt;&#10;  &lt;/diagram&gt;&#10;&lt;/mxfile&gt;&#10;"><defs/><g><rect x="0" y="0" width="48" height="48" fill="none" stroke="none" pointer-events="all"/><path d="M 48 12 L 48 9.82 L 42.55 9.82 L 42.55 6.55 C 42.55 5.94 42.06 5.45 41.45 5.45 L 38.18 5.45 L 38.18 0 L 36 0 L 36 5.45 L 31.64 5.45 L 31.64 0 L 29.45 0 L 29.45 5.45 L 25.09 5.45 L 25.09 0 L 22.91 0 L 22.91 5.45 L 18.55 5.45 L 18.55 0 L 16.36 0 L 16.36 5.45 L 12 5.45 L 12 0 L 9.82 0 L 9.82 5.45 L 6.55 5.45 C 5.94 5.45 5.45 5.94 5.45 6.55 L 5.45 9.82 L 0 9.82 L 0 12 L 5.45 12 L 5.45 16.36 L 0 16.36 L 0 18.55 L 5.45 18.55 L 5.45 22.91 L 0 22.91 L 0 25.09 L 5.45 25.09 L 5.45 29.45 L 0 29.45 L 0 31.64 L 5.45 31.64 L 5.45 36 L 0 36 L 0 38.18 L 5.45 38.18 L 5.45 41.45 C 5.45 42.06 5.94 42.55 6.55 42.55 L 9.82 42.55 L 9.82 48 L 12 48 L 12 42.55 L 16.36 42.55 L 16.36 48 L 18.55 48 L 18.55 42.55 L 22.91 42.55 L 22.91 48 L 25.09 48 L 25.09 42.55 L 29.45 42.55 L 29.45 48 L 31.64 48 L 31.64 42.55 L 36 42.55 L 36 48 L 38.18 48 L 38.18 42.55 L 41.45 42.55 C 42.06 42.55 42.55 42.06 42.55 41.45 L 42.55 38.18 L 48 38.18 L 48 36 L 42.55 36 L 42.55 31.64 L 48 31.64 L 48 29.45 L 42.55 29.45 L 42.55 25.09 L 48 25.09 L 48 22.91 L 42.55 22.91 L 42.55 18.55 L 48 18.55 L 48 16.36 L 42.55 16.36 L 42.55 12 Z M 7.64 40.36 L 7.64 7.64 L 40.36 7.64 L 40.36 40.36 Z M 22.51 27.89 C 23.35 26.98 23.77 25.66 23.77 23.95 C 23.77 22.25 23.36 20.95 22.53 20.04 C 21.7 19.14 20.5 18.68 18.93 18.68 L 15.31 18.68 L 15.31 29.27 L 18.91 29.27 C 20.47 29.27 21.67 28.81 22.51 27.89 Z M 17.17 27.8 L 17.17 20.15 L 18.71 20.15 C 20.82 20.15 21.88 21.37 21.88 23.8 L 21.88 24.14 C 21.88 26.58 20.82 27.8 18.71 27.8 Z M 32.69 29.27 L 25.51 29.27 L 25.51 27.89 C 26.92 26.47 27.95 25.37 28.61 24.61 C 29.27 23.85 29.73 23.23 29.99 22.76 C 30.24 22.29 30.37 21.86 30.37 21.46 C 30.37 20.99 30.23 20.63 29.96 20.37 C 29.68 20.11 29.29 19.98 28.8 19.98 C 28.36 19.98 27.88 20.08 27.37 20.28 C 26.85 20.48 26.33 20.76 25.8 21.13 L 25.8 19.63 C 26.77 18.84 27.85 18.44 29.02 18.44 C 29.66 18.44 30.22 18.56 30.7 18.78 C 31.17 19.01 31.54 19.34 31.81 19.77 C 32.08 20.2 32.22 20.7 32.22 21.29 C 32.22 21.87 32.06 22.44 31.75 23.03 C 31.43 23.61 30.93 24.28 30.23 25.03 C 29.54 25.78 28.58 26.71 27.36 27.82 L 32.69 27.82 Z" fill="#ed7100" stroke="none" pointer-events="all"/></g></svg>