<?xml version="1.0" encoding="UTF-8"?>
<!-- Do not edit this file with editors other than draw.io -->
<!DOCTYPE svg PUBLIC "-//W3C//DTD SVG 1.1//EN" "http://www.w3.org/Graphics/SVG/1.1/DTD/svg11.dtd">
<svg xmlns="http://www.w3.org/2000/svg" xmlns:xlink="http://www.w3.org/1999/xlink" version="1.1" width="49px" height="49px" viewBox="-0.5 -0.5 49 49" content="&lt;mxfile host=&quot;app.diagrams.net&quot; modified=&quot;2023-11-13T09:41:57.026Z&quot; agent=&quot;Mozilla/5.0 (Windows NT 10.0; Win64; x64) AppleWebKit/537.36 (KHTML, like Gecko) Chrome/119.0.0.0 Safari/537.36&quot; etag=&quot;Vi7JWOMyk25zu6PFxYWs&quot; version=&quot;22.1.0&quot; type=&quot;device&quot;&gt;&#10;  &lt;diagram name=&quot;페이지-1&quot; id=&quot;AW3kfpiaLIK3EqUbXKlc&quot;&gt;&#10;    &lt;mxGraphModel dx=&quot;292&quot; dy=&quot;157&quot; grid=&quot;1&quot; gridSize=&quot;10&quot; guides=&quot;1&quot; tooltips=&quot;1&quot; connect=&quot;1&quot; arrows=&quot;1&quot; fold=&quot;1&quot; page=&quot;1&quot; pageScale=&quot;1&quot; pageWidth=&quot;827&quot; pageHeight=&quot;1169&quot; math=&quot;0&quot; shadow=&quot;0&quot;&gt;&#10;      &lt;root&gt;&#10;        &lt;mxCell id=&quot;0&quot; /&gt;&#10;        &lt;mxCell id=&quot;1&quot; parent=&quot;0&quot; /&gt;&#10;        &lt;mxCell id=&quot;_niekT0tynacapAUr5bP-33&quot; value=&quot;&quot; style=&quot;sketch=0;outlineConnect=0;fontColor=#232F3E;gradientColor=none;fillColor=#ED7100;strokeColor=none;dashed=0;verticalLabelPosition=bottom;verticalAlign=top;align=center;html=1;fontSize=12;fontStyle=0;aspect=fixed;pointerEvents=1;shape=mxgraph.aws4.d3en_instance;&quot; vertex=&quot;1&quot; parent=&quot;1&quot;&gt;&#10;          &lt;mxGeometry x=&quot;480&quot; y=&quot;170&quot; width=&quot;48&quot; height=&quot;48&quot; as=&quot;geometry&quot; /&gt;&#10;        &lt;/mxCell&gt;&#10;      &lt;/root&gt;&#10;    &lt;/mxGraphModel&gt;&#10;  &lt;/diagram&gt;&#10;&lt;/mxfile&gt;&#10;"><defs/><g><rect x="0" y="0" width="48" height="48" fill="none" stroke="none" pointer-events="all"/><path d="M 10.85 28.07 L 10.85 19.75 L 13.69 19.75 C 14.92 19.75 15.87 20.11 16.52 20.82 C 17.17 21.53 17.5 22.56 17.5 23.89 C 17.5 25.24 17.17 26.27 16.51 26.99 C 15.85 27.71 14.9 28.07 13.68 28.07 Z M 12.31 20.9 L 12.31 26.92 L 13.52 26.92 C 15.18 26.92 16.01 25.96 16.01 24.04 L 16.01 23.77 C 16.01 21.86 15.18 20.9 13.52 20.9 Z M 21.2 23.29 C 21.31 23.28 21.42 23.28 21.54 23.28 C 22 23.28 22.43 23.38 22.8 23.57 C 23.18 23.77 23.48 24.05 23.71 24.41 C 23.93 24.77 24.05 25.18 24.05 25.64 C 24.05 26.15 23.92 26.6 23.66 26.99 C 23.41 27.38 23.04 27.69 22.56 27.91 C 22.08 28.14 21.52 28.25 20.88 28.25 C 20.11 28.25 19.36 28.09 18.62 27.77 L 18.62 26.64 C 19.5 26.94 20.23 27.08 20.83 27.08 C 21.39 27.08 21.83 26.96 22.14 26.71 C 22.44 26.45 22.6 26.1 22.6 25.63 C 22.6 24.75 22.04 24.31 20.93 24.31 C 20.57 24.31 20.19 24.34 19.77 24.38 L 19.77 23.46 L 22.14 20.89 L 18.74 20.89 L 18.74 19.75 L 23.7 19.75 L 23.7 20.84 Z M 26.66 25.36 C 26.69 25.96 26.85 26.41 27.16 26.69 C 27.46 26.98 27.93 27.12 28.57 27.12 C 29.14 27.12 29.75 27.01 30.42 26.78 L 30.42 27.78 C 30.15 27.92 29.83 28.04 29.45 28.12 C 29.08 28.21 28.7 28.25 28.29 28.25 C 27.29 28.25 26.52 27.98 26 27.43 C 25.48 26.89 25.22 26.1 25.22 25.06 C 25.22 24.02 25.48 23.22 25.99 22.64 C 26.49 22.07 27.2 21.78 28.12 21.78 C 28.9 21.78 29.5 21.99 29.92 22.42 C 30.34 22.85 30.55 23.46 30.55 24.24 C 30.55 24.66 30.52 25.03 30.45 25.36 Z M 28.11 22.81 C 27.7 22.81 27.36 22.96 27.11 23.24 C 26.85 23.53 26.7 23.92 26.66 24.41 L 29.29 24.41 L 29.29 24.31 C 29.29 23.82 29.19 23.45 28.99 23.2 C 28.79 22.94 28.5 22.81 28.11 22.81 Z M 35.74 28.07 L 35.74 24.02 C 35.74 23.63 35.66 23.35 35.5 23.17 C 35.34 22.99 35.08 22.9 34.73 22.9 C 34.2 22.9 33.66 23.07 33.11 23.42 L 33.11 28.07 L 31.69 28.07 L 31.69 21.96 L 32.87 21.96 L 33.01 22.63 C 33.76 22.06 34.55 21.78 35.36 21.78 C 35.95 21.78 36.39 21.93 36.7 22.24 C 37 22.55 37.15 23 37.15 23.58 L 37.15 28.07 Z M 48 12 L 48 9.82 L 42.55 9.82 L 42.55 6.55 C 42.55 5.94 42.06 5.45 41.45 5.45 L 38.18 5.45 L 38.18 0 L 36 0 L 36 5.45 L 31.64 5.45 L 31.64 0 L 29.45 0 L 29.45 5.45 L 25.09 5.45 L 25.09 0 L 22.91 0 L 22.91 5.45 L 18.55 5.45 L 18.55 0 L 16.36 0 L 16.36 5.45 L 12 5.45 L 12 0 L 9.82 0 L 9.82 5.45 L 6.55 5.45 C 5.94 5.45 5.45 5.94 5.45 6.55 L 5.45 9.82 L 0 9.82 L 0 12 L 5.45 12 L 5.45 16.36 L 0 16.36 L 0 18.55 L 5.45 18.55 L 5.45 22.91 L 0 22.91 L 0 25.09 L 5.45 25.09 L 5.45 29.45 L 0 29.45 L 0 31.64 L 5.45 31.64 L 5.45 36 L 0 36 L 0 38.18 L 5.45 38.18 L 5.45 41.45 C 5.45 42.06 5.94 42.55 6.55 42.55 L 9.82 42.55 L 9.82 48 L 12 48 L 12 42.55 L 16.36 42.55 L 16.36 48 L 18.55 48 L 18.55 42.55 L 22.91 42.55 L 22.91 48 L 25.09 48 L 25.09 42.55 L 29.45 42.55 L 29.45 48 L 31.64 48 L 31.64 42.55 L 36 42.55 L 36 48 L 38.18 48 L 38.18 42.55 L 41.45 42.55 C 42.06 42.55 42.55 42.06 42.55 41.45 L 42.55 38.18 L 48 38.18 L 48 36 L 42.55 36 L 42.55 31.64 L 48 31.64 L 48 29.45 L 42.55 29.45 L 42.55 25.09 L 48 25.09 L 48 22.91 L 42.55 22.91 L 42.55 18.55 L 48 18.55 L 48 16.36 L 42.55 16.36 L 42.55 12 Z M 7.64 40.36 L 7.64 7.64 L 40.36 7.64 L 40.36 40.36 Z" fill="#ed7100" stroke="none" pointer-events="all"/></g></svg>