<?xml version="1.0" encoding="UTF-8"?>
<!-- Do not edit this file with editors other than draw.io -->
<!DOCTYPE svg PUBLIC "-//W3C//DTD SVG 1.1//EN" "http://www.w3.org/Graphics/SVG/1.1/DTD/svg11.dtd">
<svg xmlns="http://www.w3.org/2000/svg" xmlns:xlink="http://www.w3.org/1999/xlink" version="1.1" width="49px" height="49px" viewBox="-0.5 -0.5 49 49" content="&lt;mxfile host=&quot;app.diagrams.net&quot; modified=&quot;2023-11-13T10:30:04.686Z&quot; agent=&quot;Mozilla/5.0 (Windows NT 10.0; Win64; x64) AppleWebKit/537.36 (KHTML, like Gecko) Chrome/119.0.0.0 Safari/537.36&quot; etag=&quot;JFRZMmpPNG_5RpFucq9W&quot; version=&quot;22.1.0&quot; type=&quot;device&quot;&gt;&#10;  &lt;diagram name=&quot;페이지-1&quot; id=&quot;AW3kfpiaLIK3EqUbXKlc&quot;&gt;&#10;    &lt;mxGraphModel dx=&quot;292&quot; dy=&quot;157&quot; grid=&quot;1&quot; gridSize=&quot;10&quot; guides=&quot;1&quot; tooltips=&quot;1&quot; connect=&quot;1&quot; arrows=&quot;1&quot; fold=&quot;1&quot; page=&quot;1&quot; pageScale=&quot;1&quot; pageWidth=&quot;827&quot; pageHeight=&quot;1169&quot; math=&quot;0&quot; shadow=&quot;0&quot;&gt;&#10;      &lt;root&gt;&#10;        &lt;mxCell id=&quot;0&quot; /&gt;&#10;        &lt;mxCell id=&quot;1&quot; parent=&quot;0&quot; /&gt;&#10;        &lt;mxCell id=&quot;_niekT0tynacapAUr5bP-99&quot; value=&quot;&quot; style=&quot;sketch=0;outlineConnect=0;fontColor=#232F3E;gradientColor=none;fillColor=#ED7100;strokeColor=none;dashed=0;verticalLabelPosition=bottom;verticalAlign=top;align=center;html=1;fontSize=12;fontStyle=0;aspect=fixed;pointerEvents=1;shape=mxgraph.aws4.db_on_instance2;&quot; vertex=&quot;1&quot; parent=&quot;1&quot;&gt;&#10;          &lt;mxGeometry x=&quot;470&quot; y=&quot;160&quot; width=&quot;48&quot; height=&quot;48&quot; as=&quot;geometry&quot; /&gt;&#10;        &lt;/mxCell&gt;&#10;      &lt;/root&gt;&#10;    &lt;/mxGraphModel&gt;&#10;  &lt;/diagram&gt;&#10;&lt;/mxfile&gt;&#10;"><defs/><g><rect x="-1" y="0" width="48" height="48" fill="none" stroke="none" pointer-events="all"/><path d="M 44.26 43.39 L 44.26 30.14 C 42.67 30.9 40.42 31.26 38.27 31.26 C 35.72 31.26 33.68 30.9 32.28 30.25 L 32.28 43.39 C 32.28 43.98 34.47 45.84 38.27 45.84 C 42.07 45.84 44.26 43.98 44.26 43.39 M 32.28 27.44 C 32.28 28.13 34.36 29.1 38.27 29.1 C 42.39 29.1 44.26 27.82 44.26 27.44 C 44.26 27.08 42.45 25.97 38.27 25.97 C 34.27 25.97 32.36 27.02 32.28 27.44 M 46.42 27.44 L 46.42 43.39 C 46.42 45.84 42.61 48 38.27 48 C 33.92 48 30.12 45.84 30.12 43.39 L 30.12 27.44 C 30.12 24.76 34.51 23.81 38.27 23.81 C 42.21 23.81 46.42 24.76 46.42 27.44 M 26.63 35.71 L 26.63 41.12 L 24.47 41.12 L 24.47 36.79 L 21.22 36.79 L 21.22 41.12 L 19.06 41.12 L 19.06 36.79 L 15.81 36.79 L 15.81 41.12 L 13.65 41.12 L 13.65 36.79 L 10.4 36.79 L 10.4 41.12 L 8.24 41.12 L 8.24 36.79 L 4.99 36.79 C 4.39 36.79 3.91 36.31 3.91 35.71 L 3.91 32.46 L -0.42 32.46 L -0.42 30.3 L 3.91 30.3 L 3.91 27.05 L -0.42 27.05 L -0.42 24.89 L 3.91 24.89 L 3.91 21.64 L -0.42 21.64 L -0.42 19.48 L 3.91 19.48 L 3.91 16.23 L -0.42 16.23 L -0.42 14.07 L 3.91 14.07 L 3.91 10.82 L -0.42 10.82 L -0.42 8.66 L 3.91 8.66 L 3.91 5.41 C 3.91 4.81 4.39 4.33 4.99 4.33 L 8.24 4.33 L 8.24 0 L 10.4 0 L 10.4 4.33 L 13.65 4.33 L 13.65 0 L 15.81 0 L 15.81 4.33 L 19.06 4.33 L 19.06 0 L 21.22 0 L 21.22 4.33 L 24.47 4.33 L 24.47 0 L 26.63 0 L 26.63 4.33 L 29.88 4.33 L 29.88 0 L 32.04 0 L 32.04 4.33 L 35.29 4.33 C 35.89 4.33 36.37 4.81 36.37 5.41 L 36.37 8.66 L 40.7 8.66 L 40.7 10.82 L 36.37 10.82 L 36.37 14.07 L 40.7 14.07 L 40.7 16.23 L 36.37 16.23 L 36.37 19.48 L 40.7 19.48 L 40.7 21.64 L 35.29 21.64 C 34.69 21.64 34.21 21.16 34.21 20.56 L 34.21 6.49 L 6.07 6.49 L 6.07 34.63 L 25.55 34.63 C 26.15 34.63 26.63 35.11 26.63 35.71" fill="#ed7100" stroke="none" pointer-events="all"/></g></svg>