<?xml version="1.0" encoding="UTF-8"?>
<!-- Do not edit this file with editors other than draw.io -->
<!DOCTYPE svg PUBLIC "-//W3C//DTD SVG 1.1//EN" "http://www.w3.org/Graphics/SVG/1.1/DTD/svg11.dtd">
<svg xmlns="http://www.w3.org/2000/svg" xmlns:xlink="http://www.w3.org/1999/xlink" version="1.1" width="49px" height="49px" viewBox="-0.5 -0.5 49 49" content="&lt;mxfile host=&quot;app.diagrams.net&quot; modified=&quot;2023-11-13T09:42:33.866Z&quot; agent=&quot;Mozilla/5.0 (Windows NT 10.0; Win64; x64) AppleWebKit/537.36 (KHTML, like Gecko) Chrome/119.0.0.0 Safari/537.36&quot; etag=&quot;YSXaZxc7HK8XGzZGTRSf&quot; version=&quot;22.1.0&quot; type=&quot;device&quot;&gt;&#10;  &lt;diagram name=&quot;페이지-1&quot; id=&quot;AW3kfpiaLIK3EqUbXKlc&quot;&gt;&#10;    &lt;mxGraphModel dx=&quot;292&quot; dy=&quot;157&quot; grid=&quot;1&quot; gridSize=&quot;10&quot; guides=&quot;1&quot; tooltips=&quot;1&quot; connect=&quot;1&quot; arrows=&quot;1&quot; fold=&quot;1&quot; page=&quot;1&quot; pageScale=&quot;1&quot; pageWidth=&quot;827&quot; pageHeight=&quot;1169&quot; math=&quot;0&quot; shadow=&quot;0&quot;&gt;&#10;      &lt;root&gt;&#10;        &lt;mxCell id=&quot;0&quot; /&gt;&#10;        &lt;mxCell id=&quot;1&quot; parent=&quot;0&quot; /&gt;&#10;        &lt;mxCell id=&quot;_niekT0tynacapAUr5bP-37&quot; value=&quot;&quot; style=&quot;sketch=0;outlineConnect=0;fontColor=#232F3E;gradientColor=none;fillColor=#ED7100;strokeColor=none;dashed=0;verticalLabelPosition=bottom;verticalAlign=top;align=center;html=1;fontSize=12;fontStyle=0;aspect=fixed;pointerEvents=1;shape=mxgraph.aws4.g3_instance;&quot; vertex=&quot;1&quot; parent=&quot;1&quot;&gt;&#10;          &lt;mxGeometry x=&quot;490&quot; y=&quot;160&quot; width=&quot;48&quot; height=&quot;48&quot; as=&quot;geometry&quot; /&gt;&#10;        &lt;/mxCell&gt;&#10;      &lt;/root&gt;&#10;    &lt;/mxGraphModel&gt;&#10;  &lt;/diagram&gt;&#10;&lt;/mxfile&gt;&#10;"><defs/><g><rect x="0" y="0" width="48" height="48" fill="none" stroke="none" pointer-events="all"/><path d="M 48 12 L 48 9.82 L 42.55 9.82 L 42.55 6.55 C 42.55 5.94 42.06 5.45 41.45 5.45 L 38.18 5.45 L 38.18 0 L 36 0 L 36 5.45 L 31.64 5.45 L 31.64 0 L 29.45 0 L 29.45 5.45 L 25.09 5.45 L 25.09 0 L 22.91 0 L 22.91 5.45 L 18.55 5.45 L 18.55 0 L 16.36 0 L 16.36 5.45 L 12 5.45 L 12 0 L 9.82 0 L 9.82 5.45 L 6.55 5.45 C 5.94 5.45 5.45 5.94 5.45 6.55 L 5.45 9.82 L 0 9.82 L 0 12 L 5.45 12 L 5.45 16.36 L 0 16.36 L 0 18.55 L 5.45 18.55 L 5.45 22.91 L 0 22.91 L 0 25.09 L 5.45 25.09 L 5.45 29.45 L 0 29.45 L 0 31.64 L 5.45 31.64 L 5.45 36 L 0 36 L 0 38.18 L 5.45 38.18 L 5.45 41.45 C 5.45 42.06 5.94 42.55 6.55 42.55 L 9.82 42.55 L 9.82 48 L 12 48 L 12 42.55 L 16.36 42.55 L 16.36 48 L 18.55 48 L 18.55 42.55 L 22.91 42.55 L 22.91 48 L 25.09 48 L 25.09 42.55 L 29.45 42.55 L 29.45 48 L 31.64 48 L 31.64 42.55 L 36 42.55 L 36 48 L 38.18 48 L 38.18 42.55 L 41.45 42.55 C 42.06 42.55 42.55 42.06 42.55 41.45 L 42.55 38.18 L 48 38.18 L 48 36 L 42.55 36 L 42.55 31.64 L 48 31.64 L 48 29.45 L 42.55 29.45 L 42.55 25.09 L 48 25.09 L 48 22.91 L 42.55 22.91 L 42.55 18.55 L 48 18.55 L 48 16.36 L 42.55 16.36 L 42.55 12 Z M 7.64 40.36 L 7.64 7.64 L 40.36 7.64 L 40.36 40.36 Z M 16.55 28.11 C 15.66 27.18 15.22 25.84 15.22 24.09 C 15.22 22.31 15.68 20.94 16.59 19.99 C 17.5 19.04 18.82 18.56 20.53 18.56 C 21.69 18.56 22.72 18.77 23.62 19.19 L 23.62 20.67 C 22.55 20.31 21.56 20.14 20.66 20.14 C 19.46 20.14 18.57 20.44 17.98 21.05 C 17.4 21.66 17.11 22.62 17.11 23.91 L 17.11 24.23 C 17.11 25.5 17.4 26.44 17.97 27.03 C 18.55 27.63 19.45 27.93 20.69 27.93 C 21.18 27.93 21.65 27.88 22.12 27.79 L 22.12 24.99 L 19.94 24.99 L 19.94 23.53 L 23.98 23.53 L 23.98 28.72 C 23.52 28.96 22.98 29.16 22.35 29.29 C 21.73 29.43 21.08 29.5 20.42 29.5 C 18.73 29.5 17.44 29.04 16.55 28.11 Z M 28.75 29.55 C 27.77 29.55 26.82 29.34 25.88 28.93 L 25.88 27.5 C 26.99 27.87 27.93 28.06 28.69 28.06 C 29.41 28.06 29.96 27.9 30.35 27.58 C 30.74 27.26 30.93 26.8 30.93 26.21 C 30.93 25.09 30.23 24.54 28.81 24.54 C 28.36 24.54 27.87 24.57 27.34 24.63 L 27.34 23.45 L 30.35 20.18 L 26.03 20.18 L 26.03 18.73 L 32.34 18.73 L 32.34 20.12 L 29.16 23.24 C 29.3 23.23 29.44 23.22 29.58 23.22 C 30.18 23.22 30.72 23.35 31.2 23.6 C 31.68 23.85 32.07 24.2 32.35 24.66 C 32.64 25.11 32.78 25.64 32.78 26.23 C 32.78 26.87 32.62 27.44 32.29 27.94 C 31.97 28.44 31.5 28.83 30.89 29.12 C 30.28 29.4 29.56 29.55 28.75 29.55 Z" fill="#ed7100" stroke="none" pointer-events="all"/></g></svg>