<?xml version="1.0" encoding="UTF-8"?>
<!-- Do not edit this file with editors other than draw.io -->
<!DOCTYPE svg PUBLIC "-//W3C//DTD SVG 1.1//EN" "http://www.w3.org/Graphics/SVG/1.1/DTD/svg11.dtd">
<svg xmlns="http://www.w3.org/2000/svg" xmlns:xlink="http://www.w3.org/1999/xlink" version="1.1" width="49px" height="49px" viewBox="-0.5 -0.5 49 49" content="&lt;mxfile host=&quot;app.diagrams.net&quot; modified=&quot;2023-11-13T09:42:48.825Z&quot; agent=&quot;Mozilla/5.0 (Windows NT 10.0; Win64; x64) AppleWebKit/537.36 (KHTML, like Gecko) Chrome/119.0.0.0 Safari/537.36&quot; etag=&quot;7QMQ8a-XNxR98z_WCH7a&quot; version=&quot;22.1.0&quot; type=&quot;device&quot;&gt;&#10;  &lt;diagram name=&quot;페이지-1&quot; id=&quot;AW3kfpiaLIK3EqUbXKlc&quot;&gt;&#10;    &lt;mxGraphModel dx=&quot;292&quot; dy=&quot;157&quot; grid=&quot;1&quot; gridSize=&quot;10&quot; guides=&quot;1&quot; tooltips=&quot;1&quot; connect=&quot;1&quot; arrows=&quot;1&quot; fold=&quot;1&quot; page=&quot;1&quot; pageScale=&quot;1&quot; pageWidth=&quot;827&quot; pageHeight=&quot;1169&quot; math=&quot;0&quot; shadow=&quot;0&quot;&gt;&#10;      &lt;root&gt;&#10;        &lt;mxCell id=&quot;0&quot; /&gt;&#10;        &lt;mxCell id=&quot;1&quot; parent=&quot;0&quot; /&gt;&#10;        &lt;mxCell id=&quot;_niekT0tynacapAUr5bP-38&quot; value=&quot;&quot; style=&quot;sketch=0;outlineConnect=0;fontColor=#232F3E;gradientColor=none;fillColor=#ED7100;strokeColor=none;dashed=0;verticalLabelPosition=bottom;verticalAlign=top;align=center;html=1;fontSize=12;fontStyle=0;aspect=fixed;pointerEvents=1;shape=mxgraph.aws4.g4ad_instance;&quot; vertex=&quot;1&quot; parent=&quot;1&quot;&gt;&#10;          &lt;mxGeometry x=&quot;490&quot; y=&quot;190&quot; width=&quot;48&quot; height=&quot;48&quot; as=&quot;geometry&quot; /&gt;&#10;        &lt;/mxCell&gt;&#10;      &lt;/root&gt;&#10;    &lt;/mxGraphModel&gt;&#10;  &lt;/diagram&gt;&#10;&lt;/mxfile&gt;&#10;"><defs/><g><rect x="0" y="0" width="48" height="48" fill="none" stroke="none" pointer-events="all"/><path d="M 14.77 26.98 C 15.15 26.98 15.53 26.94 15.89 26.87 L 15.89 24.67 L 14.18 24.67 L 14.18 23.52 L 17.36 23.52 L 17.36 27.6 C 16.99 27.79 16.57 27.94 16.07 28.05 C 15.58 28.16 15.08 28.21 14.56 28.21 C 13.23 28.21 12.21 27.85 11.52 27.12 C 10.82 26.39 10.47 25.34 10.47 23.96 C 10.47 22.56 10.83 21.49 11.55 20.74 C 12.27 19.99 13.3 19.62 14.65 19.62 C 15.56 19.62 16.36 19.78 17.07 20.11 L 17.07 21.28 C 16.23 21 15.45 20.86 14.75 20.86 C 13.8 20.86 13.1 21.1 12.64 21.58 C 12.19 22.06 11.96 22.8 11.96 23.82 L 11.96 24.07 C 11.96 25.07 12.18 25.81 12.64 26.27 C 13.09 26.74 13.8 26.98 14.77 26.98 Z M 22.12 28.07 L 22.12 26.34 L 18.19 26.34 L 18.19 25.27 L 22.06 19.75 L 23.55 19.75 L 23.55 25.21 L 24.67 25.21 L 24.67 26.34 L 23.55 26.34 L 23.55 28.07 Z M 22.12 25.21 L 22.12 21.55 L 19.61 25.21 Z M 29.07 28.07 L 28.96 27.48 C 28.68 27.72 28.37 27.91 28.03 28.04 C 27.69 28.18 27.35 28.25 27.02 28.25 C 26.46 28.25 26 28.08 25.66 27.74 C 25.31 27.41 25.13 26.97 25.13 26.44 C 25.13 25.84 25.35 25.37 25.77 25.02 C 26.2 24.67 26.78 24.49 27.5 24.49 C 27.92 24.49 28.39 24.55 28.89 24.67 L 28.89 23.96 C 28.89 23.56 28.8 23.27 28.63 23.11 C 28.45 22.95 28.14 22.87 27.7 22.87 C 27.08 22.87 26.36 23 25.55 23.27 L 25.55 22.27 C 25.85 22.12 26.22 22 26.66 21.91 C 27.09 21.82 27.53 21.78 27.97 21.78 C 28.77 21.78 29.36 21.94 29.74 22.26 C 30.12 22.58 30.31 23.08 30.31 23.76 L 30.31 28.07 Z M 27.45 27.24 C 27.68 27.24 27.91 27.19 28.16 27.09 C 28.41 26.99 28.66 26.85 28.89 26.66 L 28.89 25.51 C 28.48 25.42 28.11 25.38 27.79 25.38 C 26.98 25.38 26.57 25.7 26.57 26.35 C 26.57 26.63 26.65 26.85 26.81 27.01 C 26.96 27.16 27.18 27.24 27.45 27.24 Z M 35.92 28.07 L 35.78 27.48 C 35.23 27.96 34.61 28.2 33.89 28.2 C 33.13 28.2 32.51 27.91 32.05 27.34 C 31.59 26.77 31.36 26 31.36 25.03 C 31.36 24.39 31.47 23.83 31.67 23.34 C 31.88 22.85 32.18 22.47 32.57 22.19 C 32.97 21.92 33.43 21.78 33.97 21.78 C 34.61 21.78 35.19 21.99 35.72 22.4 L 35.72 19.19 L 37.13 19.19 L 37.13 28.07 Z M 34.34 27.08 C 34.81 27.08 35.27 26.93 35.72 26.63 L 35.72 23.33 C 35.31 23.04 34.86 22.9 34.36 22.9 C 33.83 22.9 33.43 23.07 33.18 23.41 C 32.93 23.75 32.8 24.27 32.8 24.97 C 32.8 26.38 33.31 27.08 34.34 27.08 Z M 48 12 L 48 9.82 L 42.55 9.82 L 42.55 6.55 C 42.55 5.94 42.06 5.45 41.45 5.45 L 38.18 5.45 L 38.18 0 L 36 0 L 36 5.45 L 31.64 5.45 L 31.64 0 L 29.45 0 L 29.45 5.45 L 25.09 5.45 L 25.09 0 L 22.91 0 L 22.91 5.45 L 18.55 5.45 L 18.55 0 L 16.36 0 L 16.36 5.45 L 12 5.45 L 12 0 L 9.82 0 L 9.82 5.45 L 6.55 5.45 C 5.94 5.45 5.45 5.94 5.45 6.55 L 5.45 9.82 L 0 9.82 L 0 12 L 5.45 12 L 5.45 16.36 L 0 16.36 L 0 18.55 L 5.45 18.55 L 5.45 22.91 L 0 22.91 L 0 25.09 L 5.45 25.09 L 5.45 29.45 L 0 29.45 L 0 31.64 L 5.45 31.64 L 5.45 36 L 0 36 L 0 38.18 L 5.45 38.18 L 5.45 41.45 C 5.45 42.06 5.94 42.55 6.55 42.55 L 9.82 42.55 L 9.82 48 L 12 48 L 12 42.55 L 16.36 42.55 L 16.36 48 L 18.55 48 L 18.55 42.55 L 22.91 42.55 L 22.91 48 L 25.09 48 L 25.09 42.55 L 29.45 42.55 L 29.45 48 L 31.64 48 L 31.64 42.55 L 36 42.55 L 36 48 L 38.18 48 L 38.18 42.55 L 41.45 42.55 C 42.06 42.55 42.55 42.06 42.55 41.45 L 42.55 38.18 L 48 38.18 L 48 36 L 42.55 36 L 42.55 31.64 L 48 31.64 L 48 29.45 L 42.55 29.45 L 42.55 25.09 L 48 25.09 L 48 22.91 L 42.55 22.91 L 42.55 18.55 L 48 18.55 L 48 16.36 L 42.55 16.36 L 42.55 12 Z M 7.64 40.36 L 7.64 7.64 L 40.36 7.64 L 40.36 40.36 Z" fill="#ed7100" stroke="none" pointer-events="all"/></g></svg>