<?xml version="1.0" encoding="UTF-8"?>
<!-- Do not edit this file with editors other than draw.io -->
<!DOCTYPE svg PUBLIC "-//W3C//DTD SVG 1.1//EN" "http://www.w3.org/Graphics/SVG/1.1/DTD/svg11.dtd">
<svg xmlns="http://www.w3.org/2000/svg" xmlns:xlink="http://www.w3.org/1999/xlink" version="1.1" width="49px" height="49px" viewBox="-0.5 -0.5 49 49" content="&lt;mxfile host=&quot;app.diagrams.net&quot; modified=&quot;2023-11-13T09:42:55.927Z&quot; agent=&quot;Mozilla/5.0 (Windows NT 10.0; Win64; x64) AppleWebKit/537.36 (KHTML, like Gecko) Chrome/119.0.0.0 Safari/537.36&quot; etag=&quot;YCY55xRuZhtgevra-unP&quot; version=&quot;22.1.0&quot; type=&quot;device&quot;&gt;&#10;  &lt;diagram name=&quot;페이지-1&quot; id=&quot;AW3kfpiaLIK3EqUbXKlc&quot;&gt;&#10;    &lt;mxGraphModel dx=&quot;292&quot; dy=&quot;157&quot; grid=&quot;1&quot; gridSize=&quot;10&quot; guides=&quot;1&quot; tooltips=&quot;1&quot; connect=&quot;1&quot; arrows=&quot;1&quot; fold=&quot;1&quot; page=&quot;1&quot; pageScale=&quot;1&quot; pageWidth=&quot;827&quot; pageHeight=&quot;1169&quot; math=&quot;0&quot; shadow=&quot;0&quot;&gt;&#10;      &lt;root&gt;&#10;        &lt;mxCell id=&quot;0&quot; /&gt;&#10;        &lt;mxCell id=&quot;1&quot; parent=&quot;0&quot; /&gt;&#10;        &lt;mxCell id=&quot;_niekT0tynacapAUr5bP-39&quot; value=&quot;&quot; style=&quot;sketch=0;outlineConnect=0;fontColor=#232F3E;gradientColor=none;fillColor=#ED7100;strokeColor=none;dashed=0;verticalLabelPosition=bottom;verticalAlign=top;align=center;html=1;fontSize=12;fontStyle=0;aspect=fixed;pointerEvents=1;shape=mxgraph.aws4.g4dn;&quot; vertex=&quot;1&quot; parent=&quot;1&quot;&gt;&#10;          &lt;mxGeometry x=&quot;530&quot; y=&quot;160&quot; width=&quot;48&quot; height=&quot;48&quot; as=&quot;geometry&quot; /&gt;&#10;        &lt;/mxCell&gt;&#10;      &lt;/root&gt;&#10;    &lt;/mxGraphModel&gt;&#10;  &lt;/diagram&gt;&#10;&lt;/mxfile&gt;&#10;"><defs/><g><rect x="0" y="0" width="48" height="48" fill="none" stroke="none" pointer-events="all"/><path d="M 13.72 26.88 C 14.14 26.88 14.55 26.84 14.95 26.76 L 14.95 24.36 L 13.08 24.36 L 13.08 23.11 L 16.55 23.11 L 16.55 27.56 C 16.15 27.77 15.68 27.93 15.14 28.05 C 14.61 28.17 14.06 28.23 13.49 28.23 C 12.04 28.23 10.93 27.83 10.17 27.03 C 9.41 26.24 9.03 25.09 9.03 23.59 C 9.03 22.06 9.42 20.89 10.21 20.08 C 10.99 19.26 12.12 18.85 13.59 18.85 C 14.58 18.85 15.46 19.03 16.23 19.39 L 16.23 20.66 C 15.32 20.35 14.47 20.2 13.7 20.2 C 12.66 20.2 11.9 20.46 11.4 20.99 C 10.9 21.51 10.65 22.33 10.65 23.43 L 10.65 23.71 C 10.65 24.8 10.9 25.6 11.39 26.11 C 11.89 26.62 12.66 26.88 13.72 26.88 Z M 21.61 28.07 L 21.61 26.18 L 17.32 26.18 L 17.32 25.02 L 21.55 19 L 23.17 19 L 23.17 24.95 L 24.39 24.95 L 24.39 26.18 L 23.17 26.18 L 23.17 28.07 Z M 21.61 24.95 L 21.61 20.96 L 18.87 24.95 Z M 29.82 28.07 L 29.66 27.43 C 29.07 27.95 28.38 28.21 27.61 28.21 C 26.77 28.21 26.1 27.9 25.6 27.28 C 25.1 26.65 24.84 25.81 24.84 24.76 C 24.84 24.06 24.96 23.44 25.18 22.91 C 25.41 22.38 25.74 21.96 26.17 21.66 C 26.59 21.36 27.1 21.21 27.69 21.21 C 28.38 21.21 29.02 21.44 29.6 21.89 L 29.6 18.38 L 31.14 18.38 L 31.14 28.07 Z M 28.09 26.99 C 28.61 26.99 29.11 26.83 29.6 26.5 L 29.6 22.9 C 29.15 22.58 28.66 22.43 28.12 22.43 C 27.53 22.43 27.1 22.61 26.83 22.98 C 26.55 23.35 26.42 23.92 26.42 24.69 C 26.42 26.23 26.97 26.99 28.09 26.99 Z M 37.05 28.07 L 37.05 23.66 C 37.05 23.23 36.96 22.92 36.78 22.72 C 36.61 22.52 36.33 22.43 35.95 22.43 C 35.37 22.43 34.78 22.62 34.18 23 L 34.18 28.07 L 32.63 28.07 L 32.63 21.4 L 33.92 21.4 L 34.07 22.14 C 34.89 21.52 35.75 21.21 36.64 21.21 C 37.28 21.21 37.76 21.38 38.09 21.71 C 38.42 22.05 38.59 22.53 38.59 23.17 L 38.59 28.07 Z M 48 12 L 48 9.82 L 42.55 9.82 L 42.55 6.55 C 42.55 5.94 42.06 5.45 41.45 5.45 L 38.18 5.45 L 38.18 0 L 36 0 L 36 5.45 L 31.64 5.45 L 31.64 0 L 29.45 0 L 29.45 5.45 L 25.09 5.45 L 25.09 0 L 22.91 0 L 22.91 5.45 L 18.55 5.45 L 18.55 0 L 16.36 0 L 16.36 5.45 L 12 5.45 L 12 0 L 9.82 0 L 9.82 5.45 L 6.55 5.45 C 5.94 5.45 5.45 5.94 5.45 6.55 L 5.45 9.82 L 0 9.82 L 0 12 L 5.45 12 L 5.45 16.36 L 0 16.36 L 0 18.55 L 5.45 18.55 L 5.45 22.91 L 0 22.91 L 0 25.09 L 5.45 25.09 L 5.45 29.45 L 0 29.45 L 0 31.64 L 5.45 31.64 L 5.45 36 L 0 36 L 0 38.18 L 5.45 38.18 L 5.45 41.45 C 5.45 42.06 5.94 42.55 6.55 42.55 L 9.82 42.55 L 9.82 48 L 12 48 L 12 42.55 L 16.36 42.55 L 16.36 48 L 18.55 48 L 18.55 42.55 L 22.91 42.55 L 22.91 48 L 25.09 48 L 25.09 42.55 L 29.45 42.55 L 29.45 48 L 31.64 48 L 31.64 42.55 L 36 42.55 L 36 48 L 38.18 48 L 38.18 42.55 L 41.45 42.55 C 42.06 42.55 42.55 42.06 42.55 41.45 L 42.55 38.18 L 48 38.18 L 48 36 L 42.55 36 L 42.55 31.64 L 48 31.64 L 48 29.45 L 42.55 29.45 L 42.55 25.09 L 48 25.09 L 48 22.91 L 42.55 22.91 L 42.55 18.55 L 48 18.55 L 48 16.36 L 42.55 16.36 L 42.55 12 Z M 7.64 40.36 L 7.64 7.64 L 40.36 7.64 L 40.36 40.36 Z" fill="#ed7100" stroke="none" pointer-events="all"/></g></svg>