<?xml version="1.0" encoding="UTF-8"?>
<!-- Do not edit this file with editors other than draw.io -->
<!DOCTYPE svg PUBLIC "-//W3C//DTD SVG 1.1//EN" "http://www.w3.org/Graphics/SVG/1.1/DTD/svg11.dtd">
<svg xmlns="http://www.w3.org/2000/svg" xmlns:xlink="http://www.w3.org/1999/xlink" version="1.1" width="49px" height="49px" viewBox="-0.5 -0.5 49 49" content="&lt;mxfile host=&quot;app.diagrams.net&quot; modified=&quot;2023-11-13T09:43:03.374Z&quot; agent=&quot;Mozilla/5.0 (Windows NT 10.0; Win64; x64) AppleWebKit/537.36 (KHTML, like Gecko) Chrome/119.0.0.0 Safari/537.36&quot; etag=&quot;MPWpM5_IXsj8T1m2qd1M&quot; version=&quot;22.1.0&quot; type=&quot;device&quot;&gt;&#10;  &lt;diagram name=&quot;페이지-1&quot; id=&quot;AW3kfpiaLIK3EqUbXKlc&quot;&gt;&#10;    &lt;mxGraphModel dx=&quot;292&quot; dy=&quot;157&quot; grid=&quot;1&quot; gridSize=&quot;10&quot; guides=&quot;1&quot; tooltips=&quot;1&quot; connect=&quot;1&quot; arrows=&quot;1&quot; fold=&quot;1&quot; page=&quot;1&quot; pageScale=&quot;1&quot; pageWidth=&quot;827&quot; pageHeight=&quot;1169&quot; math=&quot;0&quot; shadow=&quot;0&quot;&gt;&#10;      &lt;root&gt;&#10;        &lt;mxCell id=&quot;0&quot; /&gt;&#10;        &lt;mxCell id=&quot;1&quot; parent=&quot;0&quot; /&gt;&#10;        &lt;mxCell id=&quot;_niekT0tynacapAUr5bP-40&quot; value=&quot;&quot; style=&quot;sketch=0;outlineConnect=0;fontColor=#232F3E;gradientColor=none;fillColor=#ED7100;strokeColor=none;dashed=0;verticalLabelPosition=bottom;verticalAlign=top;align=center;html=1;fontSize=12;fontStyle=0;aspect=fixed;pointerEvents=1;shape=mxgraph.aws4.ec2_g5g_instance;&quot; vertex=&quot;1&quot; parent=&quot;1&quot;&gt;&#10;          &lt;mxGeometry x=&quot;470&quot; y=&quot;170&quot; width=&quot;48&quot; height=&quot;48&quot; as=&quot;geometry&quot; /&gt;&#10;        &lt;/mxCell&gt;&#10;      &lt;/root&gt;&#10;    &lt;/mxGraphModel&gt;&#10;  &lt;/diagram&gt;&#10;&lt;/mxfile&gt;&#10;"><defs/><g><rect x="-1" y="0" width="48" height="48" fill="none" stroke="none" pointer-events="all"/><path d="M 6.64 40.36 L 39.36 40.36 L 39.36 7.64 L 6.64 7.64 Z M 41.55 12 L 41.55 16.36 L 47 16.36 L 47 18.55 L 41.55 18.55 L 41.55 22.91 L 47 22.91 L 47 25.09 L 41.55 25.09 L 41.55 29.45 L 47 29.45 L 47 31.64 L 41.55 31.64 L 41.55 36 L 47 36 L 47 38.18 L 41.55 38.18 L 41.55 41.45 C 41.55 42.06 41.06 42.55 40.45 42.55 L 37.18 42.55 L 37.18 48 L 35 48 L 35 42.55 L 30.64 42.55 L 30.64 48 L 28.45 48 L 28.45 42.55 L 24.09 42.55 L 24.09 48 L 21.91 48 L 21.91 42.55 L 17.55 42.55 L 17.55 48 L 15.36 48 L 15.36 42.55 L 11 42.55 L 11 48 L 8.82 48 L 8.82 42.55 L 5.55 42.55 C 4.94 42.55 4.45 42.06 4.45 41.45 L 4.45 38.18 L -1 38.18 L -1 36 L 4.45 36 L 4.45 31.64 L -1 31.64 L -1 29.45 L 4.45 29.45 L 4.45 25.09 L -1 25.09 L -1 22.91 L 4.45 22.91 L 4.45 18.55 L -1 18.55 L -1 16.36 L 4.45 16.36 L 4.45 12 L -1 12 L -1 9.82 L 4.45 9.82 L 4.45 6.55 C 4.45 5.94 4.94 5.45 5.55 5.45 L 8.82 5.45 L 8.82 0 L 11 0 L 11 5.45 L 15.36 5.45 L 15.36 0 L 17.55 0 L 17.55 5.45 L 21.91 5.45 L 21.91 0 L 24.09 0 L 24.09 5.45 L 28.45 5.45 L 28.45 0 L 30.64 0 L 30.64 5.45 L 35 5.45 L 35 0 L 37.18 0 L 37.18 5.45 L 40.45 5.45 C 41.06 5.45 41.55 5.94 41.55 6.55 L 41.55 9.82 L 47 9.82 L 47 12 Z M 30.41 23.96 C 30.41 25.67 31.02 26.53 32.23 26.53 C 32.83 26.53 33.4 26.33 33.94 25.93 L 33.94 22.02 C 33.41 21.65 32.85 21.47 32.25 21.47 C 31.62 21.47 31.16 21.67 30.86 22.08 C 30.56 22.49 30.41 23.11 30.41 23.96 Z M 29.43 26.85 C 28.86 26.15 28.58 25.2 28.58 24.02 C 28.58 23.25 28.71 22.56 28.96 21.97 C 29.22 21.37 29.58 20.91 30.06 20.57 C 30.54 20.23 31.11 20.07 31.76 20.07 C 32.64 20.07 33.41 20.38 34.06 21 L 34.22 20.29 L 35.74 20.29 L 35.74 27.53 C 35.74 28.77 35.41 29.72 34.74 30.39 C 34.07 31.06 33.11 31.4 31.88 31.4 C 30.95 31.4 30.04 31.19 29.21 30.77 L 29.21 29.49 C 30.15 29.8 31 29.96 31.76 29.96 C 32.52 29.96 33.08 29.79 33.42 29.43 C 33.77 29.08 33.94 28.51 33.94 27.72 L 33.94 27.06 C 33.28 27.63 32.53 27.92 31.7 27.92 C 30.75 27.92 29.99 27.56 29.43 26.85 Z M 26.11 27.36 C 26.84 26.73 27.21 25.89 27.21 24.83 C 27.21 23.84 26.9 23.06 26.3 22.49 C 25.69 21.92 24.86 21.64 23.8 21.64 C 23.33 21.64 22.89 21.68 22.47 21.76 L 22.65 18.93 L 26.69 18.93 L 26.69 17.48 L 20.94 17.48 L 20.65 22.04 L 20.65 23.2 L 22.98 23.04 C 23.81 23.04 24.41 23.19 24.79 23.48 C 25.17 23.77 25.36 24.23 25.36 24.86 C 25.36 26.16 24.6 26.82 23.09 26.82 C 22.29 26.82 21.32 26.63 20.21 26.25 L 20.21 27.69 C 21.14 28.09 22.13 28.3 23.14 28.3 C 24.39 28.3 25.37 27.98 26.11 27.36 Z M 11.16 26.86 C 10.27 25.94 9.83 24.6 9.83 22.84 C 9.83 21.06 10.28 19.7 11.2 18.74 C 12.11 17.79 13.43 17.32 15.14 17.32 C 16.3 17.32 17.33 17.52 18.23 17.94 L 18.23 19.42 C 17.16 19.07 16.17 18.89 15.27 18.89 C 14.06 18.89 13.17 19.19 12.59 19.81 C 12.01 20.42 11.72 21.37 11.72 22.66 L 11.72 22.98 C 11.72 24.26 12.01 25.19 12.58 25.78 C 13.16 26.38 14.06 26.68 15.29 26.68 C 15.78 26.68 16.26 26.63 16.73 26.54 L 16.73 23.75 L 14.55 23.75 L 14.55 22.28 L 18.59 22.28 L 18.59 27.47 C 18.13 27.72 17.58 27.91 16.96 28.05 C 16.33 28.18 15.69 28.25 15.03 28.25 C 13.34 28.25 12.05 27.79 11.16 26.86 Z" fill="#ed7100" stroke="none" pointer-events="all"/></g></svg>