<?xml version="1.0" encoding="UTF-8"?>
<!-- Do not edit this file with editors other than draw.io -->
<!DOCTYPE svg PUBLIC "-//W3C//DTD SVG 1.1//EN" "http://www.w3.org/Graphics/SVG/1.1/DTD/svg11.dtd">
<svg xmlns="http://www.w3.org/2000/svg" xmlns:xlink="http://www.w3.org/1999/xlink" version="1.1" width="49px" height="49px" viewBox="-0.5 -0.5 49 49" content="&lt;mxfile host=&quot;app.diagrams.net&quot; modified=&quot;2023-11-13T10:29:46.675Z&quot; agent=&quot;Mozilla/5.0 (Windows NT 10.0; Win64; x64) AppleWebKit/537.36 (KHTML, like Gecko) Chrome/119.0.0.0 Safari/537.36&quot; etag=&quot;H_KWyYI3kVccwwkEEc8q&quot; version=&quot;22.1.0&quot; type=&quot;device&quot;&gt;&#10;  &lt;diagram name=&quot;페이지-1&quot; id=&quot;AW3kfpiaLIK3EqUbXKlc&quot;&gt;&#10;    &lt;mxGraphModel dx=&quot;292&quot; dy=&quot;157&quot; grid=&quot;1&quot; gridSize=&quot;10&quot; guides=&quot;1&quot; tooltips=&quot;1&quot; connect=&quot;1&quot; arrows=&quot;1&quot; fold=&quot;1&quot; page=&quot;1&quot; pageScale=&quot;1&quot; pageWidth=&quot;827&quot; pageHeight=&quot;1169&quot; math=&quot;0&quot; shadow=&quot;0&quot;&gt;&#10;      &lt;root&gt;&#10;        &lt;mxCell id=&quot;0&quot; /&gt;&#10;        &lt;mxCell id=&quot;1&quot; parent=&quot;0&quot; /&gt;&#10;        &lt;mxCell id=&quot;_niekT0tynacapAUr5bP-98&quot; value=&quot;&quot; style=&quot;sketch=0;outlineConnect=0;fontColor=#232F3E;gradientColor=none;fillColor=#ED7100;strokeColor=none;dashed=0;verticalLabelPosition=bottom;verticalAlign=top;align=center;html=1;fontSize=12;fontStyle=0;aspect=fixed;pointerEvents=1;shape=mxgraph.aws4.habana_gaudi;&quot; vertex=&quot;1&quot; parent=&quot;1&quot;&gt;&#10;          &lt;mxGeometry x=&quot;470&quot; y=&quot;150&quot; width=&quot;48&quot; height=&quot;48&quot; as=&quot;geometry&quot; /&gt;&#10;        &lt;/mxCell&gt;&#10;      &lt;/root&gt;&#10;    &lt;/mxGraphModel&gt;&#10;  &lt;/diagram&gt;&#10;&lt;/mxfile&gt;&#10;"><defs/><g><rect x="-1" y="0" width="48" height="48" fill="none" stroke="none" pointer-events="all"/><path d="M 6.64 40.36 L 39.36 40.36 L 39.36 7.64 L 6.64 7.64 Z M 41.55 12 L 41.55 16.36 L 47 16.36 L 47 18.55 L 41.55 18.55 L 41.55 22.91 L 47 22.91 L 47 25.09 L 41.55 25.09 L 41.55 29.45 L 47 29.45 L 47 31.64 L 41.55 31.64 L 41.55 36 L 47 36 L 47 38.18 L 41.55 38.18 L 41.55 41.45 C 41.55 42.06 41.06 42.55 40.45 42.55 L 37.18 42.55 L 37.18 48 L 35 48 L 35 42.55 L 30.64 42.55 L 30.64 48 L 28.45 48 L 28.45 42.55 L 24.09 42.55 L 24.09 48 L 21.91 48 L 21.91 42.55 L 17.55 42.55 L 17.55 48 L 15.36 48 L 15.36 42.55 L 11 42.55 L 11 48 L 8.82 48 L 8.82 42.55 L 5.55 42.55 C 4.94 42.55 4.45 42.06 4.45 41.45 L 4.45 38.18 L -1 38.18 L -1 36 L 4.45 36 L 4.45 31.64 L -1 31.64 L -1 29.45 L 4.45 29.45 L 4.45 25.09 L -1 25.09 L -1 22.91 L 4.45 22.91 L 4.45 18.55 L -1 18.55 L -1 16.36 L 4.45 16.36 L 4.45 12 L -1 12 L -1 9.82 L 4.45 9.82 L 4.45 6.55 C 4.45 5.94 4.94 5.45 5.55 5.45 L 8.82 5.45 L 8.82 0 L 11 0 L 11 5.45 L 15.36 5.45 L 15.36 0 L 17.55 0 L 17.55 5.45 L 21.91 5.45 L 21.91 0 L 24.09 0 L 24.09 5.45 L 28.45 5.45 L 28.45 0 L 30.64 0 L 30.64 5.45 L 35 5.45 L 35 0 L 37.18 0 L 37.18 5.45 L 40.45 5.45 C 41.06 5.45 41.55 5.94 41.55 6.55 L 41.55 9.82 L 47 9.82 L 47 12 Z M 32.52 27.01 C 32.52 27.2 32.58 27.35 32.69 27.45 C 32.8 27.56 32.95 27.61 33.14 27.61 C 33.33 27.61 33.48 27.56 33.59 27.45 C 33.7 27.35 33.76 27.2 33.76 27.01 C 33.76 26.83 33.7 26.68 33.59 26.58 C 33.48 26.47 33.33 26.42 33.14 26.42 C 32.95 26.42 32.8 26.47 32.69 26.58 C 32.58 26.68 32.52 26.83 32.52 27.01 Z M 32.63 32.78 L 33.65 32.78 L 33.65 28.34 L 32.63 28.34 Z M 28.36 30.53 C 28.36 31.56 28.73 32.07 29.48 32.07 C 29.82 32.07 30.15 31.96 30.48 31.74 L 30.48 29.34 C 30.18 29.13 29.85 29.02 29.49 29.02 C 29.1 29.02 28.82 29.15 28.63 29.39 C 28.45 29.64 28.36 30.02 28.36 30.53 Z M 28.19 28.51 C 28.48 28.31 28.81 28.21 29.2 28.21 C 29.67 28.21 30.1 28.36 30.48 28.66 L 30.48 26.32 L 31.51 26.32 L 31.51 32.78 L 30.63 32.78 L 30.52 32.36 C 30.13 32.7 29.67 32.88 29.15 32.88 C 28.59 32.88 28.15 32.67 27.81 32.25 C 27.48 31.84 27.31 31.28 27.31 30.57 C 27.31 30.11 27.39 29.7 27.54 29.34 C 27.69 28.99 27.91 28.71 28.19 28.51 Z M 22.57 28.34 L 22.57 31.58 C 22.57 32.01 22.68 32.34 22.91 32.57 C 23.13 32.8 23.45 32.91 23.86 32.91 C 24.4 32.91 24.95 32.71 25.49 32.29 L 25.6 32.78 L 26.46 32.78 L 26.46 28.34 L 25.43 28.34 L 25.43 31.74 C 25.06 31.98 24.7 32.1 24.34 32.1 C 24.08 32.1 23.89 32.04 23.78 31.9 C 23.66 31.77 23.6 31.56 23.6 31.27 L 23.6 28.34 Z M 20.59 30.92 C 20.29 30.86 20.02 30.83 19.79 30.83 C 19.2 30.83 18.91 31.06 18.91 31.53 C 18.91 31.74 18.96 31.9 19.08 32.01 C 19.19 32.12 19.35 32.18 19.54 32.18 C 19.71 32.18 19.88 32.14 20.06 32.07 C 20.25 32 20.42 31.9 20.59 31.76 Z M 18.16 28.57 C 18.38 28.46 18.65 28.37 18.97 28.31 C 19.29 28.24 19.6 28.21 19.92 28.21 C 20.5 28.21 20.93 28.33 21.21 28.56 C 21.48 28.79 21.62 29.16 21.62 29.65 L 21.62 32.78 L 20.72 32.78 L 20.64 32.36 C 20.44 32.53 20.21 32.67 19.97 32.77 C 19.72 32.86 19.47 32.91 19.23 32.91 C 18.82 32.91 18.49 32.79 18.24 32.55 C 17.99 32.3 17.86 31.99 17.86 31.6 C 17.86 31.17 18.01 30.82 18.33 30.57 C 18.64 30.31 19.06 30.18 19.58 30.18 C 19.89 30.18 20.22 30.23 20.59 30.31 L 20.59 29.8 C 20.59 29.5 20.53 29.3 20.4 29.18 C 20.27 29.06 20.05 29 19.73 29 C 19.27 29 18.75 29.1 18.16 29.29 Z M 14.83 30.31 L 16.08 30.31 L 16.08 31.91 C 15.81 31.96 15.54 31.99 15.26 31.99 C 14.56 31.99 14.04 31.82 13.71 31.48 C 13.38 31.14 13.22 30.6 13.22 29.88 L 13.22 29.69 C 13.22 28.95 13.38 28.41 13.71 28.06 C 14.05 27.71 14.56 27.54 15.24 27.54 C 15.76 27.54 16.32 27.64 16.93 27.84 L 16.93 27 C 16.42 26.76 15.83 26.64 15.17 26.64 C 14.19 26.64 13.44 26.91 12.92 27.45 C 12.4 28 12.13 28.78 12.13 29.8 C 12.13 30.8 12.39 31.56 12.89 32.09 C 13.4 32.62 14.14 32.89 15.11 32.89 C 15.49 32.89 15.85 32.85 16.21 32.77 C 16.57 32.69 16.88 32.58 17.14 32.44 L 17.14 29.48 L 14.83 29.48 Z M 36.36 20.45 C 36.06 20.39 35.79 20.36 35.56 20.36 C 34.97 20.36 34.68 20.59 34.68 21.06 C 34.68 21.27 34.73 21.42 34.85 21.54 C 34.96 21.65 35.12 21.71 35.31 21.71 C 35.48 21.71 35.65 21.67 35.83 21.6 C 36.02 21.53 36.19 21.42 36.36 21.29 Z M 36.36 19.84 L 36.36 19.33 C 36.36 19.03 36.3 18.82 36.17 18.71 C 36.04 18.59 35.82 18.53 35.5 18.53 C 35.04 18.53 34.52 18.63 33.93 18.82 L 33.93 18.09 C 34.15 17.98 34.42 17.9 34.74 17.83 C 35.06 17.77 35.37 17.74 35.69 17.74 C 36.27 17.74 36.7 17.85 36.98 18.09 C 37.25 18.32 37.39 18.68 37.39 19.18 L 37.39 22.31 L 36.49 22.31 L 36.41 21.88 C 36.21 22.06 35.98 22.19 35.74 22.29 C 35.49 22.39 35.24 22.44 35 22.44 C 34.59 22.44 34.26 22.32 34.01 22.07 C 33.76 21.83 33.63 21.51 33.63 21.12 C 33.63 20.69 33.78 20.35 34.1 20.09 C 34.41 19.84 34.83 19.71 35.35 19.71 C 35.66 19.71 35.99 19.75 36.36 19.84 Z M 29.91 18.93 C 30.31 18.68 30.71 18.55 31.09 18.55 C 31.35 18.55 31.53 18.61 31.65 18.75 C 31.76 18.88 31.82 19.08 31.82 19.37 L 31.82 22.31 L 32.85 22.31 L 32.85 19.05 C 32.85 18.62 32.74 18.3 32.52 18.07 C 32.3 17.85 31.98 17.74 31.55 17.74 C 30.96 17.74 30.39 17.94 29.84 18.36 L 29.74 17.87 L 28.88 17.87 L 28.88 22.31 L 29.91 22.31 Z M 26.86 20.45 C 26.56 20.39 26.29 20.36 26.06 20.36 C 25.47 20.36 25.17 20.59 25.17 21.06 C 25.17 21.27 25.23 21.42 25.34 21.54 C 25.46 21.65 25.61 21.71 25.81 21.71 C 25.98 21.71 26.15 21.67 26.33 21.6 C 26.51 21.53 26.69 21.42 26.86 21.29 Z M 26.86 19.84 L 26.86 19.33 C 26.86 19.03 26.79 18.82 26.66 18.71 C 26.54 18.59 26.31 18.53 25.99 18.53 C 25.54 18.53 25.02 18.63 24.43 18.82 L 24.43 18.09 C 24.65 17.98 24.92 17.9 25.24 17.83 C 25.55 17.77 25.87 17.74 26.19 17.74 C 26.77 17.74 27.2 17.85 27.47 18.09 C 27.75 18.32 27.89 18.68 27.89 19.18 L 27.89 22.31 L 26.99 22.31 L 26.91 21.88 C 26.7 22.06 26.48 22.19 26.23 22.29 C 25.99 22.39 25.74 22.44 25.5 22.44 C 25.09 22.44 24.76 22.32 24.51 22.07 C 24.25 21.83 24.12 21.51 24.12 21.12 C 24.12 20.69 24.28 20.35 24.59 20.09 C 24.9 19.84 25.32 19.71 25.84 19.71 C 26.15 19.71 26.49 19.75 26.86 19.84 Z M 20.36 21.25 C 20.69 21.48 21.04 21.59 21.4 21.59 C 21.77 21.59 22.05 21.47 22.23 21.21 C 22.41 20.96 22.5 20.58 22.5 20.06 C 22.5 19.55 22.41 19.17 22.24 18.92 C 22.06 18.67 21.78 18.55 21.41 18.55 C 21.03 18.55 20.68 18.66 20.36 18.88 Z M 20.19 22.31 L 19.33 22.31 L 19.33 15.85 L 20.36 15.85 L 20.36 18.26 C 20.78 17.91 21.23 17.74 21.73 17.74 C 22.29 17.74 22.73 17.94 23.06 18.36 C 23.39 18.77 23.55 19.33 23.55 20.02 C 23.55 20.49 23.47 20.9 23.32 21.26 C 23.17 21.62 22.95 21.9 22.67 22.1 C 22.38 22.3 22.05 22.41 21.66 22.41 C 21.4 22.41 21.15 22.36 20.91 22.26 C 20.68 22.17 20.47 22.03 20.29 21.86 Z M 17.31 20.45 C 17.01 20.39 16.74 20.36 16.51 20.36 C 15.92 20.36 15.62 20.59 15.62 21.06 C 15.62 21.27 15.68 21.42 15.8 21.54 C 15.91 21.65 16.07 21.71 16.26 21.71 C 16.43 21.71 16.6 21.67 16.78 21.6 C 16.96 21.53 17.14 21.42 17.31 21.29 Z M 17.31 19.84 L 17.31 19.33 C 17.31 19.03 17.25 18.82 17.12 18.71 C 16.99 18.59 16.77 18.53 16.45 18.53 C 15.99 18.53 15.47 18.63 14.88 18.82 L 14.88 18.09 C 15.1 17.98 15.37 17.9 15.69 17.83 C 16 17.77 16.32 17.74 16.64 17.74 C 17.22 17.74 17.65 17.85 17.93 18.09 C 18.2 18.32 18.34 18.68 18.34 19.18 L 18.34 22.31 L 17.44 22.31 L 17.36 21.88 C 17.16 22.06 16.93 22.19 16.69 22.29 C 16.44 22.39 16.19 22.44 15.95 22.44 C 15.54 22.44 15.21 22.32 14.96 22.07 C 14.7 21.83 14.58 21.51 14.58 21.12 C 14.58 20.69 14.73 20.35 15.05 20.09 C 15.36 19.84 15.77 19.71 16.3 19.71 C 16.61 19.71 16.94 19.75 17.31 19.84 Z M 9.85 22.31 L 8.78 22.31 L 8.78 16.26 L 9.85 16.26 L 9.85 18.8 L 12.62 18.8 L 12.62 16.26 L 13.69 16.26 L 13.69 22.31 L 12.62 22.31 L 12.62 19.66 L 9.85 19.66 Z" fill="#ed7100" stroke="none" pointer-events="all"/></g></svg>