<?xml version="1.0" encoding="UTF-8"?>
<!-- Do not edit this file with editors other than draw.io -->
<!DOCTYPE svg PUBLIC "-//W3C//DTD SVG 1.1//EN" "http://www.w3.org/Graphics/SVG/1.1/DTD/svg11.dtd">
<svg xmlns="http://www.w3.org/2000/svg" xmlns:xlink="http://www.w3.org/1999/xlink" version="1.1" width="49px" height="49px" viewBox="-0.5 -0.5 49 49" content="&lt;mxfile host=&quot;app.diagrams.net&quot; modified=&quot;2023-11-13T09:39:13.425Z&quot; agent=&quot;Mozilla/5.0 (Windows NT 10.0; Win64; x64) AppleWebKit/537.36 (KHTML, like Gecko) Chrome/119.0.0.0 Safari/537.36&quot; etag=&quot;dlkS96RxXQdBsNKN3l3j&quot; version=&quot;22.1.0&quot; type=&quot;device&quot;&gt;&#10;  &lt;diagram name=&quot;페이지-1&quot; id=&quot;AW3kfpiaLIK3EqUbXKlc&quot;&gt;&#10;    &lt;mxGraphModel dx=&quot;292&quot; dy=&quot;157&quot; grid=&quot;1&quot; gridSize=&quot;10&quot; guides=&quot;1&quot; tooltips=&quot;1&quot; connect=&quot;1&quot; arrows=&quot;1&quot; fold=&quot;1&quot; page=&quot;1&quot; pageScale=&quot;1&quot; pageWidth=&quot;827&quot; pageHeight=&quot;1169&quot; math=&quot;0&quot; shadow=&quot;0&quot;&gt;&#10;      &lt;root&gt;&#10;        &lt;mxCell id=&quot;0&quot; /&gt;&#10;        &lt;mxCell id=&quot;1&quot; parent=&quot;0&quot; /&gt;&#10;        &lt;mxCell id=&quot;_niekT0tynacapAUr5bP-20&quot; value=&quot;&quot; style=&quot;sketch=0;outlineConnect=0;fontColor=#232F3E;gradientColor=none;fillColor=#ED7100;strokeColor=none;dashed=0;verticalLabelPosition=bottom;verticalAlign=top;align=center;html=1;fontSize=12;fontStyle=0;aspect=fixed;pointerEvents=1;shape=mxgraph.aws4.high_memory_instance;&quot; vertex=&quot;1&quot; parent=&quot;1&quot;&gt;&#10;          &lt;mxGeometry x=&quot;490&quot; y=&quot;170&quot; width=&quot;48&quot; height=&quot;48&quot; as=&quot;geometry&quot; /&gt;&#10;        &lt;/mxCell&gt;&#10;      &lt;/root&gt;&#10;    &lt;/mxGraphModel&gt;&#10;  &lt;/diagram&gt;&#10;&lt;/mxfile&gt;&#10;"><defs/><g><rect x="0" y="0" width="48" height="48" fill="none" stroke="none" pointer-events="all"/><path d="M 48 12 L 48 9.82 L 42.55 9.82 L 42.55 6.55 C 42.55 5.94 42.06 5.45 41.45 5.45 L 38.18 5.45 L 38.18 0 L 36 0 L 36 5.45 L 31.64 5.45 L 31.64 0 L 29.45 0 L 29.45 5.45 L 25.09 5.45 L 25.09 0 L 22.91 0 L 22.91 5.45 L 18.55 5.45 L 18.55 0 L 16.36 0 L 16.36 5.45 L 12 5.45 L 12 0 L 9.82 0 L 9.82 5.45 L 6.55 5.45 C 5.94 5.45 5.45 5.94 5.45 6.55 L 5.45 9.82 L 0 9.82 L 0 12 L 5.45 12 L 5.45 16.36 L 0 16.36 L 0 18.55 L 5.45 18.55 L 5.45 22.91 L 0 22.91 L 0 25.09 L 5.45 25.09 L 5.45 29.45 L 0 29.45 L 0 31.64 L 5.45 31.64 L 5.45 36 L 0 36 L 0 38.18 L 5.45 38.18 L 5.45 41.45 C 5.45 42.06 5.94 42.55 6.55 42.55 L 9.82 42.55 L 9.82 48 L 12 48 L 12 42.55 L 16.36 42.55 L 16.36 48 L 18.55 48 L 18.55 42.55 L 22.91 42.55 L 22.91 48 L 25.09 48 L 25.09 42.55 L 29.45 42.55 L 29.45 48 L 31.64 48 L 31.64 42.55 L 36 42.55 L 36 48 L 38.18 48 L 38.18 42.55 L 41.45 42.55 C 42.06 42.55 42.55 42.06 42.55 41.45 L 42.55 38.18 L 48 38.18 L 48 36 L 42.55 36 L 42.55 31.64 L 48 31.64 L 48 29.45 L 42.55 29.45 L 42.55 25.09 L 48 25.09 L 48 22.91 L 42.55 22.91 L 42.55 18.55 L 48 18.55 L 48 16.36 L 42.55 16.36 L 42.55 12 Z M 7.64 40.36 L 7.64 7.64 L 40.36 7.64 L 40.36 40.36 Z M 13.02 29.33 L 11.16 29.33 L 11.16 18.74 L 13.02 18.74 L 13.02 23.19 L 17.88 23.19 L 17.88 18.74 L 19.74 18.74 L 19.74 29.33 L 17.88 29.33 L 17.88 24.68 L 13.02 24.68 Z M 23.8 29.33 L 22.09 29.33 L 22.09 18.74 L 24.17 18.74 L 27.35 25.05 L 30.58 18.74 L 32.6 18.74 L 32.6 29.33 L 30.89 29.33 L 30.89 21.4 L 28.14 26.67 L 26.46 26.67 L 23.8 21.43 Z M 34.98 29.33 L 36.84 29.33 L 36.84 18.74 L 34.98 18.74 Z" fill="#ed7100" stroke="none" pointer-events="all"/></g></svg>