<?xml version="1.0" encoding="UTF-8"?>
<!-- Do not edit this file with editors other than draw.io -->
<!DOCTYPE svg PUBLIC "-//W3C//DTD SVG 1.1//EN" "http://www.w3.org/Graphics/SVG/1.1/DTD/svg11.dtd">
<svg xmlns="http://www.w3.org/2000/svg" xmlns:xlink="http://www.w3.org/1999/xlink" version="1.1" width="49px" height="49px" viewBox="-0.5 -0.5 49 49" content="&lt;mxfile host=&quot;app.diagrams.net&quot; modified=&quot;2023-11-13T10:29:23.263Z&quot; agent=&quot;Mozilla/5.0 (Windows NT 10.0; Win64; x64) AppleWebKit/537.36 (KHTML, like Gecko) Chrome/119.0.0.0 Safari/537.36&quot; etag=&quot;tDy04hHInpOWUxxASM0n&quot; version=&quot;22.1.0&quot; type=&quot;device&quot;&gt;&#10;  &lt;diagram name=&quot;페이지-1&quot; id=&quot;AW3kfpiaLIK3EqUbXKlc&quot;&gt;&#10;    &lt;mxGraphModel dx=&quot;292&quot; dy=&quot;157&quot; grid=&quot;1&quot; gridSize=&quot;10&quot; guides=&quot;1&quot; tooltips=&quot;1&quot; connect=&quot;1&quot; arrows=&quot;1&quot; fold=&quot;1&quot; page=&quot;1&quot; pageScale=&quot;1&quot; pageWidth=&quot;827&quot; pageHeight=&quot;1169&quot; math=&quot;0&quot; shadow=&quot;0&quot;&gt;&#10;      &lt;root&gt;&#10;        &lt;mxCell id=&quot;0&quot; /&gt;&#10;        &lt;mxCell id=&quot;1&quot; parent=&quot;0&quot; /&gt;&#10;        &lt;mxCell id=&quot;_niekT0tynacapAUr5bP-97&quot; value=&quot;&quot; style=&quot;sketch=0;outlineConnect=0;fontColor=#232F3E;gradientColor=none;fillColor=#ED7100;strokeColor=none;dashed=0;verticalLabelPosition=bottom;verticalAlign=top;align=center;html=1;fontSize=12;fontStyle=0;aspect=fixed;pointerEvents=1;shape=mxgraph.aws4.ec2_hpc6id_instance;&quot; vertex=&quot;1&quot; parent=&quot;1&quot;&gt;&#10;          &lt;mxGeometry x=&quot;490&quot; y=&quot;170&quot; width=&quot;48&quot; height=&quot;48&quot; as=&quot;geometry&quot; /&gt;&#10;        &lt;/mxCell&gt;&#10;      &lt;/root&gt;&#10;    &lt;/mxGraphModel&gt;&#10;  &lt;/diagram&gt;&#10;&lt;/mxfile&gt;&#10;"><defs/><g><rect x="0" y="0" width="48" height="48" fill="none" stroke="none" pointer-events="all"/><path d="M 34.69 23.16 C 34.89 22.88 35.21 22.74 35.65 22.74 C 36.05 22.74 36.44 22.87 36.76 23.1 L 36.76 25.8 C 36.4 26.05 36.02 26.17 35.63 26.17 C 34.8 26.17 34.38 25.59 34.38 24.44 C 34.38 23.87 34.48 23.44 34.69 23.16 Z M 35.27 27.08 C 35.84 27.09 36.39 26.88 36.81 26.49 L 36.93 26.98 L 37.92 26.98 L 37.92 19.71 L 36.76 19.71 L 36.76 22.34 C 36.33 22 35.85 21.83 35.33 21.83 C 34.89 21.83 34.51 21.94 34.19 22.17 C 33.87 22.4 33.62 22.71 33.45 23.11 C 33.29 23.51 33.2 23.97 33.2 24.49 C 33.2 25.28 33.39 25.91 33.76 26.38 C 34.14 26.85 34.64 27.08 35.27 27.08 Z M 31.4 20.98 C 31.28 20.86 31.22 20.7 31.22 20.49 C 31.22 20.27 31.28 20.11 31.4 20 C 31.53 19.88 31.7 19.82 31.91 19.82 C 32.13 19.82 32.3 19.88 32.42 20 C 32.55 20.11 32.61 20.28 32.61 20.49 C 32.61 20.69 32.55 20.86 32.42 20.98 C 32.3 21.09 32.13 21.15 31.91 21.15 C 31.7 21.15 31.53 21.09 31.4 20.98 Z M 31.33 26.98 L 32.49 26.98 L 32.49 21.98 L 31.33 21.98 Z M 28.27 23.75 C 28.66 23.75 28.96 23.86 29.16 24.06 C 29.37 24.27 29.47 24.57 29.47 24.96 C 29.47 25.35 29.37 25.65 29.17 25.87 C 28.97 26.08 28.7 26.19 28.35 26.19 C 27.48 26.19 27.03 25.49 26.98 24.1 C 27.42 23.87 27.85 23.75 28.27 23.75 Z M 28.26 27.12 C 28.75 27.12 29.17 27.03 29.53 26.83 C 29.9 26.64 30.17 26.37 30.37 26.04 C 30.56 25.7 30.66 25.32 30.66 24.88 C 30.66 24.27 30.47 23.78 30.1 23.41 C 29.73 23.04 29.25 22.85 28.64 22.85 C 28.05 22.85 27.5 23.02 26.98 23.35 C 27.02 22.53 27.18 21.93 27.47 21.54 C 27.76 21.14 28.2 20.95 28.79 20.95 C 29.01 20.95 29.25 20.97 29.51 21.02 C 29.75 21.06 29.98 21.13 30.21 21.21 L 30.21 20.36 C 30 20.25 29.76 20.17 29.47 20.11 C 29.2 20.05 28.91 20.02 28.62 20.01 C 27.73 20.01 27.03 20.35 26.54 21.02 C 26.04 21.69 25.8 22.62 25.8 23.82 C 25.8 24.91 26.01 25.73 26.42 26.29 C 26.83 26.85 27.45 27.12 28.26 27.12 Z M 22.33 26.42 C 21.92 25.97 21.71 25.34 21.71 24.52 C 21.71 23.68 21.93 23.03 22.35 22.57 C 22.78 22.1 23.37 21.87 24.14 21.87 C 24.62 21.87 25.05 21.97 25.44 22.16 L 25.44 22.98 C 25 22.86 24.63 22.79 24.32 22.79 C 23.83 22.79 23.47 22.93 23.24 23.19 C 23.01 23.46 22.89 23.87 22.89 24.42 L 22.89 24.55 C 22.89 25.1 23.01 25.51 23.24 25.77 C 23.47 26.03 23.83 26.16 24.32 26.16 C 24.68 26.16 25.06 26.09 25.48 25.96 L 25.48 26.78 C 25.1 26.98 24.63 27.08 24.1 27.08 C 23.33 27.08 22.74 26.86 22.33 26.42 Z M 17.72 23.12 C 18.06 22.87 18.47 22.74 18.89 22.74 C 19.31 22.74 19.62 22.88 19.82 23.16 C 20.02 23.44 20.12 23.87 20.12 24.44 C 20.12 25.02 20.02 25.46 19.82 25.74 C 19.61 26.03 19.3 26.17 18.88 26.17 C 18.47 26.17 18.08 26.04 17.72 25.79 Z M 17.72 26.54 C 17.91 26.71 18.13 26.85 18.38 26.94 C 18.64 27.04 18.9 27.08 19.18 27.08 C 19.61 27.08 19.99 26.97 20.31 26.74 C 20.63 26.51 20.87 26.19 21.04 25.79 C 21.21 25.39 21.3 24.93 21.3 24.4 C 21.3 23.62 21.11 22.99 20.74 22.53 C 20.37 22.06 19.88 21.83 19.26 21.83 C 18.96 21.83 18.67 21.89 18.39 22 C 18.11 22.11 17.86 22.27 17.63 22.48 L 17.52 21.98 L 16.56 21.98 L 16.56 29 L 17.72 29 Z M 11.22 26.98 L 10.02 26.98 L 10.02 20.17 L 11.22 20.17 L 11.22 23.03 L 14.34 23.03 L 14.34 20.17 L 15.54 20.17 L 15.54 26.98 L 14.34 26.98 L 14.34 23.99 L 11.22 23.99 Z M 7.64 40.36 L 7.64 7.64 L 40.36 7.64 L 40.36 40.36 Z M 48 12 L 48 9.82 L 42.55 9.82 L 42.55 6.55 C 42.55 5.94 42.06 5.45 41.45 5.45 L 38.18 5.45 L 38.18 0 L 36 0 L 36 5.45 L 31.64 5.45 L 31.64 0 L 29.45 0 L 29.45 5.45 L 25.09 5.45 L 25.09 0 L 22.91 0 L 22.91 5.45 L 18.55 5.45 L 18.55 0 L 16.36 0 L 16.36 5.45 L 12 5.45 L 12 0 L 9.82 0 L 9.82 5.45 L 6.55 5.45 C 5.94 5.45 5.45 5.94 5.45 6.55 L 5.45 9.82 L 0 9.82 L 0 12 L 5.45 12 L 5.45 16.36 L 0 16.36 L 0 18.55 L 5.45 18.55 L 5.45 22.91 L 0 22.91 L 0 25.09 L 5.45 25.09 L 5.45 29.45 L 0 29.45 L 0 31.64 L 5.45 31.64 L 5.45 36 L 0 36 L 0 38.18 L 5.45 38.18 L 5.45 41.45 C 5.45 42.06 5.94 42.55 6.55 42.55 L 9.82 42.55 L 9.82 48 L 12 48 L 12 42.55 L 16.36 42.55 L 16.36 48 L 18.55 48 L 18.55 42.55 L 22.91 42.55 L 22.91 48 L 25.09 48 L 25.09 42.55 L 29.45 42.55 L 29.45 48 L 31.64 48 L 31.64 42.55 L 36 42.55 L 36 48 L 38.18 48 L 38.18 42.55 L 41.45 42.55 C 42.06 42.55 42.55 42.06 42.55 41.45 L 42.55 38.18 L 48 38.18 L 48 36 L 42.55 36 L 42.55 31.64 L 48 31.64 L 48 29.45 L 42.55 29.45 L 42.55 25.09 L 48 25.09 L 48 22.91 L 42.55 22.91 L 42.55 18.55 L 48 18.55 L 48 16.36 L 42.55 16.36 L 42.55 12 Z" fill="#ed7100" stroke="none" pointer-events="all"/></g></svg>