<?xml version="1.0" encoding="UTF-8"?>
<!-- Do not edit this file with editors other than draw.io -->
<!DOCTYPE svg PUBLIC "-//W3C//DTD SVG 1.1//EN" "http://www.w3.org/Graphics/SVG/1.1/DTD/svg11.dtd">
<svg xmlns="http://www.w3.org/2000/svg" xmlns:xlink="http://www.w3.org/1999/xlink" version="1.1" width="49px" height="49px" viewBox="-0.5 -0.5 49 49" content="&lt;mxfile host=&quot;app.diagrams.net&quot; modified=&quot;2023-11-13T09:36:10.001Z&quot; agent=&quot;Mozilla/5.0 (Windows NT 10.0; Win64; x64) AppleWebKit/537.36 (KHTML, like Gecko) Chrome/119.0.0.0 Safari/537.36&quot; etag=&quot;-YMEeVOO57XANIti6MoD&quot; version=&quot;22.1.0&quot; type=&quot;device&quot;&gt;&#10;  &lt;diagram name=&quot;페이지-1&quot; id=&quot;AW3kfpiaLIK3EqUbXKlc&quot;&gt;&#10;    &lt;mxGraphModel dx=&quot;292&quot; dy=&quot;157&quot; grid=&quot;1&quot; gridSize=&quot;10&quot; guides=&quot;1&quot; tooltips=&quot;1&quot; connect=&quot;1&quot; arrows=&quot;1&quot; fold=&quot;1&quot; page=&quot;1&quot; pageScale=&quot;1&quot; pageWidth=&quot;827&quot; pageHeight=&quot;1169&quot; math=&quot;0&quot; shadow=&quot;0&quot;&gt;&#10;      &lt;root&gt;&#10;        &lt;mxCell id=&quot;0&quot; /&gt;&#10;        &lt;mxCell id=&quot;1&quot; parent=&quot;0&quot; /&gt;&#10;        &lt;mxCell id=&quot;_niekT0tynacapAUr5bP-16&quot; value=&quot;&quot; style=&quot;sketch=0;outlineConnect=0;fontColor=#232F3E;gradientColor=none;fillColor=#ED7100;strokeColor=none;dashed=0;verticalLabelPosition=bottom;verticalAlign=top;align=center;html=1;fontSize=12;fontStyle=0;aspect=fixed;pointerEvents=1;shape=mxgraph.aws4.ec2_hpc6a_instance;&quot; vertex=&quot;1&quot; parent=&quot;1&quot;&gt;&#10;          &lt;mxGeometry x=&quot;500&quot; y=&quot;150&quot; width=&quot;48&quot; height=&quot;48&quot; as=&quot;geometry&quot; /&gt;&#10;        &lt;/mxCell&gt;&#10;      &lt;/root&gt;&#10;    &lt;/mxGraphModel&gt;&#10;  &lt;/diagram&gt;&#10;&lt;/mxfile&gt;&#10;"><defs/><g><rect x="0" y="0" width="48" height="48" fill="none" stroke="none" pointer-events="all"/><path d="M 7.64 40.36 L 40.36 40.36 L 40.36 7.64 L 7.64 7.64 Z M 42.55 12 L 42.55 16.36 L 48 16.36 L 48 18.55 L 42.55 18.55 L 42.55 22.91 L 48 22.91 L 48 25.09 L 42.55 25.09 L 42.55 29.45 L 48 29.45 L 48 31.64 L 42.55 31.64 L 42.55 36 L 48 36 L 48 38.18 L 42.55 38.18 L 42.55 41.45 C 42.55 42.06 42.06 42.55 41.45 42.55 L 38.18 42.55 L 38.18 48 L 36 48 L 36 42.55 L 31.64 42.55 L 31.64 48 L 29.45 48 L 29.45 42.55 L 25.09 42.55 L 25.09 48 L 22.91 48 L 22.91 42.55 L 18.55 42.55 L 18.55 48 L 16.36 48 L 16.36 42.55 L 12 42.55 L 12 48 L 9.82 48 L 9.82 42.55 L 6.55 42.55 C 5.94 42.55 5.45 42.06 5.45 41.45 L 5.45 38.18 L 0 38.18 L 0 36 L 5.45 36 L 5.45 31.64 L 0 31.64 L 0 29.45 L 5.45 29.45 L 5.45 25.09 L 0 25.09 L 0 22.91 L 5.45 22.91 L 5.45 18.55 L 0 18.55 L 0 16.36 L 5.45 16.36 L 5.45 12 L 0 12 L 0 9.82 L 5.45 9.82 L 5.45 6.55 C 5.45 5.94 5.94 5.45 6.55 5.45 L 9.82 5.45 L 9.82 0 L 12 0 L 12 5.45 L 16.36 5.45 L 16.36 0 L 18.55 0 L 18.55 5.45 L 22.91 5.45 L 22.91 0 L 25.09 0 L 25.09 5.45 L 29.45 5.45 L 29.45 0 L 31.64 0 L 31.64 5.45 L 36 5.45 L 36 0 L 38.18 0 L 38.18 5.45 L 41.45 5.45 C 42.06 5.45 42.55 5.94 42.55 6.55 L 42.55 9.82 L 48 9.82 L 48 12 Z M 37.39 25.74 C 37.07 25.67 36.73 25.63 36.39 25.62 C 35.66 25.62 35.29 25.92 35.29 26.51 C 35.29 26.76 35.36 26.96 35.5 27.1 C 35.64 27.24 35.84 27.32 36.09 27.32 C 36.29 27.32 36.51 27.27 36.74 27.18 C 36.96 27.09 37.18 26.96 37.39 26.79 Z M 37.39 24.98 L 37.39 24.34 C 37.39 23.97 37.31 23.71 37.15 23.56 C 36.99 23.42 36.71 23.34 36.31 23.34 C 35.75 23.34 35.1 23.46 34.36 23.7 L 34.36 22.8 C 34.64 22.66 34.97 22.55 35.37 22.47 C 35.76 22.39 36.16 22.35 36.56 22.35 C 37.29 22.35 37.82 22.5 38.16 22.79 C 38.51 23.08 38.68 23.53 38.68 24.15 L 38.68 28.07 L 37.56 28.07 L 37.46 27.53 C 37.2 27.75 36.92 27.92 36.61 28.05 C 36.31 28.17 36 28.23 35.69 28.23 C 35.18 28.23 34.77 28.08 34.45 27.77 C 34.14 27.47 33.98 27.07 33.98 26.58 C 33.98 26.05 34.17 25.62 34.56 25.3 C 34.95 24.98 35.47 24.82 36.13 24.82 C 36.51 24.82 36.94 24.87 37.39 24.98 Z M 29.21 24.87 C 29.26 26.42 29.77 27.2 30.73 27.2 C 31.12 27.2 31.42 27.08 31.64 26.84 C 31.86 26.6 31.97 26.26 31.97 25.83 C 31.97 25.4 31.86 25.06 31.63 24.83 C 31.41 24.6 31.07 24.49 30.64 24.49 C 30.17 24.49 29.7 24.62 29.21 24.87 Z M 28.59 27.3 C 28.12 26.69 27.89 25.77 27.89 24.57 C 27.89 23.23 28.17 22.19 28.72 21.45 C 29.26 20.7 30.04 20.33 31.03 20.33 C 31.35 20.33 31.66 20.37 31.98 20.44 C 32.29 20.51 32.57 20.6 32.79 20.72 L 32.79 21.66 C 32.57 21.58 32.31 21.51 32.02 21.45 C 31.76 21.4 31.49 21.37 31.22 21.37 C 30.56 21.37 30.08 21.59 29.75 22.02 C 29.43 22.46 29.25 23.13 29.21 24.04 C 29.79 23.67 30.4 23.49 31.05 23.49 C 31.72 23.49 32.27 23.69 32.68 24.1 C 33.09 24.51 33.29 25.06 33.29 25.74 C 33.29 26.22 33.19 26.65 32.97 27.03 C 32.76 27.4 32.45 27.69 32.04 27.91 C 31.64 28.12 31.17 28.23 30.63 28.23 C 29.73 28.23 29.05 27.92 28.59 27.3 Z M 25.68 28.19 C 26.27 28.19 26.79 28.07 27.22 27.85 L 27.22 26.94 C 26.75 27.09 26.32 27.16 25.93 27.16 C 25.38 27.16 24.98 27.02 24.72 26.73 C 24.47 26.43 24.34 25.98 24.34 25.37 L 24.34 25.23 C 24.34 24.61 24.47 24.16 24.72 23.86 C 24.98 23.57 25.38 23.42 25.93 23.42 C 26.27 23.42 26.69 23.49 27.17 23.63 L 27.17 22.72 C 26.72 22.5 26.22 22.39 25.72 22.4 C 24.87 22.4 24.21 22.65 23.74 23.17 C 23.26 23.69 23.03 24.41 23.03 25.34 C 23.03 26.25 23.26 26.95 23.71 27.45 C 24.17 27.94 24.83 28.19 25.68 28.19 Z M 18.26 26.75 C 18.67 27.03 19.1 27.17 19.56 27.17 C 20.02 27.17 20.37 27.02 20.59 26.7 C 20.82 26.38 20.93 25.9 20.93 25.25 C 20.93 24.61 20.82 24.14 20.6 23.83 C 20.38 23.52 20.03 23.37 19.57 23.37 C 19.1 23.37 18.64 23.51 18.26 23.78 Z M 18.26 30.32 L 16.97 30.32 L 16.97 22.52 L 18.04 22.52 L 18.16 23.07 C 18.41 22.84 18.7 22.66 19.01 22.54 C 19.31 22.41 19.64 22.35 19.97 22.35 C 20.66 22.35 21.21 22.61 21.63 23.13 C 22.04 23.64 22.24 24.34 22.24 25.21 C 22.24 25.79 22.15 26.31 21.96 26.75 C 21.77 27.2 21.5 27.55 21.14 27.81 C 20.77 28.06 20.33 28.2 19.89 28.19 C 19.58 28.19 19.28 28.14 19 28.03 C 18.72 27.93 18.47 27.78 18.26 27.59 Z M 10.71 28.07 L 9.38 28.07 L 9.38 20.51 L 10.71 20.51 L 10.71 23.68 L 14.18 23.68 L 14.18 20.51 L 15.51 20.51 L 15.51 28.07 L 14.18 28.07 L 14.18 24.75 L 10.71 24.75 Z" fill="#ed7100" stroke="none" pointer-events="all"/></g></svg>