<?xml version="1.0" encoding="UTF-8"?>
<!-- Do not edit this file with editors other than draw.io -->
<!DOCTYPE svg PUBLIC "-//W3C//DTD SVG 1.1//EN" "http://www.w3.org/Graphics/SVG/1.1/DTD/svg11.dtd">
<svg xmlns="http://www.w3.org/2000/svg" xmlns:xlink="http://www.w3.org/1999/xlink" version="1.1" width="49px" height="49px" viewBox="-0.5 -0.5 49 49" content="&lt;mxfile host=&quot;app.diagrams.net&quot; modified=&quot;2023-11-13T09:43:32.221Z&quot; agent=&quot;Mozilla/5.0 (Windows NT 10.0; Win64; x64) AppleWebKit/537.36 (KHTML, like Gecko) Chrome/119.0.0.0 Safari/537.36&quot; etag=&quot;7rTtwLJnNTPQpDzP95ET&quot; version=&quot;22.1.0&quot; type=&quot;device&quot;&gt;&#10;  &lt;diagram name=&quot;페이지-1&quot; id=&quot;AW3kfpiaLIK3EqUbXKlc&quot;&gt;&#10;    &lt;mxGraphModel dx=&quot;292&quot; dy=&quot;157&quot; grid=&quot;1&quot; gridSize=&quot;10&quot; guides=&quot;1&quot; tooltips=&quot;1&quot; connect=&quot;1&quot; arrows=&quot;1&quot; fold=&quot;1&quot; page=&quot;1&quot; pageScale=&quot;1&quot; pageWidth=&quot;827&quot; pageHeight=&quot;1169&quot; math=&quot;0&quot; shadow=&quot;0&quot;&gt;&#10;      &lt;root&gt;&#10;        &lt;mxCell id=&quot;0&quot; /&gt;&#10;        &lt;mxCell id=&quot;1&quot; parent=&quot;0&quot; /&gt;&#10;        &lt;mxCell id=&quot;_niekT0tynacapAUr5bP-43&quot; value=&quot;&quot; style=&quot;sketch=0;outlineConnect=0;fontColor=#232F3E;gradientColor=none;fillColor=#ED7100;strokeColor=none;dashed=0;verticalLabelPosition=bottom;verticalAlign=top;align=center;html=1;fontSize=12;fontStyle=0;aspect=fixed;pointerEvents=1;shape=mxgraph.aws4.i3en;&quot; vertex=&quot;1&quot; parent=&quot;1&quot;&gt;&#10;          &lt;mxGeometry x=&quot;480&quot; y=&quot;160&quot; width=&quot;48&quot; height=&quot;48&quot; as=&quot;geometry&quot; /&gt;&#10;        &lt;/mxCell&gt;&#10;      &lt;/root&gt;&#10;    &lt;/mxGraphModel&gt;&#10;  &lt;/diagram&gt;&#10;&lt;/mxfile&gt;&#10;"><defs/><g><rect x="0" y="0" width="48" height="48" fill="none" stroke="none" pointer-events="all"/><path d="M 7.64 40.36 L 40.36 40.36 L 40.36 7.64 L 7.64 7.64 Z M 42.55 12 L 42.55 16.36 L 48 16.36 L 48 18.55 L 42.55 18.55 L 42.55 22.91 L 48 22.91 L 48 25.09 L 42.55 25.09 L 42.55 29.45 L 48 29.45 L 48 31.64 L 42.55 31.64 L 42.55 36 L 48 36 L 48 38.18 L 42.55 38.18 L 42.55 41.45 C 42.55 42.06 42.06 42.55 41.45 42.55 L 38.18 42.55 L 38.18 48 L 36 48 L 36 42.55 L 31.64 42.55 L 31.64 48 L 29.45 48 L 29.45 42.55 L 25.09 42.55 L 25.09 48 L 22.91 48 L 22.91 42.55 L 18.55 42.55 L 18.55 48 L 16.36 48 L 16.36 42.55 L 12 42.55 L 12 48 L 9.82 48 L 9.82 42.55 L 6.55 42.55 C 5.94 42.55 5.45 42.06 5.45 41.45 L 5.45 38.18 L 0 38.18 L 0 36 L 5.45 36 L 5.45 31.64 L 0 31.64 L 0 29.45 L 5.45 29.45 L 5.45 25.09 L 0 25.09 L 0 22.91 L 5.45 22.91 L 5.45 18.55 L 0 18.55 L 0 16.36 L 5.45 16.36 L 5.45 12 L 0 12 L 0 9.82 L 5.45 9.82 L 5.45 6.55 C 5.45 5.94 5.94 5.45 6.55 5.45 L 9.82 5.45 L 9.82 0 L 12 0 L 12 5.45 L 16.36 5.45 L 16.36 0 L 18.55 0 L 18.55 5.45 L 22.91 5.45 L 22.91 0 L 25.09 0 L 25.09 5.45 L 29.45 5.45 L 29.45 0 L 31.64 0 L 31.64 5.45 L 36 5.45 L 36 0 L 38.18 0 L 38.18 5.45 L 41.45 5.45 C 42.06 5.45 42.55 5.94 42.55 6.55 L 42.55 9.82 L 48 9.82 L 48 12 Z M 30.74 23.42 C 31.3 23.07 31.84 22.9 32.36 22.9 C 32.72 22.9 32.97 22.99 33.13 23.17 C 33.29 23.35 33.37 23.63 33.37 24.02 L 33.37 28.07 L 34.79 28.07 L 34.79 23.58 C 34.79 23 34.64 22.55 34.33 22.24 C 34.03 21.93 33.58 21.78 33 21.78 C 32.18 21.78 31.4 22.06 30.65 22.63 L 30.5 21.96 L 29.33 21.96 L 29.33 28.07 L 30.74 28.07 Z M 24.3 24.41 L 26.93 24.41 L 26.93 24.31 C 26.93 23.82 26.83 23.45 26.63 23.2 C 26.43 22.94 26.13 22.81 25.74 22.81 C 25.34 22.81 25 22.96 24.74 23.24 C 24.49 23.53 24.34 23.92 24.3 24.41 Z M 23.64 27.43 C 23.12 26.89 22.86 26.1 22.86 25.06 C 22.86 24.02 23.11 23.22 23.62 22.64 C 24.13 22.07 24.84 21.78 25.75 21.78 C 26.54 21.78 27.14 21.99 27.56 22.42 C 27.98 22.85 28.19 23.46 28.19 24.24 C 28.19 24.66 28.15 25.03 28.08 25.36 L 24.3 25.36 C 24.32 25.96 24.49 26.41 24.79 26.69 C 25.1 26.98 25.57 27.12 26.2 27.12 C 26.77 27.12 27.39 27.01 28.06 26.78 L 28.06 27.78 C 27.78 27.92 27.46 28.04 27.09 28.12 C 26.72 28.21 26.33 28.25 25.93 28.25 C 24.92 28.25 24.16 27.98 23.64 27.43 Z M 20.2 27.91 C 20.68 27.69 21.04 27.38 21.3 26.99 C 21.56 26.6 21.68 26.15 21.68 25.64 C 21.68 25.18 21.57 24.77 21.35 24.41 C 21.12 24.05 20.82 23.77 20.44 23.57 C 20.06 23.38 19.64 23.28 19.17 23.28 C 19.06 23.28 18.95 23.28 18.84 23.29 L 21.34 20.84 L 21.34 19.75 L 16.38 19.75 L 16.38 20.89 L 19.77 20.89 L 17.41 23.46 L 17.41 24.38 C 17.82 24.34 18.21 24.31 18.57 24.31 C 19.68 24.31 20.23 24.75 20.23 25.63 C 20.23 26.1 20.08 26.45 19.77 26.71 C 19.47 26.96 19.03 27.08 18.47 27.08 C 17.87 27.08 17.13 26.94 16.26 26.64 L 16.26 27.77 C 17 28.09 17.75 28.25 18.52 28.25 C 19.16 28.25 19.72 28.14 20.2 27.91 Z M 13.26 28.07 L 14.72 28.07 L 14.72 19.75 L 13.26 19.75 Z" fill="#ed7100" stroke="none" pointer-events="all"/></g></svg>