<?xml version="1.0" encoding="UTF-8"?>
<!-- Do not edit this file with editors other than draw.io -->
<!DOCTYPE svg PUBLIC "-//W3C//DTD SVG 1.1//EN" "http://www.w3.org/Graphics/SVG/1.1/DTD/svg11.dtd">
<svg xmlns="http://www.w3.org/2000/svg" xmlns:xlink="http://www.w3.org/1999/xlink" version="1.1" width="49px" height="49px" viewBox="-0.5 -0.5 49 49" content="&lt;mxfile host=&quot;app.diagrams.net&quot; modified=&quot;2023-11-13T09:43:57.590Z&quot; agent=&quot;Mozilla/5.0 (Windows NT 10.0; Win64; x64) AppleWebKit/537.36 (KHTML, like Gecko) Chrome/119.0.0.0 Safari/537.36&quot; etag=&quot;1xmwB7xTDaIOOfq9jclH&quot; version=&quot;22.1.0&quot; type=&quot;device&quot;&gt;&#10;  &lt;diagram name=&quot;페이지-1&quot; id=&quot;AW3kfpiaLIK3EqUbXKlc&quot;&gt;&#10;    &lt;mxGraphModel dx=&quot;292&quot; dy=&quot;157&quot; grid=&quot;1&quot; gridSize=&quot;10&quot; guides=&quot;1&quot; tooltips=&quot;1&quot; connect=&quot;1&quot; arrows=&quot;1&quot; fold=&quot;1&quot; page=&quot;1&quot; pageScale=&quot;1&quot; pageWidth=&quot;827&quot; pageHeight=&quot;1169&quot; math=&quot;0&quot; shadow=&quot;0&quot;&gt;&#10;      &lt;root&gt;&#10;        &lt;mxCell id=&quot;0&quot; /&gt;&#10;        &lt;mxCell id=&quot;1&quot; parent=&quot;0&quot; /&gt;&#10;        &lt;mxCell id=&quot;_niekT0tynacapAUr5bP-46&quot; value=&quot;&quot; style=&quot;sketch=0;outlineConnect=0;fontColor=#232F3E;gradientColor=none;fillColor=#ED7100;strokeColor=none;dashed=0;verticalLabelPosition=bottom;verticalAlign=top;align=center;html=1;fontSize=12;fontStyle=0;aspect=fixed;pointerEvents=1;shape=mxgraph.aws4.ec2_im4gn_instance;&quot; vertex=&quot;1&quot; parent=&quot;1&quot;&gt;&#10;          &lt;mxGeometry x=&quot;480&quot; y=&quot;170&quot; width=&quot;48&quot; height=&quot;48&quot; as=&quot;geometry&quot; /&gt;&#10;        &lt;/mxCell&gt;&#10;      &lt;/root&gt;&#10;    &lt;/mxGraphModel&gt;&#10;  &lt;/diagram&gt;&#10;&lt;/mxfile&gt;&#10;"><defs/><g><rect x="0" y="0" width="48" height="48" fill="none" stroke="none" pointer-events="all"/><path d="M 7.64 40.36 L 40.36 40.36 L 40.36 7.64 L 7.64 7.64 Z M 42.55 12 L 42.55 16.36 L 48 16.36 L 48 18.55 L 42.55 18.55 L 42.55 22.91 L 48 22.91 L 48 25.09 L 42.55 25.09 L 42.55 29.45 L 48 29.45 L 48 31.64 L 42.55 31.64 L 42.55 36 L 48 36 L 48 38.18 L 42.55 38.18 L 42.55 41.45 C 42.55 42.06 42.06 42.55 41.45 42.55 L 38.18 42.55 L 38.18 48 L 36 48 L 36 42.55 L 31.64 42.55 L 31.64 48 L 29.45 48 L 29.45 42.55 L 25.09 42.55 L 25.09 48 L 22.91 48 L 22.91 42.55 L 18.55 42.55 L 18.55 48 L 16.36 48 L 16.36 42.55 L 12 42.55 L 12 48 L 9.82 48 L 9.82 42.55 L 6.55 42.55 C 5.94 42.55 5.45 42.06 5.45 41.45 L 5.45 38.18 L 0 38.18 L 0 36 L 5.45 36 L 5.45 31.64 L 0 31.64 L 0 29.45 L 5.45 29.45 L 5.45 25.09 L 0 25.09 L 0 22.91 L 5.45 22.91 L 5.45 18.55 L 0 18.55 L 0 16.36 L 5.45 16.36 L 5.45 12 L 0 12 L 0 9.82 L 5.45 9.82 L 5.45 6.55 C 5.45 5.94 5.94 5.45 6.55 5.45 L 9.82 5.45 L 9.82 0 L 12 0 L 12 5.45 L 16.36 5.45 L 16.36 0 L 18.55 0 L 18.55 5.45 L 22.91 5.45 L 22.91 0 L 25.09 0 L 25.09 5.45 L 29.45 5.45 L 29.45 0 L 31.64 0 L 31.64 5.45 L 36 5.45 L 36 0 L 38.18 0 L 38.18 5.45 L 41.45 5.45 C 42.06 5.45 42.55 5.94 42.55 6.55 L 42.55 9.82 L 48 9.82 L 48 12 Z M 34.45 22.97 C 34.93 22.66 35.39 22.51 35.85 22.51 C 36.15 22.51 36.38 22.59 36.51 22.74 C 36.65 22.9 36.72 23.15 36.72 23.48 L 36.72 26.98 L 37.94 26.98 L 37.94 23.1 C 37.94 22.6 37.81 22.21 37.55 21.95 C 37.29 21.68 36.9 21.55 36.4 21.55 C 35.69 21.55 35.02 21.79 34.37 22.28 L 34.24 21.7 L 33.23 21.7 L 33.23 26.98 L 34.45 26.98 Z M 28.45 24.19 C 28.45 25.35 28.86 25.93 29.68 25.93 C 30.09 25.93 30.48 25.8 30.84 25.53 L 30.84 22.87 C 30.49 22.62 30.1 22.5 29.69 22.5 C 29.27 22.5 28.96 22.64 28.76 22.91 C 28.55 23.19 28.45 23.62 28.45 24.19 Z M 27.78 26.15 C 27.4 25.67 27.21 25.03 27.21 24.23 C 27.21 23.71 27.29 23.24 27.47 22.84 C 27.62 22.46 27.88 22.13 28.21 21.89 C 28.55 21.66 28.95 21.54 29.36 21.55 C 29.95 21.54 30.51 21.77 30.93 22.18 L 31.03 21.7 L 32.07 21.7 L 32.07 26.61 C 32.07 27.45 31.84 28.1 31.39 28.55 C 30.93 29.01 30.28 29.24 29.44 29.24 C 28.82 29.24 28.19 29.09 27.63 28.81 L 27.63 27.94 C 28.27 28.16 28.85 28.26 29.36 28.26 C 29.88 28.26 30.26 28.14 30.49 27.9 C 30.73 27.67 30.84 27.28 30.84 26.74 L 30.84 26.29 C 30.4 26.68 29.89 26.87 29.32 26.87 C 28.68 26.87 28.17 26.63 27.78 26.15 Z M 24.65 24.51 L 24.65 21.35 L 22.48 24.51 Z M 24.65 25.48 L 21.25 25.48 L 21.25 24.56 L 24.6 19.8 L 25.88 19.8 L 25.88 24.51 L 26.84 24.51 L 26.84 25.48 L 25.88 25.48 L 25.88 26.98 L 24.65 26.98 Z M 13.89 22.89 C 14.1 22.77 14.33 22.67 14.56 22.61 C 14.77 22.55 14.99 22.51 15.21 22.51 C 15.49 22.51 15.69 22.58 15.82 22.72 C 15.94 22.86 16 23.08 16 23.4 L 16 26.98 L 17.23 26.98 L 17.23 22.89 C 17.41 22.78 17.62 22.69 17.86 22.62 C 18.1 22.55 18.33 22.51 18.54 22.51 C 18.83 22.51 19.03 22.58 19.15 22.72 C 19.28 22.86 19.34 23.08 19.34 23.4 L 19.34 26.98 L 20.56 26.98 L 20.56 23.1 C 20.56 22.6 20.43 22.21 20.16 21.95 C 19.89 21.68 19.51 21.55 19.02 21.55 C 18.38 21.55 17.72 21.79 17.03 22.26 C 16.79 21.79 16.35 21.55 15.7 21.55 C 15.39 21.55 15.07 21.6 14.78 21.71 C 14.43 21.84 14.1 22.02 13.8 22.23 L 13.68 21.7 L 12.67 21.7 L 12.67 26.98 L 13.89 26.98 Z M 10.08 26.98 L 11.34 26.98 L 11.34 19.8 L 10.08 19.8 Z" fill="#ed7100" stroke="none" pointer-events="all"/></g></svg>