<?xml version="1.0" encoding="UTF-8"?>
<!-- Do not edit this file with editors other than draw.io -->
<!DOCTYPE svg PUBLIC "-//W3C//DTD SVG 1.1//EN" "http://www.w3.org/Graphics/SVG/1.1/DTD/svg11.dtd">
<svg xmlns="http://www.w3.org/2000/svg" xmlns:xlink="http://www.w3.org/1999/xlink" version="1.1" width="49px" height="49px" viewBox="-0.5 -0.5 49 49" content="&lt;mxfile host=&quot;app.diagrams.net&quot; modified=&quot;2023-11-13T09:44:47.279Z&quot; agent=&quot;Mozilla/5.0 (Windows NT 10.0; Win64; x64) AppleWebKit/537.36 (KHTML, like Gecko) Chrome/119.0.0.0 Safari/537.36&quot; etag=&quot;upGZKj_DXIDMLnlikyU9&quot; version=&quot;22.1.0&quot; type=&quot;device&quot;&gt;&#10;  &lt;diagram name=&quot;페이지-1&quot; id=&quot;AW3kfpiaLIK3EqUbXKlc&quot;&gt;&#10;    &lt;mxGraphModel dx=&quot;292&quot; dy=&quot;157&quot; grid=&quot;1&quot; gridSize=&quot;10&quot; guides=&quot;1&quot; tooltips=&quot;1&quot; connect=&quot;1&quot; arrows=&quot;1&quot; fold=&quot;1&quot; page=&quot;1&quot; pageScale=&quot;1&quot; pageWidth=&quot;827&quot; pageHeight=&quot;1169&quot; math=&quot;0&quot; shadow=&quot;0&quot;&gt;&#10;      &lt;root&gt;&#10;        &lt;mxCell id=&quot;0&quot; /&gt;&#10;        &lt;mxCell id=&quot;1&quot; parent=&quot;0&quot; /&gt;&#10;        &lt;mxCell id=&quot;_niekT0tynacapAUr5bP-51&quot; value=&quot;&quot; style=&quot;sketch=0;outlineConnect=0;fontColor=#232F3E;gradientColor=none;fillColor=#ED7100;strokeColor=none;dashed=0;verticalLabelPosition=bottom;verticalAlign=top;align=center;html=1;fontSize=12;fontStyle=0;aspect=fixed;pointerEvents=1;shape=mxgraph.aws4.m5a_instance;&quot; vertex=&quot;1&quot; parent=&quot;1&quot;&gt;&#10;          &lt;mxGeometry x=&quot;480&quot; y=&quot;170&quot; width=&quot;48&quot; height=&quot;48&quot; as=&quot;geometry&quot; /&gt;&#10;        &lt;/mxCell&gt;&#10;      &lt;/root&gt;&#10;    &lt;/mxGraphModel&gt;&#10;  &lt;/diagram&gt;&#10;&lt;/mxfile&gt;&#10;"><defs/><g><rect x="0" y="0" width="48" height="48" fill="none" stroke="none" pointer-events="all"/><path d="M 48 12 L 48 9.82 L 42.55 9.82 L 42.55 6.55 C 42.55 5.94 42.06 5.45 41.45 5.45 L 38.18 5.45 L 38.18 0 L 36 0 L 36 5.45 L 31.64 5.45 L 31.64 0 L 29.45 0 L 29.45 5.45 L 25.09 5.45 L 25.09 0 L 22.91 0 L 22.91 5.45 L 18.55 5.45 L 18.55 0 L 16.36 0 L 16.36 5.45 L 12 5.45 L 12 0 L 9.82 0 L 9.82 5.45 L 6.55 5.45 C 5.94 5.45 5.45 5.94 5.45 6.55 L 5.45 9.82 L 0 9.82 L 0 12 L 5.45 12 L 5.45 16.36 L 0 16.36 L 0 18.55 L 5.45 18.55 L 5.45 22.91 L 0 22.91 L 0 25.09 L 5.45 25.09 L 5.45 29.45 L 0 29.45 L 0 31.64 L 5.45 31.64 L 5.45 36 L 0 36 L 0 38.18 L 5.45 38.18 L 5.45 41.45 C 5.45 42.06 5.94 42.55 6.55 42.55 L 9.82 42.55 L 9.82 48 L 12 48 L 12 42.55 L 16.36 42.55 L 16.36 48 L 18.55 48 L 18.55 42.55 L 22.91 42.55 L 22.91 48 L 25.09 48 L 25.09 42.55 L 29.45 42.55 L 29.45 48 L 31.64 48 L 31.64 42.55 L 36 42.55 L 36 48 L 38.18 48 L 38.18 42.55 L 41.45 42.55 C 42.06 42.55 42.55 42.06 42.55 41.45 L 42.55 38.18 L 48 38.18 L 48 36 L 42.55 36 L 42.55 31.64 L 48 31.64 L 48 29.45 L 42.55 29.45 L 42.55 25.09 L 48 25.09 L 48 22.91 L 42.55 22.91 L 42.55 18.55 L 48 18.55 L 48 16.36 L 42.55 16.36 L 42.55 12 Z M 7.64 40.36 L 7.64 7.64 L 40.36 7.64 L 40.36 40.36 Z M 12.16 29.33 L 10.45 29.33 L 10.45 18.74 L 12.52 18.74 L 15.7 25.05 L 18.94 18.74 L 20.95 18.74 L 20.95 29.33 L 19.24 29.33 L 19.24 21.4 L 16.49 26.67 L 14.81 26.67 L 12.16 21.43 Z M 25.7 29.56 C 24.68 29.56 23.71 29.35 22.77 28.95 L 22.77 27.51 C 23.88 27.89 24.85 28.08 25.65 28.08 C 27.16 28.08 27.92 27.42 27.92 26.12 C 27.92 25.49 27.73 25.03 27.35 24.74 C 26.97 24.45 26.37 24.3 25.54 24.3 C 24.92 24.3 24.14 24.35 23.21 24.46 L 23.21 23.3 L 23.5 18.74 L 29.25 18.74 L 29.25 20.19 L 25.2 20.19 L 25.03 23.02 C 25.45 22.94 25.89 22.9 26.36 22.9 C 27.41 22.9 28.25 23.18 28.86 23.75 C 29.46 24.32 29.77 25.1 29.77 26.09 C 29.77 27.15 29.4 27.99 28.67 28.62 C 27.93 29.24 26.95 29.56 25.7 29.56 Z M 33.98 24.78 C 33.06 24.78 32.33 25 31.79 25.45 C 31.24 25.9 30.97 26.5 30.97 27.25 C 30.97 27.93 31.19 28.49 31.64 28.92 C 32.08 29.34 32.66 29.56 33.37 29.56 C 33.8 29.56 34.23 29.47 34.66 29.3 C 35.09 29.12 35.49 28.89 35.84 28.58 L 35.98 29.33 L 37.55 29.33 L 37.55 23.85 C 37.55 22.98 37.31 22.34 36.83 21.94 C 36.35 21.53 35.6 21.33 34.59 21.33 C 34.02 21.33 33.47 21.38 32.91 21.49 C 32.36 21.61 31.89 21.76 31.51 21.95 L 31.51 23.22 C 32.53 22.88 33.45 22.71 34.24 22.71 C 34.8 22.71 35.19 22.82 35.42 23.02 C 35.64 23.22 35.75 23.59 35.75 24.1 L 35.75 25.01 C 35.11 24.85 34.52 24.78 33.98 24.78 Z M 35.75 27.54 C 35.45 27.78 35.15 27.96 34.83 28.08 C 34.51 28.21 34.21 28.27 33.92 28.27 C 33.57 28.27 33.3 28.17 33.1 27.98 C 32.9 27.78 32.8 27.5 32.8 27.14 C 32.8 26.32 33.32 25.91 34.35 25.91 C 34.76 25.91 35.23 25.96 35.75 26.07 Z" fill="#ed7100" stroke="none" pointer-events="all"/></g></svg>