<?xml version="1.0" encoding="UTF-8"?>
<!-- Do not edit this file with editors other than draw.io -->
<!DOCTYPE svg PUBLIC "-//W3C//DTD SVG 1.1//EN" "http://www.w3.org/Graphics/SVG/1.1/DTD/svg11.dtd">
<svg xmlns="http://www.w3.org/2000/svg" xmlns:xlink="http://www.w3.org/1999/xlink" version="1.1" width="49px" height="49px" viewBox="-0.5 -0.5 49 49" content="&lt;mxfile host=&quot;app.diagrams.net&quot; modified=&quot;2023-11-13T09:44:57.818Z&quot; agent=&quot;Mozilla/5.0 (Windows NT 10.0; Win64; x64) AppleWebKit/537.36 (KHTML, like Gecko) Chrome/119.0.0.0 Safari/537.36&quot; etag=&quot;3rrLVXKxpyZu-ThjixzZ&quot; version=&quot;22.1.0&quot; type=&quot;device&quot;&gt;&#10;  &lt;diagram name=&quot;페이지-1&quot; id=&quot;AW3kfpiaLIK3EqUbXKlc&quot;&gt;&#10;    &lt;mxGraphModel dx=&quot;292&quot; dy=&quot;157&quot; grid=&quot;1&quot; gridSize=&quot;10&quot; guides=&quot;1&quot; tooltips=&quot;1&quot; connect=&quot;1&quot; arrows=&quot;1&quot; fold=&quot;1&quot; page=&quot;1&quot; pageScale=&quot;1&quot; pageWidth=&quot;827&quot; pageHeight=&quot;1169&quot; math=&quot;0&quot; shadow=&quot;0&quot;&gt;&#10;      &lt;root&gt;&#10;        &lt;mxCell id=&quot;0&quot; /&gt;&#10;        &lt;mxCell id=&quot;1&quot; parent=&quot;0&quot; /&gt;&#10;        &lt;mxCell id=&quot;_niekT0tynacapAUr5bP-52&quot; value=&quot;&quot; style=&quot;sketch=0;outlineConnect=0;fontColor=#232F3E;gradientColor=none;fillColor=#ED7100;strokeColor=none;dashed=0;verticalLabelPosition=bottom;verticalAlign=top;align=center;html=1;fontSize=12;fontStyle=0;aspect=fixed;pointerEvents=1;shape=mxgraph.aws4.m5d_instance;&quot; vertex=&quot;1&quot; parent=&quot;1&quot;&gt;&#10;          &lt;mxGeometry x=&quot;470&quot; y=&quot;160&quot; width=&quot;48&quot; height=&quot;48&quot; as=&quot;geometry&quot; /&gt;&#10;        &lt;/mxCell&gt;&#10;      &lt;/root&gt;&#10;    &lt;/mxGraphModel&gt;&#10;  &lt;/diagram&gt;&#10;&lt;/mxfile&gt;&#10;"><defs/><g><rect x="-1" y="0" width="48" height="48" fill="none" stroke="none" pointer-events="all"/><path d="M 6.64 40.36 L 39.36 40.36 L 39.36 7.64 L 6.64 7.64 Z M 41.55 12 L 41.55 16.36 L 47 16.36 L 47 18.55 L 41.55 18.55 L 41.55 22.91 L 47 22.91 L 47 25.09 L 41.55 25.09 L 41.55 29.45 L 47 29.45 L 47 31.64 L 41.55 31.64 L 41.55 36 L 47 36 L 47 38.18 L 41.55 38.18 L 41.55 41.45 C 41.55 42.06 41.06 42.55 40.45 42.55 L 37.18 42.55 L 37.18 48 L 35 48 L 35 42.55 L 30.64 42.55 L 30.64 48 L 28.45 48 L 28.45 42.55 L 24.09 42.55 L 24.09 48 L 21.91 48 L 21.91 42.55 L 17.55 42.55 L 17.55 48 L 15.36 48 L 15.36 42.55 L 11 42.55 L 11 48 L 8.82 48 L 8.82 42.55 L 5.55 42.55 C 4.94 42.55 4.45 42.06 4.45 41.45 L 4.45 38.18 L -1 38.18 L -1 36 L 4.45 36 L 4.45 31.64 L -1 31.64 L -1 29.45 L 4.45 29.45 L 4.45 25.09 L -1 25.09 L -1 22.91 L 4.45 22.91 L 4.45 18.55 L -1 18.55 L -1 16.36 L 4.45 16.36 L 4.45 12 L -1 12 L -1 9.82 L 4.45 9.82 L 4.45 6.55 C 4.45 5.94 4.94 5.45 5.55 5.45 L 8.82 5.45 L 8.82 0 L 11 0 L 11 5.45 L 15.36 5.45 L 15.36 0 L 17.55 0 L 17.55 5.45 L 21.91 5.45 L 21.91 0 L 24.09 0 L 24.09 5.45 L 28.45 5.45 L 28.45 0 L 30.64 0 L 30.64 5.45 L 35 5.45 L 35 0 L 37.18 0 L 37.18 5.45 L 40.45 5.45 C 41.06 5.45 41.55 5.94 41.55 6.55 L 41.55 9.82 L 47 9.82 L 47 12 Z M 31.54 24.13 C 31.54 25.92 32.2 26.82 33.5 26.82 C 34.1 26.82 34.68 26.62 35.25 26.24 L 35.25 22.04 C 34.73 21.67 34.16 21.49 33.53 21.49 C 32.85 21.49 32.34 21.7 32.02 22.13 C 31.7 22.57 31.54 23.23 31.54 24.13 Z M 30.59 27.14 C 30 26.42 29.71 25.44 29.71 24.2 C 29.71 23.39 29.84 22.67 30.11 22.05 C 30.37 21.43 30.75 20.94 31.25 20.59 C 31.75 20.24 32.34 20.07 33.02 20.07 C 33.84 20.07 34.58 20.33 35.25 20.86 L 35.25 16.77 L 37.06 16.77 L 37.06 28.07 L 35.51 28.07 L 35.33 27.32 C 34.64 27.93 33.84 28.24 32.93 28.24 C 31.96 28.24 31.17 27.87 30.59 27.14 Z M 27.24 27.36 C 27.97 26.73 28.34 25.89 28.34 24.83 C 28.34 23.84 28.03 23.06 27.42 22.49 C 26.82 21.92 25.98 21.64 24.93 21.64 C 24.46 21.64 24.02 21.68 23.6 21.76 L 23.77 18.93 L 27.82 18.93 L 27.82 17.48 L 22.07 17.48 L 21.78 22.04 L 21.78 23.2 C 22.71 23.09 23.49 23.04 24.11 23.04 C 24.93 23.04 25.54 23.19 25.92 23.48 C 26.3 23.77 26.49 24.23 26.49 24.86 C 26.49 26.16 25.73 26.82 24.23 26.82 C 23.42 26.82 22.45 26.63 21.34 26.25 L 21.34 27.69 C 22.28 28.09 23.25 28.3 24.27 28.3 C 25.52 28.3 26.5 27.98 27.24 27.36 Z M 10.65 28.07 L 8.94 28.07 L 8.94 17.48 L 11.02 17.48 L 14.19 23.79 L 17.43 17.48 L 19.45 17.48 L 19.45 28.07 L 17.74 28.07 L 17.74 20.14 L 14.99 25.41 L 13.31 25.41 L 10.65 20.17 Z" fill="#ed7100" stroke="none" pointer-events="all"/></g></svg>