<?xml version="1.0" encoding="UTF-8"?>
<!-- Do not edit this file with editors other than draw.io -->
<!DOCTYPE svg PUBLIC "-//W3C//DTD SVG 1.1//EN" "http://www.w3.org/Graphics/SVG/1.1/DTD/svg11.dtd">
<svg xmlns="http://www.w3.org/2000/svg" xmlns:xlink="http://www.w3.org/1999/xlink" version="1.1" width="49px" height="49px" viewBox="-0.5 -0.5 49 49" content="&lt;mxfile host=&quot;app.diagrams.net&quot; modified=&quot;2023-11-13T09:45:07.547Z&quot; agent=&quot;Mozilla/5.0 (Windows NT 10.0; Win64; x64) AppleWebKit/537.36 (KHTML, like Gecko) Chrome/119.0.0.0 Safari/537.36&quot; etag=&quot;uw4Lw0i9_dG52AuKUZce&quot; version=&quot;22.1.0&quot; type=&quot;device&quot;&gt;&#10;  &lt;diagram name=&quot;페이지-1&quot; id=&quot;AW3kfpiaLIK3EqUbXKlc&quot;&gt;&#10;    &lt;mxGraphModel dx=&quot;292&quot; dy=&quot;157&quot; grid=&quot;1&quot; gridSize=&quot;10&quot; guides=&quot;1&quot; tooltips=&quot;1&quot; connect=&quot;1&quot; arrows=&quot;1&quot; fold=&quot;1&quot; page=&quot;1&quot; pageScale=&quot;1&quot; pageWidth=&quot;827&quot; pageHeight=&quot;1169&quot; math=&quot;0&quot; shadow=&quot;0&quot;&gt;&#10;      &lt;root&gt;&#10;        &lt;mxCell id=&quot;0&quot; /&gt;&#10;        &lt;mxCell id=&quot;1&quot; parent=&quot;0&quot; /&gt;&#10;        &lt;mxCell id=&quot;_niekT0tynacapAUr5bP-53&quot; value=&quot;&quot; style=&quot;sketch=0;outlineConnect=0;fontColor=#232F3E;gradientColor=none;fillColor=#ED7100;strokeColor=none;dashed=0;verticalLabelPosition=bottom;verticalAlign=top;align=center;html=1;fontSize=12;fontStyle=0;aspect=fixed;pointerEvents=1;shape=mxgraph.aws4.m5dn_instance;&quot; vertex=&quot;1&quot; parent=&quot;1&quot;&gt;&#10;          &lt;mxGeometry x=&quot;470&quot; y=&quot;170&quot; width=&quot;48&quot; height=&quot;48&quot; as=&quot;geometry&quot; /&gt;&#10;        &lt;/mxCell&gt;&#10;      &lt;/root&gt;&#10;    &lt;/mxGraphModel&gt;&#10;  &lt;/diagram&gt;&#10;&lt;/mxfile&gt;&#10;"><defs/><g><rect x="-1" y="0" width="48" height="48" fill="none" stroke="none" pointer-events="all"/><path d="M 6.64 40.36 L 39.36 40.36 L 39.36 7.64 L 6.64 7.64 Z M 41.55 12 L 41.55 16.36 L 47 16.36 L 47 18.55 L 41.55 18.55 L 41.55 22.91 L 47 22.91 L 47 25.09 L 41.55 25.09 L 41.55 29.45 L 47 29.45 L 47 31.64 L 41.55 31.64 L 41.55 36 L 47 36 L 47 38.18 L 41.55 38.18 L 41.55 41.45 C 41.55 42.06 41.06 42.55 40.45 42.55 L 37.18 42.55 L 37.18 48 L 35 48 L 35 42.55 L 30.64 42.55 L 30.64 48 L 28.45 48 L 28.45 42.55 L 24.09 42.55 L 24.09 48 L 21.91 48 L 21.91 42.55 L 17.55 42.55 L 17.55 48 L 15.36 48 L 15.36 42.55 L 11 42.55 L 11 48 L 8.82 48 L 8.82 42.55 L 5.55 42.55 C 4.94 42.55 4.45 42.06 4.45 41.45 L 4.45 38.18 L -1 38.18 L -1 36 L 4.45 36 L 4.45 31.64 L -1 31.64 L -1 29.45 L 4.45 29.45 L 4.45 25.09 L -1 25.09 L -1 22.91 L 4.45 22.91 L 4.45 18.55 L -1 18.55 L -1 16.36 L 4.45 16.36 L 4.45 12 L -1 12 L -1 9.82 L 4.45 9.82 L 4.45 6.55 C 4.45 5.94 4.94 5.45 5.55 5.45 L 8.82 5.45 L 8.82 0 L 11 0 L 11 5.45 L 15.36 5.45 L 15.36 0 L 17.55 0 L 17.55 5.45 L 21.91 5.45 L 21.91 0 L 24.09 0 L 24.09 5.45 L 28.45 5.45 L 28.45 0 L 30.64 0 L 30.64 5.45 L 35 5.45 L 35 0 L 37.18 0 L 37.18 5.45 L 40.45 5.45 C 41.06 5.45 41.55 5.94 41.55 6.55 L 41.55 9.82 L 47 9.82 L 47 12 Z M 33.21 23.42 C 33.76 23.07 34.3 22.9 34.83 22.9 C 35.18 22.9 35.43 22.99 35.59 23.17 C 35.75 23.35 35.83 23.63 35.83 24.02 L 35.83 28.07 L 37.25 28.07 L 37.25 23.58 C 37.25 23 37.1 22.55 36.79 22.24 C 36.49 21.93 36.05 21.78 35.46 21.78 C 34.65 21.78 33.86 22.06 33.11 22.63 L 32.97 21.96 L 31.79 21.96 L 31.79 28.07 L 33.21 28.07 Z M 26.15 24.97 C 26.15 26.38 26.66 27.08 27.69 27.08 C 28.16 27.08 28.62 26.93 29.07 26.63 L 29.07 23.33 C 28.66 23.04 28.2 22.9 27.71 22.9 C 27.17 22.9 26.78 23.07 26.53 23.41 C 26.27 23.75 26.15 24.27 26.15 24.97 Z M 25.4 27.34 C 24.94 26.77 24.71 26 24.71 25.03 C 24.71 24.39 24.81 23.83 25.02 23.34 C 25.23 22.85 25.53 22.47 25.92 22.19 C 26.31 21.92 26.78 21.78 27.31 21.78 C 27.95 21.78 28.54 21.99 29.07 22.4 L 29.07 19.19 L 30.48 19.19 L 30.48 28.07 L 29.27 28.07 L 29.13 27.48 C 28.58 27.96 27.95 28.2 27.24 28.2 C 26.47 28.2 25.86 27.91 25.4 27.34 Z M 22.95 27.51 C 23.52 27.02 23.81 26.36 23.81 25.52 C 23.81 24.75 23.57 24.14 23.09 23.69 C 22.62 23.24 21.96 23.02 21.13 23.02 C 20.76 23.02 20.42 23.05 20.09 23.11 L 20.23 20.89 L 23.4 20.89 L 23.4 19.75 L 18.89 19.75 L 18.66 23.33 L 18.66 24.24 C 19.39 24.16 20 24.12 20.49 24.12 C 21.14 24.12 21.61 24.23 21.91 24.46 C 22.21 24.69 22.36 25.05 22.36 25.55 C 22.36 26.57 21.77 27.08 20.58 27.08 C 19.94 27.08 19.19 26.94 18.31 26.64 L 18.31 27.77 C 19.05 28.09 19.82 28.25 20.62 28.25 C 21.59 28.25 22.37 28 22.95 27.51 Z M 10.09 28.07 L 8.75 28.07 L 8.75 19.75 L 10.38 19.75 L 12.88 24.71 L 15.42 19.75 L 17.01 19.75 L 17.01 28.07 L 15.66 28.07 L 15.66 21.84 L 13.5 25.98 L 12.18 25.98 L 10.09 21.86 Z" fill="#ed7100" stroke="none" pointer-events="all"/></g></svg>