<?xml version="1.0" encoding="UTF-8"?>
<!-- Do not edit this file with editors other than draw.io -->
<!DOCTYPE svg PUBLIC "-//W3C//DTD SVG 1.1//EN" "http://www.w3.org/Graphics/SVG/1.1/DTD/svg11.dtd">
<svg xmlns="http://www.w3.org/2000/svg" xmlns:xlink="http://www.w3.org/1999/xlink" version="1.1" width="49px" height="49px" viewBox="-0.5 -0.5 49 49" content="&lt;mxfile host=&quot;app.diagrams.net&quot; modified=&quot;2023-11-13T09:45:39.106Z&quot; agent=&quot;Mozilla/5.0 (Windows NT 10.0; Win64; x64) AppleWebKit/537.36 (KHTML, like Gecko) Chrome/119.0.0.0 Safari/537.36&quot; etag=&quot;7JTnSyFpRpuOKKSXGpO7&quot; version=&quot;22.1.0&quot; type=&quot;device&quot;&gt;&#10;  &lt;diagram name=&quot;페이지-1&quot; id=&quot;AW3kfpiaLIK3EqUbXKlc&quot;&gt;&#10;    &lt;mxGraphModel dx=&quot;292&quot; dy=&quot;157&quot; grid=&quot;1&quot; gridSize=&quot;10&quot; guides=&quot;1&quot; tooltips=&quot;1&quot; connect=&quot;1&quot; arrows=&quot;1&quot; fold=&quot;1&quot; page=&quot;1&quot; pageScale=&quot;1&quot; pageWidth=&quot;827&quot; pageHeight=&quot;1169&quot; math=&quot;0&quot; shadow=&quot;0&quot;&gt;&#10;      &lt;root&gt;&#10;        &lt;mxCell id=&quot;0&quot; /&gt;&#10;        &lt;mxCell id=&quot;1&quot; parent=&quot;0&quot; /&gt;&#10;        &lt;mxCell id=&quot;_niekT0tynacapAUr5bP-57&quot; value=&quot;&quot; style=&quot;sketch=0;outlineConnect=0;fontColor=#232F3E;gradientColor=none;fillColor=#ED7100;strokeColor=none;dashed=0;verticalLabelPosition=bottom;verticalAlign=top;align=center;html=1;fontSize=12;fontStyle=0;aspect=fixed;pointerEvents=1;shape=mxgraph.aws4.ec2_m6a_instance;&quot; vertex=&quot;1&quot; parent=&quot;1&quot;&gt;&#10;          &lt;mxGeometry x=&quot;480&quot; y=&quot;160&quot; width=&quot;48&quot; height=&quot;48&quot; as=&quot;geometry&quot; /&gt;&#10;        &lt;/mxCell&gt;&#10;      &lt;/root&gt;&#10;    &lt;/mxGraphModel&gt;&#10;  &lt;/diagram&gt;&#10;&lt;/mxfile&gt;&#10;"><defs/><g><rect x="0" y="0" width="48" height="48" fill="none" stroke="none" pointer-events="all"/><path d="M 34.15 28.33 C 34.44 28.33 34.74 28.26 35.06 28.14 C 35.38 28.01 35.68 27.83 35.98 27.59 L 35.98 26.13 C 35.46 26.01 34.99 25.96 34.58 25.96 C 33.55 25.96 33.03 26.37 33.03 27.2 C 33.03 27.55 33.13 27.83 33.33 28.03 C 33.53 28.23 33.8 28.33 34.15 28.33 Z M 36.21 29.38 L 36.07 28.63 C 35.72 28.94 35.32 29.18 34.89 29.35 C 34.48 29.52 34.04 29.61 33.6 29.61 C 32.89 29.61 32.31 29.4 31.87 28.97 C 31.42 28.54 31.2 27.99 31.2 27.3 C 31.2 26.55 31.47 25.95 32.02 25.5 C 32.56 25.05 33.29 24.83 34.21 24.83 C 34.75 24.83 35.34 24.91 35.98 25.06 L 35.98 24.16 C 35.98 23.64 35.87 23.28 35.65 23.07 C 35.42 22.87 35.03 22.77 34.47 22.77 C 33.68 22.77 32.76 22.94 31.74 23.27 L 31.74 22 C 32.12 21.81 32.59 21.66 33.14 21.55 C 33.7 21.43 34.25 21.38 34.81 21.38 C 35.83 21.38 36.58 21.58 37.06 21.99 C 37.54 22.4 37.78 23.03 37.78 23.9 L 37.78 29.38 Z M 26.53 24.37 C 25.87 24.37 25.2 24.55 24.53 24.91 C 24.6 27.07 25.3 28.16 26.65 28.16 C 27.19 28.16 27.62 27.99 27.93 27.65 C 28.24 27.32 28.39 26.85 28.39 26.25 C 28.39 25.64 28.23 25.17 27.91 24.85 C 27.59 24.53 27.13 24.37 26.53 24.37 Z M 27.33 20 C 26.42 20 25.73 20.31 25.28 20.92 C 24.83 21.53 24.58 22.47 24.53 23.74 C 25.33 23.23 26.19 22.97 27.1 22.97 C 28.04 22.97 28.8 23.25 29.38 23.83 C 29.95 24.4 30.24 25.17 30.24 26.13 C 30.24 26.8 30.09 27.4 29.79 27.92 C 29.49 28.45 29.06 28.86 28.49 29.16 C 27.93 29.46 27.27 29.61 26.51 29.61 C 25.25 29.61 24.3 29.18 23.65 28.31 C 23 27.45 22.68 26.17 22.68 24.48 C 22.68 22.6 23.06 21.15 23.83 20.11 C 24.6 19.07 25.68 18.55 27.08 18.55 C 27.51 18.55 27.96 18.6 28.4 18.7 C 28.84 18.79 29.22 18.92 29.54 19.09 L 29.54 20.42 C 29.19 20.28 28.83 20.18 28.46 20.12 C 28.09 20.04 27.71 20.01 27.33 20 Z M 19.32 29.38 L 19.32 21.45 L 16.57 26.72 L 14.89 26.72 L 12.23 21.48 L 12.23 29.38 L 10.52 29.38 L 10.52 18.8 L 12.6 18.8 L 15.78 25.1 L 19.01 18.8 L 21.03 18.8 L 21.03 29.38 Z M 7.64 40.36 L 7.64 7.64 L 40.36 7.64 L 40.36 40.36 Z M 48 12 L 48 9.82 L 42.55 9.82 L 42.55 6.55 C 42.55 5.94 42.06 5.45 41.45 5.45 L 38.18 5.45 L 38.18 0 L 36 0 L 36 5.45 L 31.64 5.45 L 31.64 0 L 29.45 0 L 29.45 5.45 L 25.09 5.45 L 25.09 0 L 22.91 0 L 22.91 5.45 L 18.55 5.45 L 18.55 0 L 16.36 0 L 16.36 5.45 L 12 5.45 L 12 0 L 9.82 0 L 9.82 5.45 L 6.55 5.45 C 5.94 5.45 5.45 5.94 5.45 6.55 L 5.45 9.82 L 0 9.82 L 0 12 L 5.45 12 L 5.45 16.36 L 0 16.36 L 0 18.55 L 5.45 18.55 L 5.45 22.91 L 0 22.91 L 0 25.09 L 5.45 25.09 L 5.45 29.45 L 0 29.45 L 0 31.64 L 5.45 31.64 L 5.45 36 L 0 36 L 0 38.18 L 5.45 38.18 L 5.45 41.45 C 5.45 42.06 5.94 42.55 6.55 42.55 L 9.82 42.55 L 9.82 48 L 12 48 L 12 42.55 L 16.36 42.55 L 16.36 48 L 18.55 48 L 18.55 42.55 L 22.91 42.55 L 22.91 48 L 25.09 48 L 25.09 42.55 L 29.45 42.55 L 29.45 48 L 31.64 48 L 31.64 42.55 L 36 42.55 L 36 48 L 38.18 48 L 38.18 42.55 L 41.45 42.55 C 42.06 42.55 42.55 42.06 42.55 41.45 L 42.55 38.18 L 48 38.18 L 48 36 L 42.55 36 L 42.55 31.64 L 48 31.64 L 48 29.45 L 42.55 29.45 L 42.55 25.09 L 48 25.09 L 48 22.91 L 42.55 22.91 L 42.55 18.55 L 48 18.55 L 48 16.36 L 42.55 16.36 L 42.55 12 Z" fill="#ed7100" stroke="none" pointer-events="all"/></g></svg>