<?xml version="1.0" encoding="UTF-8"?>
<!-- Do not edit this file with editors other than draw.io -->
<!DOCTYPE svg PUBLIC "-//W3C//DTD SVG 1.1//EN" "http://www.w3.org/Graphics/SVG/1.1/DTD/svg11.dtd">
<svg xmlns="http://www.w3.org/2000/svg" xmlns:xlink="http://www.w3.org/1999/xlink" version="1.1" width="49px" height="49px" viewBox="-0.5 -0.5 49 49" content="&lt;mxfile host=&quot;app.diagrams.net&quot; modified=&quot;2023-11-13T09:45:46.652Z&quot; agent=&quot;Mozilla/5.0 (Windows NT 10.0; Win64; x64) AppleWebKit/537.36 (KHTML, like Gecko) Chrome/119.0.0.0 Safari/537.36&quot; etag=&quot;zcj_mFYHL6HQGWPUHLU1&quot; version=&quot;22.1.0&quot; type=&quot;device&quot;&gt;&#10;  &lt;diagram name=&quot;페이지-1&quot; id=&quot;AW3kfpiaLIK3EqUbXKlc&quot;&gt;&#10;    &lt;mxGraphModel dx=&quot;292&quot; dy=&quot;157&quot; grid=&quot;1&quot; gridSize=&quot;10&quot; guides=&quot;1&quot; tooltips=&quot;1&quot; connect=&quot;1&quot; arrows=&quot;1&quot; fold=&quot;1&quot; page=&quot;1&quot; pageScale=&quot;1&quot; pageWidth=&quot;827&quot; pageHeight=&quot;1169&quot; math=&quot;0&quot; shadow=&quot;0&quot;&gt;&#10;      &lt;root&gt;&#10;        &lt;mxCell id=&quot;0&quot; /&gt;&#10;        &lt;mxCell id=&quot;1&quot; parent=&quot;0&quot; /&gt;&#10;        &lt;mxCell id=&quot;_niekT0tynacapAUr5bP-58&quot; value=&quot;&quot; style=&quot;sketch=0;outlineConnect=0;fontColor=#232F3E;gradientColor=none;fillColor=#ED7100;strokeColor=none;dashed=0;verticalLabelPosition=bottom;verticalAlign=top;align=center;html=1;fontSize=12;fontStyle=0;aspect=fixed;pointerEvents=1;shape=mxgraph.aws4.m6gd_instance;&quot; vertex=&quot;1&quot; parent=&quot;1&quot;&gt;&#10;          &lt;mxGeometry x=&quot;440&quot; y=&quot;160&quot; width=&quot;48&quot; height=&quot;48&quot; as=&quot;geometry&quot; /&gt;&#10;        &lt;/mxCell&gt;&#10;      &lt;/root&gt;&#10;    &lt;/mxGraphModel&gt;&#10;  &lt;/diagram&gt;&#10;&lt;/mxfile&gt;&#10;"><defs/><g><rect x="-1" y="0" width="48" height="48" fill="none" stroke="none" pointer-events="all"/><path d="M 6.64 40.36 L 39.36 40.36 L 39.36 7.64 L 6.64 7.64 Z M 41.55 12 L 41.55 16.36 L 47 16.36 L 47 18.55 L 41.55 18.55 L 41.55 22.91 L 47 22.91 L 47 25.09 L 41.55 25.09 L 41.55 29.45 L 47 29.45 L 47 31.64 L 41.55 31.64 L 41.55 36 L 47 36 L 47 38.18 L 41.55 38.18 L 41.55 41.45 C 41.55 42.06 41.06 42.55 40.45 42.55 L 37.18 42.55 L 37.18 48 L 35 48 L 35 42.55 L 30.64 42.55 L 30.64 48 L 28.45 48 L 28.45 42.55 L 24.09 42.55 L 24.09 48 L 21.91 48 L 21.91 42.55 L 17.55 42.55 L 17.55 48 L 15.36 48 L 15.36 42.55 L 11 42.55 L 11 48 L 8.82 48 L 8.82 42.55 L 5.55 42.55 C 4.94 42.55 4.45 42.06 4.45 41.45 L 4.45 38.18 L -1 38.18 L -1 36 L 4.45 36 L 4.45 31.64 L -1 31.64 L -1 29.45 L 4.45 29.45 L 4.45 25.09 L -1 25.09 L -1 22.91 L 4.45 22.91 L 4.45 18.55 L -1 18.55 L -1 16.36 L 4.45 16.36 L 4.45 12 L -1 12 L -1 9.82 L 4.45 9.82 L 4.45 6.55 C 4.45 5.94 4.94 5.45 5.55 5.45 L 8.82 5.45 L 8.82 0 L 11 0 L 11 5.45 L 15.36 5.45 L 15.36 0 L 17.55 0 L 17.55 5.45 L 21.91 5.45 L 21.91 0 L 24.09 0 L 24.09 5.45 L 28.45 5.45 L 28.45 0 L 30.64 0 L 30.64 5.45 L 35 5.45 L 35 0 L 37.18 0 L 37.18 5.45 L 40.45 5.45 C 41.06 5.45 41.55 5.94 41.55 6.55 L 41.55 9.82 L 47 9.82 L 47 12 Z M 32.91 24.97 C 32.91 26.38 33.42 27.08 34.44 27.08 C 34.91 27.08 35.37 26.93 35.82 26.63 L 35.82 23.33 C 35.41 23.04 34.96 22.9 34.47 22.9 C 33.93 22.9 33.53 23.07 33.28 23.41 C 33.03 23.75 32.91 24.27 32.91 24.97 Z M 32.16 27.34 C 31.7 26.77 31.47 26 31.47 25.03 C 31.47 24.39 31.57 23.83 31.78 23.34 C 31.98 22.85 32.29 22.47 32.68 22.19 C 33.07 21.92 33.53 21.78 34.07 21.78 C 34.71 21.78 35.29 21.99 35.82 22.4 L 35.82 19.19 L 37.24 19.19 L 37.24 28.07 L 36.03 28.07 L 35.88 27.48 C 35.34 27.96 34.71 28.2 34 28.2 C 33.23 28.2 32.62 27.91 32.16 27.34 Z M 26.25 24.84 C 26.25 26.18 26.72 26.86 27.67 26.86 C 28.14 26.86 28.59 26.7 29.02 26.39 L 29.02 23.32 C 28.6 23.03 28.16 22.88 27.69 22.88 C 27.2 22.88 26.84 23.04 26.6 23.36 C 26.36 23.68 26.25 24.18 26.25 24.84 Z M 25.47 27.11 C 25.03 26.56 24.81 25.82 24.81 24.89 C 24.81 24.28 24.91 23.74 25.11 23.27 C 25.31 22.81 25.59 22.44 25.97 22.18 C 26.34 21.91 26.79 21.78 27.3 21.78 C 28 21.78 28.6 22.02 29.11 22.51 L 29.23 21.96 L 30.43 21.96 L 30.43 27.65 C 30.43 28.62 30.17 29.36 29.64 29.89 C 29.12 30.42 28.37 30.68 27.4 30.68 C 26.66 30.68 25.96 30.52 25.3 30.19 L 25.3 29.18 C 26.04 29.43 26.71 29.56 27.3 29.56 C 27.9 29.56 28.34 29.42 28.61 29.14 C 28.88 28.87 29.02 28.42 29.02 27.79 L 29.02 27.28 C 28.5 27.72 27.91 27.95 27.25 27.95 C 26.51 27.95 25.91 27.67 25.47 27.11 Z M 19.61 24.55 C 19.66 26.26 20.22 27.11 21.27 27.11 C 21.7 27.11 22.04 26.98 22.28 26.71 C 22.52 26.45 22.65 26.08 22.65 25.61 C 22.65 25.13 22.52 24.76 22.27 24.51 C 22.02 24.26 21.66 24.13 21.18 24.13 C 20.66 24.13 20.14 24.27 19.61 24.55 Z M 18.92 27.23 C 18.41 26.55 18.16 25.54 18.16 24.22 C 18.16 22.74 18.46 21.6 19.06 20.78 C 19.67 19.97 20.52 19.56 21.61 19.56 C 21.96 19.56 22.3 19.6 22.65 19.67 C 23 19.75 23.3 19.85 23.55 19.98 L 23.55 21.02 C 23.3 20.93 23.02 20.85 22.7 20.79 C 22.38 20.73 22.08 20.7 21.82 20.7 C 21.1 20.7 20.56 20.94 20.2 21.42 C 19.85 21.9 19.65 22.64 19.61 23.64 C 20.24 23.23 20.92 23.03 21.63 23.03 C 22.37 23.03 22.97 23.25 23.42 23.71 C 23.87 24.16 24.1 24.76 24.1 25.51 C 24.1 26.04 23.98 26.51 23.74 26.92 C 23.51 27.33 23.17 27.66 22.72 27.89 C 22.28 28.13 21.76 28.25 21.17 28.25 C 20.18 28.25 19.43 27.91 18.92 27.23 Z M 10.07 28.07 L 8.73 28.07 L 8.73 19.75 L 10.36 19.75 L 12.85 24.71 L 15.4 19.75 L 16.98 19.75 L 16.98 28.07 L 15.64 28.07 L 15.64 21.84 L 13.48 25.98 L 12.16 25.98 L 10.07 21.86 Z" fill="#ed7100" stroke="none" pointer-events="all"/></g></svg>