<?xml version="1.0" encoding="UTF-8"?>
<!-- Do not edit this file with editors other than draw.io -->
<!DOCTYPE svg PUBLIC "-//W3C//DTD SVG 1.1//EN" "http://www.w3.org/Graphics/SVG/1.1/DTD/svg11.dtd">
<svg xmlns="http://www.w3.org/2000/svg" xmlns:xlink="http://www.w3.org/1999/xlink" version="1.1" width="49px" height="49px" viewBox="-0.5 -0.5 49 49" content="&lt;mxfile host=&quot;app.diagrams.net&quot; modified=&quot;2023-11-13T09:46:11.436Z&quot; agent=&quot;Mozilla/5.0 (Windows NT 10.0; Win64; x64) AppleWebKit/537.36 (KHTML, like Gecko) Chrome/119.0.0.0 Safari/537.36&quot; etag=&quot;_np_lDCtfPD5_OF6PcAy&quot; version=&quot;22.1.0&quot; type=&quot;device&quot;&gt;&#10;  &lt;diagram name=&quot;페이지-1&quot; id=&quot;AW3kfpiaLIK3EqUbXKlc&quot;&gt;&#10;    &lt;mxGraphModel dx=&quot;292&quot; dy=&quot;157&quot; grid=&quot;1&quot; gridSize=&quot;10&quot; guides=&quot;1&quot; tooltips=&quot;1&quot; connect=&quot;1&quot; arrows=&quot;1&quot; fold=&quot;1&quot; page=&quot;1&quot; pageScale=&quot;1&quot; pageWidth=&quot;827&quot; pageHeight=&quot;1169&quot; math=&quot;0&quot; shadow=&quot;0&quot;&gt;&#10;      &lt;root&gt;&#10;        &lt;mxCell id=&quot;0&quot; /&gt;&#10;        &lt;mxCell id=&quot;1&quot; parent=&quot;0&quot; /&gt;&#10;        &lt;mxCell id=&quot;_niekT0tynacapAUr5bP-61&quot; value=&quot;&quot; style=&quot;sketch=0;outlineConnect=0;fontColor=#232F3E;gradientColor=none;fillColor=#ED7100;strokeColor=none;dashed=0;verticalLabelPosition=bottom;verticalAlign=top;align=center;html=1;fontSize=12;fontStyle=0;aspect=fixed;pointerEvents=1;shape=mxgraph.aws4.ec2_m6i_instance;&quot; vertex=&quot;1&quot; parent=&quot;1&quot;&gt;&#10;          &lt;mxGeometry x=&quot;490&quot; y=&quot;150&quot; width=&quot;48&quot; height=&quot;48&quot; as=&quot;geometry&quot; /&gt;&#10;        &lt;/mxCell&gt;&#10;      &lt;/root&gt;&#10;    &lt;/mxGraphModel&gt;&#10;  &lt;/diagram&gt;&#10;&lt;/mxfile&gt;&#10;"><defs/><g><rect x="0" y="0" width="48" height="48" fill="none" stroke="none" pointer-events="all"/><path d="M 7.64 40.36 L 40.36 40.36 L 40.36 7.64 L 7.64 7.64 Z M 42.55 12 L 42.55 16.36 L 48 16.36 L 48 18.55 L 42.55 18.55 L 42.55 22.91 L 48 22.91 L 48 25.09 L 42.55 25.09 L 42.55 29.45 L 48 29.45 L 48 31.64 L 42.55 31.64 L 42.55 36 L 48 36 L 48 38.18 L 42.55 38.18 L 42.55 41.45 C 42.55 42.06 42.06 42.55 41.45 42.55 L 38.18 42.55 L 38.18 48 L 36 48 L 36 42.55 L 31.64 42.55 L 31.64 48 L 29.45 48 L 29.45 42.55 L 25.09 42.55 L 25.09 48 L 22.91 48 L 22.91 42.55 L 18.55 42.55 L 18.55 48 L 16.36 48 L 16.36 42.55 L 12 42.55 L 12 48 L 9.82 48 L 9.82 42.55 L 6.55 42.55 C 5.94 42.55 5.45 42.06 5.45 41.45 L 5.45 38.18 L 0 38.18 L 0 36 L 5.45 36 L 5.45 31.64 L 0 31.64 L 0 29.45 L 5.45 29.45 L 5.45 25.09 L 0 25.09 L 0 22.91 L 5.45 22.91 L 5.45 18.55 L 0 18.55 L 0 16.36 L 5.45 16.36 L 5.45 12 L 0 12 L 0 9.82 L 5.45 9.82 L 5.45 6.55 C 5.45 5.94 5.94 5.45 6.55 5.45 L 9.82 5.45 L 9.82 0 L 12 0 L 12 5.45 L 16.36 5.45 L 16.36 0 L 18.55 0 L 18.55 5.45 L 22.91 5.45 L 22.91 0 L 25.09 0 L 25.09 5.45 L 29.45 5.45 L 29.45 0 L 31.64 0 L 31.64 5.45 L 36 5.45 L 36 0 L 38.18 0 L 38.18 5.45 L 41.45 5.45 C 42.06 5.45 42.55 5.94 42.55 6.55 L 42.55 9.82 L 48 9.82 L 48 12 Z M 34.58 20.1 C 34.92 20.1 35.18 20.01 35.38 19.83 C 35.57 19.64 35.67 19.39 35.67 19.06 C 35.67 18.74 35.57 18.48 35.38 18.3 C 35.18 18.12 34.92 18.03 34.58 18.03 C 34.25 18.03 33.98 18.12 33.79 18.3 C 33.6 18.48 33.5 18.74 33.5 19.06 C 33.5 19.39 33.59 19.64 33.79 19.83 C 33.98 20.01 34.25 20.1 34.58 20.1 Z M 33.68 29.16 L 35.48 29.16 L 35.48 21.39 L 33.68 21.39 Z M 26.46 24.68 C 26.53 26.85 27.23 27.94 28.58 27.94 C 29.12 27.94 29.55 27.77 29.86 27.43 C 30.17 27.1 30.32 26.63 30.32 26.03 C 30.32 25.42 30.16 24.95 29.84 24.63 C 29.52 24.31 29.06 24.15 28.46 24.15 C 27.8 24.15 27.13 24.33 26.46 24.68 Z M 25.58 28.09 C 24.93 27.22 24.61 25.95 24.61 24.26 C 24.61 22.38 24.99 20.93 25.76 19.89 C 26.53 18.85 27.61 18.33 29.01 18.33 C 29.44 18.33 29.89 18.38 30.33 18.48 C 30.77 18.57 31.15 18.7 31.47 18.87 L 31.47 20.19 C 31.15 20.07 30.8 19.97 30.39 19.9 C 30.02 19.82 29.64 19.79 29.26 19.78 C 28.35 19.78 27.66 20.09 27.21 20.7 C 26.76 21.31 26.51 22.25 26.46 23.52 C 27.26 23 28.12 22.74 29.03 22.74 C 29.97 22.74 30.73 23.03 31.31 23.61 C 31.88 24.18 32.17 24.95 32.17 25.91 C 32.17 26.58 32.02 27.18 31.72 27.7 C 31.42 28.22 30.99 28.64 30.42 28.94 C 29.85 29.24 29.2 29.39 28.44 29.39 C 27.18 29.39 26.23 28.95 25.58 28.09 Z M 14.16 29.16 L 12.45 29.16 L 12.45 18.57 L 14.53 18.57 L 17.71 24.88 L 20.94 18.57 L 22.96 18.57 L 22.96 29.16 L 21.25 29.16 L 21.25 21.23 L 18.5 26.5 L 16.82 26.5 L 14.16 21.26 Z" fill="#ed7100" stroke="none" pointer-events="all"/></g></svg>