<?xml version="1.0" encoding="UTF-8"?>
<!-- Do not edit this file with editors other than draw.io -->
<!DOCTYPE svg PUBLIC "-//W3C//DTD SVG 1.1//EN" "http://www.w3.org/Graphics/SVG/1.1/DTD/svg11.dtd">
<svg xmlns="http://www.w3.org/2000/svg" xmlns:xlink="http://www.w3.org/1999/xlink" version="1.1" width="49px" height="49px" viewBox="-0.5 -0.5 49 49" content="&lt;mxfile host=&quot;app.diagrams.net&quot; modified=&quot;2023-11-13T09:46:02.286Z&quot; agent=&quot;Mozilla/5.0 (Windows NT 10.0; Win64; x64) AppleWebKit/537.36 (KHTML, like Gecko) Chrome/119.0.0.0 Safari/537.36&quot; etag=&quot;d7sDpiGy_Aib5BGwEH2E&quot; version=&quot;22.1.0&quot; type=&quot;device&quot;&gt;&#10;  &lt;diagram name=&quot;페이지-1&quot; id=&quot;AW3kfpiaLIK3EqUbXKlc&quot;&gt;&#10;    &lt;mxGraphModel dx=&quot;292&quot; dy=&quot;157&quot; grid=&quot;1&quot; gridSize=&quot;10&quot; guides=&quot;1&quot; tooltips=&quot;1&quot; connect=&quot;1&quot; arrows=&quot;1&quot; fold=&quot;1&quot; page=&quot;1&quot; pageScale=&quot;1&quot; pageWidth=&quot;827&quot; pageHeight=&quot;1169&quot; math=&quot;0&quot; shadow=&quot;0&quot;&gt;&#10;      &lt;root&gt;&#10;        &lt;mxCell id=&quot;0&quot; /&gt;&#10;        &lt;mxCell id=&quot;1&quot; parent=&quot;0&quot; /&gt;&#10;        &lt;mxCell id=&quot;_niekT0tynacapAUr5bP-60&quot; value=&quot;&quot; style=&quot;sketch=0;outlineConnect=0;fontColor=#232F3E;gradientColor=none;fillColor=#ED7100;strokeColor=none;dashed=0;verticalLabelPosition=bottom;verticalAlign=top;align=center;html=1;fontSize=12;fontStyle=0;aspect=fixed;pointerEvents=1;shape=mxgraph.aws4.ec2_m6idn_instance;&quot; vertex=&quot;1&quot; parent=&quot;1&quot;&gt;&#10;          &lt;mxGeometry x=&quot;470&quot; y=&quot;170&quot; width=&quot;48&quot; height=&quot;48&quot; as=&quot;geometry&quot; /&gt;&#10;        &lt;/mxCell&gt;&#10;      &lt;/root&gt;&#10;    &lt;/mxGraphModel&gt;&#10;  &lt;/diagram&gt;&#10;&lt;/mxfile&gt;&#10;"><defs/><g><rect x="-1" y="0" width="48" height="48" fill="none" stroke="none" pointer-events="all"/><path d="M 11 0 L 11 5.45 L 15.36 5.45 L 15.36 0 L 17.55 0 L 17.55 5.45 L 21.91 5.45 L 21.91 0 L 24.09 0 L 24.09 5.45 L 28.45 5.45 L 28.45 0 L 30.64 0 L 30.64 5.45 L 35 5.45 L 35 0 L 37.18 0 L 37.18 5.45 L 40.45 5.45 C 41.06 5.45 41.55 5.94 41.55 6.55 L 41.55 9.82 L 47 9.82 L 47 12 L 41.55 12 L 41.55 16.36 L 47 16.36 L 47 18.55 L 41.55 18.55 L 41.55 22.91 L 47 22.91 L 47 25.09 L 41.55 25.09 L 41.55 29.45 L 47 29.45 L 47 31.64 L 41.55 31.64 L 41.55 36 L 47 36 L 47 38.18 L 41.55 38.18 L 41.55 41.45 C 41.55 42.06 41.06 42.55 40.45 42.55 L 37.18 42.55 L 37.18 48 L 35 48 L 35 42.55 L 30.64 42.55 L 30.64 48 L 28.45 48 L 28.45 42.55 L 24.09 42.55 L 24.09 48 L 21.91 48 L 21.91 42.55 L 17.55 42.55 L 17.55 48 L 15.36 48 L 15.36 42.55 L 11 42.55 L 11 48 L 8.82 48 L 8.82 42.55 L 5.55 42.55 C 4.94 42.55 4.45 42.06 4.45 41.45 L 4.45 38.18 L -1 38.18 L -1 36 L 4.45 36 L 4.45 31.64 L -1 31.64 L -1 29.45 L 4.45 29.45 L 4.45 25.09 L -1 25.09 L -1 22.91 L 4.45 22.91 L 4.45 18.55 L -1 18.55 L -1 16.36 L 4.45 16.36 L 4.45 12 L -1 12 L -1 9.82 L 4.45 9.82 L 4.45 6.55 C 4.45 5.94 4.94 5.45 5.55 5.45 L 8.82 5.45 L 8.82 0 Z M 39.36 7.64 L 6.64 7.64 L 6.64 40.36 L 39.36 40.36 Z M 20.25 20.33 C 20.57 20.33 20.89 20.37 21.2 20.44 C 21.51 20.51 21.78 20.6 22.01 20.72 L 22.01 21.66 C 21.79 21.58 21.53 21.51 21.24 21.45 C 20.95 21.4 20.68 21.37 20.44 21.37 C 19.78 21.37 19.29 21.59 18.97 22.02 C 18.65 22.46 18.47 23.13 18.43 24.04 C 19.01 23.67 19.62 23.49 20.27 23.49 C 20.94 23.49 21.49 23.69 21.9 24.1 C 22.31 24.51 22.51 25.06 22.51 25.74 C 22.51 26.22 22.4 26.65 22.19 27.03 C 21.98 27.4 21.67 27.69 21.26 27.91 C 20.86 28.12 20.39 28.23 19.85 28.23 C 18.95 28.23 18.27 27.92 17.81 27.3 C 17.34 26.69 17.11 25.77 17.11 24.57 C 17.11 23.23 17.39 22.19 17.94 21.45 C 18.49 20.7 19.26 20.33 20.25 20.33 Z M 31.24 20 L 31.24 28.07 L 30.14 28.07 L 30.01 27.53 C 29.54 27.96 28.93 28.19 28.29 28.19 C 27.6 28.19 27.04 27.93 26.62 27.41 C 26.2 26.89 25.99 26.19 25.99 25.31 C 25.99 24.73 26.09 24.21 26.28 23.77 C 26.47 23.33 26.74 22.98 27.09 22.73 C 27.45 22.48 27.87 22.35 28.36 22.35 C 28.94 22.35 29.47 22.54 29.95 22.92 L 29.95 20 Z M 35.93 22.35 C 36.46 22.35 36.87 22.49 37.14 22.77 C 37.42 23.05 37.56 23.46 37.56 23.99 L 37.56 28.07 L 36.27 28.07 L 36.27 24.39 C 36.27 24.03 36.2 23.78 36.05 23.61 C 35.9 23.45 35.67 23.37 35.35 23.37 C 34.87 23.37 34.38 23.53 33.88 23.85 L 33.88 28.07 L 32.59 28.07 L 32.59 22.52 L 33.66 22.52 L 33.79 23.13 C 34.48 22.61 35.19 22.35 35.93 22.35 Z M 9.91 20.51 L 12.18 25.01 L 14.49 20.51 L 15.93 20.51 L 15.93 28.07 L 14.71 28.07 L 14.71 22.41 L 12.75 26.17 L 11.55 26.17 L 9.65 22.43 L 9.65 28.07 L 8.43 28.07 L 8.43 20.51 Z M 24.88 22.52 L 24.88 28.07 L 23.59 28.07 L 23.59 22.52 Z M 19.86 24.49 C 19.39 24.49 18.92 24.62 18.43 24.87 C 18.48 26.42 18.99 27.2 19.95 27.2 C 20.34 27.2 20.64 27.08 20.86 26.84 C 21.08 26.6 21.19 26.26 21.19 25.83 C 21.19 25.4 21.08 25.06 20.85 24.83 C 20.62 24.6 20.29 24.49 19.86 24.49 Z M 28.72 23.37 C 28.23 23.37 27.87 23.52 27.65 23.83 C 27.42 24.14 27.3 24.61 27.3 25.25 C 27.3 26.53 27.77 27.17 28.7 27.17 C 29.13 27.17 29.55 27.03 29.95 26.76 L 29.95 23.76 C 29.58 23.5 29.17 23.37 28.72 23.37 Z M 24.24 20.12 C 24.48 20.12 24.66 20.18 24.8 20.31 C 24.94 20.44 25.01 20.62 25.01 20.86 C 25.01 21.09 24.94 21.27 24.8 21.4 C 24.66 21.53 24.48 21.6 24.24 21.6 C 24 21.6 23.81 21.53 23.67 21.4 C 23.53 21.27 23.46 21.09 23.46 20.86 C 23.46 20.62 23.53 20.44 23.67 20.31 C 23.81 20.18 24 20.12 24.24 20.12 Z" fill="#ed7100" stroke="none" pointer-events="all"/></g></svg>