<?xml version="1.0" encoding="UTF-8"?>
<!-- Do not edit this file with editors other than draw.io -->
<!DOCTYPE svg PUBLIC "-//W3C//DTD SVG 1.1//EN" "http://www.w3.org/Graphics/SVG/1.1/DTD/svg11.dtd">
<svg xmlns="http://www.w3.org/2000/svg" xmlns:xlink="http://www.w3.org/1999/xlink" version="1.1" width="49px" height="49px" viewBox="-0.5 -0.5 49 49" content="&lt;mxfile host=&quot;app.diagrams.net&quot; modified=&quot;2023-11-13T09:46:25.139Z&quot; agent=&quot;Mozilla/5.0 (Windows NT 10.0; Win64; x64) AppleWebKit/537.36 (KHTML, like Gecko) Chrome/119.0.0.0 Safari/537.36&quot; etag=&quot;aIcDezpVQMQd9gRuP6R5&quot; version=&quot;22.1.0&quot; type=&quot;device&quot;&gt;&#10;  &lt;diagram name=&quot;페이지-1&quot; id=&quot;AW3kfpiaLIK3EqUbXKlc&quot;&gt;&#10;    &lt;mxGraphModel dx=&quot;292&quot; dy=&quot;157&quot; grid=&quot;1&quot; gridSize=&quot;10&quot; guides=&quot;1&quot; tooltips=&quot;1&quot; connect=&quot;1&quot; arrows=&quot;1&quot; fold=&quot;1&quot; page=&quot;1&quot; pageScale=&quot;1&quot; pageWidth=&quot;827&quot; pageHeight=&quot;1169&quot; math=&quot;0&quot; shadow=&quot;0&quot;&gt;&#10;      &lt;root&gt;&#10;        &lt;mxCell id=&quot;0&quot; /&gt;&#10;        &lt;mxCell id=&quot;1&quot; parent=&quot;0&quot; /&gt;&#10;        &lt;mxCell id=&quot;_niekT0tynacapAUr5bP-63&quot; value=&quot;&quot; style=&quot;sketch=0;outlineConnect=0;fontColor=#232F3E;gradientColor=none;fillColor=#ED7100;strokeColor=none;dashed=0;verticalLabelPosition=bottom;verticalAlign=top;align=center;html=1;fontSize=12;fontStyle=0;aspect=fixed;pointerEvents=1;shape=mxgraph.aws4.mac_instance;&quot; vertex=&quot;1&quot; parent=&quot;1&quot;&gt;&#10;          &lt;mxGeometry x=&quot;440&quot; y=&quot;170&quot; width=&quot;48&quot; height=&quot;48&quot; as=&quot;geometry&quot; /&gt;&#10;        &lt;/mxCell&gt;&#10;      &lt;/root&gt;&#10;    &lt;/mxGraphModel&gt;&#10;  &lt;/diagram&gt;&#10;&lt;/mxfile&gt;&#10;"><defs/><g><rect x="-1" y="0" width="48" height="48" fill="none" stroke="none" pointer-events="all"/><path d="M 6.64 40.36 L 39.36 40.36 L 39.36 7.64 L 6.64 7.64 Z M 41.55 12 L 41.55 16.36 L 47 16.36 L 47 18.55 L 41.55 18.55 L 41.55 22.91 L 47 22.91 L 47 25.09 L 41.55 25.09 L 41.55 29.45 L 47 29.45 L 47 31.64 L 41.55 31.64 L 41.55 36 L 47 36 L 47 38.18 L 41.55 38.18 L 41.55 41.45 C 41.55 42.06 41.06 42.55 40.45 42.55 L 37.18 42.55 L 37.18 48 L 35 48 L 35 42.55 L 30.64 42.55 L 30.64 48 L 28.45 48 L 28.45 42.55 L 24.09 42.55 L 24.09 48 L 21.91 48 L 21.91 42.55 L 17.55 42.55 L 17.55 48 L 15.36 48 L 15.36 42.55 L 11 42.55 L 11 48 L 8.82 48 L 8.82 42.55 L 5.55 42.55 C 4.94 42.55 4.45 42.06 4.45 41.45 L 4.45 38.18 L -1 38.18 L -1 36 L 4.45 36 L 4.45 31.64 L -1 31.64 L -1 29.45 L 4.45 29.45 L 4.45 25.09 L -1 25.09 L -1 22.91 L 4.45 22.91 L 4.45 18.55 L -1 18.55 L -1 16.36 L 4.45 16.36 L 4.45 12 L -1 12 L -1 9.82 L 4.45 9.82 L 4.45 6.55 C 4.45 5.94 4.94 5.45 5.55 5.45 L 8.82 5.45 L 8.82 0 L 11 0 L 11 5.45 L 15.36 5.45 L 15.36 0 L 17.55 0 L 17.55 5.45 L 21.91 5.45 L 21.91 0 L 24.09 0 L 24.09 5.45 L 28.45 5.45 L 28.45 0 L 30.64 0 L 30.64 5.45 L 35 5.45 L 35 0 L 37.18 0 L 37.18 5.45 L 40.45 5.45 C 41.06 5.45 41.55 5.94 41.55 6.55 L 41.55 9.82 L 47 9.82 L 47 12 Z M 34.05 28.24 C 34.88 28.24 35.6 28.08 36.2 27.76 L 36.2 26.49 C 35.55 26.7 34.95 26.8 34.4 26.8 C 33.64 26.8 33.07 26.6 32.71 26.19 C 32.35 25.78 32.17 25.15 32.17 24.3 L 32.17 24.1 C 32.17 23.23 32.35 22.59 32.71 22.18 C 33.07 21.77 33.64 21.56 34.4 21.56 C 34.88 21.56 35.46 21.66 36.14 21.85 L 36.14 20.58 C 35.53 20.28 34.85 20.13 34.11 20.13 C 32.92 20.13 31.99 20.49 31.33 21.21 C 30.67 21.93 30.34 22.95 30.34 24.25 C 30.34 25.52 30.66 26.5 31.3 27.2 C 31.94 27.89 32.86 28.24 34.05 28.24 Z M 27.19 24.81 C 26.66 24.7 26.2 24.65 25.79 24.65 C 24.76 24.65 24.24 25.06 24.24 25.88 C 24.24 26.24 24.34 26.52 24.54 26.72 C 24.74 26.91 25.01 27.01 25.36 27.01 C 25.65 27.01 25.95 26.95 26.27 26.82 C 26.58 26.7 26.89 26.52 27.19 26.28 Z M 27.19 23.75 L 27.19 22.84 C 27.19 22.33 27.08 21.96 26.85 21.76 C 26.63 21.56 26.24 21.45 25.68 21.45 C 24.88 21.45 23.97 21.62 22.94 21.96 L 22.94 20.69 C 23.33 20.5 23.8 20.35 24.35 20.23 C 24.91 20.12 25.46 20.07 26.02 20.07 C 27.04 20.07 27.79 20.27 28.27 20.68 C 28.75 21.08 28.99 21.72 28.99 22.59 L 28.99 28.07 L 27.42 28.07 L 27.28 27.32 C 26.93 27.63 26.53 27.86 26.1 28.04 C 25.67 28.21 25.24 28.3 24.81 28.3 C 24.09 28.3 23.52 28.08 23.07 27.66 C 22.63 27.23 22.41 26.67 22.41 25.99 C 22.41 25.24 22.68 24.64 23.23 24.19 C 23.77 23.74 24.5 23.52 25.42 23.52 C 25.96 23.52 26.55 23.59 27.19 23.75 Z M 12.09 28.07 L 10.37 28.07 L 10.37 17.48 L 12.45 17.48 L 15.63 23.79 L 18.87 17.48 L 20.88 17.48 L 20.88 28.07 L 19.17 28.07 L 19.17 20.14 L 16.42 25.41 L 14.74 25.41 L 12.09 20.17 Z" fill="#ed7100" stroke="none" pointer-events="all"/></g></svg>