<?xml version="1.0" encoding="UTF-8"?>
<!-- Do not edit this file with editors other than draw.io -->
<!DOCTYPE svg PUBLIC "-//W3C//DTD SVG 1.1//EN" "http://www.w3.org/Graphics/SVG/1.1/DTD/svg11.dtd">
<svg xmlns="http://www.w3.org/2000/svg" xmlns:xlink="http://www.w3.org/1999/xlink" version="1.1" width="49px" height="49px" viewBox="-0.5 -0.5 49 49" content="&lt;mxfile host=&quot;app.diagrams.net&quot; modified=&quot;2023-11-13T09:47:39.622Z&quot; agent=&quot;Mozilla/5.0 (Windows NT 10.0; Win64; x64) AppleWebKit/537.36 (KHTML, like Gecko) Chrome/119.0.0.0 Safari/537.36&quot; etag=&quot;ddsA8gXiREdjz8DMDDlk&quot; version=&quot;22.1.0&quot; type=&quot;device&quot;&gt;&#10;  &lt;diagram name=&quot;페이지-1&quot; id=&quot;AW3kfpiaLIK3EqUbXKlc&quot;&gt;&#10;    &lt;mxGraphModel dx=&quot;292&quot; dy=&quot;157&quot; grid=&quot;1&quot; gridSize=&quot;10&quot; guides=&quot;1&quot; tooltips=&quot;1&quot; connect=&quot;1&quot; arrows=&quot;1&quot; fold=&quot;1&quot; page=&quot;1&quot; pageScale=&quot;1&quot; pageWidth=&quot;827&quot; pageHeight=&quot;1169&quot; math=&quot;0&quot; shadow=&quot;0&quot;&gt;&#10;      &lt;root&gt;&#10;        &lt;mxCell id=&quot;0&quot; /&gt;&#10;        &lt;mxCell id=&quot;1&quot; parent=&quot;0&quot; /&gt;&#10;        &lt;mxCell id=&quot;_niekT0tynacapAUr5bP-67&quot; value=&quot;&quot; style=&quot;sketch=0;outlineConnect=0;fontColor=#232F3E;gradientColor=none;fillColor=#ED7100;strokeColor=none;dashed=0;verticalLabelPosition=bottom;verticalAlign=top;align=center;html=1;fontSize=12;fontStyle=0;aspect=fixed;pointerEvents=1;shape=mxgraph.aws4.p3_instance;&quot; vertex=&quot;1&quot; parent=&quot;1&quot;&gt;&#10;          &lt;mxGeometry x=&quot;500&quot; y=&quot;150&quot; width=&quot;48&quot; height=&quot;48&quot; as=&quot;geometry&quot; /&gt;&#10;        &lt;/mxCell&gt;&#10;      &lt;/root&gt;&#10;    &lt;/mxGraphModel&gt;&#10;  &lt;/diagram&gt;&#10;&lt;/mxfile&gt;&#10;"><defs/><g><rect x="0" y="0" width="48" height="48" fill="none" stroke="none" pointer-events="all"/><path d="M 48 12 L 48 9.82 L 42.55 9.82 L 42.55 6.55 C 42.55 5.94 42.06 5.45 41.45 5.45 L 38.18 5.45 L 38.18 0 L 36 0 L 36 5.45 L 31.64 5.45 L 31.64 0 L 29.45 0 L 29.45 5.45 L 25.09 5.45 L 25.09 0 L 22.91 0 L 22.91 5.45 L 18.55 5.45 L 18.55 0 L 16.36 0 L 16.36 5.45 L 12 5.45 L 12 0 L 9.82 0 L 9.82 5.45 L 6.55 5.45 C 5.94 5.45 5.45 5.94 5.45 6.55 L 5.45 9.82 L 0 9.82 L 0 12 L 5.45 12 L 5.45 16.36 L 0 16.36 L 0 18.55 L 5.45 18.55 L 5.45 22.91 L 0 22.91 L 0 25.09 L 5.45 25.09 L 5.45 29.45 L 0 29.45 L 0 31.64 L 5.45 31.64 L 5.45 36 L 0 36 L 0 38.18 L 5.45 38.18 L 5.45 41.45 C 5.45 42.06 5.94 42.55 6.55 42.55 L 9.82 42.55 L 9.82 48 L 12 48 L 12 42.55 L 16.36 42.55 L 16.36 48 L 18.55 48 L 18.55 42.55 L 22.91 42.55 L 22.91 48 L 25.09 48 L 25.09 42.55 L 29.45 42.55 L 29.45 48 L 31.64 48 L 31.64 42.55 L 36 42.55 L 36 48 L 38.18 48 L 38.18 42.55 L 41.45 42.55 C 42.06 42.55 42.55 42.06 42.55 41.45 L 42.55 38.18 L 48 38.18 L 48 36 L 42.55 36 L 42.55 31.64 L 48 31.64 L 48 29.45 L 42.55 29.45 L 42.55 25.09 L 48 25.09 L 48 22.91 L 42.55 22.91 L 42.55 18.55 L 48 18.55 L 48 16.36 L 42.55 16.36 L 42.55 12 Z M 7.64 40.36 L 7.64 7.64 L 40.36 7.64 L 40.36 40.36 Z M 17.94 25.25 L 20.03 25.25 C 21.08 25.25 21.91 24.96 22.52 24.37 C 23.13 23.78 23.43 22.97 23.43 21.95 C 23.43 20.93 23.13 20.13 22.51 19.54 C 21.89 18.95 21.06 18.65 20 18.65 L 16.07 18.65 L 16.07 29.24 L 17.94 29.24 Z M 17.94 20.09 L 19.81 20.09 C 20.38 20.09 20.81 20.25 21.1 20.56 C 21.39 20.88 21.54 21.34 21.54 21.95 C 21.54 22.56 21.39 23.03 21.1 23.34 C 20.81 23.66 20.38 23.82 19.81 23.82 L 17.94 23.82 Z M 27.89 29.47 C 26.92 29.47 25.96 29.26 25.02 28.86 L 25.02 27.42 C 26.14 27.8 27.07 27.99 27.83 27.99 C 28.55 27.99 29.1 27.82 29.49 27.5 C 29.88 27.18 30.08 26.73 30.08 26.14 C 30.08 25.02 29.37 24.46 27.96 24.46 C 27.5 24.46 27.01 24.49 26.49 24.55 L 26.49 23.37 L 29.5 20.1 L 25.17 20.1 L 25.17 18.65 L 31.48 18.65 L 31.48 20.04 L 28.31 23.16 C 28.45 23.15 28.59 23.14 28.73 23.14 C 29.32 23.14 29.86 23.27 30.34 23.52 C 30.82 23.77 31.21 24.12 31.5 24.58 C 31.78 25.04 31.93 25.56 31.93 26.15 C 31.93 26.79 31.76 27.36 31.44 27.86 C 31.11 28.36 30.64 28.75 30.03 29.04 C 29.42 29.32 28.71 29.47 27.89 29.47 Z" fill="#ed7100" stroke="none" pointer-events="all"/></g></svg>