<?xml version="1.0" encoding="UTF-8"?>
<!-- Do not edit this file with editors other than draw.io -->
<!DOCTYPE svg PUBLIC "-//W3C//DTD SVG 1.1//EN" "http://www.w3.org/Graphics/SVG/1.1/DTD/svg11.dtd">
<svg xmlns="http://www.w3.org/2000/svg" xmlns:xlink="http://www.w3.org/1999/xlink" version="1.1" width="49px" height="49px" viewBox="-0.5 -0.5 49 49" content="&lt;mxfile host=&quot;app.diagrams.net&quot; modified=&quot;2023-11-13T09:47:31.217Z&quot; agent=&quot;Mozilla/5.0 (Windows NT 10.0; Win64; x64) AppleWebKit/537.36 (KHTML, like Gecko) Chrome/119.0.0.0 Safari/537.36&quot; etag=&quot;eO3JLRDEpBQmV6FSoihI&quot; version=&quot;22.1.0&quot; type=&quot;device&quot;&gt;&#10;  &lt;diagram name=&quot;페이지-1&quot; id=&quot;AW3kfpiaLIK3EqUbXKlc&quot;&gt;&#10;    &lt;mxGraphModel dx=&quot;292&quot; dy=&quot;157&quot; grid=&quot;1&quot; gridSize=&quot;10&quot; guides=&quot;1&quot; tooltips=&quot;1&quot; connect=&quot;1&quot; arrows=&quot;1&quot; fold=&quot;1&quot; page=&quot;1&quot; pageScale=&quot;1&quot; pageWidth=&quot;827&quot; pageHeight=&quot;1169&quot; math=&quot;0&quot; shadow=&quot;0&quot;&gt;&#10;      &lt;root&gt;&#10;        &lt;mxCell id=&quot;0&quot; /&gt;&#10;        &lt;mxCell id=&quot;1&quot; parent=&quot;0&quot; /&gt;&#10;        &lt;mxCell id=&quot;_niekT0tynacapAUr5bP-66&quot; value=&quot;&quot; style=&quot;sketch=0;outlineConnect=0;fontColor=#232F3E;gradientColor=none;fillColor=#ED7100;strokeColor=none;dashed=0;verticalLabelPosition=bottom;verticalAlign=top;align=center;html=1;fontSize=12;fontStyle=0;aspect=fixed;pointerEvents=1;shape=mxgraph.aws4.p3dn_instance;&quot; vertex=&quot;1&quot; parent=&quot;1&quot;&gt;&#10;          &lt;mxGeometry x=&quot;470&quot; y=&quot;160&quot; width=&quot;48&quot; height=&quot;48&quot; as=&quot;geometry&quot; /&gt;&#10;        &lt;/mxCell&gt;&#10;      &lt;/root&gt;&#10;    &lt;/mxGraphModel&gt;&#10;  &lt;/diagram&gt;&#10;&lt;/mxfile&gt;&#10;"><defs/><g><rect x="-1" y="0" width="48" height="48" fill="none" stroke="none" pointer-events="all"/><path d="M 11.41 24.94 L 13.05 24.94 C 13.88 24.94 14.53 24.7 15.01 24.24 C 15.49 23.78 15.73 23.14 15.73 22.34 C 15.73 21.54 15.49 20.91 15 20.45 C 14.52 19.98 13.86 19.75 13.03 19.75 L 9.94 19.75 L 9.94 28.07 L 11.41 28.07 Z M 11.41 20.88 L 12.88 20.88 C 13.33 20.88 13.67 21 13.9 21.25 C 14.13 21.5 14.24 21.86 14.24 22.34 C 14.24 22.82 14.13 23.19 13.9 23.44 C 13.67 23.68 13.33 23.81 12.88 23.81 L 11.41 23.81 Z M 18.99 28.25 C 18.22 28.25 17.47 28.09 16.74 27.77 L 16.74 26.64 C 17.61 26.94 18.35 27.08 18.94 27.08 C 19.51 27.08 19.94 26.96 20.25 26.71 C 20.55 26.45 20.71 26.1 20.71 25.63 C 20.71 24.75 20.15 24.31 19.04 24.31 C 18.68 24.31 18.3 24.34 17.89 24.38 L 17.89 23.46 L 20.25 20.89 L 16.86 20.89 L 16.86 19.75 L 21.81 19.75 L 21.81 20.84 L 19.32 23.29 C 19.43 23.28 19.54 23.28 19.65 23.28 C 20.11 23.28 20.54 23.38 20.92 23.57 C 21.29 23.77 21.6 24.05 21.82 24.41 C 22.05 24.77 22.16 25.18 22.16 25.64 C 22.16 26.15 22.03 26.6 21.77 26.99 C 21.52 27.38 21.15 27.69 20.67 27.91 C 20.19 28.14 19.63 28.25 18.99 28.25 Z M 25.87 28.2 C 26.58 28.2 27.21 27.96 27.75 27.48 L 27.9 28.07 L 29.11 28.07 L 29.11 19.19 L 27.69 19.19 L 27.69 22.4 C 27.16 21.99 26.58 21.78 25.94 21.78 C 25.4 21.78 24.94 21.92 24.55 22.19 C 24.16 22.47 23.86 22.85 23.65 23.34 C 23.44 23.83 23.34 24.39 23.34 25.03 C 23.34 26 23.57 26.77 24.03 27.34 C 24.49 27.91 25.1 28.2 25.87 28.2 Z M 25.15 23.41 C 25.41 23.07 25.8 22.9 26.34 22.9 C 26.83 22.9 27.28 23.04 27.69 23.33 L 27.69 26.63 C 27.24 26.93 26.78 27.08 26.31 27.08 C 25.29 27.08 24.78 26.38 24.78 24.97 C 24.78 24.27 24.9 23.75 25.15 23.41 Z M 32.01 28.07 L 30.6 28.07 L 30.6 21.96 L 31.77 21.96 L 31.92 22.63 C 32.67 22.06 33.45 21.78 34.27 21.78 C 34.85 21.78 35.3 21.93 35.6 22.24 C 35.9 22.55 36.06 23 36.06 23.58 L 36.06 28.07 L 34.64 28.07 L 34.64 24.02 C 34.64 23.63 34.56 23.35 34.4 23.17 C 34.24 22.99 33.98 22.9 33.63 22.9 C 33.1 22.9 32.56 23.07 32.01 23.42 Z M 47 12 L 47 9.82 L 41.55 9.82 L 41.55 6.55 C 41.55 5.94 41.06 5.45 40.45 5.45 L 37.18 5.45 L 37.18 0 L 35 0 L 35 5.45 L 30.64 5.45 L 30.64 0 L 28.45 0 L 28.45 5.45 L 24.09 5.45 L 24.09 0 L 21.91 0 L 21.91 5.45 L 17.55 5.45 L 17.55 0 L 15.36 0 L 15.36 5.45 L 11 5.45 L 11 0 L 8.82 0 L 8.82 5.45 L 5.55 5.45 C 4.94 5.45 4.45 5.94 4.45 6.55 L 4.45 9.82 L -1 9.82 L -1 12 L 4.45 12 L 4.45 16.36 L -1 16.36 L -1 18.55 L 4.45 18.55 L 4.45 22.91 L -1 22.91 L -1 25.09 L 4.45 25.09 L 4.45 29.45 L -1 29.45 L -1 31.64 L 4.45 31.64 L 4.45 36 L -1 36 L -1 38.18 L 4.45 38.18 L 4.45 41.45 C 4.45 42.06 4.94 42.55 5.55 42.55 L 8.82 42.55 L 8.82 48 L 11 48 L 11 42.55 L 15.36 42.55 L 15.36 48 L 17.55 48 L 17.55 42.55 L 21.91 42.55 L 21.91 48 L 24.09 48 L 24.09 42.55 L 28.45 42.55 L 28.45 48 L 30.64 48 L 30.64 42.55 L 35 42.55 L 35 48 L 37.18 48 L 37.18 42.55 L 40.45 42.55 C 41.06 42.55 41.55 42.06 41.55 41.45 L 41.55 38.18 L 47 38.18 L 47 36 L 41.55 36 L 41.55 31.64 L 47 31.64 L 47 29.45 L 41.55 29.45 L 41.55 25.09 L 47 25.09 L 47 22.91 L 41.55 22.91 L 41.55 18.55 L 47 18.55 L 47 16.36 L 41.55 16.36 L 41.55 12 Z M 6.64 40.36 L 6.64 7.64 L 39.36 7.64 L 39.36 40.36 Z" fill="#ed7100" stroke="none" pointer-events="all"/></g></svg>