<?xml version="1.0" encoding="UTF-8"?>
<!-- Do not edit this file with editors other than draw.io -->
<!DOCTYPE svg PUBLIC "-//W3C//DTD SVG 1.1//EN" "http://www.w3.org/Graphics/SVG/1.1/DTD/svg11.dtd">
<svg xmlns="http://www.w3.org/2000/svg" xmlns:xlink="http://www.w3.org/1999/xlink" version="1.1" width="49px" height="49px" viewBox="-0.5 -0.5 49 49" content="&lt;mxfile host=&quot;app.diagrams.net&quot; modified=&quot;2023-11-13T09:47:46.711Z&quot; agent=&quot;Mozilla/5.0 (Windows NT 10.0; Win64; x64) AppleWebKit/537.36 (KHTML, like Gecko) Chrome/119.0.0.0 Safari/537.36&quot; etag=&quot;xJjDRVxF_xLqChZ0fWHf&quot; version=&quot;22.1.0&quot; type=&quot;device&quot;&gt;&#10;  &lt;diagram name=&quot;페이지-1&quot; id=&quot;AW3kfpiaLIK3EqUbXKlc&quot;&gt;&#10;    &lt;mxGraphModel dx=&quot;292&quot; dy=&quot;157&quot; grid=&quot;1&quot; gridSize=&quot;10&quot; guides=&quot;1&quot; tooltips=&quot;1&quot; connect=&quot;1&quot; arrows=&quot;1&quot; fold=&quot;1&quot; page=&quot;1&quot; pageScale=&quot;1&quot; pageWidth=&quot;827&quot; pageHeight=&quot;1169&quot; math=&quot;0&quot; shadow=&quot;0&quot;&gt;&#10;      &lt;root&gt;&#10;        &lt;mxCell id=&quot;0&quot; /&gt;&#10;        &lt;mxCell id=&quot;1&quot; parent=&quot;0&quot; /&gt;&#10;        &lt;mxCell id=&quot;_niekT0tynacapAUr5bP-68&quot; value=&quot;&quot; style=&quot;sketch=0;outlineConnect=0;fontColor=#232F3E;gradientColor=none;fillColor=#ED7100;strokeColor=none;dashed=0;verticalLabelPosition=bottom;verticalAlign=top;align=center;html=1;fontSize=12;fontStyle=0;aspect=fixed;pointerEvents=1;shape=mxgraph.aws4.ec2_p4de_instance;&quot; vertex=&quot;1&quot; parent=&quot;1&quot;&gt;&#10;          &lt;mxGeometry x=&quot;470&quot; y=&quot;160&quot; width=&quot;48&quot; height=&quot;48&quot; as=&quot;geometry&quot; /&gt;&#10;        &lt;/mxCell&gt;&#10;      &lt;/root&gt;&#10;    &lt;/mxGraphModel&gt;&#10;  &lt;/diagram&gt;&#10;&lt;/mxfile&gt;&#10;"><defs/><g><rect x="-1" y="0" width="48" height="48" fill="none" stroke="none" pointer-events="all"/><path d="M 6.64 40.36 L 6.64 7.64 L 39.36 7.64 L 39.36 40.36 Z M 47 12 L 47 9.82 L 41.55 9.82 L 41.55 6.55 C 41.55 5.94 41.06 5.45 40.45 5.45 L 37.18 5.45 L 37.18 0 L 35 0 L 35 5.45 L 30.64 5.45 L 30.64 0 L 28.45 0 L 28.45 5.45 L 24.09 5.45 L 24.09 0 L 21.91 0 L 21.91 5.45 L 17.55 5.45 L 17.55 0 L 15.36 0 L 15.36 5.45 L 11 5.45 L 11 0 L 8.82 0 L 8.82 5.45 L 5.55 5.45 C 4.94 5.45 4.45 5.94 4.45 6.55 L 4.45 9.82 L -1 9.82 L -1 12 L 4.45 12 L 4.45 16.36 L -1 16.36 L -1 18.55 L 4.45 18.55 L 4.45 22.91 L -1 22.91 L -1 25.09 L 4.45 25.09 L 4.45 29.45 L -1 29.45 L -1 31.64 L 4.45 31.64 L 4.45 36 L -1 36 L -1 38.18 L 4.45 38.18 L 4.45 41.45 C 4.45 42.06 4.94 42.55 5.55 42.55 L 8.82 42.55 L 8.82 48 L 11 48 L 11 42.55 L 15.36 42.55 L 15.36 48 L 17.55 48 L 17.55 42.55 L 21.91 42.55 L 21.91 48 L 24.09 48 L 24.09 42.55 L 28.45 42.55 L 28.45 48 L 30.64 48 L 30.64 42.55 L 35 42.55 L 35 48 L 37.18 48 L 37.18 42.55 L 40.45 42.55 C 41.06 42.55 41.55 42.06 41.55 41.45 L 41.55 38.18 L 47 38.18 L 47 36 L 41.55 36 L 41.55 31.64 L 47 31.64 L 47 29.45 L 41.55 29.45 L 41.55 25.09 L 47 25.09 L 47 22.91 L 41.55 22.91 L 41.55 18.55 L 47 18.55 L 47 16.36 L 41.55 16.36 L 41.55 12 Z M 32.55 23.24 C 32.8 22.96 33.14 22.81 33.55 22.81 C 33.93 22.81 34.23 22.94 34.43 23.2 C 34.63 23.45 34.73 23.82 34.73 24.31 L 34.73 24.41 L 32.1 24.41 C 32.14 23.92 32.29 23.53 32.55 23.24 Z M 33.73 28.25 C 34.13 28.25 34.52 28.21 34.89 28.12 C 35.26 28.04 35.59 27.92 35.86 27.78 L 35.86 26.78 C 35.19 27.01 34.58 27.12 34 27.12 C 33.37 27.12 32.9 26.98 32.59 26.69 C 32.29 26.41 32.13 25.96 32.1 25.36 L 35.89 25.36 C 35.95 25.03 35.99 24.66 35.99 24.24 C 35.99 23.46 35.78 22.85 35.36 22.42 C 34.94 21.99 34.34 21.78 33.55 21.78 C 32.64 21.78 31.93 22.07 31.42 22.64 C 30.92 23.22 30.66 24.02 30.66 25.06 C 30.66 26.1 30.92 26.89 31.44 27.43 C 31.96 27.98 32.73 28.25 33.73 28.25 Z M 25.53 23.41 C 25.78 23.07 26.18 22.9 26.71 22.9 C 27.21 22.9 27.66 23.04 28.07 23.33 L 28.07 26.63 C 27.62 26.93 27.16 27.08 26.69 27.08 C 25.67 27.08 25.15 26.38 25.15 24.97 C 25.15 24.27 25.28 23.75 25.53 23.41 Z M 26.25 28.2 C 26.96 28.2 27.59 27.96 28.13 27.48 L 28.27 28.07 L 29.49 28.07 L 29.49 19.19 L 28.07 19.19 L 28.07 22.4 C 27.54 21.99 26.96 21.78 26.32 21.78 C 25.78 21.78 25.32 21.92 24.93 22.19 C 24.53 22.47 24.23 22.85 24.03 23.34 C 23.82 23.83 23.71 24.39 23.71 25.03 C 23.71 26 23.94 26.77 24.4 27.34 C 24.86 27.91 25.48 28.2 26.25 28.2 Z M 18.12 25.21 L 20.63 21.55 L 20.63 25.21 Z M 20.63 28.07 L 22.06 28.07 L 22.06 26.34 L 23.17 26.34 L 23.17 25.21 L 22.06 25.21 L 22.06 19.75 L 20.57 19.75 L 16.69 25.27 L 16.69 26.34 L 20.63 26.34 Z M 11.79 20.88 L 13.25 20.88 C 13.7 20.88 14.05 21 14.27 21.25 C 14.5 21.5 14.62 21.86 14.62 22.34 C 14.62 22.82 14.5 23.19 14.27 23.44 C 14.04 23.68 13.7 23.81 13.25 23.81 L 11.79 23.81 Z M 11.79 24.94 L 13.43 24.94 C 14.25 24.94 14.91 24.7 15.39 24.24 C 15.87 23.78 16.11 23.14 16.11 22.34 C 16.11 21.54 15.86 20.91 15.38 20.45 C 14.9 19.98 14.24 19.75 13.41 19.75 L 10.32 19.75 L 10.32 28.07 L 11.79 28.07 Z" fill="#ed7100" stroke="none" pointer-events="all"/></g></svg>