<?xml version="1.0" encoding="UTF-8"?>
<!-- Do not edit this file with editors other than draw.io -->
<!DOCTYPE svg PUBLIC "-//W3C//DTD SVG 1.1//EN" "http://www.w3.org/Graphics/SVG/1.1/DTD/svg11.dtd">
<svg xmlns="http://www.w3.org/2000/svg" xmlns:xlink="http://www.w3.org/1999/xlink" version="1.1" width="49px" height="49px" viewBox="-0.5 -0.5 49 49" content="&lt;mxfile host=&quot;app.diagrams.net&quot; modified=&quot;2023-11-13T09:48:21.935Z&quot; agent=&quot;Mozilla/5.0 (Windows NT 10.0; Win64; x64) AppleWebKit/537.36 (KHTML, like Gecko) Chrome/119.0.0.0 Safari/537.36&quot; etag=&quot;nm0PYINvCncMoB_ZCiDY&quot; version=&quot;22.1.0&quot; type=&quot;device&quot;&gt;&#10;  &lt;diagram name=&quot;페이지-1&quot; id=&quot;AW3kfpiaLIK3EqUbXKlc&quot;&gt;&#10;    &lt;mxGraphModel dx=&quot;292&quot; dy=&quot;157&quot; grid=&quot;1&quot; gridSize=&quot;10&quot; guides=&quot;1&quot; tooltips=&quot;1&quot; connect=&quot;1&quot; arrows=&quot;1&quot; fold=&quot;1&quot; page=&quot;1&quot; pageScale=&quot;1&quot; pageWidth=&quot;827&quot; pageHeight=&quot;1169&quot; math=&quot;0&quot; shadow=&quot;0&quot;&gt;&#10;      &lt;root&gt;&#10;        &lt;mxCell id=&quot;0&quot; /&gt;&#10;        &lt;mxCell id=&quot;1&quot; parent=&quot;0&quot; /&gt;&#10;        &lt;mxCell id=&quot;_niekT0tynacapAUr5bP-73&quot; value=&quot;&quot; style=&quot;sketch=0;outlineConnect=0;fontColor=#232F3E;gradientColor=none;fillColor=#ED7100;strokeColor=none;dashed=0;verticalLabelPosition=bottom;verticalAlign=top;align=center;html=1;fontSize=12;fontStyle=0;aspect=fixed;pointerEvents=1;shape=mxgraph.aws4.r5a_instance;&quot; vertex=&quot;1&quot; parent=&quot;1&quot;&gt;&#10;          &lt;mxGeometry x=&quot;460&quot; y=&quot;190&quot; width=&quot;48&quot; height=&quot;48&quot; as=&quot;geometry&quot; /&gt;&#10;        &lt;/mxCell&gt;&#10;      &lt;/root&gt;&#10;    &lt;/mxGraphModel&gt;&#10;  &lt;/diagram&gt;&#10;&lt;/mxfile&gt;&#10;"><defs/><g><rect x="-1" y="0" width="48" height="48" fill="none" stroke="none" pointer-events="all"/><path d="M 47 12 L 47 9.82 L 41.54 9.82 L 41.54 6.55 C 41.54 5.94 41.06 5.45 40.45 5.45 L 37.18 5.45 L 37.18 0 L 35 0 L 35 5.45 L 30.64 5.45 L 30.64 0 L 28.45 0 L 28.45 5.45 L 24.09 5.45 L 24.09 0 L 21.91 0 L 21.91 5.45 L 17.54 5.45 L 17.54 0 L 15.36 0 L 15.36 5.45 L 11 5.45 L 11 0 L 8.82 0 L 8.82 5.45 L 5.55 5.45 C 4.94 5.45 4.45 5.94 4.45 6.55 L 4.45 9.82 L -1 9.82 L -1 12 L 4.45 12 L 4.45 16.36 L -1 16.36 L -1 18.55 L 4.45 18.55 L 4.45 22.91 L -1 22.91 L -1 25.09 L 4.45 25.09 L 4.45 29.45 L -1 29.45 L -1 31.64 L 4.45 31.64 L 4.45 36 L -1 36 L -1 38.18 L 4.45 38.18 L 4.45 41.45 C 4.45 42.06 4.94 42.55 5.55 42.55 L 8.82 42.55 L 8.82 48 L 11 48 L 11 42.55 L 15.36 42.55 L 15.36 48 L 17.54 48 L 17.54 42.55 L 21.91 42.55 L 21.91 48 L 24.09 48 L 24.09 42.55 L 28.45 42.55 L 28.45 48 L 30.64 48 L 30.64 42.55 L 35 42.55 L 35 48 L 37.18 48 L 37.18 42.55 L 40.45 42.55 C 41.06 42.55 41.54 42.06 41.54 41.45 L 41.54 38.18 L 47 38.18 L 47 36 L 41.54 36 L 41.54 31.64 L 47 31.64 L 47 29.45 L 41.54 29.45 L 41.54 25.09 L 47 25.09 L 47 22.91 L 41.54 22.91 L 41.54 18.55 L 47 18.55 L 47 16.36 L 41.54 16.36 L 41.54 12 Z M 6.64 40.36 L 6.64 7.64 L 39.36 7.64 L 39.36 40.36 Z M 12.93 25.08 L 14.8 25.08 L 17.27 29.28 L 19.13 29.28 L 16.4 24.76 C 17.07 24.49 17.59 24.11 17.94 23.61 C 18.29 23.11 18.46 22.52 18.46 21.83 C 18.46 20.87 18.15 20.11 17.52 19.54 C 16.9 18.98 16.06 18.69 15.03 18.69 L 11.07 18.69 L 11.07 29.28 L 12.93 29.28 Z M 12.93 20.13 L 14.83 20.13 C 15.99 20.13 16.57 20.72 16.57 21.89 C 16.57 23.06 15.97 23.64 14.79 23.64 L 12.93 23.64 Z M 23.23 29.51 C 22.21 29.51 21.23 29.3 20.3 28.9 L 20.3 27.46 C 21.41 27.84 22.37 28.03 23.18 28.03 C 24.69 28.03 25.44 27.38 25.44 26.07 C 25.44 25.44 25.25 24.98 24.87 24.69 C 24.49 24.4 23.89 24.25 23.06 24.25 C 22.44 24.25 21.67 24.31 20.74 24.41 L 20.74 23.25 L 21.03 18.69 L 26.77 18.69 L 26.77 20.15 L 22.73 20.15 L 22.56 22.97 C 22.97 22.89 23.41 22.85 23.88 22.85 C 24.94 22.85 25.77 23.13 26.38 23.7 C 26.99 24.27 27.29 25.05 27.29 26.04 C 27.29 27.1 26.92 27.94 26.19 28.57 C 25.46 29.19 24.47 29.51 23.23 29.51 Z M 31.66 24.73 C 30.74 24.73 30.01 24.95 29.47 25.4 C 28.92 25.85 28.65 26.45 28.65 27.2 C 28.65 27.88 28.87 28.44 29.32 28.87 C 29.76 29.29 30.34 29.51 31.05 29.51 C 31.48 29.51 31.91 29.42 32.34 29.25 C 32.77 29.08 33.17 28.83 33.52 28.53 L 33.66 29.28 L 35.23 29.28 L 35.23 23.8 C 35.23 22.93 34.99 22.29 34.51 21.89 C 34.03 21.48 33.28 21.28 32.26 21.28 C 31.7 21.28 31.14 21.33 30.59 21.44 C 30.04 21.56 29.57 21.71 29.18 21.9 L 29.18 23.17 C 30.21 22.83 31.12 22.66 31.92 22.66 C 32.48 22.66 32.87 22.77 33.09 22.97 C 33.32 23.17 33.43 23.54 33.43 24.06 L 33.43 24.96 C 32.79 24.8 32.2 24.73 31.66 24.73 Z M 33.43 27.49 C 33.13 27.73 32.82 27.91 32.51 28.03 C 32.19 28.16 31.89 28.23 31.6 28.23 C 31.25 28.23 30.98 28.13 30.78 27.93 C 30.58 27.73 30.48 27.45 30.48 27.09 C 30.48 26.27 31 25.86 32.03 25.86 C 32.44 25.86 32.91 25.91 33.43 26.02 Z" fill="#ed7100" stroke="none" pointer-events="all"/></g></svg>