<?xml version="1.0" encoding="UTF-8"?>
<!-- Do not edit this file with editors other than draw.io -->
<!DOCTYPE svg PUBLIC "-//W3C//DTD SVG 1.1//EN" "http://www.w3.org/Graphics/SVG/1.1/DTD/svg11.dtd">
<svg xmlns="http://www.w3.org/2000/svg" xmlns:xlink="http://www.w3.org/1999/xlink" version="1.1" width="49px" height="49px" viewBox="-0.5 -0.5 49 49" content="&lt;mxfile host=&quot;app.diagrams.net&quot; modified=&quot;2023-11-13T09:48:15.932Z&quot; agent=&quot;Mozilla/5.0 (Windows NT 10.0; Win64; x64) AppleWebKit/537.36 (KHTML, like Gecko) Chrome/119.0.0.0 Safari/537.36&quot; etag=&quot;cAkBNRjMJRVYNFyTYTxC&quot; version=&quot;22.1.0&quot; type=&quot;device&quot;&gt;&#10;  &lt;diagram name=&quot;페이지-1&quot; id=&quot;AW3kfpiaLIK3EqUbXKlc&quot;&gt;&#10;    &lt;mxGraphModel dx=&quot;292&quot; dy=&quot;157&quot; grid=&quot;1&quot; gridSize=&quot;10&quot; guides=&quot;1&quot; tooltips=&quot;1&quot; connect=&quot;1&quot; arrows=&quot;1&quot; fold=&quot;1&quot; page=&quot;1&quot; pageScale=&quot;1&quot; pageWidth=&quot;827&quot; pageHeight=&quot;1169&quot; math=&quot;0&quot; shadow=&quot;0&quot;&gt;&#10;      &lt;root&gt;&#10;        &lt;mxCell id=&quot;0&quot; /&gt;&#10;        &lt;mxCell id=&quot;1&quot; parent=&quot;0&quot; /&gt;&#10;        &lt;mxCell id=&quot;_niekT0tynacapAUr5bP-72&quot; value=&quot;&quot; style=&quot;sketch=0;outlineConnect=0;fontColor=#232F3E;gradientColor=none;fillColor=#ED7100;strokeColor=none;dashed=0;verticalLabelPosition=bottom;verticalAlign=top;align=center;html=1;fontSize=12;fontStyle=0;aspect=fixed;pointerEvents=1;shape=mxgraph.aws4.r5ad_instance;&quot; vertex=&quot;1&quot; parent=&quot;1&quot;&gt;&#10;          &lt;mxGeometry x=&quot;460&quot; y=&quot;180&quot; width=&quot;48&quot; height=&quot;48&quot; as=&quot;geometry&quot; /&gt;&#10;        &lt;/mxCell&gt;&#10;      &lt;/root&gt;&#10;    &lt;/mxGraphModel&gt;&#10;  &lt;/diagram&gt;&#10;&lt;/mxfile&gt;&#10;"><defs/><g><rect x="-1" y="0" width="48" height="48" fill="none" stroke="none" pointer-events="all"/><path d="M 11.69 24.77 L 13.15 24.77 L 15.1 28.07 L 16.56 28.07 L 14.41 24.52 C 14.94 24.31 15.34 24.01 15.62 23.62 C 15.9 23.22 16.03 22.76 16.03 22.21 C 16.03 21.46 15.79 20.86 15.3 20.42 C 14.8 19.97 14.15 19.75 13.33 19.75 L 10.23 19.75 L 10.23 28.07 L 11.69 28.07 Z M 11.69 20.88 L 13.18 20.88 C 14.09 20.88 14.55 21.34 14.55 22.26 C 14.55 23.18 14.08 23.64 13.15 23.64 L 11.69 23.64 Z M 19.54 28.25 C 18.74 28.25 17.97 28.09 17.23 27.77 L 17.23 26.64 C 18.11 26.94 18.86 27.08 19.5 27.08 C 20.69 27.08 21.28 26.57 21.28 25.55 C 21.28 25.05 21.13 24.69 20.83 24.46 C 20.53 24.23 20.06 24.12 19.41 24.12 C 18.92 24.12 18.31 24.16 17.58 24.24 L 17.58 23.33 L 17.81 19.75 L 22.32 19.75 L 22.32 20.89 L 19.15 20.89 L 19.01 23.11 C 19.34 23.05 19.68 23.02 20.05 23.02 C 20.88 23.02 21.54 23.24 22.01 23.69 C 22.49 24.14 22.73 24.75 22.73 25.52 C 22.73 26.36 22.44 27.02 21.87 27.51 C 21.29 28 20.51 28.25 19.54 28.25 Z M 26.1 24.49 C 25.38 24.49 24.81 24.67 24.38 25.02 C 23.95 25.37 23.74 25.84 23.74 26.44 C 23.74 26.97 23.91 27.41 24.26 27.74 C 24.61 28.08 25.06 28.25 25.62 28.25 C 25.96 28.25 26.3 28.18 26.64 28.04 C 26.98 27.91 27.29 27.72 27.57 27.48 L 27.67 28.07 L 28.91 28.07 L 28.91 23.76 C 28.91 23.08 28.72 22.58 28.34 22.26 C 27.96 21.94 27.37 21.78 26.58 21.78 C 26.14 21.78 25.7 21.82 25.26 21.91 C 24.83 22 24.46 22.12 24.16 22.27 L 24.16 23.27 C 24.97 23 25.68 22.87 26.31 22.87 C 26.75 22.87 27.05 22.95 27.23 23.11 C 27.41 23.27 27.49 23.56 27.49 23.96 L 27.49 24.67 C 26.99 24.55 26.53 24.49 26.1 24.49 Z M 27.49 26.66 C 27.26 26.85 27.02 26.99 26.77 27.09 C 26.52 27.19 26.28 27.24 26.05 27.24 C 25.78 27.24 25.57 27.16 25.41 27.01 C 25.26 26.85 25.18 26.63 25.18 26.35 C 25.18 25.7 25.58 25.38 26.39 25.38 C 26.71 25.38 27.08 25.42 27.49 25.51 Z M 32.5 28.2 C 33.21 28.2 33.84 27.96 34.38 27.48 L 34.53 28.07 L 35.74 28.07 L 35.74 19.19 L 34.32 19.19 L 34.32 22.4 C 33.79 21.99 33.21 21.78 32.57 21.78 C 32.03 21.78 31.57 21.92 31.18 22.19 C 30.79 22.47 30.48 22.85 30.28 23.34 C 30.07 23.83 29.97 24.39 29.97 25.03 C 29.97 26 30.2 26.77 30.66 27.34 C 31.12 27.91 31.73 28.2 32.5 28.2 Z M 31.78 23.41 C 32.03 23.07 32.43 22.9 32.97 22.9 C 33.46 22.9 33.91 23.04 34.32 23.33 L 34.32 26.63 C 33.87 26.93 33.41 27.08 32.94 27.08 C 31.92 27.08 31.41 26.38 31.41 24.97 C 31.41 24.27 31.53 23.75 31.78 23.41 Z M 47 12 L 47 9.82 L 41.55 9.82 L 41.55 6.55 C 41.55 5.94 41.06 5.45 40.45 5.45 L 37.18 5.45 L 37.18 0 L 35 0 L 35 5.45 L 30.64 5.45 L 30.64 0 L 28.45 0 L 28.45 5.45 L 24.09 5.45 L 24.09 0 L 21.91 0 L 21.91 5.45 L 17.55 5.45 L 17.55 0 L 15.36 0 L 15.36 5.45 L 11 5.45 L 11 0 L 8.82 0 L 8.82 5.45 L 5.55 5.45 C 4.94 5.45 4.45 5.94 4.45 6.55 L 4.45 9.82 L -1 9.82 L -1 12 L 4.45 12 L 4.45 16.36 L -1 16.36 L -1 18.55 L 4.45 18.55 L 4.45 22.91 L -1 22.91 L -1 25.09 L 4.45 25.09 L 4.45 29.45 L -1 29.45 L -1 31.64 L 4.45 31.64 L 4.45 36 L -1 36 L -1 38.18 L 4.45 38.18 L 4.45 41.45 C 4.45 42.06 4.94 42.55 5.55 42.55 L 8.82 42.55 L 8.82 48 L 11 48 L 11 42.55 L 15.36 42.55 L 15.36 48 L 17.55 48 L 17.55 42.55 L 21.91 42.55 L 21.91 48 L 24.09 48 L 24.09 42.55 L 28.45 42.55 L 28.45 48 L 30.64 48 L 30.64 42.55 L 35 42.55 L 35 48 L 37.18 48 L 37.18 42.55 L 40.45 42.55 C 41.06 42.55 41.55 42.06 41.55 41.45 L 41.55 38.18 L 47 38.18 L 47 36 L 41.55 36 L 41.55 31.64 L 47 31.64 L 47 29.45 L 41.55 29.45 L 41.55 25.09 L 47 25.09 L 47 22.91 L 41.55 22.91 L 41.55 18.55 L 47 18.55 L 47 16.36 L 41.55 16.36 L 41.55 12 Z M 6.64 40.36 L 6.64 7.64 L 39.36 7.64 L 39.36 40.36 Z" fill="#ed7100" stroke="none" pointer-events="all"/></g></svg>