<?xml version="1.0" encoding="UTF-8"?>
<!-- Do not edit this file with editors other than draw.io -->
<!DOCTYPE svg PUBLIC "-//W3C//DTD SVG 1.1//EN" "http://www.w3.org/Graphics/SVG/1.1/DTD/svg11.dtd">
<svg xmlns="http://www.w3.org/2000/svg" xmlns:xlink="http://www.w3.org/1999/xlink" version="1.1" width="49px" height="49px" viewBox="-0.5 -0.5 49 49" content="&lt;mxfile host=&quot;app.diagrams.net&quot; modified=&quot;2023-11-13T09:48:27.194Z&quot; agent=&quot;Mozilla/5.0 (Windows NT 10.0; Win64; x64) AppleWebKit/537.36 (KHTML, like Gecko) Chrome/119.0.0.0 Safari/537.36&quot; etag=&quot;76xZz0ITsO5LI9oxGeyb&quot; version=&quot;22.1.0&quot; type=&quot;device&quot;&gt;&#10;  &lt;diagram name=&quot;페이지-1&quot; id=&quot;AW3kfpiaLIK3EqUbXKlc&quot;&gt;&#10;    &lt;mxGraphModel dx=&quot;292&quot; dy=&quot;157&quot; grid=&quot;1&quot; gridSize=&quot;10&quot; guides=&quot;1&quot; tooltips=&quot;1&quot; connect=&quot;1&quot; arrows=&quot;1&quot; fold=&quot;1&quot; page=&quot;1&quot; pageScale=&quot;1&quot; pageWidth=&quot;827&quot; pageHeight=&quot;1169&quot; math=&quot;0&quot; shadow=&quot;0&quot;&gt;&#10;      &lt;root&gt;&#10;        &lt;mxCell id=&quot;0&quot; /&gt;&#10;        &lt;mxCell id=&quot;1&quot; parent=&quot;0&quot; /&gt;&#10;        &lt;mxCell id=&quot;_niekT0tynacapAUr5bP-74&quot; value=&quot;&quot; style=&quot;sketch=0;outlineConnect=0;fontColor=#232F3E;gradientColor=none;fillColor=#ED7100;strokeColor=none;dashed=0;verticalLabelPosition=bottom;verticalAlign=top;align=center;html=1;fontSize=12;fontStyle=0;aspect=fixed;pointerEvents=1;shape=mxgraph.aws4.r5b_instance;&quot; vertex=&quot;1&quot; parent=&quot;1&quot;&gt;&#10;          &lt;mxGeometry x=&quot;460&quot; y=&quot;170&quot; width=&quot;48&quot; height=&quot;48&quot; as=&quot;geometry&quot; /&gt;&#10;        &lt;/mxCell&gt;&#10;      &lt;/root&gt;&#10;    &lt;/mxGraphModel&gt;&#10;  &lt;/diagram&gt;&#10;&lt;/mxfile&gt;&#10;"><defs/><g><rect x="-1" y="0" width="48" height="48" fill="none" stroke="none" pointer-events="all"/><path d="M 12.53 23.87 L 14.39 23.87 L 16.87 28.07 L 18.73 28.07 L 16 23.55 C 16.67 23.28 17.18 22.9 17.53 22.4 C 17.88 21.9 18.06 21.31 18.06 20.61 C 18.06 19.66 17.75 18.9 17.12 18.33 C 16.49 17.77 15.66 17.48 14.62 17.48 L 10.67 17.48 L 10.67 28.07 L 12.53 28.07 Z M 12.53 18.92 L 14.43 18.92 C 15.59 18.92 16.16 19.51 16.16 20.68 C 16.16 21.85 15.57 22.43 14.38 22.43 L 12.53 22.43 Z M 22.52 28.3 C 21.5 28.3 20.52 28.09 19.58 27.69 L 19.58 26.25 C 20.7 26.63 21.66 26.82 22.47 26.82 C 23.98 26.82 24.73 26.16 24.73 24.86 C 24.73 24.23 24.54 23.77 24.16 23.48 C 23.78 23.19 23.18 23.04 22.35 23.04 C 21.73 23.04 20.96 23.09 20.03 23.2 L 20.03 22.04 L 20.32 17.48 L 26.06 17.48 L 26.06 18.93 L 22.02 18.93 L 21.84 21.76 C 22.26 21.68 22.7 21.64 23.17 21.64 C 24.23 21.64 25.06 21.92 25.67 22.49 C 26.28 23.06 26.58 23.84 26.58 24.83 C 26.58 25.89 26.21 26.73 25.48 27.36 C 24.75 27.98 23.76 28.3 22.52 28.3 Z M 30.03 27.27 C 30.34 27.58 30.7 27.82 31.12 27.98 C 31.53 28.15 31.97 28.24 32.43 28.24 C 33.1 28.24 33.69 28.06 34.19 27.7 C 34.68 27.34 35.07 26.85 35.33 26.23 C 35.6 25.6 35.73 24.88 35.73 24.07 C 35.73 22.84 35.44 21.87 34.86 21.15 C 34.29 20.43 33.52 20.07 32.55 20.07 C 31.67 20.07 30.88 20.37 30.15 20.98 L 30.15 16.77 L 28.35 16.77 L 28.35 28.07 L 29.85 28.07 Z M 30.15 22.07 C 30.71 21.68 31.32 21.49 31.99 21.49 C 32.64 21.49 33.12 21.7 33.43 22.13 C 33.74 22.57 33.89 23.23 33.89 24.13 C 33.89 25.03 33.74 25.71 33.42 26.15 C 33.11 26.59 32.62 26.82 31.97 26.82 C 31.33 26.82 30.72 26.62 30.15 26.22 Z M 47 12 L 47 9.82 L 41.55 9.82 L 41.55 6.55 C 41.55 5.94 41.06 5.45 40.45 5.45 L 37.18 5.45 L 37.18 0 L 35 0 L 35 5.45 L 30.64 5.45 L 30.64 0 L 28.45 0 L 28.45 5.45 L 24.09 5.45 L 24.09 0 L 21.91 0 L 21.91 5.45 L 17.55 5.45 L 17.55 0 L 15.36 0 L 15.36 5.45 L 11 5.45 L 11 0 L 8.82 0 L 8.82 5.45 L 5.55 5.45 C 4.94 5.45 4.45 5.94 4.45 6.55 L 4.45 9.82 L -1 9.82 L -1 12 L 4.45 12 L 4.45 16.36 L -1 16.36 L -1 18.55 L 4.45 18.55 L 4.45 22.91 L -1 22.91 L -1 25.09 L 4.45 25.09 L 4.45 29.45 L -1 29.45 L -1 31.64 L 4.45 31.64 L 4.45 36 L -1 36 L -1 38.18 L 4.45 38.18 L 4.45 41.45 C 4.45 42.06 4.94 42.55 5.55 42.55 L 8.82 42.55 L 8.82 48 L 11 48 L 11 42.55 L 15.36 42.55 L 15.36 48 L 17.55 48 L 17.55 42.55 L 21.91 42.55 L 21.91 48 L 24.09 48 L 24.09 42.55 L 28.45 42.55 L 28.45 48 L 30.64 48 L 30.64 42.55 L 35 42.55 L 35 48 L 37.18 48 L 37.18 42.55 L 40.45 42.55 C 41.06 42.55 41.55 42.06 41.55 41.45 L 41.55 38.18 L 47 38.18 L 47 36 L 41.55 36 L 41.55 31.64 L 47 31.64 L 47 29.45 L 41.55 29.45 L 41.55 25.09 L 47 25.09 L 47 22.91 L 41.55 22.91 L 41.55 18.55 L 47 18.55 L 47 16.36 L 41.55 16.36 L 41.55 12 Z M 6.64 40.36 L 6.64 7.64 L 39.36 7.64 L 39.36 40.36 Z" fill="#ed7100" stroke="none" pointer-events="all"/></g></svg>