<?xml version="1.0" encoding="UTF-8"?>
<!-- Do not edit this file with editors other than draw.io -->
<!DOCTYPE svg PUBLIC "-//W3C//DTD SVG 1.1//EN" "http://www.w3.org/Graphics/SVG/1.1/DTD/svg11.dtd">
<svg xmlns="http://www.w3.org/2000/svg" xmlns:xlink="http://www.w3.org/1999/xlink" version="1.1" width="49px" height="49px" viewBox="-0.5 -0.5 49 49" content="&lt;mxfile host=&quot;app.diagrams.net&quot; modified=&quot;2023-11-13T09:48:35.330Z&quot; agent=&quot;Mozilla/5.0 (Windows NT 10.0; Win64; x64) AppleWebKit/537.36 (KHTML, like Gecko) Chrome/119.0.0.0 Safari/537.36&quot; etag=&quot;Hd7C4ioKgG1LZM9YMYE2&quot; version=&quot;22.1.0&quot; type=&quot;device&quot;&gt;&#10;  &lt;diagram name=&quot;페이지-1&quot; id=&quot;AW3kfpiaLIK3EqUbXKlc&quot;&gt;&#10;    &lt;mxGraphModel dx=&quot;292&quot; dy=&quot;157&quot; grid=&quot;1&quot; gridSize=&quot;10&quot; guides=&quot;1&quot; tooltips=&quot;1&quot; connect=&quot;1&quot; arrows=&quot;1&quot; fold=&quot;1&quot; page=&quot;1&quot; pageScale=&quot;1&quot; pageWidth=&quot;827&quot; pageHeight=&quot;1169&quot; math=&quot;0&quot; shadow=&quot;0&quot;&gt;&#10;      &lt;root&gt;&#10;        &lt;mxCell id=&quot;0&quot; /&gt;&#10;        &lt;mxCell id=&quot;1&quot; parent=&quot;0&quot; /&gt;&#10;        &lt;mxCell id=&quot;_niekT0tynacapAUr5bP-75&quot; value=&quot;&quot; style=&quot;sketch=0;outlineConnect=0;fontColor=#232F3E;gradientColor=none;fillColor=#ED7100;strokeColor=none;dashed=0;verticalLabelPosition=bottom;verticalAlign=top;align=center;html=1;fontSize=12;fontStyle=0;aspect=fixed;pointerEvents=1;shape=mxgraph.aws4.r5d_instance;&quot; vertex=&quot;1&quot; parent=&quot;1&quot;&gt;&#10;          &lt;mxGeometry x=&quot;500&quot; y=&quot;160&quot; width=&quot;48&quot; height=&quot;48&quot; as=&quot;geometry&quot; /&gt;&#10;        &lt;/mxCell&gt;&#10;      &lt;/root&gt;&#10;    &lt;/mxGraphModel&gt;&#10;  &lt;/diagram&gt;&#10;&lt;/mxfile&gt;&#10;"><defs/><g><rect x="0" y="0" width="48" height="48" fill="none" stroke="none" pointer-events="all"/><path d="M 13.54 24.96 L 15.41 24.96 L 17.88 29.16 L 19.74 29.16 L 17.01 24.64 C 17.68 24.37 18.19 23.99 18.55 23.49 C 18.9 22.99 19.07 22.4 19.07 21.71 C 19.07 20.75 18.76 19.99 18.13 19.42 C 17.51 18.86 16.67 18.57 15.64 18.57 L 11.68 18.57 L 11.68 29.16 L 13.54 29.16 Z M 13.54 20.01 L 15.44 20.01 C 16.6 20.01 17.18 20.6 17.18 21.77 C 17.18 22.94 16.59 23.52 15.4 23.52 L 13.54 23.52 Z M 23.53 29.39 C 22.51 29.39 21.54 29.18 20.6 28.78 L 20.6 27.34 C 21.71 27.72 22.67 27.91 23.48 27.91 C 24.99 27.91 25.75 27.26 25.75 25.95 C 25.75 25.32 25.56 24.86 25.18 24.57 C 24.8 24.28 24.19 24.13 23.36 24.13 C 22.75 24.13 21.97 24.19 21.04 24.29 L 21.04 23.13 L 21.33 18.57 L 27.08 18.57 L 27.08 20.03 L 23.03 20.03 L 22.86 22.85 C 23.28 22.77 23.72 22.73 24.19 22.73 C 25.24 22.73 26.08 23.01 26.68 23.58 C 27.29 24.15 27.59 24.93 27.59 25.92 C 27.59 26.98 27.23 27.82 26.49 28.45 C 25.76 29.07 24.77 29.39 23.53 29.39 Z M 32.19 29.33 C 33.1 29.33 33.9 29.02 34.59 28.41 L 34.77 29.16 L 36.32 29.16 L 36.32 17.86 L 34.51 17.86 L 34.51 21.95 C 33.84 21.42 33.1 21.16 32.28 21.16 C 31.6 21.16 31.01 21.33 30.51 21.68 C 30.01 22.03 29.63 22.52 29.37 23.14 C 29.1 23.76 28.97 24.48 28.97 25.29 C 28.97 26.53 29.26 27.51 29.85 28.23 C 30.43 28.96 31.21 29.33 32.19 29.33 Z M 31.28 23.23 C 31.6 22.79 32.11 22.58 32.79 22.58 C 33.42 22.58 33.99 22.76 34.51 23.13 L 34.51 27.33 C 33.94 27.71 33.36 27.91 32.76 27.91 C 31.45 27.91 30.8 27.01 30.8 25.22 C 30.8 24.32 30.96 23.66 31.28 23.23 Z M 48 12 L 48 9.82 L 42.55 9.82 L 42.55 6.55 C 42.55 5.94 42.06 5.45 41.45 5.45 L 38.18 5.45 L 38.18 0 L 36 0 L 36 5.45 L 31.64 5.45 L 31.64 0 L 29.45 0 L 29.45 5.45 L 25.09 5.45 L 25.09 0 L 22.91 0 L 22.91 5.45 L 18.55 5.45 L 18.55 0 L 16.36 0 L 16.36 5.45 L 12 5.45 L 12 0 L 9.82 0 L 9.82 5.45 L 6.55 5.45 C 5.94 5.45 5.45 5.94 5.45 6.55 L 5.45 9.82 L 0 9.82 L 0 12 L 5.45 12 L 5.45 16.36 L 0 16.36 L 0 18.55 L 5.45 18.55 L 5.45 22.91 L 0 22.91 L 0 25.09 L 5.45 25.09 L 5.45 29.45 L 0 29.45 L 0 31.64 L 5.45 31.64 L 5.45 36 L 0 36 L 0 38.18 L 5.45 38.18 L 5.45 41.45 C 5.45 42.06 5.94 42.55 6.55 42.55 L 9.82 42.55 L 9.82 48 L 12 48 L 12 42.55 L 16.36 42.55 L 16.36 48 L 18.55 48 L 18.55 42.55 L 22.91 42.55 L 22.91 48 L 25.09 48 L 25.09 42.55 L 29.45 42.55 L 29.45 48 L 31.64 48 L 31.64 42.55 L 36 42.55 L 36 48 L 38.18 48 L 38.18 42.55 L 41.45 42.55 C 42.06 42.55 42.55 42.06 42.55 41.45 L 42.55 38.18 L 48 38.18 L 48 36 L 42.55 36 L 42.55 31.64 L 48 31.64 L 48 29.45 L 42.55 29.45 L 42.55 25.09 L 48 25.09 L 48 22.91 L 42.55 22.91 L 42.55 18.55 L 48 18.55 L 48 16.36 L 42.55 16.36 L 42.55 12 Z M 7.64 40.36 L 7.64 7.64 L 40.36 7.64 L 40.36 40.36 Z" fill="#ed7100" stroke="none" pointer-events="all"/></g></svg>