<?xml version="1.0" encoding="UTF-8"?>
<!-- Do not edit this file with editors other than draw.io -->
<!DOCTYPE svg PUBLIC "-//W3C//DTD SVG 1.1//EN" "http://www.w3.org/Graphics/SVG/1.1/DTD/svg11.dtd">
<svg xmlns="http://www.w3.org/2000/svg" xmlns:xlink="http://www.w3.org/1999/xlink" version="1.1" width="49px" height="49px" viewBox="-0.5 -0.5 49 49" content="&lt;mxfile host=&quot;app.diagrams.net&quot; modified=&quot;2023-11-13T09:48:43.893Z&quot; agent=&quot;Mozilla/5.0 (Windows NT 10.0; Win64; x64) AppleWebKit/537.36 (KHTML, like Gecko) Chrome/119.0.0.0 Safari/537.36&quot; etag=&quot;MjkX1hqV1bHLDKwl9369&quot; version=&quot;22.1.0&quot; type=&quot;device&quot;&gt;&#10;  &lt;diagram name=&quot;페이지-1&quot; id=&quot;AW3kfpiaLIK3EqUbXKlc&quot;&gt;&#10;    &lt;mxGraphModel dx=&quot;292&quot; dy=&quot;157&quot; grid=&quot;1&quot; gridSize=&quot;10&quot; guides=&quot;1&quot; tooltips=&quot;1&quot; connect=&quot;1&quot; arrows=&quot;1&quot; fold=&quot;1&quot; page=&quot;1&quot; pageScale=&quot;1&quot; pageWidth=&quot;827&quot; pageHeight=&quot;1169&quot; math=&quot;0&quot; shadow=&quot;0&quot;&gt;&#10;      &lt;root&gt;&#10;        &lt;mxCell id=&quot;0&quot; /&gt;&#10;        &lt;mxCell id=&quot;1&quot; parent=&quot;0&quot; /&gt;&#10;        &lt;mxCell id=&quot;_niekT0tynacapAUr5bP-76&quot; value=&quot;&quot; style=&quot;sketch=0;outlineConnect=0;fontColor=#232F3E;gradientColor=none;fillColor=#ED7100;strokeColor=none;dashed=0;verticalLabelPosition=bottom;verticalAlign=top;align=center;html=1;fontSize=12;fontStyle=0;aspect=fixed;pointerEvents=1;shape=mxgraph.aws4.r5gd_instance;&quot; vertex=&quot;1&quot; parent=&quot;1&quot;&gt;&#10;          &lt;mxGeometry x=&quot;490&quot; y=&quot;140&quot; width=&quot;48&quot; height=&quot;48&quot; as=&quot;geometry&quot; /&gt;&#10;        &lt;/mxCell&gt;&#10;      &lt;/root&gt;&#10;    &lt;/mxGraphModel&gt;&#10;  &lt;/diagram&gt;&#10;&lt;/mxfile&gt;&#10;"><defs/><g><rect x="0" y="0" width="48" height="48" fill="none" stroke="none" pointer-events="all"/><path d="M 7.64 40.36 L 7.64 7.64 L 40.36 7.64 L 40.36 40.36 Z M 48 12 L 48 9.82 L 42.55 9.82 L 42.55 6.55 C 42.55 5.94 42.06 5.45 41.45 5.45 L 38.18 5.45 L 38.18 0 L 36 0 L 36 5.45 L 31.64 5.45 L 31.64 0 L 29.45 0 L 29.45 5.45 L 25.09 5.45 L 25.09 0 L 22.91 0 L 22.91 5.45 L 18.55 5.45 L 18.55 0 L 16.36 0 L 16.36 5.45 L 12 5.45 L 12 0 L 9.82 0 L 9.82 5.45 L 6.55 5.45 C 5.94 5.45 5.45 5.94 5.45 6.55 L 5.45 9.82 L 0 9.82 L 0 12 L 5.45 12 L 5.45 16.36 L 0 16.36 L 0 18.55 L 5.45 18.55 L 5.45 22.91 L 0 22.91 L 0 25.09 L 5.45 25.09 L 5.45 29.45 L 0 29.45 L 0 31.64 L 5.45 31.64 L 5.45 36 L 0 36 L 0 38.18 L 5.45 38.18 L 5.45 41.45 C 5.45 42.06 5.94 42.55 6.55 42.55 L 9.82 42.55 L 9.82 48 L 12 48 L 12 42.55 L 16.36 42.55 L 16.36 48 L 18.55 48 L 18.55 42.55 L 22.91 42.55 L 22.91 48 L 25.09 48 L 25.09 42.55 L 29.45 42.55 L 29.45 48 L 31.64 48 L 31.64 42.55 L 36 42.55 L 36 48 L 38.18 48 L 38.18 42.55 L 41.45 42.55 C 42.06 42.55 42.55 42.06 42.55 41.45 L 42.55 38.18 L 48 38.18 L 48 36 L 42.55 36 L 42.55 31.64 L 48 31.64 L 48 29.45 L 42.55 29.45 L 42.55 25.09 L 48 25.09 L 48 22.91 L 42.55 22.91 L 42.55 18.55 L 48 18.55 L 48 16.36 L 42.55 16.36 L 42.55 12 Z M 33.1 23.41 C 33.35 23.07 33.74 22.9 34.28 22.9 C 34.77 22.9 35.23 23.04 35.63 23.33 L 35.63 26.63 C 35.19 26.93 34.73 27.08 34.25 27.08 C 33.23 27.08 32.72 26.38 32.72 24.97 C 32.72 24.27 32.84 23.75 33.1 23.41 Z M 33.81 28.2 C 34.52 28.2 35.15 27.96 35.69 27.48 L 35.84 28.07 L 37.05 28.07 L 37.05 19.19 L 35.63 19.19 L 35.63 22.4 C 35.11 21.99 34.52 21.78 33.88 21.78 C 33.35 21.78 32.88 21.92 32.49 22.19 C 32.1 22.47 31.8 22.85 31.59 23.34 C 31.38 23.83 31.28 24.39 31.28 25.03 C 31.28 26 31.51 26.77 31.97 27.34 C 32.43 27.91 33.04 28.2 33.81 28.2 Z M 26.29 23.36 C 26.53 23.04 26.89 22.88 27.38 22.88 C 27.85 22.88 28.29 23.03 28.71 23.32 L 28.71 26.39 C 28.29 26.7 27.84 26.86 27.37 26.86 C 26.41 26.86 25.94 26.18 25.94 24.84 C 25.94 24.18 26.06 23.68 26.29 23.36 Z M 26.95 27.95 C 27.6 27.95 28.19 27.72 28.71 27.28 L 28.71 27.79 C 28.71 28.42 28.57 28.87 28.3 29.14 C 28.03 29.42 27.59 29.56 26.99 29.56 C 26.4 29.56 25.73 29.43 24.99 29.18 L 24.99 30.19 C 25.65 30.52 26.35 30.68 27.09 30.68 C 28.06 30.68 28.81 30.42 29.34 29.89 C 29.86 29.36 30.13 28.62 30.13 27.65 L 30.13 21.96 L 28.93 21.96 L 28.81 22.51 C 28.29 22.02 27.69 21.78 26.99 21.78 C 26.48 21.78 26.04 21.91 25.66 22.18 C 25.29 22.44 25 22.81 24.8 23.27 C 24.6 23.74 24.5 24.28 24.5 24.89 C 24.5 25.82 24.72 26.56 25.16 27.11 C 25.61 27.67 26.2 27.95 26.95 27.95 Z M 20.23 28.25 C 19.43 28.25 18.66 28.09 17.92 27.77 L 17.92 26.64 C 18.8 26.94 19.55 27.08 20.19 27.08 C 21.37 27.08 21.97 26.57 21.97 25.55 C 21.97 25.05 21.82 24.69 21.52 24.46 C 21.22 24.23 20.75 24.12 20.09 24.12 C 19.61 24.12 19 24.16 18.27 24.24 L 18.27 23.33 L 18.5 19.75 L 23.01 19.75 L 23.01 20.89 L 19.83 20.89 L 19.7 23.11 C 20.03 23.05 20.37 23.02 20.74 23.02 C 21.57 23.02 22.23 23.24 22.7 23.69 C 23.18 24.14 23.42 24.75 23.42 25.52 C 23.42 26.36 23.13 27.02 22.55 27.51 C 21.98 28 21.2 28.25 20.23 28.25 Z M 12.38 20.88 L 13.87 20.88 C 14.78 20.88 15.23 21.34 15.23 22.26 C 15.23 23.18 14.77 23.64 13.83 23.64 L 12.38 23.64 Z M 12.38 24.77 L 13.84 24.77 L 15.79 28.07 L 17.25 28.07 L 15.1 24.52 C 15.63 24.31 16.03 24.01 16.31 23.62 C 16.58 23.22 16.72 22.76 16.72 22.21 C 16.72 21.46 16.48 20.86 15.98 20.42 C 15.49 19.97 14.84 19.75 14.02 19.75 L 10.91 19.75 L 10.91 28.07 L 12.38 28.07 Z" fill="#ed7100" stroke="none" pointer-events="all"/></g></svg>