<?xml version="1.0" encoding="UTF-8"?>
<!-- Do not edit this file with editors other than draw.io -->
<!DOCTYPE svg PUBLIC "-//W3C//DTD SVG 1.1//EN" "http://www.w3.org/Graphics/SVG/1.1/DTD/svg11.dtd">
<svg xmlns="http://www.w3.org/2000/svg" xmlns:xlink="http://www.w3.org/1999/xlink" version="1.1" width="49px" height="49px" viewBox="-0.5 -0.5 49 49" content="&lt;mxfile host=&quot;app.diagrams.net&quot; modified=&quot;2023-11-13T09:48:58.618Z&quot; agent=&quot;Mozilla/5.0 (Windows NT 10.0; Win64; x64) AppleWebKit/537.36 (KHTML, like Gecko) Chrome/119.0.0.0 Safari/537.36&quot; etag=&quot;hawCa9YunCMP_2TdzzDF&quot; version=&quot;22.1.0&quot; type=&quot;device&quot;&gt;&#10;  &lt;diagram name=&quot;페이지-1&quot; id=&quot;AW3kfpiaLIK3EqUbXKlc&quot;&gt;&#10;    &lt;mxGraphModel dx=&quot;292&quot; dy=&quot;157&quot; grid=&quot;1&quot; gridSize=&quot;10&quot; guides=&quot;1&quot; tooltips=&quot;1&quot; connect=&quot;1&quot; arrows=&quot;1&quot; fold=&quot;1&quot; page=&quot;1&quot; pageScale=&quot;1&quot; pageWidth=&quot;827&quot; pageHeight=&quot;1169&quot; math=&quot;0&quot; shadow=&quot;0&quot;&gt;&#10;      &lt;root&gt;&#10;        &lt;mxCell id=&quot;0&quot; /&gt;&#10;        &lt;mxCell id=&quot;1&quot; parent=&quot;0&quot; /&gt;&#10;        &lt;mxCell id=&quot;_niekT0tynacapAUr5bP-78&quot; value=&quot;&quot; style=&quot;sketch=0;outlineConnect=0;fontColor=#232F3E;gradientColor=none;fillColor=#ED7100;strokeColor=none;dashed=0;verticalLabelPosition=bottom;verticalAlign=top;align=center;html=1;fontSize=12;fontStyle=0;aspect=fixed;pointerEvents=1;shape=mxgraph.aws4.r5n_instance;&quot; vertex=&quot;1&quot; parent=&quot;1&quot;&gt;&#10;          &lt;mxGeometry x=&quot;480&quot; y=&quot;160&quot; width=&quot;48&quot; height=&quot;48&quot; as=&quot;geometry&quot; /&gt;&#10;        &lt;/mxCell&gt;&#10;      &lt;/root&gt;&#10;    &lt;/mxGraphModel&gt;&#10;  &lt;/diagram&gt;&#10;&lt;/mxfile&gt;&#10;"><defs/><g><rect x="0" y="0" width="48" height="48" fill="none" stroke="none" pointer-events="all"/><path d="M 48 12 L 48 9.82 L 42.55 9.82 L 42.55 6.55 C 42.55 5.94 42.06 5.45 41.45 5.45 L 38.18 5.45 L 38.18 0 L 36 0 L 36 5.45 L 31.64 5.45 L 31.64 0 L 29.45 0 L 29.45 5.45 L 25.09 5.45 L 25.09 0 L 22.91 0 L 22.91 5.45 L 18.55 5.45 L 18.55 0 L 16.36 0 L 16.36 5.45 L 12 5.45 L 12 0 L 9.82 0 L 9.82 5.45 L 6.55 5.45 C 5.94 5.45 5.45 5.94 5.45 6.55 L 5.45 9.82 L 0 9.82 L 0 12 L 5.45 12 L 5.45 16.36 L 0 16.36 L 0 18.55 L 5.45 18.55 L 5.45 22.91 L 0 22.91 L 0 25.09 L 5.45 25.09 L 5.45 29.45 L 0 29.45 L 0 31.64 L 5.45 31.64 L 5.45 36 L 0 36 L 0 38.18 L 5.45 38.18 L 5.45 41.45 C 5.45 42.06 5.94 42.55 6.55 42.55 L 9.82 42.55 L 9.82 48 L 12 48 L 12 42.55 L 16.36 42.55 L 16.36 48 L 18.55 48 L 18.55 42.55 L 22.91 42.55 L 22.91 48 L 25.09 48 L 25.09 42.55 L 29.45 42.55 L 29.45 48 L 31.64 48 L 31.64 42.55 L 36 42.55 L 36 48 L 38.18 48 L 38.18 42.55 L 41.45 42.55 C 42.06 42.55 42.55 42.06 42.55 41.45 L 42.55 38.18 L 48 38.18 L 48 36 L 42.55 36 L 42.55 31.64 L 48 31.64 L 48 29.45 L 42.55 29.45 L 42.55 25.09 L 48 25.09 L 48 22.91 L 42.55 22.91 L 42.55 18.55 L 48 18.55 L 48 16.36 L 42.55 16.36 L 42.55 12 Z M 7.64 40.36 L 7.64 7.64 L 40.36 7.64 L 40.36 40.36 Z M 13.81 25.13 L 15.68 25.13 L 18.15 29.33 L 20.01 29.33 L 17.28 24.81 C 17.95 24.54 18.46 24.16 18.81 23.66 C 19.17 23.16 19.34 22.57 19.34 21.87 C 19.34 20.92 19.03 20.16 18.4 19.59 C 17.78 19.03 16.94 18.74 15.91 18.74 L 11.95 18.74 L 11.95 29.33 L 13.81 29.33 Z M 13.81 20.18 L 15.71 20.18 C 16.87 20.18 17.45 20.76 17.45 21.94 C 17.45 23.11 16.85 23.69 15.67 23.69 L 13.81 23.69 Z M 23.73 29.56 C 22.71 29.56 21.73 29.35 20.79 28.95 L 20.79 27.51 C 21.91 27.89 22.87 28.08 23.68 28.08 C 25.19 28.08 25.94 27.42 25.94 26.12 C 25.94 25.49 25.75 25.03 25.37 24.74 C 24.99 24.45 24.39 24.3 23.56 24.3 C 22.94 24.3 22.17 24.35 21.24 24.45 L 21.24 23.3 L 21.53 18.74 L 27.27 18.74 L 27.27 20.19 L 23.23 20.19 L 23.05 23.02 C 23.47 22.94 23.91 22.9 24.38 22.9 C 25.44 22.9 26.27 23.18 26.88 23.75 C 27.48 24.32 27.79 25.1 27.79 26.09 C 27.79 27.15 27.42 27.99 26.69 28.62 C 25.95 29.24 24.97 29.56 23.73 29.56 Z M 30.9 29.33 L 29.1 29.33 L 29.1 21.55 L 30.6 21.55 L 30.78 22.41 C 31.74 21.69 32.74 21.33 33.77 21.33 C 34.52 21.33 35.08 21.52 35.47 21.91 C 35.86 22.31 36.05 22.87 36.05 23.62 L 36.05 29.33 L 34.25 29.33 L 34.25 24.18 C 34.25 23.68 34.15 23.32 33.94 23.09 C 33.74 22.86 33.41 22.74 32.97 22.74 C 32.29 22.74 31.61 22.97 30.9 23.42 Z" fill="#ed7100" stroke="none" pointer-events="all"/></g></svg>