<?xml version="1.0" encoding="UTF-8"?>
<!-- Do not edit this file with editors other than draw.io -->
<!DOCTYPE svg PUBLIC "-//W3C//DTD SVG 1.1//EN" "http://www.w3.org/Graphics/SVG/1.1/DTD/svg11.dtd">
<svg xmlns="http://www.w3.org/2000/svg" xmlns:xlink="http://www.w3.org/1999/xlink" version="1.1" width="49px" height="49px" viewBox="-0.5 -0.5 49 49" content="&lt;mxfile host=&quot;app.diagrams.net&quot; modified=&quot;2023-11-13T09:49:05.773Z&quot; agent=&quot;Mozilla/5.0 (Windows NT 10.0; Win64; x64) AppleWebKit/537.36 (KHTML, like Gecko) Chrome/119.0.0.0 Safari/537.36&quot; etag=&quot;DCsYhY9_MggOmygOkrVz&quot; version=&quot;22.1.0&quot; type=&quot;device&quot;&gt;&#10;  &lt;diagram name=&quot;페이지-1&quot; id=&quot;AW3kfpiaLIK3EqUbXKlc&quot;&gt;&#10;    &lt;mxGraphModel dx=&quot;292&quot; dy=&quot;157&quot; grid=&quot;1&quot; gridSize=&quot;10&quot; guides=&quot;1&quot; tooltips=&quot;1&quot; connect=&quot;1&quot; arrows=&quot;1&quot; fold=&quot;1&quot; page=&quot;1&quot; pageScale=&quot;1&quot; pageWidth=&quot;827&quot; pageHeight=&quot;1169&quot; math=&quot;0&quot; shadow=&quot;0&quot;&gt;&#10;      &lt;root&gt;&#10;        &lt;mxCell id=&quot;0&quot; /&gt;&#10;        &lt;mxCell id=&quot;1&quot; parent=&quot;0&quot; /&gt;&#10;        &lt;mxCell id=&quot;_niekT0tynacapAUr5bP-79&quot; value=&quot;&quot; style=&quot;sketch=0;outlineConnect=0;fontColor=#232F3E;gradientColor=none;fillColor=#ED7100;strokeColor=none;dashed=0;verticalLabelPosition=bottom;verticalAlign=top;align=center;html=1;fontSize=12;fontStyle=0;aspect=fixed;pointerEvents=1;shape=mxgraph.aws4.ec2_r6a_instance;&quot; vertex=&quot;1&quot; parent=&quot;1&quot;&gt;&#10;          &lt;mxGeometry x=&quot;450&quot; y=&quot;170&quot; width=&quot;48&quot; height=&quot;48&quot; as=&quot;geometry&quot; /&gt;&#10;        &lt;/mxCell&gt;&#10;      &lt;/root&gt;&#10;    &lt;/mxGraphModel&gt;&#10;  &lt;/diagram&gt;&#10;&lt;/mxfile&gt;&#10;"><defs/><g><rect x="-1" y="0" width="48" height="48" fill="none" stroke="none" pointer-events="all"/><path d="M 6.64 40.36 L 6.64 7.64 L 39.36 7.64 L 39.36 40.36 Z M 47 12 L 47 9.82 L 41.55 9.82 L 41.55 6.55 C 41.55 5.94 41.06 5.45 40.45 5.45 L 37.18 5.45 L 37.18 0 L 35 0 L 35 5.45 L 30.64 5.45 L 30.64 0 L 28.45 0 L 28.45 5.45 L 24.09 5.45 L 24.09 0 L 21.91 0 L 21.91 5.45 L 17.55 5.45 L 17.55 0 L 15.36 0 L 15.36 5.45 L 11 5.45 L 11 0 L 8.82 0 L 8.82 5.45 L 5.55 5.45 C 4.94 5.45 4.45 5.94 4.45 6.55 L 4.45 9.82 L -1 9.82 L -1 12 L 4.45 12 L 4.45 16.36 L -1 16.36 L -1 18.55 L 4.45 18.55 L 4.45 22.91 L -1 22.91 L -1 25.09 L 4.45 25.09 L 4.45 29.45 L -1 29.45 L -1 31.64 L 4.45 31.64 L 4.45 36 L -1 36 L -1 38.18 L 4.45 38.18 L 4.45 41.45 C 4.45 42.06 4.94 42.55 5.55 42.55 L 8.82 42.55 L 8.82 48 L 11 48 L 11 42.55 L 15.36 42.55 L 15.36 48 L 17.55 48 L 17.55 42.55 L 21.91 42.55 L 21.91 48 L 24.09 48 L 24.09 42.55 L 28.45 42.55 L 28.45 48 L 30.64 48 L 30.64 42.55 L 35 42.55 L 35 48 L 37.18 48 L 37.18 42.55 L 40.45 42.55 C 41.06 42.55 41.55 42.06 41.55 41.45 L 41.55 38.18 L 47 38.18 L 47 36 L 41.55 36 L 41.55 31.64 L 47 31.64 L 47 29.45 L 41.55 29.45 L 41.55 25.09 L 47 25.09 L 47 22.91 L 41.55 22.91 L 41.55 18.55 L 47 18.55 L 47 16.36 L 41.55 16.36 L 41.55 12 Z M 33.16 27.37 C 32.86 27.61 32.56 27.79 32.24 27.91 C 31.92 28.04 31.62 28.11 31.33 28.11 C 30.98 28.11 30.71 28.01 30.51 27.81 C 30.31 27.61 30.22 27.33 30.22 26.97 C 30.22 26.15 30.73 25.74 31.76 25.74 C 32.17 25.74 32.64 25.79 33.16 25.91 Z M 31.39 24.61 C 30.47 24.61 29.74 24.83 29.2 25.28 C 28.66 25.73 28.38 26.33 28.38 27.08 C 28.38 27.76 28.6 28.32 29.05 28.75 C 29.49 29.17 30.07 29.39 30.78 29.39 C 31.22 29.38 31.66 29.3 32.07 29.13 C 32.5 28.96 32.9 28.71 33.25 28.41 L 33.39 29.16 L 34.97 29.16 L 34.97 23.68 C 34.97 22.81 34.72 22.17 34.24 21.77 C 33.76 21.36 33.01 21.16 32 21.16 C 31.43 21.16 30.88 21.21 30.32 21.32 C 29.77 21.44 29.3 21.59 28.92 21.78 L 28.92 23.05 C 29.94 22.71 30.86 22.55 31.65 22.55 C 32.21 22.55 32.6 22.65 32.83 22.85 C 33.05 23.06 33.16 23.42 33.16 23.94 L 33.16 24.84 C 32.52 24.68 31.93 24.61 31.39 24.61 Z M 23.71 24.15 C 24.31 24.15 24.78 24.31 25.09 24.63 C 25.41 24.95 25.57 25.42 25.57 26.03 C 25.57 26.63 25.42 27.1 25.11 27.43 C 24.8 27.77 24.37 27.94 23.83 27.94 C 22.48 27.94 21.78 26.85 21.71 24.68 C 22.38 24.33 23.05 24.15 23.71 24.15 Z M 23.69 29.39 C 24.45 29.39 25.11 29.24 25.67 28.94 C 26.24 28.64 26.67 28.23 26.97 27.7 C 27.27 27.18 27.42 26.58 27.42 25.91 C 27.42 24.95 27.13 24.18 26.56 23.61 C 25.98 23.03 25.22 22.74 24.28 22.74 C 23.37 22.74 22.51 23 21.71 23.52 C 21.76 22.25 22.01 21.31 22.46 20.7 C 22.91 20.09 23.6 19.78 24.51 19.78 C 24.89 19.79 25.27 19.82 25.64 19.9 C 26.05 19.97 26.4 20.07 26.72 20.19 L 26.72 18.87 C 26.4 18.7 26.02 18.57 25.58 18.48 C 25.14 18.38 24.7 18.33 24.26 18.33 C 22.86 18.33 21.78 18.85 21.01 19.89 C 20.24 20.93 19.86 22.38 19.86 24.26 C 19.86 25.95 20.18 27.22 20.83 28.09 C 21.48 28.95 22.43 29.39 23.69 29.39 Z M 13.05 20.01 L 14.95 20.01 C 16.1 20.01 16.68 20.6 16.68 21.77 C 16.68 22.94 16.09 23.52 14.9 23.52 L 13.05 23.52 Z M 13.05 24.96 L 14.91 24.96 L 17.39 29.16 L 19.25 29.16 L 16.52 24.64 C 17.19 24.37 17.7 23.99 18.05 23.49 C 18.4 22.99 18.58 22.4 18.58 21.71 C 18.58 20.75 18.26 19.99 17.64 19.42 C 17.01 18.86 16.18 18.57 15.14 18.57 L 11.18 18.57 L 11.18 29.16 L 13.05 29.16 Z" fill="#ed7100" stroke="none" pointer-events="all"/></g></svg>