<?xml version="1.0" encoding="UTF-8"?>
<!-- Do not edit this file with editors other than draw.io -->
<!DOCTYPE svg PUBLIC "-//W3C//DTD SVG 1.1//EN" "http://www.w3.org/Graphics/SVG/1.1/DTD/svg11.dtd">
<svg xmlns="http://www.w3.org/2000/svg" xmlns:xlink="http://www.w3.org/1999/xlink" version="1.1" width="49px" height="49px" viewBox="-0.5 -0.5 49 49" content="&lt;mxfile host=&quot;app.diagrams.net&quot; modified=&quot;2023-11-13T09:49:13.023Z&quot; agent=&quot;Mozilla/5.0 (Windows NT 10.0; Win64; x64) AppleWebKit/537.36 (KHTML, like Gecko) Chrome/119.0.0.0 Safari/537.36&quot; etag=&quot;tXAuUqp4ots06lUeHF4W&quot; version=&quot;22.1.0&quot; type=&quot;device&quot;&gt;&#10;  &lt;diagram name=&quot;페이지-1&quot; id=&quot;AW3kfpiaLIK3EqUbXKlc&quot;&gt;&#10;    &lt;mxGraphModel dx=&quot;292&quot; dy=&quot;157&quot; grid=&quot;1&quot; gridSize=&quot;10&quot; guides=&quot;1&quot; tooltips=&quot;1&quot; connect=&quot;1&quot; arrows=&quot;1&quot; fold=&quot;1&quot; page=&quot;1&quot; pageScale=&quot;1&quot; pageWidth=&quot;827&quot; pageHeight=&quot;1169&quot; math=&quot;0&quot; shadow=&quot;0&quot;&gt;&#10;      &lt;root&gt;&#10;        &lt;mxCell id=&quot;0&quot; /&gt;&#10;        &lt;mxCell id=&quot;1&quot; parent=&quot;0&quot; /&gt;&#10;        &lt;mxCell id=&quot;_niekT0tynacapAUr5bP-80&quot; value=&quot;&quot; style=&quot;sketch=0;outlineConnect=0;fontColor=#232F3E;gradientColor=none;fillColor=#ED7100;strokeColor=none;dashed=0;verticalLabelPosition=bottom;verticalAlign=top;align=center;html=1;fontSize=12;fontStyle=0;aspect=fixed;pointerEvents=1;shape=mxgraph.aws4.r6g_instance;&quot; vertex=&quot;1&quot; parent=&quot;1&quot;&gt;&#10;          &lt;mxGeometry x=&quot;480&quot; y=&quot;160&quot; width=&quot;48&quot; height=&quot;48&quot; as=&quot;geometry&quot; /&gt;&#10;        &lt;/mxCell&gt;&#10;      &lt;/root&gt;&#10;    &lt;/mxGraphModel&gt;&#10;  &lt;/diagram&gt;&#10;&lt;/mxfile&gt;&#10;"><defs/><g><rect x="0" y="0" width="48" height="48" fill="none" stroke="none" pointer-events="all"/><path d="M 48 12 L 48 9.82 L 42.55 9.82 L 42.55 6.55 C 42.55 5.94 42.06 5.45 41.45 5.45 L 38.18 5.45 L 38.18 0 L 36 0 L 36 5.45 L 31.64 5.45 L 31.64 0 L 29.45 0 L 29.45 5.45 L 25.09 5.45 L 25.09 0 L 22.91 0 L 22.91 5.45 L 18.55 5.45 L 18.55 0 L 16.36 0 L 16.36 5.45 L 12 5.45 L 12 0 L 9.82 0 L 9.82 5.45 L 6.55 5.45 C 5.94 5.45 5.45 5.94 5.45 6.55 L 5.45 9.82 L 0 9.82 L 0 12 L 5.45 12 L 5.45 16.36 L 0 16.36 L 0 18.55 L 5.45 18.55 L 5.45 22.91 L 0 22.91 L 0 25.09 L 5.45 25.09 L 5.45 29.45 L 0 29.45 L 0 31.64 L 5.45 31.64 L 5.45 36 L 0 36 L 0 38.18 L 5.45 38.18 L 5.45 41.45 C 5.45 42.06 5.94 42.55 6.55 42.55 L 9.82 42.55 L 9.82 48 L 12 48 L 12 42.55 L 16.36 42.55 L 16.36 48 L 18.55 48 L 18.55 42.55 L 22.91 42.55 L 22.91 48 L 25.09 48 L 25.09 42.55 L 29.45 42.55 L 29.45 48 L 31.64 48 L 31.64 42.55 L 36 42.55 L 36 48 L 38.18 48 L 38.18 42.55 L 41.45 42.55 C 42.06 42.55 42.55 42.06 42.55 41.45 L 42.55 38.18 L 48 38.18 L 48 36 L 42.55 36 L 42.55 31.64 L 48 31.64 L 48 29.45 L 42.55 29.45 L 42.55 25.09 L 48 25.09 L 48 22.91 L 42.55 22.91 L 42.55 18.55 L 48 18.55 L 48 16.36 L 42.55 16.36 L 42.55 12 Z M 7.64 40.36 L 7.64 7.64 L 40.36 7.64 L 40.36 40.36 Z M 13.33 23.55 L 15.2 23.55 L 17.67 27.75 L 19.53 27.75 L 16.8 23.23 C 17.47 22.96 17.98 22.58 18.33 22.08 C 18.69 21.58 18.86 20.99 18.86 20.3 C 18.86 19.34 18.55 18.58 17.92 18.01 C 17.3 17.45 16.46 17.16 15.42 17.16 L 11.47 17.16 L 11.47 27.75 L 13.33 27.75 Z M 13.33 18.6 L 15.23 18.6 C 16.39 18.6 16.97 19.19 16.97 20.36 C 16.97 21.53 16.37 22.11 15.19 22.11 L 13.33 22.11 Z M 24.28 27.98 C 25.04 27.98 25.7 27.83 26.26 27.53 C 26.83 27.23 27.26 26.82 27.56 26.29 C 27.86 25.77 28.01 25.17 28.01 24.5 C 28.01 23.54 27.72 22.77 27.15 22.2 C 26.57 21.62 25.81 21.33 24.87 21.33 C 23.96 21.33 23.1 21.59 22.3 22.11 C 22.35 20.84 22.6 19.9 23.05 19.29 C 23.5 18.68 24.19 18.37 25.1 18.37 C 25.45 18.37 25.82 18.41 26.23 18.49 C 26.63 18.56 26.99 18.66 27.31 18.78 L 27.31 17.46 C 26.99 17.29 26.61 17.16 26.17 17.07 C 25.73 16.97 25.29 16.92 24.85 16.92 C 23.45 16.92 22.37 17.44 21.6 18.48 C 20.83 19.52 20.45 20.97 20.45 22.85 C 20.45 24.54 20.77 25.82 21.42 26.68 C 22.07 27.55 23.02 27.98 24.28 27.98 Z M 24.3 22.74 C 24.9 22.74 25.37 22.9 25.68 23.22 C 26 23.54 26.16 24.01 26.16 24.62 C 26.16 25.22 26.01 25.69 25.7 26.02 C 25.39 26.36 24.96 26.53 24.42 26.53 C 23.07 26.53 22.37 25.44 22.3 23.28 C 22.97 22.92 23.64 22.74 24.3 22.74 Z M 32.49 27.6 C 33.32 27.6 34.07 27.31 34.73 26.74 L 34.73 27.4 C 34.73 28.19 34.56 28.77 34.21 29.12 C 33.86 29.47 33.31 29.64 32.55 29.64 C 31.79 29.64 30.94 29.49 29.99 29.17 L 29.99 30.45 C 30.83 30.87 31.72 31.08 32.67 31.08 C 33.9 31.08 34.86 30.74 35.53 30.07 C 36.2 29.4 36.53 28.45 36.53 27.21 L 36.53 19.97 L 35 19.97 L 34.85 20.68 C 34.2 20.06 33.43 19.75 32.55 19.75 C 31.89 19.75 31.33 19.92 30.85 20.25 C 30.37 20.59 30 21.05 29.75 21.65 C 29.5 22.24 29.37 22.93 29.37 23.7 C 29.37 24.88 29.65 25.83 30.22 26.54 C 30.78 27.24 31.54 27.6 32.49 27.6 Z M 31.65 21.76 C 31.95 21.36 32.41 21.15 33.03 21.15 C 33.63 21.15 34.2 21.33 34.73 21.7 L 34.73 25.61 C 34.19 26.01 33.62 26.21 33.02 26.21 C 31.81 26.21 31.2 25.35 31.2 23.64 C 31.2 22.8 31.35 22.17 31.65 21.76 Z" fill="#ed7100" stroke="none" pointer-events="all"/></g></svg>