<?xml version="1.0" encoding="UTF-8"?>
<!-- Do not edit this file with editors other than draw.io -->
<!DOCTYPE svg PUBLIC "-//W3C//DTD SVG 1.1//EN" "http://www.w3.org/Graphics/SVG/1.1/DTD/svg11.dtd">
<svg xmlns="http://www.w3.org/2000/svg" xmlns:xlink="http://www.w3.org/1999/xlink" version="1.1" width="49px" height="49px" viewBox="-0.5 -0.5 49 49" content="&lt;mxfile host=&quot;app.diagrams.net&quot; modified=&quot;2023-11-13T09:49:27.453Z&quot; agent=&quot;Mozilla/5.0 (Windows NT 10.0; Win64; x64) AppleWebKit/537.36 (KHTML, like Gecko) Chrome/119.0.0.0 Safari/537.36&quot; etag=&quot;HCb-GqGfVNzeJwHRYgzk&quot; version=&quot;22.1.0&quot; type=&quot;device&quot;&gt;&#10;  &lt;diagram name=&quot;페이지-1&quot; id=&quot;AW3kfpiaLIK3EqUbXKlc&quot;&gt;&#10;    &lt;mxGraphModel dx=&quot;292&quot; dy=&quot;157&quot; grid=&quot;1&quot; gridSize=&quot;10&quot; guides=&quot;1&quot; tooltips=&quot;1&quot; connect=&quot;1&quot; arrows=&quot;1&quot; fold=&quot;1&quot; page=&quot;1&quot; pageScale=&quot;1&quot; pageWidth=&quot;827&quot; pageHeight=&quot;1169&quot; math=&quot;0&quot; shadow=&quot;0&quot;&gt;&#10;      &lt;root&gt;&#10;        &lt;mxCell id=&quot;0&quot; /&gt;&#10;        &lt;mxCell id=&quot;1&quot; parent=&quot;0&quot; /&gt;&#10;        &lt;mxCell id=&quot;_niekT0tynacapAUr5bP-82&quot; value=&quot;&quot; style=&quot;sketch=0;outlineConnect=0;fontColor=#232F3E;gradientColor=none;fillColor=#ED7100;strokeColor=none;dashed=0;verticalLabelPosition=bottom;verticalAlign=top;align=center;html=1;fontSize=12;fontStyle=0;aspect=fixed;pointerEvents=1;shape=mxgraph.aws4.ec2_r6i_instance;&quot; vertex=&quot;1&quot; parent=&quot;1&quot;&gt;&#10;          &lt;mxGeometry x=&quot;480&quot; y=&quot;160&quot; width=&quot;48&quot; height=&quot;48&quot; as=&quot;geometry&quot; /&gt;&#10;        &lt;/mxCell&gt;&#10;      &lt;/root&gt;&#10;    &lt;/mxGraphModel&gt;&#10;  &lt;/diagram&gt;&#10;&lt;/mxfile&gt;&#10;"><defs/><g><rect x="0" y="0" width="48" height="48" fill="none" stroke="none" pointer-events="all"/><path d="M 7.64 40.36 L 7.64 7.64 L 40.36 7.64 L 40.36 40.36 Z M 48 12 L 48 9.82 L 42.55 9.82 L 42.55 6.55 C 42.55 5.94 42.06 5.45 41.45 5.45 L 38.18 5.45 L 38.18 0 L 36 0 L 36 5.45 L 31.64 5.45 L 31.64 0 L 29.45 0 L 29.45 5.45 L 25.09 5.45 L 25.09 0 L 22.91 0 L 22.91 5.45 L 18.55 5.45 L 18.55 0 L 16.36 0 L 16.36 5.45 L 12 5.45 L 12 0 L 9.82 0 L 9.82 5.45 L 6.55 5.45 C 5.94 5.45 5.45 5.94 5.45 6.55 L 5.45 9.82 L 0 9.82 L 0 12 L 5.45 12 L 5.45 16.36 L 0 16.36 L 0 18.55 L 5.45 18.55 L 5.45 22.91 L 0 22.91 L 0 25.09 L 5.45 25.09 L 5.45 29.45 L 0 29.45 L 0 31.64 L 5.45 31.64 L 5.45 36 L 0 36 L 0 38.18 L 5.45 38.18 L 5.45 41.45 C 5.45 42.06 5.94 42.55 6.55 42.55 L 9.82 42.55 L 9.82 48 L 12 48 L 12 42.55 L 16.36 42.55 L 16.36 48 L 18.55 48 L 18.55 42.55 L 22.91 42.55 L 22.91 48 L 25.09 48 L 25.09 42.55 L 29.45 42.55 L 29.45 48 L 31.64 48 L 31.64 42.55 L 36 42.55 L 36 48 L 38.18 48 L 38.18 42.55 L 41.45 42.55 C 42.06 42.55 42.55 42.06 42.55 41.45 L 42.55 38.18 L 48 38.18 L 48 36 L 42.55 36 L 42.55 31.64 L 48 31.64 L 48 29.45 L 42.55 29.45 L 42.55 25.09 L 48 25.09 L 48 22.91 L 42.55 22.91 L 42.55 18.55 L 48 18.55 L 48 16.36 L 42.55 16.36 L 42.55 12 Z M 32.05 19.83 C 31.85 19.64 31.76 19.39 31.76 19.06 C 31.76 18.74 31.85 18.48 32.05 18.3 C 32.24 18.12 32.5 18.03 32.84 18.03 C 33.18 18.03 33.44 18.12 33.64 18.3 C 33.83 18.48 33.93 18.74 33.93 19.06 C 33.93 19.39 33.83 19.64 33.64 19.83 C 33.44 20.01 33.18 20.1 32.84 20.1 C 32.5 20.1 32.24 20.01 32.05 19.83 Z M 31.94 29.16 L 33.74 29.16 L 33.74 21.39 L 31.94 21.39 Z M 26.71 24.15 C 27.32 24.15 27.78 24.31 28.1 24.63 C 28.42 24.95 28.58 25.42 28.58 26.03 C 28.58 26.63 28.43 27.1 28.12 27.43 C 27.81 27.77 27.38 27.94 26.83 27.94 C 25.49 27.94 24.79 26.85 24.72 24.68 C 25.39 24.33 26.06 24.15 26.71 24.15 Z M 26.7 29.39 C 27.45 29.39 28.11 29.24 28.68 28.94 C 29.24 28.64 29.68 28.23 29.98 27.7 C 30.28 27.18 30.43 26.58 30.43 25.91 C 30.43 24.95 30.14 24.18 29.57 23.61 C 28.99 23.03 28.23 22.74 27.28 22.74 C 26.38 22.74 25.52 23 24.72 23.52 C 24.77 22.25 25.02 21.31 25.47 20.7 C 25.92 20.09 26.61 19.78 27.52 19.78 C 27.9 19.79 28.28 19.82 28.65 19.9 C 29.01 19.96 29.38 20.06 29.73 20.19 L 29.73 18.87 C 29.41 18.7 29.03 18.57 28.59 18.48 C 28.14 18.38 27.7 18.33 27.27 18.33 C 25.87 18.33 24.79 18.85 24.02 19.89 C 23.25 20.93 22.87 22.38 22.87 24.26 C 22.87 25.95 23.19 27.22 23.84 28.09 C 24.48 28.95 25.44 29.39 26.7 29.39 Z M 16.06 20.01 L 17.96 20.01 C 19.11 20.01 19.69 20.6 19.69 21.77 C 19.69 22.94 19.1 23.52 17.91 23.52 L 16.06 23.52 Z M 16.06 24.96 L 17.92 24.96 L 20.39 29.16 L 22.26 29.16 L 19.52 24.64 C 20.19 24.37 20.71 23.99 21.06 23.49 C 21.41 22.99 21.58 22.4 21.58 21.71 C 21.58 20.75 21.27 19.99 20.65 19.42 C 20.02 18.86 19.19 18.57 18.15 18.57 L 14.19 18.57 L 14.19 29.16 L 16.06 29.16 Z" fill="#ed7100" stroke="none" pointer-events="all"/></g></svg>