<?xml version="1.0" encoding="UTF-8"?>
<!-- Do not edit this file with editors other than draw.io -->
<!DOCTYPE svg PUBLIC "-//W3C//DTD SVG 1.1//EN" "http://www.w3.org/Graphics/SVG/1.1/DTD/svg11.dtd">
<svg xmlns="http://www.w3.org/2000/svg" xmlns:xlink="http://www.w3.org/1999/xlink" version="1.1" width="49px" height="49px" viewBox="-0.5 -0.5 49 49" content="&lt;mxfile host=&quot;app.diagrams.net&quot; modified=&quot;2023-11-13T09:49:21.190Z&quot; agent=&quot;Mozilla/5.0 (Windows NT 10.0; Win64; x64) AppleWebKit/537.36 (KHTML, like Gecko) Chrome/119.0.0.0 Safari/537.36&quot; etag=&quot;YtbL9L4OaIZP4mow11Gl&quot; version=&quot;22.1.0&quot; type=&quot;device&quot;&gt;&#10;  &lt;diagram name=&quot;페이지-1&quot; id=&quot;AW3kfpiaLIK3EqUbXKlc&quot;&gt;&#10;    &lt;mxGraphModel dx=&quot;292&quot; dy=&quot;157&quot; grid=&quot;1&quot; gridSize=&quot;10&quot; guides=&quot;1&quot; tooltips=&quot;1&quot; connect=&quot;1&quot; arrows=&quot;1&quot; fold=&quot;1&quot; page=&quot;1&quot; pageScale=&quot;1&quot; pageWidth=&quot;827&quot; pageHeight=&quot;1169&quot; math=&quot;0&quot; shadow=&quot;0&quot;&gt;&#10;      &lt;root&gt;&#10;        &lt;mxCell id=&quot;0&quot; /&gt;&#10;        &lt;mxCell id=&quot;1&quot; parent=&quot;0&quot; /&gt;&#10;        &lt;mxCell id=&quot;_niekT0tynacapAUr5bP-81&quot; value=&quot;&quot; style=&quot;sketch=0;outlineConnect=0;fontColor=#232F3E;gradientColor=none;fillColor=#ED7100;strokeColor=none;dashed=0;verticalLabelPosition=bottom;verticalAlign=top;align=center;html=1;fontSize=12;fontStyle=0;aspect=fixed;pointerEvents=1;shape=mxgraph.aws4.ec2_r6idn_instance;&quot; vertex=&quot;1&quot; parent=&quot;1&quot;&gt;&#10;          &lt;mxGeometry x=&quot;480&quot; y=&quot;160&quot; width=&quot;48&quot; height=&quot;48&quot; as=&quot;geometry&quot; /&gt;&#10;        &lt;/mxCell&gt;&#10;      &lt;/root&gt;&#10;    &lt;/mxGraphModel&gt;&#10;  &lt;/diagram&gt;&#10;&lt;/mxfile&gt;&#10;"><defs/><g><rect x="0" y="0" width="48" height="48" fill="none" stroke="none" pointer-events="all"/><path d="M 12 0 L 12 5.45 L 16.36 5.45 L 16.36 0 L 18.55 0 L 18.55 5.45 L 22.91 5.45 L 22.91 0 L 25.09 0 L 25.09 5.45 L 29.45 5.45 L 29.45 0 L 31.64 0 L 31.64 5.45 L 36 5.45 L 36 0 L 38.18 0 L 38.18 5.45 L 41.45 5.45 C 42.06 5.45 42.55 5.94 42.55 6.55 L 42.55 9.82 L 48 9.82 L 48 12 L 42.55 12 L 42.55 16.36 L 48 16.36 L 48 18.55 L 42.55 18.55 L 42.55 22.91 L 48 22.91 L 48 25.09 L 42.55 25.09 L 42.55 29.45 L 48 29.45 L 48 31.64 L 42.55 31.64 L 42.55 36 L 48 36 L 48 38.18 L 42.55 38.18 L 42.55 41.45 C 42.55 42.06 42.06 42.55 41.45 42.55 L 38.18 42.55 L 38.18 48 L 36 48 L 36 42.55 L 31.64 42.55 L 31.64 48 L 29.45 48 L 29.45 42.55 L 25.09 42.55 L 25.09 48 L 22.91 48 L 22.91 42.55 L 18.55 42.55 L 18.55 48 L 16.36 48 L 16.36 42.55 L 12 42.55 L 12 48 L 9.82 48 L 9.82 42.55 L 6.55 42.55 C 5.94 42.55 5.45 42.06 5.45 41.45 L 5.45 38.18 L 0 38.18 L 0 36 L 5.45 36 L 5.45 31.64 L 0 31.64 L 0 29.45 L 5.45 29.45 L 5.45 25.09 L 0 25.09 L 0 22.91 L 5.45 22.91 L 5.45 18.55 L 0 18.55 L 0 16.36 L 5.45 16.36 L 5.45 12 L 0 12 L 0 9.82 L 5.45 9.82 L 5.45 6.55 C 5.45 5.94 5.94 5.45 6.55 5.45 L 9.82 5.45 L 9.82 0 Z M 40.36 7.64 L 7.64 7.64 L 7.64 40.36 L 40.36 40.36 Z M 20.01 20.33 C 20.32 20.33 20.64 20.37 20.95 20.44 C 21.27 20.51 21.54 20.6 21.77 20.72 L 21.77 21.66 C 21.54 21.58 21.29 21.51 21 21.45 C 20.73 21.4 20.46 21.37 20.19 21.37 C 19.54 21.37 19.05 21.59 18.73 22.02 C 18.4 22.46 18.22 23.13 18.19 24.04 C 18.76 23.67 19.38 23.49 20.02 23.49 C 20.7 23.49 21.24 23.69 21.65 24.1 C 22.06 24.51 22.27 25.06 22.27 25.74 C 22.27 26.22 22.16 26.65 21.95 27.03 C 21.73 27.4 21.42 27.69 21.02 27.91 C 20.62 28.12 20.15 28.23 19.61 28.23 C 18.7 28.23 18.02 27.92 17.56 27.3 C 17.1 26.69 16.87 25.77 16.87 24.57 C 16.87 23.23 17.14 22.19 17.69 21.45 C 18.24 20.7 19.01 20.33 20.01 20.33 Z M 31 20 L 31 28.07 L 29.89 28.07 L 29.76 27.53 C 29.3 27.96 28.68 28.19 28.05 28.19 C 27.35 28.19 26.79 27.93 26.38 27.41 C 25.96 26.89 25.75 26.19 25.75 25.31 C 25.75 24.73 25.84 24.21 26.03 23.77 C 26.22 23.33 26.49 22.98 26.85 22.73 C 27.21 22.48 27.63 22.35 28.12 22.35 C 28.7 22.35 29.23 22.54 29.71 22.92 L 29.71 20 Z M 35.69 22.35 C 36.22 22.35 36.62 22.49 36.9 22.77 C 37.17 23.05 37.31 23.46 37.31 23.99 L 37.31 28.07 L 36.03 28.07 L 36.03 24.39 C 36.03 24.03 35.95 23.78 35.81 23.61 C 35.66 23.45 35.43 23.37 35.11 23.37 C 34.63 23.37 34.14 23.53 33.64 23.85 L 33.64 28.07 L 32.35 28.07 L 32.35 22.52 L 33.42 22.52 L 33.55 23.13 C 34.23 22.61 34.95 22.35 35.69 22.35 Z M 13.5 20.51 C 14.24 20.51 14.83 20.71 15.28 21.11 C 15.73 21.52 15.95 22.06 15.95 22.74 C 15.95 23.24 15.83 23.66 15.58 24.02 C 15.33 24.38 14.96 24.65 14.48 24.84 L 16.43 28.07 L 15.1 28.07 L 13.33 25.07 L 12 25.07 L 12 28.07 L 10.67 28.07 L 10.67 20.51 Z M 24.64 22.52 L 24.64 28.07 L 23.35 28.07 L 23.35 22.52 Z M 19.62 24.49 C 19.15 24.49 18.67 24.62 18.19 24.87 C 18.24 26.42 18.74 27.2 19.7 27.2 C 20.09 27.2 20.4 27.08 20.62 26.84 C 20.84 26.6 20.95 26.26 20.95 25.83 C 20.95 25.4 20.84 25.06 20.61 24.83 C 20.38 24.6 20.05 24.49 19.62 24.49 Z M 28.48 23.37 C 27.99 23.37 27.63 23.52 27.4 23.83 C 27.17 24.14 27.06 24.61 27.06 25.25 C 27.06 26.53 27.52 27.17 28.45 27.17 C 28.88 27.17 29.3 27.03 29.71 26.76 L 29.71 23.76 C 29.34 23.5 28.93 23.37 28.48 23.37 Z M 13.36 21.53 L 12 21.53 L 12 24.04 L 13.33 24.04 C 14.18 24.04 14.6 23.62 14.6 22.79 C 14.6 21.95 14.19 21.53 13.36 21.53 Z M 23.99 20.12 C 24.23 20.12 24.42 20.18 24.56 20.31 C 24.7 20.44 24.77 20.62 24.77 20.86 C 24.77 21.09 24.7 21.27 24.56 21.4 C 24.42 21.53 24.23 21.6 23.99 21.6 C 23.75 21.6 23.56 21.53 23.43 21.4 C 23.29 21.27 23.22 21.09 23.22 20.86 C 23.22 20.62 23.29 20.44 23.43 20.31 C 23.56 20.18 23.75 20.12 23.99 20.12 Z" fill="#ed7100" stroke="none" pointer-events="all"/></g></svg>