<?xml version="1.0" encoding="UTF-8"?>
<!-- Do not edit this file with editors other than draw.io -->
<!DOCTYPE svg PUBLIC "-//W3C//DTD SVG 1.1//EN" "http://www.w3.org/Graphics/SVG/1.1/DTD/svg11.dtd">
<svg xmlns="http://www.w3.org/2000/svg" xmlns:xlink="http://www.w3.org/1999/xlink" version="1.1" width="49px" height="49px" viewBox="-0.5 -0.5 49 49" content="&lt;mxfile host=&quot;app.diagrams.net&quot; modified=&quot;2023-11-13T09:38:54.962Z&quot; agent=&quot;Mozilla/5.0 (Windows NT 10.0; Win64; x64) AppleWebKit/537.36 (KHTML, like Gecko) Chrome/119.0.0.0 Safari/537.36&quot; etag=&quot;KCOgDvpGuZuSF4caiI74&quot; version=&quot;22.1.0&quot; type=&quot;device&quot;&gt;&#10;  &lt;diagram name=&quot;페이지-1&quot; id=&quot;AW3kfpiaLIK3EqUbXKlc&quot;&gt;&#10;    &lt;mxGraphModel dx=&quot;292&quot; dy=&quot;157&quot; grid=&quot;1&quot; gridSize=&quot;10&quot; guides=&quot;1&quot; tooltips=&quot;1&quot; connect=&quot;1&quot; arrows=&quot;1&quot; fold=&quot;1&quot; page=&quot;1&quot; pageScale=&quot;1&quot; pageWidth=&quot;827&quot; pageHeight=&quot;1169&quot; math=&quot;0&quot; shadow=&quot;0&quot;&gt;&#10;      &lt;root&gt;&#10;        &lt;mxCell id=&quot;0&quot; /&gt;&#10;        &lt;mxCell id=&quot;1&quot; parent=&quot;0&quot; /&gt;&#10;        &lt;mxCell id=&quot;_niekT0tynacapAUr5bP-19&quot; value=&quot;&quot; style=&quot;sketch=0;outlineConnect=0;fontColor=#232F3E;gradientColor=none;fillColor=#ED7100;strokeColor=none;dashed=0;verticalLabelPosition=bottom;verticalAlign=top;align=center;html=1;fontSize=12;fontStyle=0;aspect=fixed;pointerEvents=1;shape=mxgraph.aws4.spot_instance;&quot; vertex=&quot;1&quot; parent=&quot;1&quot;&gt;&#10;          &lt;mxGeometry x=&quot;470&quot; y=&quot;140&quot; width=&quot;48&quot; height=&quot;48&quot; as=&quot;geometry&quot; /&gt;&#10;        &lt;/mxCell&gt;&#10;      &lt;/root&gt;&#10;    &lt;/mxGraphModel&gt;&#10;  &lt;/diagram&gt;&#10;&lt;/mxfile&gt;&#10;"><defs/><g><rect x="-1" y="0" width="48" height="48" fill="none" stroke="none" pointer-events="all"/><path d="M 29.85 29.08 L 29.85 18.98 C 29.85 17.99 29.04 17.18 28.05 17.18 L 17.95 17.18 C 16.96 17.18 16.15 17.99 16.15 18.98 L 16.15 29.08 C 16.15 30.07 16.96 30.89 17.95 30.89 L 28.05 30.89 C 29.04 30.89 29.85 30.07 29.85 29.08 Z M 18.33 28.7 L 18.33 19.37 L 27.67 19.37 L 27.67 28.7 Z M 12.57 25.12 L 12.57 34.46 L 21.91 34.46 L 21.91 31.71 L 24.09 31.71 L 24.09 35.11 C 24.09 35.95 23.4 36.64 22.55 36.64 L 11.93 36.64 C 11.08 36.64 10.39 35.95 10.39 35.11 L 10.39 24.48 C 10.39 23.63 11.08 22.94 11.93 22.94 L 15.32 22.94 L 15.32 25.12 Z M 33.43 22.94 L 33.43 13.6 L 24.09 13.6 L 24.09 16.32 L 21.91 16.32 L 21.91 12.96 C 21.91 12.11 22.6 11.42 23.45 11.42 L 34.07 11.42 C 34.92 11.42 35.61 12.11 35.61 12.96 L 35.61 23.59 C 35.61 24.43 34.92 25.12 34.07 25.12 L 30.68 25.12 L 30.68 22.94 Z M 14.55 17.12 L 2.07 4.64 L 3.61 3.1 L 16.09 15.58 Z M 31.45 30.94 L 43.93 43.42 L 42.39 44.96 L 29.91 32.48 Z M 10.33 38.24 L 3.61 44.96 L 2.07 43.42 L 8.79 36.7 Z M 35.67 9.82 L 42.39 3.1 L 43.93 4.64 L 37.21 11.37 Z M 47 25.12 L 45.17 25.12 C 44.96 29.43 43.55 33.54 41.01 37.04 L 39.24 35.76 C 41.5 32.63 42.78 28.97 42.99 25.12 L 41.24 25.12 L 41.24 22.94 L 42.99 22.94 C 42.78 19.09 41.5 15.43 39.24 12.31 L 41.01 11.03 C 43.55 14.53 44.96 18.63 45.17 22.94 L 47 22.94 Z M 10 6.02 C 13.5 3.49 17.6 2.07 21.91 1.86 L 21.91 0.03 L 24.09 0.03 L 24.09 1.86 C 28.41 2.07 32.5 3.49 36.01 6.02 L 34.73 7.79 C 31.6 5.53 27.94 4.25 24.09 4.05 L 24.09 5.79 L 21.91 5.79 L 21.91 4.05 C 18.06 4.25 14.4 5.53 11.28 7.79 Z M 36.01 42.04 C 32.5 44.58 28.41 46 24.09 46.2 L 24.09 47.97 L 21.91 47.97 L 21.91 46.2 C 17.6 46 13.5 44.58 10 42.04 L 11.28 40.27 C 14.4 42.54 18.06 43.81 21.91 44.02 L 21.91 42.27 L 24.09 42.27 L 24.09 44.02 C 27.94 43.81 31.6 42.54 34.73 40.27 Z M 0.83 25.12 L -1 25.12 L -1 22.94 L 0.83 22.94 C 1.04 18.63 2.45 14.53 4.99 11.03 L 6.76 12.31 C 4.5 15.43 3.22 19.09 3.02 22.94 L 4.76 22.94 L 4.76 25.12 L 3.02 25.12 C 3.22 28.97 4.5 32.63 6.76 35.76 L 4.99 37.04 C 2.45 33.54 1.04 29.43 0.83 25.12 Z" fill="#ed7100" stroke="none" pointer-events="all"/></g></svg>