<?xml version="1.0" encoding="UTF-8"?>
<!-- Do not edit this file with editors other than draw.io -->
<!DOCTYPE svg PUBLIC "-//W3C//DTD SVG 1.1//EN" "http://www.w3.org/Graphics/SVG/1.1/DTD/svg11.dtd">
<svg xmlns="http://www.w3.org/2000/svg" xmlns:xlink="http://www.w3.org/1999/xlink" version="1.1" width="49px" height="49px" viewBox="-0.5 -0.5 49 49" content="&lt;mxfile host=&quot;app.diagrams.net&quot; modified=&quot;2023-11-13T09:40:03.945Z&quot; agent=&quot;Mozilla/5.0 (Windows NT 10.0; Win64; x64) AppleWebKit/537.36 (KHTML, like Gecko) Chrome/119.0.0.0 Safari/537.36&quot; etag=&quot;INOOfS0Um9uXSKgNxDiI&quot; version=&quot;22.1.0&quot; type=&quot;device&quot;&gt;&#10;  &lt;diagram name=&quot;페이지-1&quot; id=&quot;AW3kfpiaLIK3EqUbXKlc&quot;&gt;&#10;    &lt;mxGraphModel dx=&quot;292&quot; dy=&quot;157&quot; grid=&quot;1&quot; gridSize=&quot;10&quot; guides=&quot;1&quot; tooltips=&quot;1&quot; connect=&quot;1&quot; arrows=&quot;1&quot; fold=&quot;1&quot; page=&quot;1&quot; pageScale=&quot;1&quot; pageWidth=&quot;827&quot; pageHeight=&quot;1169&quot; math=&quot;0&quot; shadow=&quot;0&quot;&gt;&#10;      &lt;root&gt;&#10;        &lt;mxCell id=&quot;0&quot; /&gt;&#10;        &lt;mxCell id=&quot;1&quot; parent=&quot;0&quot; /&gt;&#10;        &lt;mxCell id=&quot;_niekT0tynacapAUr5bP-24&quot; value=&quot;&quot; style=&quot;sketch=0;outlineConnect=0;fontColor=#232F3E;gradientColor=none;fillColor=#ED7100;strokeColor=none;dashed=0;verticalLabelPosition=bottom;verticalAlign=top;align=center;html=1;fontSize=12;fontStyle=0;aspect=fixed;pointerEvents=1;shape=mxgraph.aws4.t3a_instance;&quot; vertex=&quot;1&quot; parent=&quot;1&quot;&gt;&#10;          &lt;mxGeometry x=&quot;470&quot; y=&quot;160&quot; width=&quot;48&quot; height=&quot;48&quot; as=&quot;geometry&quot; /&gt;&#10;        &lt;/mxCell&gt;&#10;      &lt;/root&gt;&#10;    &lt;/mxGraphModel&gt;&#10;  &lt;/diagram&gt;&#10;&lt;/mxfile&gt;&#10;"><defs/><g><rect x="-1" y="0" width="48" height="48" fill="none" stroke="none" pointer-events="all"/><path d="M 6.64 40.36 L 39.36 40.36 L 39.36 7.64 L 6.64 7.64 Z M 41.55 12 L 41.55 16.36 L 47 16.36 L 47 18.55 L 41.55 18.55 L 41.55 22.91 L 47 22.91 L 47 25.09 L 41.55 25.09 L 41.55 29.45 L 47 29.45 L 47 31.64 L 41.55 31.64 L 41.55 36 L 47 36 L 47 38.18 L 41.55 38.18 L 41.55 41.45 C 41.55 42.06 41.06 42.55 40.45 42.55 L 37.18 42.55 L 37.18 48 L 35 48 L 35 42.55 L 30.64 42.55 L 30.64 48 L 28.45 48 L 28.45 42.55 L 24.09 42.55 L 24.09 48 L 21.91 48 L 21.91 42.55 L 17.55 42.55 L 17.55 48 L 15.36 48 L 15.36 42.55 L 11 42.55 L 11 48 L 8.82 48 L 8.82 42.55 L 5.55 42.55 C 4.94 42.55 4.45 42.06 4.45 41.45 L 4.45 38.18 L -1 38.18 L -1 36 L 4.45 36 L 4.45 31.64 L -1 31.64 L -1 29.45 L 4.45 29.45 L 4.45 25.09 L -1 25.09 L -1 22.91 L 4.45 22.91 L 4.45 18.55 L -1 18.55 L -1 16.36 L 4.45 16.36 L 4.45 12 L -1 12 L -1 9.82 L 4.45 9.82 L 4.45 6.55 C 4.45 5.94 4.94 5.45 5.55 5.45 L 8.82 5.45 L 8.82 0 L 11 0 L 11 5.45 L 15.36 5.45 L 15.36 0 L 17.55 0 L 17.55 5.45 L 21.91 5.45 L 21.91 0 L 24.09 0 L 24.09 5.45 L 28.45 5.45 L 28.45 0 L 30.64 0 L 30.64 5.45 L 35 5.45 L 35 0 L 37.18 0 L 37.18 5.45 L 40.45 5.45 C 41.06 5.45 41.55 5.94 41.55 6.55 L 41.55 9.82 L 47 9.82 L 47 12 Z M 32.87 25.91 C 32.35 25.79 31.88 25.74 31.47 25.74 C 30.44 25.74 29.92 26.15 29.92 26.97 C 29.92 27.33 30.02 27.61 30.22 27.81 C 30.42 28.01 30.69 28.11 31.04 28.11 C 31.33 28.11 31.63 28.04 31.95 27.91 C 32.27 27.79 32.57 27.61 32.87 27.37 Z M 32.87 24.84 L 32.87 23.94 C 32.87 23.42 32.76 23.06 32.54 22.85 C 32.31 22.65 31.92 22.55 31.36 22.55 C 30.57 22.55 29.65 22.71 28.63 23.05 L 28.63 21.78 C 29.01 21.59 29.48 21.44 30.03 21.32 C 30.59 21.21 31.14 21.16 31.7 21.16 C 32.72 21.16 33.47 21.36 33.95 21.77 C 34.43 22.17 34.67 22.81 34.67 23.68 L 34.67 29.16 L 33.1 29.16 L 32.96 28.41 C 32.61 28.72 32.21 28.95 31.78 29.13 C 31.35 29.3 30.92 29.39 30.49 29.39 C 29.78 29.39 29.2 29.17 28.76 28.75 C 28.31 28.32 28.09 27.76 28.09 27.08 C 28.09 26.33 28.36 25.73 28.91 25.28 C 29.45 24.83 30.18 24.61 31.1 24.61 C 31.64 24.61 32.23 24.68 32.87 24.84 Z M 24.79 28.96 C 25.4 28.68 25.87 28.28 26.2 27.78 C 26.52 27.29 26.69 26.72 26.69 26.07 C 26.69 25.48 26.54 24.96 26.26 24.5 C 25.97 24.04 25.59 23.69 25.1 23.44 C 24.62 23.19 24.08 23.07 23.49 23.07 C 23.35 23.07 23.21 23.07 23.07 23.08 L 26.24 19.96 L 26.24 18.57 L 19.94 18.57 L 19.94 20.03 L 24.26 20.03 L 21.25 23.29 L 21.25 24.47 C 21.77 24.41 22.26 24.38 22.72 24.38 C 24.13 24.38 24.84 24.94 24.84 26.06 C 24.84 26.65 24.64 27.1 24.25 27.43 C 23.86 27.75 23.31 27.91 22.59 27.91 C 21.83 27.91 20.9 27.72 19.78 27.34 L 19.78 28.78 C 20.72 29.18 21.68 29.39 22.65 29.39 C 23.47 29.39 24.18 29.25 24.79 28.96 Z M 13.75 20.1 L 10.44 20.1 L 10.44 18.57 L 18.93 18.57 L 18.93 20.1 L 15.61 20.1 L 15.61 29.16 L 13.75 29.16 Z" fill="#ed7100" stroke="none" pointer-events="all"/></g></svg>