<?xml version="1.0" encoding="UTF-8"?>
<!-- Do not edit this file with editors other than draw.io -->
<!DOCTYPE svg PUBLIC "-//W3C//DTD SVG 1.1//EN" "http://www.w3.org/Graphics/SVG/1.1/DTD/svg11.dtd">
<svg xmlns="http://www.w3.org/2000/svg" xmlns:xlink="http://www.w3.org/1999/xlink" version="1.1" width="49px" height="49px" viewBox="-0.5 -0.5 49 49" content="&lt;mxfile host=&quot;app.diagrams.net&quot; modified=&quot;2023-11-13T09:40:13.200Z&quot; agent=&quot;Mozilla/5.0 (Windows NT 10.0; Win64; x64) AppleWebKit/537.36 (KHTML, like Gecko) Chrome/119.0.0.0 Safari/537.36&quot; etag=&quot;4QVxaLaG4BV2AR19bRSB&quot; version=&quot;22.1.0&quot; type=&quot;device&quot;&gt;&#10;  &lt;diagram name=&quot;페이지-1&quot; id=&quot;AW3kfpiaLIK3EqUbXKlc&quot;&gt;&#10;    &lt;mxGraphModel dx=&quot;292&quot; dy=&quot;157&quot; grid=&quot;1&quot; gridSize=&quot;10&quot; guides=&quot;1&quot; tooltips=&quot;1&quot; connect=&quot;1&quot; arrows=&quot;1&quot; fold=&quot;1&quot; page=&quot;1&quot; pageScale=&quot;1&quot; pageWidth=&quot;827&quot; pageHeight=&quot;1169&quot; math=&quot;0&quot; shadow=&quot;0&quot;&gt;&#10;      &lt;root&gt;&#10;        &lt;mxCell id=&quot;0&quot; /&gt;&#10;        &lt;mxCell id=&quot;1&quot; parent=&quot;0&quot; /&gt;&#10;        &lt;mxCell id=&quot;_niekT0tynacapAUr5bP-25&quot; value=&quot;&quot; style=&quot;sketch=0;outlineConnect=0;fontColor=#232F3E;gradientColor=none;fillColor=#ED7100;strokeColor=none;dashed=0;verticalLabelPosition=bottom;verticalAlign=top;align=center;html=1;fontSize=12;fontStyle=0;aspect=fixed;pointerEvents=1;shape=mxgraph.aws4.trainium_instance;&quot; vertex=&quot;1&quot; parent=&quot;1&quot;&gt;&#10;          &lt;mxGeometry x=&quot;500&quot; y=&quot;140&quot; width=&quot;48&quot; height=&quot;48&quot; as=&quot;geometry&quot; /&gt;&#10;        &lt;/mxCell&gt;&#10;      &lt;/root&gt;&#10;    &lt;/mxGraphModel&gt;&#10;  &lt;/diagram&gt;&#10;&lt;/mxfile&gt;&#10;"><defs/><g><rect x="0" y="0" width="48" height="48" fill="none" stroke="none" pointer-events="all"/><path d="M 7.64 40.36 L 40.36 40.36 L 40.36 7.64 L 7.64 7.64 Z M 42.55 12 L 42.55 16.36 L 48 16.36 L 48 18.55 L 42.55 18.55 L 42.55 22.91 L 48 22.91 L 48 25.09 L 42.55 25.09 L 42.55 29.45 L 48 29.45 L 48 31.64 L 42.55 31.64 L 42.55 36 L 48 36 L 48 38.18 L 42.55 38.18 L 42.55 41.45 C 42.55 42.06 42.06 42.55 41.45 42.55 L 38.18 42.55 L 38.18 48 L 36 48 L 36 42.55 L 31.64 42.55 L 31.64 48 L 29.45 48 L 29.45 42.55 L 25.09 42.55 L 25.09 48 L 22.91 48 L 22.91 42.55 L 18.55 42.55 L 18.55 48 L 16.36 48 L 16.36 42.55 L 12 42.55 L 12 48 L 9.82 48 L 9.82 42.55 L 6.55 42.55 C 5.94 42.55 5.45 42.06 5.45 41.45 L 5.45 38.18 L 0 38.18 L 0 36 L 5.45 36 L 5.45 31.64 L 0 31.64 L 0 29.45 L 5.45 29.45 L 5.45 25.09 L 0 25.09 L 0 22.91 L 5.45 22.91 L 5.45 18.55 L 0 18.55 L 0 16.36 L 5.45 16.36 L 5.45 12 L 0 12 L 0 9.82 L 5.45 9.82 L 5.45 6.55 C 5.45 5.94 5.94 5.45 6.55 5.45 L 9.82 5.45 L 9.82 0 L 12 0 L 12 5.45 L 16.36 5.45 L 16.36 0 L 18.55 0 L 18.55 5.45 L 22.91 5.45 L 22.91 0 L 25.09 0 L 25.09 5.45 L 29.45 5.45 L 29.45 0 L 31.64 0 L 31.64 5.45 L 36 5.45 L 36 0 L 38.18 0 L 38.18 5.45 L 41.45 5.45 C 42.06 5.45 42.55 5.94 42.55 6.55 L 42.55 9.82 L 48 9.82 L 48 12 Z M 33.49 23.97 C 33.65 23.88 33.81 23.81 33.98 23.76 C 34.15 23.71 34.31 23.69 34.46 23.69 C 34.67 23.69 34.82 23.74 34.91 23.84 C 35 23.94 35.05 24.11 35.05 24.34 L 35.05 26.98 L 35.95 26.98 L 35.95 23.97 C 36.08 23.89 36.24 23.82 36.41 23.77 C 36.59 23.71 36.76 23.69 36.92 23.69 C 37.13 23.69 37.28 23.74 37.37 23.84 C 37.46 23.94 37.51 24.11 37.51 24.34 L 37.51 26.98 L 38.41 26.98 L 38.41 24.12 C 38.41 23.75 38.31 23.47 38.11 23.27 C 37.91 23.07 37.63 22.98 37.27 22.98 C 36.8 22.98 36.31 23.15 35.8 23.5 C 35.62 23.15 35.3 22.98 34.83 22.98 C 34.6 22.98 34.37 23.02 34.14 23.1 C 33.92 23.18 33.68 23.31 33.42 23.48 L 33.34 23.09 L 32.59 23.09 L 32.59 26.98 L 33.49 26.98 Z M 29.37 27.09 C 29.85 27.09 30.32 26.91 30.8 26.55 L 30.89 26.98 L 31.64 26.98 L 31.64 23.09 L 30.74 23.09 L 30.74 26.07 C 30.42 26.28 30.1 26.38 29.79 26.38 C 29.56 26.38 29.4 26.32 29.3 26.21 C 29.2 26.09 29.14 25.91 29.14 25.66 L 29.14 23.09 L 28.24 23.09 L 28.24 25.92 C 28.24 26.3 28.34 26.59 28.54 26.79 C 28.73 26.99 29.01 27.09 29.37 27.09 Z M 26.4 26.98 L 27.3 26.98 L 27.3 23.09 L 26.4 23.09 Z M 26.85 22.45 C 27.02 22.45 27.15 22.4 27.25 22.31 C 27.35 22.22 27.4 22.09 27.4 21.93 C 27.4 21.77 27.35 21.64 27.25 21.55 C 27.15 21.46 27.02 21.41 26.85 21.41 C 26.69 21.41 26.55 21.46 26.46 21.55 C 26.36 21.64 26.31 21.77 26.31 21.93 C 26.31 22.09 26.36 22.22 26.46 22.31 C 26.55 22.4 26.69 22.45 26.85 22.45 Z M 22.88 24.02 C 23.23 23.8 23.57 23.69 23.91 23.69 C 24.13 23.69 24.29 23.74 24.39 23.86 C 24.5 23.97 24.55 24.15 24.55 24.4 L 24.55 26.98 L 25.45 26.98 L 25.45 24.12 C 25.45 23.75 25.35 23.47 25.16 23.27 C 24.97 23.07 24.68 22.98 24.31 22.98 C 23.79 22.98 23.29 23.16 22.81 23.52 L 22.72 23.09 L 21.97 23.09 L 21.97 26.98 L 22.88 26.98 Z M 20.1 26.98 L 21 26.98 L 21 23.09 L 20.1 23.09 Z M 20.55 22.45 C 20.71 22.45 20.85 22.4 20.94 22.31 C 21.04 22.22 21.09 22.09 21.09 21.93 C 21.09 21.77 21.04 21.64 20.94 21.55 C 20.85 21.46 20.71 21.41 20.55 21.41 C 20.38 21.41 20.25 21.46 20.15 21.55 C 20.05 21.64 20.01 21.77 20.01 21.93 C 20.01 22.09 20.05 22.22 20.15 22.31 C 20.25 22.4 20.38 22.45 20.55 22.45 Z M 18.29 25.35 C 18.03 25.29 17.8 25.27 17.59 25.27 C 17.08 25.27 16.82 25.47 16.82 25.89 C 16.82 26.06 16.87 26.2 16.97 26.3 C 17.07 26.4 17.2 26.45 17.38 26.45 C 17.52 26.45 17.67 26.42 17.83 26.36 C 17.99 26.29 18.15 26.2 18.29 26.08 Z M 18.29 24.82 L 18.29 24.37 C 18.29 24.11 18.24 23.93 18.13 23.82 C 18.01 23.72 17.82 23.67 17.54 23.67 C 17.14 23.67 16.68 23.75 16.17 23.92 L 16.17 23.29 C 16.36 23.19 16.6 23.12 16.87 23.06 C 17.15 23 17.43 22.98 17.71 22.98 C 18.22 22.98 18.59 23.08 18.83 23.28 C 19.07 23.49 19.19 23.8 19.19 24.24 L 19.19 26.98 L 18.41 26.98 L 18.34 26.6 C 18.16 26.76 17.96 26.88 17.75 26.96 C 17.53 27.05 17.32 27.09 17.1 27.09 C 16.75 27.09 16.46 26.98 16.24 26.77 C 16.01 26.56 15.9 26.28 15.9 25.94 C 15.9 25.56 16.04 25.26 16.31 25.04 C 16.58 24.81 16.95 24.7 17.41 24.7 C 17.68 24.7 17.97 24.74 18.29 24.82 Z M 14.25 24.16 C 14.55 23.97 14.88 23.87 15.25 23.87 C 15.4 23.87 15.55 23.88 15.69 23.91 L 15.69 23.08 C 15.58 23.07 15.47 23.06 15.38 23.06 C 15.17 23.06 14.97 23.11 14.8 23.2 C 14.62 23.29 14.43 23.45 14.22 23.67 L 14.1 23.09 L 13.35 23.09 L 13.35 26.98 L 14.25 26.98 Z M 10.67 22.45 L 9.02 22.45 L 9.02 21.69 L 13.26 21.69 L 13.26 22.45 L 11.61 22.45 L 11.61 26.98 L 10.67 26.98 Z" fill="#ed7100" stroke="none" pointer-events="all"/></g></svg>