<?xml version="1.0" encoding="UTF-8"?>
<!-- Do not edit this file with editors other than draw.io -->
<!DOCTYPE svg PUBLIC "-//W3C//DTD SVG 1.1//EN" "http://www.w3.org/Graphics/SVG/1.1/DTD/svg11.dtd">
<svg xmlns="http://www.w3.org/2000/svg" xmlns:xlink="http://www.w3.org/1999/xlink" version="1.1" width="49px" height="49px" viewBox="-0.5 -0.5 49 49" content="&lt;mxfile host=&quot;app.diagrams.net&quot; modified=&quot;2023-11-13T09:50:16.031Z&quot; agent=&quot;Mozilla/5.0 (Windows NT 10.0; Win64; x64) AppleWebKit/537.36 (KHTML, like Gecko) Chrome/119.0.0.0 Safari/537.36&quot; etag=&quot;DWIQT5wbBMstQDTepdZK&quot; version=&quot;22.1.0&quot; type=&quot;device&quot;&gt;&#10;  &lt;diagram name=&quot;페이지-1&quot; id=&quot;AW3kfpiaLIK3EqUbXKlc&quot;&gt;&#10;    &lt;mxGraphModel dx=&quot;292&quot; dy=&quot;157&quot; grid=&quot;1&quot; gridSize=&quot;10&quot; guides=&quot;1&quot; tooltips=&quot;1&quot; connect=&quot;1&quot; arrows=&quot;1&quot; fold=&quot;1&quot; page=&quot;1&quot; pageScale=&quot;1&quot; pageWidth=&quot;827&quot; pageHeight=&quot;1169&quot; math=&quot;0&quot; shadow=&quot;0&quot;&gt;&#10;      &lt;root&gt;&#10;        &lt;mxCell id=&quot;0&quot; /&gt;&#10;        &lt;mxCell id=&quot;1&quot; parent=&quot;0&quot; /&gt;&#10;        &lt;mxCell id=&quot;_niekT0tynacapAUr5bP-87&quot; value=&quot;&quot; style=&quot;sketch=0;outlineConnect=0;fontColor=#232F3E;gradientColor=none;fillColor=#ED7100;strokeColor=none;dashed=0;verticalLabelPosition=bottom;verticalAlign=top;align=center;html=1;fontSize=12;fontStyle=0;aspect=fixed;pointerEvents=1;shape=mxgraph.aws4.x1e_instance;&quot; vertex=&quot;1&quot; parent=&quot;1&quot;&gt;&#10;          &lt;mxGeometry x=&quot;460&quot; y=&quot;170&quot; width=&quot;48&quot; height=&quot;48&quot; as=&quot;geometry&quot; /&gt;&#10;        &lt;/mxCell&gt;&#10;      &lt;/root&gt;&#10;    &lt;/mxGraphModel&gt;&#10;  &lt;/diagram&gt;&#10;&lt;/mxfile&gt;&#10;"><defs/><g><rect x="-1" y="0" width="48" height="48" fill="none" stroke="none" pointer-events="all"/><path d="M 47 12 L 47 9.82 L 41.55 9.82 L 41.55 6.55 C 41.55 5.94 41.06 5.45 40.45 5.45 L 37.18 5.45 L 37.18 0 L 35 0 L 35 5.45 L 30.64 5.45 L 30.64 0 L 28.45 0 L 28.45 5.45 L 24.09 5.45 L 24.09 0 L 21.91 0 L 21.91 5.45 L 17.55 5.45 L 17.55 0 L 15.36 0 L 15.36 5.45 L 11 5.45 L 11 0 L 8.82 0 L 8.82 5.45 L 5.55 5.45 C 4.94 5.45 4.45 5.94 4.45 6.55 L 4.45 9.82 L -1 9.82 L -1 12 L 4.45 12 L 4.45 16.36 L -1 16.36 L -1 18.55 L 4.45 18.55 L 4.45 22.91 L -1 22.91 L -1 25.09 L 4.45 25.09 L 4.45 29.45 L -1 29.45 L -1 31.64 L 4.45 31.64 L 4.45 36 L -1 36 L -1 38.18 L 4.45 38.18 L 4.45 41.45 C 4.45 42.06 4.94 42.55 5.55 42.55 L 8.82 42.55 L 8.82 48 L 11 48 L 11 42.55 L 15.36 42.55 L 15.36 48 L 17.55 48 L 17.55 42.55 L 21.91 42.55 L 21.91 48 L 24.09 48 L 24.09 42.55 L 28.45 42.55 L 28.45 48 L 30.64 48 L 30.64 42.55 L 35 42.55 L 35 48 L 37.18 48 L 37.18 42.55 L 40.45 42.55 C 41.06 42.55 41.55 42.06 41.55 41.45 L 41.55 38.18 L 47 38.18 L 47 36 L 41.55 36 L 41.55 31.64 L 47 31.64 L 47 29.45 L 41.55 29.45 L 41.55 25.09 L 47 25.09 L 47 22.91 L 41.55 22.91 L 41.55 18.55 L 47 18.55 L 47 16.36 L 41.55 16.36 L 41.55 12 Z M 6.64 40.36 L 6.64 7.64 L 39.36 7.64 L 39.36 40.36 Z M 11.2 29.25 L 14.74 23.77 L 11.44 18.67 L 13.3 18.67 L 15.82 22.43 L 18.28 18.67 L 20.14 18.67 L 16.83 23.74 L 20.39 29.25 L 18.52 29.25 L 15.75 25.07 L 13.06 29.25 Z M 23.7 20.47 L 20.85 21.54 L 20.85 20.07 L 23.87 18.67 L 25.52 18.67 L 25.52 29.25 L 23.7 29.25 Z M 31.37 29.48 C 31.88 29.48 32.37 29.43 32.84 29.32 C 33.32 29.21 33.73 29.07 34.07 28.89 L 34.07 27.62 C 33.23 27.9 32.44 28.05 31.71 28.05 C 30.91 28.05 30.31 27.87 29.92 27.5 C 29.53 27.14 29.32 26.58 29.29 25.8 L 34.11 25.8 C 34.2 25.38 34.24 24.91 34.24 24.38 C 34.24 23.38 33.97 22.61 33.44 22.07 C 32.9 21.52 32.14 21.25 31.14 21.25 C 29.98 21.25 29.08 21.62 28.43 22.35 C 27.78 23.08 27.46 24.11 27.46 25.42 C 27.46 26.74 27.79 27.75 28.45 28.44 C 29.11 29.14 30.09 29.48 31.37 29.48 Z M 29.86 23.11 C 30.19 22.75 30.61 22.56 31.13 22.56 C 31.62 22.56 32 22.73 32.25 23.05 C 32.51 23.38 32.64 23.85 32.64 24.47 L 32.64 24.59 L 29.29 24.59 C 29.34 23.97 29.53 23.48 29.86 23.11 Z" fill="#ed7100" stroke="none" pointer-events="all"/></g></svg>