<?xml version="1.0" encoding="UTF-8"?>
<!-- Do not edit this file with editors other than draw.io -->
<!DOCTYPE svg PUBLIC "-//W3C//DTD SVG 1.1//EN" "http://www.w3.org/Graphics/SVG/1.1/DTD/svg11.dtd">
<svg xmlns="http://www.w3.org/2000/svg" xmlns:xlink="http://www.w3.org/1999/xlink" version="1.1" width="49px" height="49px" viewBox="-0.5 -0.5 49 49" content="&lt;mxfile host=&quot;app.diagrams.net&quot; modified=&quot;2023-11-13T09:50:28.330Z&quot; agent=&quot;Mozilla/5.0 (Windows NT 10.0; Win64; x64) AppleWebKit/537.36 (KHTML, like Gecko) Chrome/119.0.0.0 Safari/537.36&quot; etag=&quot;00Fk2fFceHtBYVInmHBY&quot; version=&quot;22.1.0&quot; type=&quot;device&quot;&gt;&#10;  &lt;diagram name=&quot;페이지-1&quot; id=&quot;AW3kfpiaLIK3EqUbXKlc&quot;&gt;&#10;    &lt;mxGraphModel dx=&quot;292&quot; dy=&quot;157&quot; grid=&quot;1&quot; gridSize=&quot;10&quot; guides=&quot;1&quot; tooltips=&quot;1&quot; connect=&quot;1&quot; arrows=&quot;1&quot; fold=&quot;1&quot; page=&quot;1&quot; pageScale=&quot;1&quot; pageWidth=&quot;827&quot; pageHeight=&quot;1169&quot; math=&quot;0&quot; shadow=&quot;0&quot;&gt;&#10;      &lt;root&gt;&#10;        &lt;mxCell id=&quot;0&quot; /&gt;&#10;        &lt;mxCell id=&quot;1&quot; parent=&quot;0&quot; /&gt;&#10;        &lt;mxCell id=&quot;_niekT0tynacapAUr5bP-89&quot; value=&quot;&quot; style=&quot;sketch=0;outlineConnect=0;fontColor=#232F3E;gradientColor=none;fillColor=#ED7100;strokeColor=none;dashed=0;verticalLabelPosition=bottom;verticalAlign=top;align=center;html=1;fontSize=12;fontStyle=0;aspect=fixed;pointerEvents=1;shape=mxgraph.aws4.ec2_x2gd_instance;&quot; vertex=&quot;1&quot; parent=&quot;1&quot;&gt;&#10;          &lt;mxGeometry x=&quot;480&quot; y=&quot;170&quot; width=&quot;48&quot; height=&quot;48&quot; as=&quot;geometry&quot; /&gt;&#10;        &lt;/mxCell&gt;&#10;      &lt;/root&gt;&#10;    &lt;/mxGraphModel&gt;&#10;  &lt;/diagram&gt;&#10;&lt;/mxfile&gt;&#10;"><defs/><g><rect x="0" y="0" width="48" height="48" fill="none" stroke="none" pointer-events="all"/><path d="M 7.64 40.36 L 40.36 40.36 L 40.36 7.64 L 7.64 7.64 Z M 42.55 12 L 42.55 16.36 L 48 16.36 L 48 18.55 L 42.55 18.55 L 42.55 22.91 L 48 22.91 L 48 25.09 L 42.55 25.09 L 42.55 29.45 L 48 29.45 L 48 31.64 L 42.55 31.64 L 42.55 36 L 48 36 L 48 38.18 L 42.55 38.18 L 42.55 41.45 C 42.55 42.06 42.06 42.55 41.45 42.55 L 38.18 42.55 L 38.18 48 L 36 48 L 36 42.55 L 31.64 42.55 L 31.64 48 L 29.45 48 L 29.45 42.55 L 25.09 42.55 L 25.09 48 L 22.91 48 L 22.91 42.55 L 18.55 42.55 L 18.55 48 L 16.36 48 L 16.36 42.55 L 12 42.55 L 12 48 L 9.82 48 L 9.82 42.55 L 6.55 42.55 C 5.94 42.55 5.45 42.06 5.45 41.45 L 5.45 38.18 L 0 38.18 L 0 36 L 5.45 36 L 5.45 31.64 L 0 31.64 L 0 29.45 L 5.45 29.45 L 5.45 25.09 L 0 25.09 L 0 22.91 L 5.45 22.91 L 5.45 18.55 L 0 18.55 L 0 16.36 L 5.45 16.36 L 5.45 12 L 0 12 L 0 9.82 L 5.45 9.82 L 5.45 6.55 C 5.45 5.94 5.94 5.45 6.55 5.45 L 9.82 5.45 L 9.82 0 L 12 0 L 12 5.45 L 16.36 5.45 L 16.36 0 L 18.55 0 L 18.55 5.45 L 22.91 5.45 L 22.91 0 L 25.09 0 L 25.09 5.45 L 29.45 5.45 L 29.45 0 L 31.64 0 L 31.64 5.45 L 36 5.45 L 36 0 L 38.18 0 L 38.18 5.45 L 41.45 5.45 C 42.06 5.45 42.55 5.94 42.55 6.55 L 42.55 9.82 L 48 9.82 L 48 12 Z M 32.67 24.97 C 32.67 26.38 33.18 27.08 34.21 27.08 C 34.68 27.08 35.14 26.93 35.59 26.63 L 35.59 23.33 C 35.19 23.04 34.72 22.89 34.23 22.89 C 33.69 22.89 33.3 23.07 33.05 23.41 C 32.8 23.75 32.67 24.27 32.67 24.97 Z M 31.92 27.34 C 31.46 26.77 31.23 26 31.23 25.03 C 31.23 24.39 31.33 23.83 31.54 23.34 C 31.73 22.88 32.04 22.48 32.44 22.19 C 32.83 21.92 33.3 21.78 33.83 21.78 C 34.47 21.78 35.06 21.99 35.59 22.4 L 35.59 19.19 L 37 19.19 L 37 28.07 L 35.79 28.07 L 35.65 27.48 C 35.1 27.96 34.47 28.2 33.76 28.2 C 32.99 28.2 32.38 27.91 31.92 27.34 Z M 25.89 24.84 C 25.89 26.18 26.37 26.85 27.32 26.85 C 27.79 26.85 28.24 26.7 28.66 26.39 L 28.66 23.31 C 28.25 23.03 27.8 22.88 27.33 22.88 C 26.84 22.88 26.48 23.04 26.24 23.36 C 26.01 23.68 25.89 24.18 25.89 24.84 Z M 25.12 27.11 C 24.67 26.56 24.45 25.82 24.45 24.89 C 24.45 24.28 24.55 23.74 24.75 23.27 C 24.93 22.83 25.23 22.45 25.61 22.17 C 25.99 21.91 26.43 21.78 26.95 21.78 C 27.64 21.78 28.25 22.02 28.76 22.51 L 28.88 21.96 L 30.08 21.96 L 30.08 27.65 C 30.08 28.61 29.81 29.36 29.29 29.89 C 28.76 30.42 28.01 30.68 27.04 30.68 C 26.3 30.68 25.6 30.52 24.94 30.19 L 24.94 29.18 C 25.69 29.43 26.35 29.55 26.95 29.55 C 27.55 29.55 27.98 29.42 28.25 29.14 C 28.53 28.86 28.66 28.41 28.66 27.79 L 28.66 27.27 C 28.18 27.71 27.55 27.95 26.9 27.95 C 26.15 27.95 25.56 27.67 25.12 27.11 Z M 23.49 26.93 L 19.3 26.93 L 21.56 24.74 C 22.11 24.15 22.5 23.62 22.75 23.16 C 22.99 22.7 23.12 22.25 23.12 21.8 C 23.12 21.34 23.01 20.94 22.8 20.6 C 22.59 20.27 22.3 20.01 21.92 19.83 C 21.55 19.65 21.11 19.56 20.61 19.56 C 19.69 19.56 18.84 19.87 18.08 20.49 L 18.08 21.67 C 18.49 21.38 18.9 21.16 19.31 21 C 19.71 20.85 20.09 20.77 20.43 20.77 C 20.82 20.77 21.13 20.87 21.34 21.08 C 21.56 21.28 21.67 21.57 21.67 21.93 C 21.67 22.25 21.57 22.59 21.37 22.95 C 21.16 23.32 20.81 23.81 20.29 24.41 L 17.85 26.99 L 17.85 28.07 L 23.49 28.07 Z M 10.05 28.07 L 12.83 23.76 L 10.24 19.75 L 11.71 19.75 L 13.69 22.7 L 15.62 19.75 L 17.08 19.75 L 14.48 23.73 L 17.27 28.07 L 15.81 28.07 L 13.63 24.78 L 11.51 28.07 Z" fill="#ed7100" stroke="none" pointer-events="all"/></g></svg>