<?xml version="1.0" encoding="UTF-8"?>
<!-- Do not edit this file with editors other than draw.io -->
<!DOCTYPE svg PUBLIC "-//W3C//DTD SVG 1.1//EN" "http://www.w3.org/Graphics/SVG/1.1/DTD/svg11.dtd">
<svg xmlns="http://www.w3.org/2000/svg" xmlns:xlink="http://www.w3.org/1999/xlink" version="1.1" width="49px" height="49px" viewBox="-0.5 -0.5 49 49" content="&lt;mxfile host=&quot;app.diagrams.net&quot; modified=&quot;2023-11-13T09:50:35.774Z&quot; agent=&quot;Mozilla/5.0 (Windows NT 10.0; Win64; x64) AppleWebKit/537.36 (KHTML, like Gecko) Chrome/119.0.0.0 Safari/537.36&quot; etag=&quot;JM7dQniuwARm_9oS14ai&quot; version=&quot;22.1.0&quot; type=&quot;device&quot;&gt;&#10;  &lt;diagram name=&quot;페이지-1&quot; id=&quot;AW3kfpiaLIK3EqUbXKlc&quot;&gt;&#10;    &lt;mxGraphModel dx=&quot;292&quot; dy=&quot;157&quot; grid=&quot;1&quot; gridSize=&quot;10&quot; guides=&quot;1&quot; tooltips=&quot;1&quot; connect=&quot;1&quot; arrows=&quot;1&quot; fold=&quot;1&quot; page=&quot;1&quot; pageScale=&quot;1&quot; pageWidth=&quot;827&quot; pageHeight=&quot;1169&quot; math=&quot;0&quot; shadow=&quot;0&quot;&gt;&#10;      &lt;root&gt;&#10;        &lt;mxCell id=&quot;0&quot; /&gt;&#10;        &lt;mxCell id=&quot;1&quot; parent=&quot;0&quot; /&gt;&#10;        &lt;mxCell id=&quot;_niekT0tynacapAUr5bP-90&quot; value=&quot;&quot; style=&quot;sketch=0;outlineConnect=0;fontColor=#232F3E;gradientColor=none;fillColor=#ED7100;strokeColor=none;dashed=0;verticalLabelPosition=bottom;verticalAlign=top;align=center;html=1;fontSize=12;fontStyle=0;aspect=fixed;pointerEvents=1;shape=mxgraph.aws4.ec2_x2idn_instance;&quot; vertex=&quot;1&quot; parent=&quot;1&quot;&gt;&#10;          &lt;mxGeometry x=&quot;480&quot; y=&quot;160&quot; width=&quot;48&quot; height=&quot;48&quot; as=&quot;geometry&quot; /&gt;&#10;        &lt;/mxCell&gt;&#10;      &lt;/root&gt;&#10;    &lt;/mxGraphModel&gt;&#10;  &lt;/diagram&gt;&#10;&lt;/mxfile&gt;&#10;"><defs/><g><rect x="0" y="0" width="48" height="48" fill="none" stroke="none" pointer-events="all"/><path d="M 7.64 40.36 L 40.36 40.36 L 40.36 7.64 L 7.64 7.64 Z M 42.55 12 L 42.55 16.36 L 48 16.36 L 48 18.55 L 42.55 18.55 L 42.55 22.91 L 48 22.91 L 48 25.09 L 42.55 25.09 L 42.55 29.45 L 48 29.45 L 48 31.64 L 42.55 31.64 L 42.55 36 L 48 36 L 48 38.18 L 42.55 38.18 L 42.55 41.45 C 42.55 42.06 42.06 42.55 41.45 42.55 L 38.18 42.55 L 38.18 48 L 36 48 L 36 42.55 L 31.64 42.55 L 31.64 48 L 29.45 48 L 29.45 42.55 L 25.09 42.55 L 25.09 48 L 22.91 48 L 22.91 42.55 L 18.55 42.55 L 18.55 48 L 16.36 48 L 16.36 42.55 L 12 42.55 L 12 48 L 9.82 48 L 9.82 42.55 L 6.55 42.55 C 5.94 42.55 5.45 42.06 5.45 41.45 L 5.45 38.18 L 0 38.18 L 0 36 L 5.45 36 L 5.45 31.64 L 0 31.64 L 0 29.45 L 5.45 29.45 L 5.45 25.09 L 0 25.09 L 0 22.91 L 5.45 22.91 L 5.45 18.55 L 0 18.55 L 0 16.36 L 5.45 16.36 L 5.45 12 L 0 12 L 0 9.82 L 5.45 9.82 L 5.45 6.55 C 5.45 5.94 5.94 5.45 6.55 5.45 L 9.82 5.45 L 9.82 0 L 12 0 L 12 5.45 L 16.36 5.45 L 16.36 0 L 18.55 0 L 18.55 5.45 L 22.91 5.45 L 22.91 0 L 25.09 0 L 25.09 5.45 L 29.45 5.45 L 29.45 0 L 31.64 0 L 31.64 5.45 L 36 5.45 L 36 0 L 38.18 0 L 38.18 5.45 L 41.45 5.45 C 42.06 5.45 42.55 5.94 42.55 6.55 L 42.55 9.82 L 48 9.82 L 48 12 Z M 32.63 23.18 C 33.08 22.89 33.52 22.74 33.95 22.74 C 34.24 22.74 34.45 22.82 34.58 22.96 C 34.71 23.11 34.78 23.35 34.78 23.67 L 34.78 26.98 L 35.93 26.98 L 35.93 23.3 C 35.93 22.83 35.81 22.46 35.56 22.21 C 35.31 21.96 34.95 21.83 34.47 21.83 C 33.8 21.83 33.16 22.06 32.55 22.53 L 32.43 21.98 L 31.47 21.98 L 31.47 26.98 L 32.63 26.98 Z M 26.71 24.44 C 26.71 25.59 27.12 26.17 27.96 26.17 C 28.35 26.17 28.72 26.05 29.09 25.8 L 29.09 23.1 C 28.77 22.87 28.38 22.74 27.98 22.74 C 27.54 22.74 27.22 22.88 27.01 23.16 C 26.81 23.44 26.71 23.87 26.71 24.44 Z M 26.09 26.38 C 25.71 25.91 25.53 25.28 25.53 24.49 C 25.52 24.02 25.6 23.55 25.78 23.11 C 25.95 22.71 26.2 22.4 26.52 22.17 C 26.84 21.94 27.22 21.83 27.66 21.83 C 28.18 21.83 28.66 22 29.09 22.34 L 29.09 19.71 L 30.25 19.71 L 30.25 26.98 L 29.26 26.98 L 29.14 26.49 C 28.7 26.89 28.18 27.08 27.6 27.08 C 26.97 27.08 26.47 26.85 26.09 26.38 Z M 23.95 21.15 C 24.16 21.15 24.33 21.09 24.46 20.98 C 24.58 20.86 24.64 20.7 24.64 20.49 C 24.64 20.27 24.58 20.11 24.46 20 C 24.33 19.88 24.16 19.82 23.95 19.82 C 23.73 19.82 23.56 19.88 23.44 20 C 23.31 20.11 23.25 20.28 23.25 20.49 C 23.25 20.69 23.31 20.86 23.44 20.98 C 23.56 21.09 23.73 21.15 23.95 21.15 Z M 23.37 26.98 L 24.53 26.98 L 24.53 21.98 L 23.37 21.98 Z M 22.29 26.04 L 18.86 26.04 L 20.71 24.25 C 21.16 23.77 21.48 23.34 21.68 22.96 C 21.88 22.59 21.98 22.22 21.98 21.85 C 21.98 21.47 21.9 21.14 21.72 20.87 C 21.55 20.59 21.31 20.38 21.01 20.24 C 20.7 20.09 20.34 20.01 19.93 20.01 C 19.17 20.01 18.48 20.27 17.86 20.78 L 17.86 21.74 C 18.17 21.52 18.51 21.34 18.87 21.2 C 19.2 21.07 19.5 21.01 19.78 21.01 C 20.1 21.01 20.35 21.09 20.53 21.26 C 20.71 21.42 20.79 21.66 20.79 21.96 C 20.79 22.21 20.71 22.49 20.55 22.79 C 20.39 23.09 20.09 23.49 19.67 23.98 L 17.67 26.09 L 17.67 26.98 L 22.29 26.98 Z M 11.29 26.98 L 13.57 23.45 L 11.45 20.17 L 12.65 20.17 L 14.27 22.59 L 15.85 20.17 L 17.04 20.17 L 14.91 23.43 L 17.2 26.98 L 16 26.98 L 14.22 24.29 L 12.49 26.98 Z" fill="#ed7100" stroke="none" pointer-events="all"/></g></svg>