<?xml version="1.0" encoding="UTF-8"?>
<!-- Do not edit this file with editors other than draw.io -->
<!DOCTYPE svg PUBLIC "-//W3C//DTD SVG 1.1//EN" "http://www.w3.org/Graphics/SVG/1.1/DTD/svg11.dtd">
<svg xmlns="http://www.w3.org/2000/svg" xmlns:xlink="http://www.w3.org/1999/xlink" version="1.1" width="49px" height="49px" viewBox="-0.5 -0.5 49 49" content="&lt;mxfile host=&quot;app.diagrams.net&quot; modified=&quot;2023-11-13T09:50:42.848Z&quot; agent=&quot;Mozilla/5.0 (Windows NT 10.0; Win64; x64) AppleWebKit/537.36 (KHTML, like Gecko) Chrome/119.0.0.0 Safari/537.36&quot; etag=&quot;iz_7OGIVpPmkLSQwSCSi&quot; version=&quot;22.1.0&quot; type=&quot;device&quot;&gt;&#10;  &lt;diagram name=&quot;페이지-1&quot; id=&quot;AW3kfpiaLIK3EqUbXKlc&quot;&gt;&#10;    &lt;mxGraphModel dx=&quot;292&quot; dy=&quot;157&quot; grid=&quot;1&quot; gridSize=&quot;10&quot; guides=&quot;1&quot; tooltips=&quot;1&quot; connect=&quot;1&quot; arrows=&quot;1&quot; fold=&quot;1&quot; page=&quot;1&quot; pageScale=&quot;1&quot; pageWidth=&quot;827&quot; pageHeight=&quot;1169&quot; math=&quot;0&quot; shadow=&quot;0&quot;&gt;&#10;      &lt;root&gt;&#10;        &lt;mxCell id=&quot;0&quot; /&gt;&#10;        &lt;mxCell id=&quot;1&quot; parent=&quot;0&quot; /&gt;&#10;        &lt;mxCell id=&quot;_niekT0tynacapAUr5bP-91&quot; value=&quot;&quot; style=&quot;sketch=0;outlineConnect=0;fontColor=#232F3E;gradientColor=none;fillColor=#ED7100;strokeColor=none;dashed=0;verticalLabelPosition=bottom;verticalAlign=top;align=center;html=1;fontSize=12;fontStyle=0;aspect=fixed;pointerEvents=1;shape=mxgraph.aws4.ec2_x2iedn_instance;&quot; vertex=&quot;1&quot; parent=&quot;1&quot;&gt;&#10;          &lt;mxGeometry x=&quot;460&quot; y=&quot;150&quot; width=&quot;48&quot; height=&quot;48&quot; as=&quot;geometry&quot; /&gt;&#10;        &lt;/mxCell&gt;&#10;      &lt;/root&gt;&#10;    &lt;/mxGraphModel&gt;&#10;  &lt;/diagram&gt;&#10;&lt;/mxfile&gt;&#10;"><defs/><g><rect x="-1" y="0" width="48" height="48" fill="none" stroke="none" pointer-events="all"/><path d="M 6.64 40.36 L 39.36 40.36 L 39.36 7.64 L 6.64 7.64 Z M 41.55 12 L 41.55 16.36 L 47 16.36 L 47 18.55 L 41.55 18.55 L 41.55 22.91 L 47 22.91 L 47 25.09 L 41.55 25.09 L 41.55 29.45 L 47 29.45 L 47 31.64 L 41.55 31.64 L 41.55 36 L 47 36 L 47 38.18 L 41.55 38.18 L 41.55 41.45 C 41.55 42.06 41.06 42.55 40.45 42.55 L 37.18 42.55 L 37.18 48 L 35 48 L 35 42.55 L 30.64 42.55 L 30.64 48 L 28.45 48 L 28.45 42.55 L 24.09 42.55 L 24.09 48 L 21.91 48 L 21.91 42.55 L 17.55 42.55 L 17.55 48 L 15.36 48 L 15.36 42.55 L 11 42.55 L 11 48 L 8.82 48 L 8.82 42.55 L 5.55 42.55 C 4.94 42.55 4.45 42.06 4.45 41.45 L 4.45 38.18 L -1 38.18 L -1 36 L 4.45 36 L 4.45 31.64 L -1 31.64 L -1 29.45 L 4.45 29.45 L 4.45 25.09 L -1 25.09 L -1 22.91 L 4.45 22.91 L 4.45 18.55 L -1 18.55 L -1 16.36 L 4.45 16.36 L 4.45 12 L -1 12 L -1 9.82 L 4.45 9.82 L 4.45 6.55 C 4.45 5.94 4.94 5.45 5.55 5.45 L 8.82 5.45 L 8.82 0 L 11 0 L 11 5.45 L 15.36 5.45 L 15.36 0 L 17.55 0 L 17.55 5.45 L 21.91 5.45 L 21.91 0 L 24.09 0 L 24.09 5.45 L 28.45 5.45 L 28.45 0 L 30.64 0 L 30.64 5.45 L 35 5.45 L 35 0 L 37.18 0 L 37.18 5.45 L 40.45 5.45 C 41.06 5.45 41.55 5.94 41.55 6.55 L 41.55 9.82 L 47 9.82 L 47 12 Z M 33.41 23.18 C 33.86 22.89 34.3 22.74 34.73 22.74 C 35.02 22.74 35.23 22.82 35.36 22.97 C 35.49 23.11 35.56 23.35 35.56 23.67 L 35.56 26.98 L 36.72 26.98 L 36.72 23.3 C 36.72 22.83 36.59 22.46 36.34 22.21 C 36.09 21.96 35.73 21.83 35.25 21.83 C 34.59 21.83 33.95 22.06 33.33 22.53 L 33.21 21.98 L 32.25 21.98 L 32.25 26.98 L 33.41 26.98 Z M 27.78 24.44 C 27.78 25.59 28.2 26.17 29.04 26.17 C 29.42 26.17 29.8 26.05 30.17 25.8 L 30.17 23.1 C 29.83 22.86 29.46 22.74 29.06 22.74 C 28.62 22.74 28.3 22.88 28.09 23.16 C 27.89 23.44 27.78 23.87 27.78 24.44 Z M 27.17 26.38 C 26.79 25.91 26.6 25.28 26.6 24.49 C 26.6 23.97 26.69 23.51 26.86 23.11 C 27.03 22.71 27.27 22.4 27.59 22.17 C 27.92 21.95 28.3 21.83 28.73 21.83 C 29.26 21.83 29.74 22 30.17 22.34 L 30.17 19.71 L 31.33 19.71 L 31.33 26.98 L 30.33 26.98 L 30.22 26.49 C 29.8 26.88 29.24 27.09 28.67 27.08 C 28.09 27.1 27.53 26.84 27.17 26.38 Z M 23.04 23.98 L 25.19 23.98 L 25.19 23.9 C 25.19 23.5 25.11 23.2 24.94 22.99 C 24.78 22.78 24.54 22.68 24.22 22.68 C 23.91 22.67 23.61 22.8 23.4 23.03 C 23.19 23.26 23.07 23.58 23.04 23.98 Z M 22.5 26.46 C 22.07 26.01 21.86 25.36 21.86 24.51 C 21.86 23.67 22.07 23.01 22.49 22.54 C 22.9 22.07 23.48 21.83 24.23 21.83 C 24.87 21.83 25.36 22.01 25.71 22.36 C 26.05 22.71 26.22 23.2 26.22 23.84 C 26.22 24.18 26.19 24.49 26.14 24.76 L 23.04 24.76 C 23.06 25.25 23.19 25.62 23.44 25.85 C 23.69 26.08 24.08 26.2 24.59 26.2 C 25.06 26.2 25.57 26.11 26.11 25.93 L 26.11 26.74 C 25.89 26.86 25.63 26.95 25.32 27.02 C 25.01 27.09 24.69 27.12 24.37 27.12 C 23.55 27.12 22.93 26.9 22.5 26.46 Z M 20.57 21.15 C 20.79 21.15 20.96 21.09 21.09 20.98 C 21.21 20.86 21.27 20.7 21.27 20.49 C 21.27 20.28 21.21 20.11 21.09 20 C 20.96 19.88 20.79 19.82 20.57 19.82 C 20.39 19.81 20.21 19.87 20.07 20 C 19.94 20.11 19.88 20.28 19.88 20.49 C 19.88 20.7 19.94 20.86 20.07 20.98 C 20.21 21.1 20.39 21.16 20.57 21.15 Z M 20 26.98 L 21.16 26.98 L 21.16 21.98 L 20 21.98 Z M 19.21 26.04 L 15.78 26.04 L 17.63 24.25 C 18.08 23.77 18.4 23.34 18.6 22.97 C 18.81 22.59 18.91 22.22 18.91 21.85 C 18.92 21.51 18.83 21.16 18.65 20.87 C 18.47 20.59 18.24 20.38 17.93 20.24 C 17.62 20.09 17.27 20.01 16.85 20.01 C 16.1 20.01 15.41 20.27 14.78 20.78 L 14.78 21.74 C 15.12 21.51 15.46 21.33 15.79 21.2 C 16.12 21.07 16.43 21.01 16.71 21.01 C 17.03 21.01 17.28 21.09 17.45 21.26 C 17.63 21.42 17.72 21.66 17.72 21.96 C 17.72 22.21 17.64 22.49 17.47 22.79 C 17.31 23.09 17.02 23.49 16.59 23.98 L 14.6 26.09 L 14.6 26.98 L 19.21 26.98 Z M 8.51 26.98 L 10.79 23.45 L 8.67 20.17 L 9.86 20.17 L 11.48 22.59 L 13.07 20.17 L 14.26 20.17 L 12.13 23.43 L 14.42 26.98 L 13.22 26.98 L 11.43 24.29 L 9.71 26.98 Z" fill="#ed7100" stroke="none" pointer-events="all"/></g></svg>