<?xml version="1.0" encoding="UTF-8"?>
<!-- Do not edit this file with editors other than draw.io -->
<!DOCTYPE svg PUBLIC "-//W3C//DTD SVG 1.1//EN" "http://www.w3.org/Graphics/SVG/1.1/DTD/svg11.dtd">
<svg xmlns="http://www.w3.org/2000/svg" xmlns:xlink="http://www.w3.org/1999/xlink" version="1.1" width="49px" height="49px" viewBox="-0.5 -0.5 49 49" content="&lt;mxfile host=&quot;app.diagrams.net&quot; modified=&quot;2023-11-13T09:50:51.136Z&quot; agent=&quot;Mozilla/5.0 (Windows NT 10.0; Win64; x64) AppleWebKit/537.36 (KHTML, like Gecko) Chrome/119.0.0.0 Safari/537.36&quot; etag=&quot;b6wnsxZKxf2rnW7SVSMy&quot; version=&quot;22.1.0&quot; type=&quot;device&quot;&gt;&#10;  &lt;diagram name=&quot;페이지-1&quot; id=&quot;AW3kfpiaLIK3EqUbXKlc&quot;&gt;&#10;    &lt;mxGraphModel dx=&quot;292&quot; dy=&quot;157&quot; grid=&quot;1&quot; gridSize=&quot;10&quot; guides=&quot;1&quot; tooltips=&quot;1&quot; connect=&quot;1&quot; arrows=&quot;1&quot; fold=&quot;1&quot; page=&quot;1&quot; pageScale=&quot;1&quot; pageWidth=&quot;827&quot; pageHeight=&quot;1169&quot; math=&quot;0&quot; shadow=&quot;0&quot;&gt;&#10;      &lt;root&gt;&#10;        &lt;mxCell id=&quot;0&quot; /&gt;&#10;        &lt;mxCell id=&quot;1&quot; parent=&quot;0&quot; /&gt;&#10;        &lt;mxCell id=&quot;_niekT0tynacapAUr5bP-92&quot; value=&quot;&quot; style=&quot;sketch=0;outlineConnect=0;fontColor=#232F3E;gradientColor=none;fillColor=#ED7100;strokeColor=none;dashed=0;verticalLabelPosition=bottom;verticalAlign=top;align=center;html=1;fontSize=12;fontStyle=0;aspect=fixed;pointerEvents=1;shape=mxgraph.aws4.ec2_x2iezn_instance;&quot; vertex=&quot;1&quot; parent=&quot;1&quot;&gt;&#10;          &lt;mxGeometry x=&quot;470&quot; y=&quot;150&quot; width=&quot;48&quot; height=&quot;48&quot; as=&quot;geometry&quot; /&gt;&#10;        &lt;/mxCell&gt;&#10;      &lt;/root&gt;&#10;    &lt;/mxGraphModel&gt;&#10;  &lt;/diagram&gt;&#10;&lt;/mxfile&gt;&#10;"><defs/><g><rect x="-1" y="0" width="48" height="48" fill="none" stroke="none" pointer-events="all"/><path d="M 6.64 40.36 L 39.36 40.36 L 39.36 7.64 L 6.64 7.64 Z M 41.55 12 L 41.55 16.36 L 47 16.36 L 47 18.55 L 41.55 18.55 L 41.55 22.91 L 47 22.91 L 47 25.09 L 41.55 25.09 L 41.55 29.45 L 47 29.45 L 47 31.64 L 41.55 31.64 L 41.55 36 L 47 36 L 47 38.18 L 41.55 38.18 L 41.55 41.45 C 41.55 42.06 41.06 42.55 40.45 42.55 L 37.18 42.55 L 37.18 48 L 35 48 L 35 42.55 L 30.64 42.55 L 30.64 48 L 28.45 48 L 28.45 42.55 L 24.09 42.55 L 24.09 48 L 21.91 48 L 21.91 42.55 L 17.55 42.55 L 17.55 48 L 15.36 48 L 15.36 42.55 L 11 42.55 L 11 48 L 8.82 48 L 8.82 42.55 L 5.55 42.55 C 4.94 42.55 4.45 42.06 4.45 41.45 L 4.45 38.18 L -1 38.18 L -1 36 L 4.45 36 L 4.45 31.64 L -1 31.64 L -1 29.45 L 4.45 29.45 L 4.45 25.09 L -1 25.09 L -1 22.91 L 4.45 22.91 L 4.45 18.55 L -1 18.55 L -1 16.36 L 4.45 16.36 L 4.45 12 L -1 12 L -1 9.82 L 4.45 9.82 L 4.45 6.55 C 4.45 5.94 4.94 5.45 5.55 5.45 L 8.82 5.45 L 8.82 0 L 11 0 L 11 5.45 L 15.36 5.45 L 15.36 0 L 17.55 0 L 17.55 5.45 L 21.91 5.45 L 21.91 0 L 24.09 0 L 24.09 5.45 L 28.45 5.45 L 28.45 0 L 30.64 0 L 30.64 5.45 L 35 5.45 L 35 0 L 37.18 0 L 37.18 5.45 L 40.45 5.45 C 41.06 5.45 41.55 5.94 41.55 6.55 L 41.55 9.82 L 47 9.82 L 47 12 Z M 33.32 23.18 C 33.77 22.89 34.22 22.75 34.65 22.75 C 34.94 22.75 35.15 22.82 35.28 22.97 C 35.41 23.12 35.47 23.35 35.47 23.67 L 35.47 26.98 L 36.63 26.98 L 36.63 23.31 C 36.63 22.83 36.51 22.46 36.26 22.21 C 36.01 21.96 35.65 21.83 35.17 21.83 C 34.5 21.83 33.86 22.06 33.25 22.53 L 33.13 21.98 L 32.16 21.98 L 32.16 26.98 L 33.32 26.98 Z M 31.42 26.09 L 28.6 26.09 L 31.39 22.83 L 31.39 21.98 L 27.45 21.98 L 27.45 22.86 L 30.14 22.86 L 27.35 26.12 L 27.35 26.98 L 31.42 26.98 Z M 23.71 23.98 L 25.86 23.98 L 25.86 23.9 C 25.86 23.5 25.78 23.2 25.61 22.99 C 25.45 22.78 25.21 22.68 24.89 22.68 C 24.56 22.68 24.29 22.79 24.07 23.03 C 23.86 23.27 23.74 23.58 23.71 23.98 Z M 23.17 26.46 C 22.75 26.01 22.53 25.36 22.53 24.51 C 22.53 23.67 22.74 23.01 23.16 22.54 C 23.57 22.07 24.15 21.83 24.9 21.83 C 25.54 21.83 26.03 22.01 26.38 22.36 C 26.72 22.71 26.89 23.2 26.89 23.85 C 26.89 24.19 26.86 24.49 26.81 24.76 L 23.71 24.76 C 23.73 25.26 23.87 25.62 24.11 25.85 C 24.36 26.09 24.75 26.2 25.27 26.2 C 25.79 26.19 26.3 26.1 26.79 25.93 L 26.79 26.74 C 26.56 26.86 26.3 26.95 25.99 27.02 C 25.68 27.09 25.37 27.13 25.05 27.12 C 24.22 27.12 23.6 26.9 23.17 26.46 Z M 21.05 21.15 C 21.27 21.15 21.44 21.1 21.56 20.98 C 21.69 20.86 21.75 20.7 21.75 20.49 C 21.75 20.28 21.69 20.11 21.56 20 C 21.44 19.88 21.27 19.82 21.05 19.82 C 20.86 19.81 20.68 19.87 20.54 20 C 20.42 20.11 20.35 20.28 20.35 20.49 C 20.35 20.7 20.42 20.86 20.54 20.98 C 20.68 21.1 20.86 21.17 21.05 21.15 Z M 20.47 26.98 L 21.63 26.98 L 21.63 21.98 L 20.47 21.98 Z M 19.49 26.04 L 16.06 26.04 L 17.91 24.25 C 18.36 23.77 18.68 23.34 18.88 22.97 C 19.08 22.63 19.18 22.24 19.19 21.85 C 19.19 21.47 19.1 21.15 18.93 20.87 C 18.75 20.6 18.52 20.38 18.21 20.24 C 17.9 20.09 17.54 20.02 17.13 20.02 C 16.38 20.02 15.69 20.27 15.06 20.78 L 15.06 21.74 C 15.4 21.51 15.74 21.33 16.07 21.2 C 16.4 21.07 16.7 21.01 16.99 21.01 C 17.31 21.01 17.56 21.09 17.73 21.26 C 17.91 21.42 18 21.66 18 21.96 C 18 22.22 17.92 22.49 17.75 22.79 C 17.59 23.1 17.29 23.49 16.87 23.98 L 14.88 26.09 L 14.88 26.98 L 19.49 26.98 Z M 8.59 26.98 L 10.87 23.45 L 8.75 20.17 L 9.95 20.17 L 11.57 22.59 L 13.15 20.17 L 14.35 20.17 L 12.22 23.43 L 14.5 26.98 L 13.31 26.98 L 11.52 24.29 L 9.79 26.98 Z" fill="#ed7100" stroke="none" pointer-events="all"/></g></svg>